<?xml version="1.0" encoding="utf-8"?>
<svg viewBox="0 0 500 500" xmlns="http://www.w3.org/2000/svg" xmlns:bx="https://boxy-svg.com">
  <g>
    <g>
      <path d="M 318.027 352.491 L 328.616 375.389 L 346.067 357.17 L 348.648 382.266 L 371.069 370.7 L 365.361 395.274 L 390.322 391.615 L 376.944 413.005 L 401.741 417.649 L 382.143 433.535 L 404.089 445.979 L 380.394 454.642 L 397.11 473.537 L 371.887 474.036 L 381.562 497.336 L 357.543 489.618 L 359.128 514.797 L 338.917 499.698 L 332.241 524.027 L 318.027 503.184 L 303.813 524.027 L 297.137 499.698 L 276.926 514.797 L 278.511 489.618 L 254.492 497.336 L 264.167 474.036 L 238.944 473.537 L 255.66 454.642 L 231.965 445.979 L 253.911 433.535 L 234.313 417.649 L 259.11 413.005 L 245.732 391.615 L 270.693 395.274 L 264.985 370.7 L 287.406 382.266 L 289.987 357.17 L 307.438 375.389 Z" style="fill: rgb(255, 221, 0);" transform="matrix(-0.809017, 0.587785, -0.587785, -0.809017, 647.091502, 297.452416)" bx:shape="star 318.027 438.848 86.357 86.357 0.745 19 1@3423f2b6"/>
    </g>
    <circle style="fill: rgb(255, 234, 0);" cx="132.891" cy="129.567" r="55.108"/>
  </g>
  <path d="M 101.749 454.098 C 65.502 454.098 35.604 434.137 31.319 408.364 C 16.155 402.066 6.477 392.498 6.477 381.781 C 6.477 366.076 27.263 352.832 55.641 348.746 C 51.958 344.824 49.888 340.406 49.888 335.731 C 49.888 325.435 59.933 316.377 75.131 311.143 C 72.499 309.645 70.133 307.403 68.159 304.597 C 63.431 306.147 58.375 306.986 53.122 306.986 C 26.74 306.986 5.352 285.814 5.352 259.698 C 5.352 242.968 14.129 228.266 27.375 219.86 C 25.126 216.134 23.894 212.088 23.894 207.859 C 23.894 196.249 33.181 186.02 47.288 180.01 C 43.035 176.112 40.634 171.688 40.634 167 C 40.634 156.022 53.799 146.499 73.068 141.772 C 58.211 138.982 47.446 130.754 47.446 121.038 C 47.446 109.052 63.827 99.331 84.061 99.29 C 78.525 94.58 75.287 88.888 75.287 82.758 C 75.287 66.539 97.939 53.39 125.883 53.39 C 127.702 53.39 129.498 53.447 131.266 53.555 C 131.853 41.445 162.256 31.688 199.673 31.688 C 236.044 31.688 265.785 40.907 267.961 52.543 C 282.911 53.797 296.148 57.982 305.748 64.015 C 308.165 63.975 310.606 63.955 313.068 63.955 C 368.648 63.955 413.704 74.287 413.704 87.033 C 413.704 90.403 410.555 93.604 404.894 96.489 C 427.088 98.253 444.103 104.767 446.7 112.803 C 463.05 118.18 474.352 129.703 474.352 143.05 C 474.352 145.057 474.097 147.022 473.607 148.932 C 478.604 154.741 481.47 161.511 481.47 168.736 C 481.47 173.424 480.264 177.92 478.052 182.085 C 489.086 184.795 496.197 189.053 496.197 193.843 C 496.197 202.026 475.432 208.662 449.816 208.662 C 446.561 208.662 443.384 208.555 440.318 208.35 C 440.523 209.129 440.631 209.938 440.631 210.766 C 440.631 214.009 438.977 216.933 436.325 218.996 C 439.718 223.953 441.626 229.541 441.626 235.455 C 441.626 241.988 439.296 248.125 435.209 253.452 C 440.682 254.229 444.909 257.612 445.455 261.795 C 466.106 263.902 481.779 274.194 481.779 286.572 C 481.779 296.334 472.032 304.796 457.785 308.973 C 463.082 309.343 467.274 314.045 467.274 319.792 C 467.274 321.097 467.059 322.345 466.662 323.503 C 476.14 330.021 481.936 338.763 481.936 348.37 C 481.936 363.774 467.035 376.951 445.954 382.317 C 463.109 385.798 474.28 391.474 474.28 397.886 C 474.28 408.474 443.826 417.057 406.259 417.057 C 379.737 417.057 356.76 412.779 345.542 406.537 C 344.119 406.836 342.678 407.112 341.216 407.361 C 332.54 418.913 310.611 427.114 284.929 427.114 C 278.637 427.114 272.57 426.622 266.868 425.707 C 257.28 439.608 228.577 449.699 194.658 449.699 C 176.624 449.699 160.064 446.846 147.068 442.084 C 134.776 449.587 118.98 454.098 101.749 454.098 Z M 449.367 310.843 C 449.022 312.258 448.555 313.634 447.974 314.966 C 447.983 314.968 447.99 314.972 447.998 314.973 C 448.9 313.037 450.328 311.429 452.084 310.363 C 451.192 310.538 450.286 310.699 449.367 310.843 Z M 237.612 210.015 C 237.683 209.271 237.786 208.534 237.923 207.804 C 237.292 208.399 236.635 208.986 235.956 209.563 C 236.512 209.708 237.064 209.858 237.612 210.015 Z M 382.966 289.366 C 383.257 288.976 383.56 288.59 383.874 288.21 C 382.793 288.288 381.7 288.353 380.595 288.402 C 381.402 288.71 382.192 289.031 382.966 289.366 Z M 391.185 379.188 C 392.07 379.132 392.961 379.08 393.859 379.034 C 393.153 378.741 392.46 378.439 391.776 378.126 C 391.586 378.482 391.389 378.836 391.185 379.188 Z" style="fill: rgba(211, 211, 211, 0.43);"/>
</svg>