<?xml version="1.0" encoding="utf-8"?>
<svg viewBox="0 0 500 500" xmlns="http://www.w3.org/2000/svg" xmlns:bx="https://boxy-svg.com">
  <g transform="matrix(1, 0, 0, 1, -28.847549, -120.175171)">
    <path d="M 318.027 352.491 L 328.616 375.389 L 346.067 357.17 L 348.648 382.266 L 371.069 370.7 L 365.361 395.274 L 390.322 391.615 L 376.944 413.005 L 401.741 417.649 L 382.143 433.535 L 404.089 445.979 L 380.394 454.642 L 397.11 473.537 L 371.887 474.036 L 381.562 497.336 L 357.543 489.618 L 359.128 514.797 L 338.917 499.698 L 332.241 524.027 L 318.027 503.184 L 303.813 524.027 L 297.137 499.698 L 276.926 514.797 L 278.511 489.618 L 254.492 497.336 L 264.167 474.036 L 238.944 473.537 L 255.66 454.642 L 231.965 445.979 L 253.911 433.535 L 234.313 417.649 L 259.11 413.005 L 245.732 391.615 L 270.693 395.274 L 264.985 370.7 L 287.406 382.266 L 289.987 357.17 L 307.438 375.389 Z" style="fill: rgb(255, 153, 0);" transform="matrix(-0.809017, 0.587785, -0.587785, -0.809017, 675.938914, 417.627526)" bx:shape="star 318.027 438.848 86.357 86.357 0.745 19 1@3423f2b6"/>
    <circle style="fill: rgb(237, 123, 0);" cx="161.739" cy="249.742" r="55.108"/>
  </g>
  <g transform="matrix(1, 0, 0, 1.288911, -17.166845, -58.572632)" style="">
    <rect x="178.072" y="337.463" width="51.854" height="66.046" style="fill: rgb(215, 205, 191);"/>
    <rect x="228.822" y="195.261" width="22.914" height="208.656" style="fill: rgb(215, 205, 191);"/>
    <path d="M 267.06 240.281 L 317.709 240.281 L 317.709 253.741 L 305.257 253.741 L 305.257 382.537 L 279.116 382.537 L 279.116 253.741 L 267.06 253.741 Z" style="fill: rgb(215, 205, 191);"/>
    <rect x="251.551" y="331.687" width="68.209" height="71.94" style="fill: rgb(215, 205, 191);"/>
    <rect x="319.437" y="295.876" width="38.332" height="107.754" style="fill: rgb(215, 205, 191);"/>
    <rect x="356.889" y="215.192" width="47.998" height="188.867" style="fill: rgb(215, 205, 191);"/>
    <rect x="81.774" y="317.566" width="48.964" height="86.064" style="fill: rgb(215, 205, 191);"/>
    <path d="M 153.711 243.331 L 176.023 281.991 L 178.072 281.991 L 178.072 403.264 L 130.309 403.264 L 130.309 281.991 L 131.382 281.991 Z" style="fill: rgb(215, 205, 191);"/>
    <rect x="404.684" y="354.123" width="47.998" height="50.507" style="fill: rgb(215, 205, 191);"/>
  </g>
  <path d="M 101.749 351.827 C 65.502 351.827 35.604 336.699 31.319 317.166 C 16.155 312.393 6.477 305.141 6.477 297.019 C 6.477 285.116 27.263 275.079 55.641 271.982 C 51.958 269.01 49.888 265.661 49.888 262.118 C 49.888 254.315 59.933 247.45 75.131 243.483 C 72.499 242.348 70.133 240.649 68.159 238.522 C 63.431 239.697 58.375 240.333 53.122 240.333 C 26.74 240.333 5.352 224.287 5.352 204.494 C 5.352 191.814 14.129 180.672 27.375 174.301 C 25.126 171.477 23.894 168.411 23.894 165.206 C 23.894 156.407 33.181 148.654 47.288 144.099 C 43.035 141.145 40.634 137.792 40.634 134.239 C 40.634 125.919 53.799 118.702 73.068 115.119 C 58.211 113.005 47.446 106.769 47.446 99.405 C 47.446 90.321 63.827 82.954 84.061 82.923 C 78.525 79.353 75.287 75.039 75.287 70.393 C 75.287 58.101 97.939 48.136 125.883 48.136 C 127.702 48.136 129.498 48.179 131.266 48.261 C 131.853 39.083 162.256 31.688 199.673 31.688 C 236.044 31.688 265.785 38.675 267.961 47.494 C 282.911 48.444 296.148 51.616 305.748 56.188 C 308.165 56.158 310.606 56.143 313.068 56.143 C 368.648 56.143 413.704 63.973 413.704 73.633 C 413.704 76.187 410.555 78.613 404.894 80.8 C 427.088 82.137 444.103 87.074 446.7 93.164 C 463.05 97.239 474.352 105.972 474.352 116.088 C 474.352 117.609 474.097 119.098 473.607 120.546 C 478.604 124.948 481.47 130.079 481.47 135.555 C 481.47 139.108 480.264 142.515 478.052 145.672 C 489.086 147.726 496.197 150.953 496.197 154.583 C 496.197 160.785 475.432 165.814 449.816 165.814 C 446.561 165.814 443.384 165.733 440.318 165.578 C 440.523 166.168 440.631 166.781 440.631 167.409 C 440.631 169.867 438.977 172.083 436.325 173.646 C 439.718 177.403 441.626 181.638 441.626 186.12 C 441.626 191.072 439.296 195.723 435.209 199.76 C 440.682 200.349 444.909 202.913 445.455 206.083 C 466.106 207.68 481.779 215.48 481.779 224.861 C 481.779 232.26 472.032 238.673 457.785 241.839 C 463.082 242.119 467.274 245.683 467.274 250.038 C 467.274 251.027 467.059 251.973 466.662 252.851 C 476.14 257.791 481.936 264.416 481.936 271.697 C 481.936 283.372 467.035 293.358 445.954 297.425 C 463.109 300.063 474.28 304.365 474.28 309.225 C 474.28 317.249 443.826 323.754 406.259 323.754 C 379.737 323.754 356.76 320.512 345.542 315.781 C 344.119 316.008 342.678 316.217 341.216 316.406 C 332.54 325.161 310.611 331.376 284.929 331.376 C 278.637 331.376 272.57 331.003 266.868 330.31 C 257.28 340.845 228.577 348.493 194.658 348.493 C 176.624 348.493 160.064 346.331 147.068 342.722 C 134.776 348.408 118.98 351.827 101.749 351.827 Z M 449.367 243.256 C 449.022 244.328 448.555 245.371 447.974 246.381 C 447.983 246.382 447.99 246.385 447.998 246.386 C 448.9 244.919 450.328 243.7 452.084 242.892 C 451.192 243.025 450.286 243.147 449.367 243.256 Z M 237.612 166.84 C 237.683 166.276 237.786 165.717 237.923 165.164 C 237.292 165.615 236.635 166.06 235.956 166.497 C 236.512 166.607 237.064 166.721 237.612 166.84 Z M 382.966 226.979 C 383.257 226.683 383.56 226.391 383.874 226.103 C 382.793 226.162 381.7 226.211 380.595 226.248 C 381.402 226.482 382.192 226.725 382.966 226.979 Z M 391.185 295.054 C 392.07 295.011 392.961 294.972 393.859 294.937 C 393.153 294.715 392.46 294.486 391.776 294.249 C 391.586 294.519 391.389 294.787 391.185 295.054 Z" style="fill: rgba(211, 211, 211, 0.43);"/>
</svg>