<?xml version="1.0" encoding="utf-8"?>
<svg viewBox="0 0 500 500" xmlns="http://www.w3.org/2000/svg">
  <g transform="matrix(0.462587, 0, 0, 0.462587, -11.393847, 0.846794)" style="">
    <circle style="fill: rgba(216, 216, 216, 0.11);" cx="241.168" cy="212.251" r="126.267" transform="matrix(0.927184, -0.374607, 0.374607, 0.927184, -53.117591, 143.547574)"/>
    <path d="M 253.869 396.171 C 184.134 396.171 127.602 339.639 127.602 269.904 C 127.602 200.169 184.134 143.637 253.869 143.637 C 260.675 143.637 267.355 144.175 273.869 145.212 C 213.638 154.797 167.602 206.975 167.602 269.904 C 167.602 332.833 213.638 385.011 273.869 394.596 C 267.355 395.633 260.675 396.171 253.869 396.171 Z" style="fill: rgb(251, 246, 217);" transform="matrix(0.927184, -0.374607, 0.374607, 0.927184, -86.491088, 94.850305)"/>
  </g>
  <path d="M 379.09 361.094 C 374.842 365.342 376.607 381.265 379.24 386.448 C 381.671 391.238 380.582 405.025 385.052 401.911 C 387.516 400.192 393.09 402.381 396.44 404.501 C 397.541 405.198 402.5 410.297 401.197 410.311 C 383.647 410.509 375.151 409.254 358.479 411.915 C 356.908 412.165 347.033 414.033 345.738 412.562 C 345.701 412.52 352.469 409.974 353.252 409.457 C 356.417 407.372 363.56 401.728 365.21 398.427 C 371.466 385.915 371.789 371.182 371.789 356.574 L 372.977 356.023 C 372.476 355.787 372.1 355.522 371.883 355.228 C 349.673 360.154 327.189 355.214 309.961 340.798 C 305.835 337.345 297.641 334.498 295.249 329.794 C 293.451 326.254 297.047 319.975 295.249 316.433 C 293.36 312.713 286.435 312.685 284.062 308.788 C 278.51 299.666 284.1 280.069 289.977 272.223 C 305.828 251.063 338.039 251.524 361.168 247.353 C 375.735 244.723 395.521 234.317 410.696 240.732 C 436.387 251.592 451.981 267.634 461.908 294.256 C 464.463 301.108 470.142 314.263 466.324 321.868 C 460.348 333.768 447.719 341.095 434.297 341.095 C 430.374 341.095 424.216 337.011 420.345 338.947 C 412.305 342.968 403.802 354.646 395.654 357.168 C 393.938 357.701 386.204 357.991 379.974 357.432 C 379.752 359.151 379.46 360.724 379.09 361.094 Z" style="fill: rgb(144, 160, 105);"/>
  <path d="M 98.351 363.482 C 95.268 360.158 89.944 357.083 86.432 355.677 C 74.113 350.754 63.57 355.415 52.123 349.672 C 41.903 344.547 27.315 333.982 24.74 321.712 C 20.54 301.699 24.579 288.425 30.609 270.337 C 32.094 265.881 31.537 259.965 33.954 255.819 C 36.979 250.634 44.518 250.05 47.271 243.61 C 49.349 238.751 49.072 232.371 51.685 227.802 C 62.435 209.013 84.527 201.487 101.86 191.661 C 107.76 188.314 108.675 180.704 114.698 177.69 C 122.708 173.685 132.561 176.975 140.804 173.894 C 147.091 171.543 150.028 165.345 157.16 164.09 C 168.875 162.027 181.608 165.336 193.46 164.09 C 202.372 163.154 209.236 159.621 219.146 160.67 C 230.127 161.832 240.803 167.231 251.144 170.827 C 259.363 173.682 269.067 174.184 276.832 178.082 C 301.123 190.28 336.44 205.231 341.365 234.904 C 342.581 242.239 337.988 237.535 336.91 241.487 C 335.104 248.113 337.391 255.207 339.833 261.285 C 346.296 277.359 366.351 306.468 354.563 325.93 C 351.735 330.599 343.71 337.237 339.403 340.86 C 333.679 345.677 316.823 350.932 308.735 351.694 C 304.018 352.138 294.435 348.325 290.464 350.372 C 279.082 356.239 265.469 355.39 250.886 355.39 C 243.956 355.39 235.511 350.366 228.58 352.536 C 226.779 353.099 226.969 361.802 226.223 363.677 C 225.69 365.022 213.299 375.84 211.869 376.441 C 205.292 379.213 195.907 374.526 189.928 377.422 C 186.698 378.988 180.993 379.479 175.022 379.575 C 175.004 383.024 175.189 386.212 175.907 388.083 C 181.975 403.875 176.209 425.571 184.104 441.174 C 191.299 455.389 204.002 458.686 214.254 466.516 C 217.263 468.812 219.929 470.836 223.27 471.274 C 198.735 470.696 173.76 467.449 148.915 467.449 C 143.558 467.449 122.123 469.809 128.112 469.809 C 129.782 469.809 124.347 472.719 123.208 471.121 C 122.863 470.638 131.918 463.718 132.82 463.128 C 138.846 459.175 144.968 449.648 148.355 442.076 C 156.202 424.533 155.594 400.457 156.256 379.553 C 138.958 368.036 110.131 376.182 98.351 363.482 Z M 230.402 471.358 C 232.333 471.358 226.542 471.358 224.611 471.358 C 224.152 471.358 223.704 471.33 223.27 471.274 C 225.652 471.328 228.029 471.358 230.402 471.358 Z" style="fill: rgb(92, 102, 66);"/>
  <path d="M 166.558 277.582 C 84.986 277.582 18.859 247.063 18.859 209.415 C 18.859 171.767 84.986 141.248 166.558 141.248 C 178.876 141.248 190.843 141.944 202.282 143.255 C 213.958 128.809 250.835 118.258 294.52 118.258 C 341.724 118.258 380.979 130.578 389.08 146.819 C 395.215 146.291 401.66 146.01 408.307 146.01 C 449.634 146.01 483.136 156.883 483.136 170.296 C 483.136 179.549 467.194 187.592 443.739 191.692 C 456.329 199.215 463.738 208.428 463.738 218.381 C 463.738 243.748 415.61 264.312 356.242 264.312 C 351.066 264.312 345.976 264.156 340.996 263.854 C 339.648 272.907 316.226 280.115 287.53 280.115 C 264.779 280.115 245.343 275.584 237.595 269.195 C 216.517 274.541 192.307 277.582 166.558 277.582 Z" style="fill: rgba(217, 212, 212, 0.69);"/>
  <path d="M 139.907 422.292 C 69.614 422.292 12.63 418.437 12.63 413.681 C 12.63 409.066 66.277 405.3 133.676 405.08 C 123.313 402.29 117.248 398.913 117.248 395.273 C 117.248 385.691 159.285 377.923 211.141 377.923 C 261.483 377.923 302.571 385.244 304.927 394.438 C 322.233 392.465 352.695 391.156 387.385 391.156 C 441.282 391.156 484.974 394.317 484.974 398.216 C 484.974 400.892 464.397 403.22 434.066 404.417 C 443.561 405.734 449.75 407.888 449.75 410.323 C 449.75 414.33 432.985 417.579 412.305 417.579 C 410.095 417.579 407.93 417.542 405.826 417.471 C 396.171 424.528 357.165 429.808 310.515 429.808 C 270.4 429.808 235.937 425.904 220.93 420.322 C 198.92 421.553 170.69 422.292 139.907 422.292 Z" style="fill: rgba(217, 212, 212, 0.69);"/>
  <path d="M 109.47 355.066 C 83.483 355.066 62.416 344.606 62.416 331.702 C 62.416 331.594 62.417 331.486 62.42 331.379 C 62.2 331.38 61.978 331.381 61.757 331.381 C 32.486 331.381 8.757 319.504 8.757 304.853 C 8.757 290.202 32.486 278.325 61.757 278.325 C 75.695 278.325 88.376 281.018 97.837 285.421 C 106.809 280.918 120.229 278.058 135.225 278.058 C 162.237 278.058 184.135 287.337 184.135 298.784 C 184.135 301.433 182.963 303.965 180.826 306.294 C 182.014 306.258 183.213 306.24 184.422 306.24 C 213.828 306.24 237.667 316.918 237.667 330.089 C 237.667 343.26 213.828 353.938 184.422 353.938 C 169.24 353.938 155.542 351.092 145.842 346.526 C 137.213 351.74 124.123 355.066 109.47 355.066 Z" style="fill: rgba(217, 212, 212, 0.69);"/>
  <path d="M 267.311 324.604 C 267.311 310.138 283.59 298.411 303.672 298.411 C 307.656 298.411 311.491 298.873 315.078 299.726 C 320.813 289.593 338.06 282.234 358.446 282.234 C 367.239 282.234 375.447 283.603 382.4 285.973 C 386.636 276.422 404.124 269.265 425.054 269.265 C 449.152 269.265 468.687 278.753 468.687 290.458 C 468.687 293.371 467.477 296.146 465.289 298.672 C 476.982 302.496 484.966 310.177 484.966 319.029 C 484.966 331.697 468.613 341.967 448.441 341.967 C 448.103 341.967 447.766 341.964 447.43 341.958 C 443.645 356.598 425.055 367.713 402.693 367.713 C 390.266 367.713 379.003 364.28 370.8 358.718 C 363.22 365.915 350.282 370.656 335.594 370.656 C 315.529 370.656 298.728 361.807 294.396 349.937 C 278.807 346.983 267.311 336.761 267.311 324.604 Z" style="fill: rgba(217, 212, 212, 0.69);"/>
</svg>