<?xml version="1.0" encoding="utf-8"?>
<svg viewBox="0 0 500 500" xmlns="http://www.w3.org/2000/svg">
  <path d="M 167.684 150.218 L 181.828 141.604 L 176.468 124.077 L 195.949 128.574 L 205.09 111.847 L 214.847 127.868 L 232.084 121.932 L 228.322 141.295 L 242.552 149.962 L 229.225 157.244 L 234.345 176.357 L 215.068 171.191 L 206.455 186.951 L 197.76 172.674 L 178.622 178.161 L 183.443 158.831 Z" style="fill: rgb(248, 248, 248);"/>
  <path d="M 46.847 61.848 L 58.454 54.779 L 54.056 40.396 L 70.042 44.086 L 77.544 30.359 L 85.551 43.507 L 99.696 38.635 L 96.608 54.525 L 108.286 61.638 L 97.35 67.614 L 101.551 83.298 L 85.732 79.059 L 78.664 91.992 L 71.528 80.276 L 55.823 84.778 L 59.78 68.916 Z" style="fill: rgb(248, 248, 248);"/>
  <path d="M 12.034 254.704 L 23.641 247.635 L 19.243 233.252 L 35.229 236.942 L 42.731 223.215 L 50.738 236.363 L 64.883 231.491 L 61.795 247.381 L 73.473 254.494 L 62.537 260.47 L 66.738 276.154 L 50.919 271.915 L 43.851 284.848 L 36.715 273.132 L 21.01 277.634 L 24.967 261.772 Z" style="fill: rgb(248, 248, 248);"/>
  <path d="M 61.978 390.055 L 73.585 382.986 L 69.187 368.603 L 85.173 372.293 L 92.675 358.566 L 100.682 371.714 L 114.827 366.842 L 111.739 382.732 L 123.417 389.845 L 112.481 395.821 L 116.682 411.505 L 100.863 407.266 L 93.795 420.199 L 86.659 408.483 L 70.954 412.985 L 74.911 397.123 Z" style="fill: rgb(248, 248, 248);"/>
  <path d="M 204.284 454.997 L 215.891 447.928 L 211.493 433.545 L 227.479 437.235 L 234.981 423.508 L 242.988 436.656 L 257.133 431.784 L 254.045 447.674 L 265.723 454.787 L 254.787 460.763 L 258.988 476.447 L 243.169 472.208 L 236.101 485.141 L 228.965 473.425 L 213.26 477.927 L 217.217 462.065 Z" style="fill: rgb(248, 248, 248);"/>
  <path d="M 387.479 403.136 L 399.086 396.067 L 394.688 381.684 L 410.674 385.374 L 418.176 371.647 L 426.183 384.795 L 440.328 379.923 L 437.24 395.813 L 448.918 402.926 L 437.982 408.902 L 442.183 424.586 L 426.364 420.347 L 419.296 433.28 L 412.16 421.564 L 396.455 426.066 L 400.412 410.204 Z" style="fill: rgb(248, 248, 248);"/>
  <path d="M 417.316 186.884 L 428.923 179.815 L 424.525 165.432 L 440.511 169.122 L 448.013 155.395 L 456.02 168.543 L 470.165 163.671 L 467.077 179.561 L 478.755 186.674 L 467.819 192.65 L 472.02 208.334 L 456.201 204.095 L 449.133 217.028 L 441.997 205.312 L 426.292 209.814 L 430.249 193.952 Z" style="fill: rgb(248, 248, 248);"/>
  <path d="M 331.73 52.062 L 343.337 44.993 L 338.939 30.61 L 354.925 34.3 L 362.427 20.573 L 370.434 33.721 L 384.579 28.849 L 381.491 44.739 L 393.169 51.852 L 382.233 57.828 L 386.434 73.512 L 370.615 69.273 L 363.547 82.206 L 356.411 70.49 L 340.706 74.992 L 344.663 59.13 Z" style="fill: rgb(248, 248, 248);"/>
  <path d="M 248.127 289.184 L 261.458 281.065 L 256.406 264.547 L 274.766 268.785 L 283.382 253.02 L 292.578 268.12 L 308.823 262.525 L 305.277 280.774 L 318.689 288.942 L 306.129 295.806 L 310.954 313.82 L 292.786 308.95 L 284.668 323.804 L 276.474 310.348 L 258.437 315.519 L 262.98 297.302 Z" style="fill: rgb(248, 248, 248);"/>
</svg>