<?xml version="1.0" encoding="utf-8"?>
<svg viewBox="0 0 500 500" xmlns="http://www.w3.org/2000/svg" xmlns:bx="https://boxy-svg.com">
  <g transform="matrix(0.567277, 0, 0, 0.567277, -10.351261, 0.344692)" style="opacity: 0.53;">
    <path d="M 318.027 285.809 L 336.793 326.389 L 367.719 294.101 L 372.292 338.576 L 412.025 318.079 L 401.91 361.628 L 446.146 355.144 L 422.438 393.049 L 466.383 401.279 L 431.652 429.433 L 470.543 451.486 L 428.552 466.837 L 458.176 500.323 L 413.476 501.208 L 430.621 542.498 L 388.056 528.821 L 390.866 573.442 L 355.047 546.684 L 343.216 589.8 L 318.027 552.862 L 292.838 589.8 L 281.007 546.684 L 245.188 573.442 L 247.998 528.821 L 205.433 542.498 L 222.578 501.208 L 177.878 500.323 L 207.502 466.837 L 165.511 451.486 L 204.402 429.433 L 169.671 401.279 L 213.616 393.049 L 189.908 355.144 L 234.144 361.628 L 224.029 318.079 L 263.762 338.576 L 268.335 294.101 L 299.261 326.389 Z" style="fill: rgb(255, 230, 0);" transform="matrix(-0.809017, 0.587785, -0.587785, -0.809017, 755.231211, 389.57177)" bx:shape="star 318.027 438.848 153.039 153.039 0.745 19 1@984eca1f"/>
    <circle style="fill: rgb(237, 213, 0);" cx="241.833" cy="221.856" r="97.661"/>
  </g>
  <path d="M 382.152 371.117 C 377.904 375.365 379.669 391.288 382.302 396.471 C 384.733 401.261 383.644 415.048 388.114 411.934 C 390.578 410.215 396.152 412.404 399.502 414.524 C 400.603 415.221 405.562 420.32 404.259 420.334 C 386.709 420.532 378.213 419.277 361.541 421.938 C 359.97 422.188 350.095 424.056 348.8 422.585 C 348.763 422.543 355.531 419.997 356.314 419.48 C 359.479 417.395 366.622 411.751 368.272 408.45 C 374.528 395.938 374.851 381.205 374.851 366.597 L 376.039 366.046 C 375.538 365.81 375.162 365.545 374.945 365.251 C 352.735 370.177 330.251 365.237 313.023 350.821 C 308.897 347.368 300.703 344.521 298.311 339.817 C 296.513 336.277 300.109 329.998 298.311 326.456 C 296.422 322.736 289.497 322.708 287.124 318.811 C 281.572 309.689 287.162 290.092 293.039 282.246 C 308.89 261.086 341.101 261.547 364.23 257.376 C 378.797 254.746 398.583 244.34 413.758 250.755 C 439.449 261.615 455.043 277.657 464.97 304.279 C 467.525 311.131 473.204 324.286 469.386 331.891 C 463.41 343.791 450.781 351.118 437.359 351.118 C 433.436 351.118 427.278 347.034 423.407 348.97 C 415.367 352.991 406.864 364.669 398.716 367.191 C 397 367.724 389.266 368.014 383.036 367.455 C 382.814 369.174 382.522 370.747 382.152 371.117 Z" style="fill: rgb(183, 203, 133);"/>
  <path d="M 101.413 373.505 C 98.33 370.181 93.006 367.106 89.494 365.7 C 77.175 360.777 66.632 365.438 55.185 359.695 C 44.965 354.57 30.377 344.005 27.802 331.735 C 23.602 311.722 27.641 298.448 33.671 280.36 C 35.156 275.904 34.599 269.988 37.016 265.842 C 40.041 260.657 47.58 260.073 50.333 253.633 C 52.411 248.774 52.134 242.394 54.747 237.825 C 65.497 219.036 87.589 211.51 104.922 201.684 C 110.822 198.337 111.737 190.727 117.76 187.713 C 125.77 183.708 135.623 186.998 143.866 183.917 C 150.153 181.566 153.09 175.368 160.222 174.113 C 171.937 172.05 184.67 175.359 196.522 174.113 C 205.434 173.177 212.298 169.644 222.208 170.693 C 233.189 171.855 243.865 177.254 254.206 180.85 C 262.425 183.705 272.129 184.207 279.894 188.105 C 304.185 200.303 339.502 215.254 344.427 244.927 C 345.643 252.262 341.05 247.558 339.972 251.51 C 338.166 258.136 340.453 265.23 342.895 271.308 C 349.358 287.382 369.413 316.491 357.625 335.953 C 354.797 340.622 346.772 347.26 342.465 350.883 C 336.741 355.7 319.885 360.955 311.797 361.717 C 307.08 362.161 297.497 358.348 293.526 360.395 C 282.144 366.262 268.531 365.413 253.948 365.413 C 247.018 365.413 238.573 360.389 231.642 362.559 C 229.841 363.122 230.031 371.825 229.285 373.7 C 228.752 375.045 216.361 385.863 214.931 386.464 C 208.354 389.236 198.969 384.549 192.99 387.445 C 189.76 389.011 184.055 389.502 178.084 389.598 C 178.066 393.047 178.251 396.235 178.969 398.106 C 185.037 413.898 179.271 435.594 187.166 451.197 C 194.361 465.412 207.064 468.709 217.316 476.539 C 220.325 478.835 222.991 480.859 226.332 481.297 C 201.797 480.719 176.822 477.472 151.977 477.472 C 146.62 477.472 125.185 479.832 131.174 479.832 C 132.844 479.832 127.409 482.742 126.27 481.144 C 125.925 480.661 134.98 473.741 135.882 473.151 C 141.908 469.198 148.03 459.671 151.417 452.099 C 159.264 434.556 158.656 410.48 159.318 389.576 C 142.02 378.059 113.193 386.205 101.413 373.505 Z M 233.464 481.381 C 235.395 481.381 229.604 481.381 227.673 481.381 C 227.214 481.381 226.766 481.353 226.332 481.297 C 228.714 481.351 231.091 481.381 233.464 481.381 Z" style="fill: rgb(141, 156, 102);"/>
  <line style="stroke-width: 4px; stroke-linecap: round; stroke-dasharray: 1, 14; stroke: rgb(228, 228, 228);" x1="25.697" y1="365.446" x2="237.055" y2="365.446" transform="matrix(0, 1, -1, 0, 496.822008, 234.070021)"/>
  <line style="stroke-width: 4px; stroke-linecap: round; stroke-dasharray: 1, 14; stroke: rgb(228, 228, 228);" x1="-29.083" y1="350.378" x2="209.601" y2="350.378" transform="matrix(0, 1, -1, 0, 440.636986, 260.118996)"/>
  <line style="stroke-width: 4px; stroke-linecap: round; stroke-dasharray: 1, 14; stroke: rgb(228, 228, 228);" x1="-7.579" y1="358.329" x2="229.211" y2="358.329" transform="matrix(0, 1, -1, 0, 469.145007, 247.513013)"/>
  <line style="stroke-width: 4px; stroke-linecap: round; stroke-dasharray: 1, 14; stroke: rgb(228, 228, 228);" x1="-84.334" y1="335.463" x2="182.618" y2="335.463" transform="matrix(0, 1, -1, 0, 384.605011, 286.321014)"/>
  <line style="stroke-width: 4px; stroke-linecap: round; stroke-dasharray: 1, 14; stroke: rgb(228, 228, 228);" x1="-59.232" y1="347.012" x2="198.634" y2="347.012" transform="matrix(0, 1, -1, 0, 416.712994, 277.310993)"/>
  <line style="stroke-width: 4px; stroke-linecap: round; stroke-dasharray: 1, 14; stroke: rgb(228, 228, 228);" x1="132.226" y1="369.329" x2="343.584" y2="369.329" transform="matrix(0, 1, -1, 0, 607.234016, 131.424004)"/>
  <line style="stroke-width: 4px; stroke-linecap: round; stroke-dasharray: 1, 14; stroke: rgb(228, 228, 228);" x1="91.109" y1="367.924" x2="302.467" y2="367.924" transform="matrix(0, 1, -1, 0, 564.712013, 171.136009)"/>
  <line style="stroke-width: 4px; stroke-linecap: round; stroke-dasharray: 1, 14; stroke: rgb(228, 228, 228);" x1="91.645" y1="354.907" x2="343.045" y2="354.907" transform="matrix(0, 1, -1, 0, 572.252022, 137.562004)"/>
  <line style="stroke-width: 4px; stroke-linecap: round; stroke-dasharray: 1, 14; stroke: rgb(228, 228, 228);" x1="49.992" y1="367.143" x2="261.35" y2="367.143" transform="matrix(0, 1, -1, 0, 522.814007, 211.472004)"/>
  <line style="stroke-width: 4px; stroke-linecap: round; stroke-dasharray: 1, 14; stroke: rgb(228, 228, 228);" x1="70.551" y1="374.149" x2="281.909" y2="374.149" transform="matrix(0, 1, -1, 0, 550.37899, 197.918983)"/>
  <line style="stroke-width: 4px; stroke-linecap: round; stroke-dasharray: 1, 14; stroke: rgb(228, 228, 228);" x1="237.044" y1="359.558" x2="448.402" y2="359.558" transform="matrix(0, 1, -1, 0, 702.281021, 16.835007)"/>
  <line style="stroke-width: 4px; stroke-linecap: round; stroke-dasharray: 1, 14; stroke: rgb(228, 228, 228);" x1="205.363" y1="367.589" x2="397.849" y2="367.589" transform="matrix(0, 1, -1, 0, 669.194992, 65.982986)"/>
  <line style="stroke-width: 4px; stroke-linecap: round; stroke-dasharray: 1, 14; stroke: rgb(228, 228, 228);" x1="216.483" y1="365.156" x2="427.843" y2="365.156" transform="matrix(0, 1, -1, 0, 687.319, 42.993011)"/>
  <line style="stroke-width: 4px; stroke-linecap: round; stroke-dasharray: 1, 14; stroke: rgb(228, 228, 228);" x1="164.185" y1="366.747" x2="356.793" y2="366.747" transform="matrix(0, 1, -1, 0, 627.236008, 106.258011)"/>
  <line style="stroke-width: 4px; stroke-linecap: round; stroke-dasharray: 1, 14; stroke: rgb(228, 228, 228);" x1="179.363" y1="368.372" x2="382.733" y2="368.372" transform="matrix(0, 1, -1, 0, 649.420013, 87.324005)"/>
  <line style="stroke-width: 4px; stroke-linecap: round; stroke-dasharray: 1, 14; stroke: rgb(228, 228, 228);" x1="318.472" y1="327.289" x2="576.24" y2="327.289" transform="matrix(0, 1, -1, 0, 774.644989, -120.066986)"/>
  <line style="stroke-width: 4px; stroke-linecap: round; stroke-dasharray: 1, 14; stroke: rgb(228, 228, 228);" x1="285.031" y1="333.559" x2="527.449" y2="333.559" transform="matrix(0, 1, -1, 0, 739.798981, -72.681)"/>
  <line style="stroke-width: 4px; stroke-linecap: round; stroke-dasharray: 1, 14; stroke: rgb(228, 228, 228);" x1="301.155" y1="336.131" x2="552.437" y2="336.131" transform="matrix(0, 1, -1, 0, 762.927017, -90.664993)"/>
  <line style="stroke-width: 4px; stroke-linecap: round; stroke-dasharray: 1, 14; stroke: rgb(228, 228, 228);" x1="250.948" y1="339.813" x2="479.296" y2="339.813" transform="matrix(0, 1, -1, 0, 704.934982, -25.309006)"/>
  <line style="stroke-width: 4px; stroke-linecap: round; stroke-dasharray: 1, 14; stroke: rgb(228, 228, 228);" x1="266.881" y1="342.193" x2="504.481" y2="342.193" transform="matrix(0, 1, -1, 0, 727.873993, -43.488007)"/>
  <path d="M 167.522 258.119 C 85.95 258.119 19.823 212.716 19.823 156.708 C 19.823 100.698 85.95 55.295 167.522 55.295 C 179.84 55.295 191.807 56.33 203.246 58.281 C 214.922 36.79 251.799 21.093 295.484 21.093 C 342.688 21.093 381.943 39.422 390.044 63.582 C 396.179 62.797 402.624 62.38 409.271 62.38 C 450.598 62.38 484.1 78.555 484.1 98.51 C 484.1 112.275 468.158 124.242 444.703 130.34 C 457.293 141.533 464.702 155.238 464.702 170.046 C 464.702 207.785 416.574 238.378 357.206 238.378 C 352.03 238.378 346.94 238.146 341.96 237.697 C 340.612 251.165 317.19 261.888 288.494 261.888 C 265.743 261.888 246.307 255.147 238.559 245.642 C 217.481 253.595 193.271 258.119 167.522 258.119 Z" style="fill: rgba(219, 218, 218, 0.95);"/>
</svg>