<?xml version="1.0" encoding="utf-8"?>
<svg viewBox="0 0 500 500" xmlns="http://www.w3.org/2000/svg" xmlns:bx="https://boxy-svg.com">
  <g transform="matrix(1, 0, 0, 1, 9.392952, 27.688015)">
    <path d="M 318.027 285.809 L 336.793 326.389 L 367.719 294.101 L 372.292 338.576 L 412.025 318.079 L 401.91 361.628 L 446.146 355.144 L 422.438 393.049 L 466.383 401.279 L 431.652 429.433 L 470.543 451.486 L 428.552 466.837 L 458.176 500.323 L 413.476 501.208 L 430.621 542.498 L 388.056 528.821 L 390.866 573.442 L 355.047 546.684 L 343.216 589.8 L 318.027 552.862 L 292.838 589.8 L 281.007 546.684 L 245.188 573.442 L 247.998 528.821 L 205.433 542.498 L 222.578 501.208 L 177.878 500.323 L 207.502 466.837 L 165.511 451.486 L 204.402 429.433 L 169.671 401.279 L 213.616 393.049 L 189.908 355.144 L 234.144 361.628 L 224.029 318.079 L 263.762 338.576 L 268.335 294.101 L 299.261 326.389 Z" style="fill: rgb(255, 230, 0);" transform="matrix(-0.809017, 0.587785, -0.587785, -0.809017, 755.231211, 389.57177)" bx:shape="star 318.027 438.848 153.039 153.039 0.745 19 1@984eca1f"/>
    <circle style="fill: rgb(237, 213, 0);" cx="241.833" cy="221.856" r="97.661"/>
  </g>
</svg>