<?xml version="1.0" encoding="utf-8"?>
<svg viewBox="0 0 500 500" xmlns="http://www.w3.org/2000/svg" xmlns:bx="https://boxy-svg.com">
  <line style="stroke: rgb(229, 229, 229); stroke-dasharray: 10px; stroke-linecap: round; stroke-width: 5px;" x1="183.623" y1="165.797" x2="183.623" y2="506.367" transform="matrix(0.848048, -0.529919, 0.529919, 0.848048, -150.194406, 148.373566)"/>
  <line style="stroke: rgb(229, 229, 229); stroke-dasharray: 10px; stroke-linecap: round; stroke-width: 5px;" x1="219.411" y1="177.563" x2="219.411" y2="487.07" transform="matrix(0.848048, -0.529919, 0.529919, 0.848048, -142.760954, 166.766132)"/>
  <line style="stroke: rgb(229, 229, 229); stroke-dasharray: 10px; stroke-linecap: round; stroke-width: 5px;" x1="266.748" y1="188.89" x2="266.748" y2="505.179" transform="matrix(0.848048, -0.529919, 0.529919, 0.848048, -143.367357, 194.087327)"/>
  <line style="stroke: rgb(229, 229, 229); stroke-dasharray: 10px; stroke-linecap: round; stroke-width: 5px;" x1="300.335" y1="195.106" x2="300.335" y2="484.385" transform="matrix(0.848048, -0.529919, 0.529919, 0.848048, -134.401172, 210.778143)"/>
  <line style="stroke: rgb(229, 229, 229); stroke-dasharray: 10px; stroke-linecap: round; stroke-width: 5px;" x1="339.39" y1="189.923" x2="339.39" y2="492.494" transform="matrix(0.848048, -0.529919, 0.529919, 0.848048, -129.241964, 231.696448)"/>
  <line style="stroke: rgb(229, 229, 229); stroke-dasharray: 10px; stroke-linecap: round; stroke-width: 5px;" x1="363.913" y1="183.984" x2="363.913" y2="454.849" transform="matrix(0.848048, -0.529919, 0.529919, 0.848048, -113.967655, 241.380307)"/>
  <line style="stroke: rgb(229, 229, 229); stroke-dasharray: 10px; stroke-linecap: round; stroke-width: 5px;" x1="398.094" y1="184.5" x2="398.094" y2="441.663" transform="matrix(0.848048, -0.529919, 0.529919, 0.848048, -105.41676, 258.530856)"/>
  <path d="M 143.364 193.769 C 128.832 193.769 115.188 190.544 103.372 184.89 C 98.294 185.878 92.89 186.41 87.284 186.41 C 57.729 186.41 33.769 171.618 33.769 153.37 C 33.769 140.808 45.123 129.883 61.841 124.295 C 62.045 86.251 98.466 55.466 143.364 55.466 C 145.274 55.466 147.167 55.522 149.043 55.63 C 160.727 46.282 175.972 40.624 192.649 40.624 C 197.078 40.624 201.41 41.024 205.598 41.786 C 216.541 27.863 234.011 18.851 253.693 18.851 C 283.755 18.851 308.654 39.876 313.025 67.31 C 318.413 66.16 324.207 65.533 330.242 65.533 C 358.863 65.533 382.066 79.614 382.066 96.981 C 382.066 102.071 380.073 106.88 376.535 111.134 C 408.81 119.276 430.376 134.03 430.376 150.88 C 430.376 176.535 380.384 197.33 318.718 197.33 C 302.967 197.33 287.977 195.974 274.389 193.526 C 261.925 202.774 238.869 208.982 212.49 208.982 C 186.09 208.982 163.02 202.763 150.564 193.503 C 148.191 193.68 145.79 193.769 143.364 193.769 Z" style="fill: rgb(229, 229, 229);"/>
  <path style="fill: rgb(248, 248, 248);" transform="matrix(-0.23557, 0.151679, -0.151679, -0.23557, 285.606354, 415.402618)" d="M 293.746 659.153 L 293.746 659.153 L 304.525 688.394 A 28.168 28.168 0 0 1 304.525 688.394 L 332.824 675.34 L 332.824 675.34 L 319.77 703.639 A 28.168 28.168 0 0 1 319.77 703.639 L 349.011 714.418 L 349.011 714.418 L 319.77 725.197 A 28.168 28.168 0 0 1 319.77 725.197 L 332.824 753.496 L 332.824 753.496 L 304.525 740.442 A 28.168 28.168 0 0 1 304.525 740.442 L 293.746 769.683 L 293.746 769.683 L 282.967 740.442 A 28.168 28.168 0 0 1 282.967 740.442 L 254.668 753.496 L 254.668 753.496 L 267.722 725.197 A 28.168 28.168 0 0 1 267.722 725.197 L 238.481 714.418 L 238.481 714.418 L 267.722 703.639 A 28.168 28.168 0 0 1 267.722 703.639 L 254.668 675.34 L 254.668 675.34 L 282.967 688.394 A 28.168 28.168 0 0 1 282.967 688.394 Z M 293.746 696.696 A 17.722 17.722 0 0 0 293.746 732.14 A 17.722 17.722 0 0 0 293.746 696.696" bx:shape="cog 293.746 714.418 17.722 28.168 55.265 1 8 1@f339ce2e"/>
  <path style="fill: rgb(248, 248, 248);" transform="matrix(-0.389976, 0.251097, -0.251097, -0.389976, 505.54364, 561.747131)" d="M 293.746 659.153 L 293.746 659.153 L 304.525 688.394 A 28.168 28.168 0 0 1 304.525 688.394 L 332.824 675.34 L 332.824 675.34 L 319.77 703.639 A 28.168 28.168 0 0 1 319.77 703.639 L 349.011 714.418 L 349.011 714.418 L 319.77 725.197 A 28.168 28.168 0 0 1 319.77 725.197 L 332.824 753.496 L 332.824 753.496 L 304.525 740.442 A 28.168 28.168 0 0 1 304.525 740.442 L 293.746 769.683 L 293.746 769.683 L 282.967 740.442 A 28.168 28.168 0 0 1 282.967 740.442 L 254.668 753.496 L 254.668 753.496 L 267.722 725.197 A 28.168 28.168 0 0 1 267.722 725.197 L 238.481 714.418 L 238.481 714.418 L 267.722 703.639 A 28.168 28.168 0 0 1 267.722 703.639 L 254.668 675.34 L 254.668 675.34 L 282.967 688.394 A 28.168 28.168 0 0 1 282.967 688.394 Z M 293.746 696.696 A 17.722 17.722 0 0 0 293.746 732.14 A 17.722 17.722 0 0 0 293.746 696.696" bx:shape="cog 293.746 714.418 17.722 28.168 55.265 1 8 1@f339ce2e"/>
  <path style="fill: rgb(248, 248, 248);" transform="matrix(-0.389976, 0.251097, -0.251097, -0.389976, 617.364563, 449.254059)" d="M 293.746 659.153 L 293.746 659.153 L 304.525 688.394 A 28.168 28.168 0 0 1 304.525 688.394 L 332.824 675.34 L 332.824 675.34 L 319.77 703.639 A 28.168 28.168 0 0 1 319.77 703.639 L 349.011 714.418 L 349.011 714.418 L 319.77 725.197 A 28.168 28.168 0 0 1 319.77 725.197 L 332.824 753.496 L 332.824 753.496 L 304.525 740.442 A 28.168 28.168 0 0 1 304.525 740.442 L 293.746 769.683 L 293.746 769.683 L 282.967 740.442 A 28.168 28.168 0 0 1 282.967 740.442 L 254.668 753.496 L 254.668 753.496 L 267.722 725.197 A 28.168 28.168 0 0 1 267.722 725.197 L 238.481 714.418 L 238.481 714.418 L 267.722 703.639 A 28.168 28.168 0 0 1 267.722 703.639 L 254.668 675.34 L 254.668 675.34 L 282.967 688.394 A 28.168 28.168 0 0 1 282.967 688.394 Z M 293.746 696.696 A 17.722 17.722 0 0 0 293.746 732.14 A 17.722 17.722 0 0 0 293.746 696.696" bx:shape="cog 293.746 714.418 17.722 28.168 55.265 1 8 1@f339ce2e"/>
  <path style="fill: rgb(248, 248, 248);" transform="matrix(-0.23557, 0.151679, -0.151679, -0.23557, 514.759766, 471.342072)" d="M 293.746 659.153 L 293.746 659.153 L 304.525 688.394 A 28.168 28.168 0 0 1 304.525 688.394 L 332.824 675.34 L 332.824 675.34 L 319.77 703.639 A 28.168 28.168 0 0 1 319.77 703.639 L 349.011 714.418 L 349.011 714.418 L 319.77 725.197 A 28.168 28.168 0 0 1 319.77 725.197 L 332.824 753.496 L 332.824 753.496 L 304.525 740.442 A 28.168 28.168 0 0 1 304.525 740.442 L 293.746 769.683 L 293.746 769.683 L 282.967 740.442 A 28.168 28.168 0 0 1 282.967 740.442 L 254.668 753.496 L 254.668 753.496 L 267.722 725.197 A 28.168 28.168 0 0 1 267.722 725.197 L 238.481 714.418 L 238.481 714.418 L 267.722 703.639 A 28.168 28.168 0 0 1 267.722 703.639 L 254.668 675.34 L 254.668 675.34 L 282.967 688.394 A 28.168 28.168 0 0 1 282.967 688.394 Z M 293.746 696.696 A 17.722 17.722 0 0 0 293.746 732.14 A 17.722 17.722 0 0 0 293.746 696.696" bx:shape="cog 293.746 714.418 17.722 28.168 55.265 1 8 1@f339ce2e"/>
</svg>