<?xml version="1.0" encoding="utf-8"?>
<svg viewBox="0 0 500 500" xmlns="http://www.w3.org/2000/svg" xmlns:bx="https://boxy-svg.com">
  <path style="fill: rgb(245, 245, 245);" transform="matrix(-0.845326, 0.544287, -0.544287, -0.845326, 883.517395, 739.453308)" d="M 293.746 659.153 L 293.746 659.153 L 304.525 688.394 A 28.168 28.168 0 0 1 304.525 688.394 L 332.824 675.34 L 332.824 675.34 L 319.77 703.639 A 28.168 28.168 0 0 1 319.77 703.639 L 349.011 714.418 L 349.011 714.418 L 319.77 725.197 A 28.168 28.168 0 0 1 319.77 725.197 L 332.824 753.496 L 332.824 753.496 L 304.525 740.442 A 28.168 28.168 0 0 1 304.525 740.442 L 293.746 769.683 L 293.746 769.683 L 282.967 740.442 A 28.168 28.168 0 0 1 282.967 740.442 L 254.668 753.496 L 254.668 753.496 L 267.722 725.197 A 28.168 28.168 0 0 1 267.722 725.197 L 238.481 714.418 L 238.481 714.418 L 267.722 703.639 A 28.168 28.168 0 0 1 267.722 703.639 L 254.668 675.34 L 254.668 675.34 L 282.967 688.394 A 28.168 28.168 0 0 1 282.967 688.394 Z M 293.746 696.696 A 17.722 17.722 0 0 0 293.746 732.14 A 17.722 17.722 0 0 0 293.746 696.696" bx:shape="cog 293.746 714.418 17.722 28.168 55.265 1 8 1@f339ce2e"/>
  <path style="fill: rgb(245, 245, 245);" transform="matrix(-0.23557, 0.151679, -0.151679, -0.23557, 224.907898, 443.119781)" d="M 293.746 659.153 L 293.746 659.153 L 304.525 688.394 A 28.168 28.168 0 0 1 304.525 688.394 L 332.824 675.34 L 332.824 675.34 L 319.77 703.639 A 28.168 28.168 0 0 1 319.77 703.639 L 349.011 714.418 L 349.011 714.418 L 319.77 725.197 A 28.168 28.168 0 0 1 319.77 725.197 L 332.824 753.496 L 332.824 753.496 L 304.525 740.442 A 28.168 28.168 0 0 1 304.525 740.442 L 293.746 769.683 L 293.746 769.683 L 282.967 740.442 A 28.168 28.168 0 0 1 282.967 740.442 L 254.668 753.496 L 254.668 753.496 L 267.722 725.197 A 28.168 28.168 0 0 1 267.722 725.197 L 238.481 714.418 L 238.481 714.418 L 267.722 703.639 A 28.168 28.168 0 0 1 267.722 703.639 L 254.668 675.34 L 254.668 675.34 L 282.967 688.394 A 28.168 28.168 0 0 1 282.967 688.394 Z M 293.746 696.696 A 17.722 17.722 0 0 0 293.746 732.14 A 17.722 17.722 0 0 0 293.746 696.696" bx:shape="cog 293.746 714.418 17.722 28.168 55.265 1 8 1@f339ce2e"/>
  <path style="fill: rgb(245, 245, 245);" transform="matrix(-0.514077, 0.331003, -0.331003, -0.514077, 641.387451, 712.674438)" d="M 293.746 659.153 L 293.746 659.153 L 304.525 688.394 A 28.168 28.168 0 0 1 304.525 688.394 L 332.824 675.34 L 332.824 675.34 L 319.77 703.639 A 28.168 28.168 0 0 1 319.77 703.639 L 349.011 714.418 L 349.011 714.418 L 319.77 725.197 A 28.168 28.168 0 0 1 319.77 725.197 L 332.824 753.496 L 332.824 753.496 L 304.525 740.442 A 28.168 28.168 0 0 1 304.525 740.442 L 293.746 769.683 L 293.746 769.683 L 282.967 740.442 A 28.168 28.168 0 0 1 282.967 740.442 L 254.668 753.496 L 254.668 753.496 L 267.722 725.197 A 28.168 28.168 0 0 1 267.722 725.197 L 238.481 714.418 L 238.481 714.418 L 267.722 703.639 A 28.168 28.168 0 0 1 267.722 703.639 L 254.668 675.34 L 254.668 675.34 L 282.967 688.394 A 28.168 28.168 0 0 1 282.967 688.394 Z M 293.746 696.696 A 17.722 17.722 0 0 0 293.746 732.14 A 17.722 17.722 0 0 0 293.746 696.696" bx:shape="cog 293.746 714.418 17.722 28.168 55.265 1 8 1@f339ce2e"/>
  <path style="fill: rgb(245, 245, 245);" transform="matrix(-0.389976, 0.251097, -0.251097, -0.389976, 659.618286, 445.656006)" d="M 293.746 659.153 L 293.746 659.153 L 304.525 688.394 A 28.168 28.168 0 0 1 304.525 688.394 L 332.824 675.34 L 332.824 675.34 L 319.77 703.639 A 28.168 28.168 0 0 1 319.77 703.639 L 349.011 714.418 L 349.011 714.418 L 319.77 725.197 A 28.168 28.168 0 0 1 319.77 725.197 L 332.824 753.496 L 332.824 753.496 L 304.525 740.442 A 28.168 28.168 0 0 1 304.525 740.442 L 293.746 769.683 L 293.746 769.683 L 282.967 740.442 A 28.168 28.168 0 0 1 282.967 740.442 L 254.668 753.496 L 254.668 753.496 L 267.722 725.197 A 28.168 28.168 0 0 1 267.722 725.197 L 238.481 714.418 L 238.481 714.418 L 267.722 703.639 A 28.168 28.168 0 0 1 267.722 703.639 L 254.668 675.34 L 254.668 675.34 L 282.967 688.394 A 28.168 28.168 0 0 1 282.967 688.394 Z M 293.746 696.696 A 17.722 17.722 0 0 0 293.746 732.14 A 17.722 17.722 0 0 0 293.746 696.696" bx:shape="cog 293.746 714.418 17.722 28.168 55.265 1 8 1@f339ce2e"/>
  <path style="fill: rgb(245, 245, 245);" transform="matrix(-0.23557, 0.151679, -0.151679, -0.23557, 328.829346, 522.976868)" d="M 293.746 659.153 L 293.746 659.153 L 304.525 688.394 A 28.168 28.168 0 0 1 304.525 688.394 L 332.824 675.34 L 332.824 675.34 L 319.77 703.639 A 28.168 28.168 0 0 1 319.77 703.639 L 349.011 714.418 L 349.011 714.418 L 319.77 725.197 A 28.168 28.168 0 0 1 319.77 725.197 L 332.824 753.496 L 332.824 753.496 L 304.525 740.442 A 28.168 28.168 0 0 1 304.525 740.442 L 293.746 769.683 L 293.746 769.683 L 282.967 740.442 A 28.168 28.168 0 0 1 282.967 740.442 L 254.668 753.496 L 254.668 753.496 L 267.722 725.197 A 28.168 28.168 0 0 1 267.722 725.197 L 238.481 714.418 L 238.481 714.418 L 267.722 703.639 A 28.168 28.168 0 0 1 267.722 703.639 L 254.668 675.34 L 254.668 675.34 L 282.967 688.394 A 28.168 28.168 0 0 1 282.967 688.394 Z M 293.746 696.696 A 17.722 17.722 0 0 0 293.746 732.14 A 17.722 17.722 0 0 0 293.746 696.696" bx:shape="cog 293.746 714.418 17.722 28.168 55.265 1 8 1@f339ce2e"/>
  <path style="fill: rgb(245, 245, 245);" transform="matrix(-0.23557, 0.151679, -0.151679, -0.23557, 590.939514, 425.677551)" d="M 293.746 659.153 L 293.746 659.153 L 304.525 688.394 A 28.168 28.168 0 0 1 304.525 688.394 L 332.824 675.34 L 332.824 675.34 L 319.77 703.639 A 28.168 28.168 0 0 1 319.77 703.639 L 349.011 714.418 L 349.011 714.418 L 319.77 725.197 A 28.168 28.168 0 0 1 319.77 725.197 L 332.824 753.496 L 332.824 753.496 L 304.525 740.442 A 28.168 28.168 0 0 1 304.525 740.442 L 293.746 769.683 L 293.746 769.683 L 282.967 740.442 A 28.168 28.168 0 0 1 282.967 740.442 L 254.668 753.496 L 254.668 753.496 L 267.722 725.197 A 28.168 28.168 0 0 1 267.722 725.197 L 238.481 714.418 L 238.481 714.418 L 267.722 703.639 A 28.168 28.168 0 0 1 267.722 703.639 L 254.668 675.34 L 254.668 675.34 L 282.967 688.394 A 28.168 28.168 0 0 1 282.967 688.394 Z M 293.746 696.696 A 17.722 17.722 0 0 0 293.746 732.14 A 17.722 17.722 0 0 0 293.746 696.696" bx:shape="cog 293.746 714.418 17.722 28.168 55.265 1 8 1@f339ce2e"/>
  <path style="fill: rgb(245, 245, 245);" transform="matrix(-0.23557, 0.151679, -0.151679, -0.23557, 476.043884, 492.045746)" d="M 293.746 659.153 L 293.746 659.153 L 304.525 688.394 A 28.168 28.168 0 0 1 304.525 688.394 L 332.824 675.34 L 332.824 675.34 L 319.77 703.639 A 28.168 28.168 0 0 1 319.77 703.639 L 349.011 714.418 L 349.011 714.418 L 319.77 725.197 A 28.168 28.168 0 0 1 319.77 725.197 L 332.824 753.496 L 332.824 753.496 L 304.525 740.442 A 28.168 28.168 0 0 1 304.525 740.442 L 293.746 769.683 L 293.746 769.683 L 282.967 740.442 A 28.168 28.168 0 0 1 282.967 740.442 L 254.668 753.496 L 254.668 753.496 L 267.722 725.197 A 28.168 28.168 0 0 1 267.722 725.197 L 238.481 714.418 L 238.481 714.418 L 267.722 703.639 A 28.168 28.168 0 0 1 267.722 703.639 L 254.668 675.34 L 254.668 675.34 L 282.967 688.394 A 28.168 28.168 0 0 1 282.967 688.394 Z M 293.746 696.696 A 17.722 17.722 0 0 0 293.746 732.14 A 17.722 17.722 0 0 0 293.746 696.696" bx:shape="cog 293.746 714.418 17.722 28.168 55.265 1 8 1@f339ce2e"/>
  <path d="M 89.411 138.507 C 78.79 138.507 68.817 136.15 60.182 132.018 C 56.469 132.739 52.52 133.128 48.422 133.128 C 26.819 133.128 9.307 122.318 9.307 108.979 C 9.307 99.797 17.607 91.813 29.826 87.729 C 29.975 59.921 56.595 37.419 89.411 37.419 C 90.808 37.419 92.191 37.461 93.563 37.54 C 102.102 30.707 113.246 26.571 125.435 26.571 C 128.672 26.571 131.838 26.864 134.899 27.421 C 142.898 17.244 155.668 10.657 170.053 10.657 C 192.026 10.657 210.225 26.025 213.42 46.076 C 217.358 45.236 221.592 44.778 226.004 44.778 C 246.923 44.778 263.883 55.069 263.883 67.763 C 263.883 71.484 262.427 74.999 259.839 78.107 C 283.43 84.059 299.193 94.844 299.193 107.159 C 299.193 125.911 262.654 141.111 217.582 141.111 C 206.068 141.111 195.111 140.118 185.18 138.329 C 176.07 145.089 159.219 149.626 139.937 149.626 C 120.64 149.626 103.779 145.082 94.674 138.314 C 92.94 138.441 91.186 138.507 89.411 138.507 Z" style="fill: rgb(198, 198, 198);"/>
  <path d="M 256.012 184.435 C 248.007 184.435 240.49 182.659 233.981 179.544 C 231.182 180.087 228.206 180.381 225.117 180.381 C 208.834 180.381 195.634 172.232 195.634 162.179 C 195.634 155.258 201.89 149.239 211.1 146.161 C 211.213 125.201 231.278 108.24 256.012 108.24 C 257.065 108.24 258.108 108.272 259.141 108.331 C 263.377 104.943 268.461 102.434 274.061 101.115 C 272.852 99.126 272.191 96.972 272.191 94.723 C 272.191 87.801 278.447 81.783 287.657 78.705 C 287.77 57.745 307.835 40.784 332.569 40.784 C 333.622 40.784 334.665 40.816 335.699 40.875 C 342.135 35.725 350.534 32.608 359.722 32.608 C 362.162 32.608 364.549 32.828 366.856 33.248 C 372.885 25.577 382.51 20.612 393.353 20.612 C 409.915 20.612 423.633 32.196 426.04 47.31 C 429.009 46.676 432.2 46.331 435.525 46.331 C 451.293 46.331 464.077 54.088 464.077 63.656 C 464.077 66.461 462.979 69.11 461.029 71.453 C 478.81 75.939 490.692 84.068 490.692 93.35 C 490.692 107.485 463.15 118.942 429.177 118.942 C 420.499 118.942 412.24 118.193 404.755 116.845 C 400.303 120.148 393.399 122.748 385.132 124.167 C 386.668 126.293 387.52 128.643 387.52 131.112 C 387.52 133.917 386.422 136.566 384.472 138.909 C 402.253 143.395 414.135 151.524 414.135 160.807 C 414.135 174.941 386.593 186.398 352.62 186.398 C 343.942 186.398 335.683 185.649 328.198 184.301 C 321.331 189.396 308.629 192.816 294.096 192.816 C 279.551 192.816 266.842 189.391 259.979 184.289 C 258.672 184.385 257.35 184.435 256.012 184.435 Z" style="fill: rgb(198, 198, 198);"/>
  <path style="fill: rgb(245, 245, 245);" transform="matrix(-0.389976, 0.251097, -0.251097, -0.389976, 359.905975, 458.965546)" d="M 293.746 659.153 L 293.746 659.153 L 304.525 688.394 A 28.168 28.168 0 0 1 304.525 688.394 L 332.824 675.34 L 332.824 675.34 L 319.77 703.639 A 28.168 28.168 0 0 1 319.77 703.639 L 349.011 714.418 L 349.011 714.418 L 319.77 725.197 A 28.168 28.168 0 0 1 319.77 725.197 L 332.824 753.496 L 332.824 753.496 L 304.525 740.442 A 28.168 28.168 0 0 1 304.525 740.442 L 293.746 769.683 L 293.746 769.683 L 282.967 740.442 A 28.168 28.168 0 0 1 282.967 740.442 L 254.668 753.496 L 254.668 753.496 L 267.722 725.197 A 28.168 28.168 0 0 1 267.722 725.197 L 238.481 714.418 L 238.481 714.418 L 267.722 703.639 A 28.168 28.168 0 0 1 267.722 703.639 L 254.668 675.34 L 254.668 675.34 L 282.967 688.394 A 28.168 28.168 0 0 1 282.967 688.394 Z M 293.746 696.696 A 17.722 17.722 0 0 0 293.746 732.14 A 17.722 17.722 0 0 0 293.746 696.696" bx:shape="cog 293.746 714.418 17.722 28.168 55.265 1 8 1@f339ce2e"/>
  <path style="fill: rgb(245, 245, 245);" transform="matrix(-0.389976, 0.251097, -0.251097, -0.389976, 356.151886, 647.061646)" d="M 293.746 659.153 L 293.746 659.153 L 304.525 688.394 A 28.168 28.168 0 0 1 304.525 688.394 L 332.824 675.34 L 332.824 675.34 L 319.77 703.639 A 28.168 28.168 0 0 1 319.77 703.639 L 349.011 714.418 L 349.011 714.418 L 319.77 725.197 A 28.168 28.168 0 0 1 319.77 725.197 L 332.824 753.496 L 332.824 753.496 L 304.525 740.442 A 28.168 28.168 0 0 1 304.525 740.442 L 293.746 769.683 L 293.746 769.683 L 282.967 740.442 A 28.168 28.168 0 0 1 282.967 740.442 L 254.668 753.496 L 254.668 753.496 L 267.722 725.197 A 28.168 28.168 0 0 1 267.722 725.197 L 238.481 714.418 L 238.481 714.418 L 267.722 703.639 A 28.168 28.168 0 0 1 267.722 703.639 L 254.668 675.34 L 254.668 675.34 L 282.967 688.394 A 28.168 28.168 0 0 1 282.967 688.394 Z M 293.746 696.696 A 17.722 17.722 0 0 0 293.746 732.14 A 17.722 17.722 0 0 0 293.746 696.696" bx:shape="cog 293.746 714.418 17.722 28.168 55.265 1 8 1@f339ce2e"/>
  <path style="fill: rgb(245, 245, 245);" transform="matrix(-0.389976, 0.251097, -0.251097, -0.389976, 638.222656, 515.694885)" d="M 293.746 659.153 L 293.746 659.153 L 304.525 688.394 A 28.168 28.168 0 0 1 304.525 688.394 L 332.824 675.34 L 332.824 675.34 L 319.77 703.639 A 28.168 28.168 0 0 1 319.77 703.639 L 349.011 714.418 L 349.011 714.418 L 319.77 725.197 A 28.168 28.168 0 0 1 319.77 725.197 L 332.824 753.496 L 332.824 753.496 L 304.525 740.442 A 28.168 28.168 0 0 1 304.525 740.442 L 293.746 769.683 L 293.746 769.683 L 282.967 740.442 A 28.168 28.168 0 0 1 282.967 740.442 L 254.668 753.496 L 254.668 753.496 L 267.722 725.197 A 28.168 28.168 0 0 1 267.722 725.197 L 238.481 714.418 L 238.481 714.418 L 267.722 703.639 A 28.168 28.168 0 0 1 267.722 703.639 L 254.668 675.34 L 254.668 675.34 L 282.967 688.394 A 28.168 28.168 0 0 1 282.967 688.394 Z M 293.746 696.696 A 17.722 17.722 0 0 0 293.746 732.14 A 17.722 17.722 0 0 0 293.746 696.696" bx:shape="cog 293.746 714.418 17.722 28.168 55.265 1 8 1@f339ce2e"/>
  <path style="fill: rgb(245, 245, 245);" transform="matrix(-0.389976, 0.251097, -0.251097, -0.389976, 741.95575, 655.752869)" d="M 293.746 659.153 L 293.746 659.153 L 304.525 688.394 A 28.168 28.168 0 0 1 304.525 688.394 L 332.824 675.34 L 332.824 675.34 L 319.77 703.639 A 28.168 28.168 0 0 1 319.77 703.639 L 349.011 714.418 L 349.011 714.418 L 319.77 725.197 A 28.168 28.168 0 0 1 319.77 725.197 L 332.824 753.496 L 332.824 753.496 L 304.525 740.442 A 28.168 28.168 0 0 1 304.525 740.442 L 293.746 769.683 L 293.746 769.683 L 282.967 740.442 A 28.168 28.168 0 0 1 282.967 740.442 L 254.668 753.496 L 254.668 753.496 L 267.722 725.197 A 28.168 28.168 0 0 1 267.722 725.197 L 238.481 714.418 L 238.481 714.418 L 267.722 703.639 A 28.168 28.168 0 0 1 267.722 703.639 L 254.668 675.34 L 254.668 675.34 L 282.967 688.394 A 28.168 28.168 0 0 1 282.967 688.394 Z M 293.746 696.696 A 17.722 17.722 0 0 0 293.746 732.14 A 17.722 17.722 0 0 0 293.746 696.696" bx:shape="cog 293.746 714.418 17.722 28.168 55.265 1 8 1@f339ce2e"/>
  <path style="fill: rgb(245, 245, 245);" transform="matrix(-0.23557, 0.151679, -0.151679, -0.23557, 621.303528, 363.496399)" d="M 293.746 659.153 L 293.746 659.153 L 304.525 688.394 A 28.168 28.168 0 0 1 304.525 688.394 L 332.824 675.34 L 332.824 675.34 L 319.77 703.639 A 28.168 28.168 0 0 1 319.77 703.639 L 349.011 714.418 L 349.011 714.418 L 319.77 725.197 A 28.168 28.168 0 0 1 319.77 725.197 L 332.824 753.496 L 332.824 753.496 L 304.525 740.442 A 28.168 28.168 0 0 1 304.525 740.442 L 293.746 769.683 L 293.746 769.683 L 282.967 740.442 A 28.168 28.168 0 0 1 282.967 740.442 L 254.668 753.496 L 254.668 753.496 L 267.722 725.197 A 28.168 28.168 0 0 1 267.722 725.197 L 238.481 714.418 L 238.481 714.418 L 267.722 703.639 A 28.168 28.168 0 0 1 267.722 703.639 L 254.668 675.34 L 254.668 675.34 L 282.967 688.394 A 28.168 28.168 0 0 1 282.967 688.394 Z M 293.746 696.696 A 17.722 17.722 0 0 0 293.746 732.14 A 17.722 17.722 0 0 0 293.746 696.696" bx:shape="cog 293.746 714.418 17.722 28.168 55.265 1 8 1@f339ce2e"/>
  <path style="fill: rgb(245, 245, 245);" transform="matrix(-0.23557, 0.151679, -0.151679, -0.23557, 538.569275, 536.656006)" d="M 293.746 659.153 L 293.746 659.153 L 304.525 688.394 A 28.168 28.168 0 0 1 304.525 688.394 L 332.824 675.34 L 332.824 675.34 L 319.77 703.639 A 28.168 28.168 0 0 1 319.77 703.639 L 349.011 714.418 L 349.011 714.418 L 319.77 725.197 A 28.168 28.168 0 0 1 319.77 725.197 L 332.824 753.496 L 332.824 753.496 L 304.525 740.442 A 28.168 28.168 0 0 1 304.525 740.442 L 293.746 769.683 L 293.746 769.683 L 282.967 740.442 A 28.168 28.168 0 0 1 282.967 740.442 L 254.668 753.496 L 254.668 753.496 L 267.722 725.197 A 28.168 28.168 0 0 1 267.722 725.197 L 238.481 714.418 L 238.481 714.418 L 267.722 703.639 A 28.168 28.168 0 0 1 267.722 703.639 L 254.668 675.34 L 254.668 675.34 L 282.967 688.394 A 28.168 28.168 0 0 1 282.967 688.394 Z M 293.746 696.696 A 17.722 17.722 0 0 0 293.746 732.14 A 17.722 17.722 0 0 0 293.746 696.696" bx:shape="cog 293.746 714.418 17.722 28.168 55.265 1 8 1@f339ce2e"/>
  <path style="fill: rgb(245, 245, 245);" transform="matrix(-0.23557, 0.151679, -0.151679, -0.23557, 362.681091, 570.170715)" d="M 293.746 659.153 L 293.746 659.153 L 304.525 688.394 A 28.168 28.168 0 0 1 304.525 688.394 L 332.824 675.34 L 332.824 675.34 L 319.77 703.639 A 28.168 28.168 0 0 1 319.77 703.639 L 349.011 714.418 L 349.011 714.418 L 319.77 725.197 A 28.168 28.168 0 0 1 319.77 725.197 L 332.824 753.496 L 332.824 753.496 L 304.525 740.442 A 28.168 28.168 0 0 1 304.525 740.442 L 293.746 769.683 L 293.746 769.683 L 282.967 740.442 A 28.168 28.168 0 0 1 282.967 740.442 L 254.668 753.496 L 254.668 753.496 L 267.722 725.197 A 28.168 28.168 0 0 1 267.722 725.197 L 238.481 714.418 L 238.481 714.418 L 267.722 703.639 A 28.168 28.168 0 0 1 267.722 703.639 L 254.668 675.34 L 254.668 675.34 L 282.967 688.394 A 28.168 28.168 0 0 1 282.967 688.394 Z M 293.746 696.696 A 17.722 17.722 0 0 0 293.746 732.14 A 17.722 17.722 0 0 0 293.746 696.696" bx:shape="cog 293.746 714.418 17.722 28.168 55.265 1 8 1@f339ce2e"/>
  <path style="fill: rgb(245, 245, 245);" transform="matrix(-0.23557, 0.151679, -0.151679, -0.23557, 307.79248, 461.248657)" d="M 293.746 659.153 L 293.746 659.153 L 304.525 688.394 A 28.168 28.168 0 0 1 304.525 688.394 L 332.824 675.34 L 332.824 675.34 L 319.77 703.639 A 28.168 28.168 0 0 1 319.77 703.639 L 349.011 714.418 L 349.011 714.418 L 319.77 725.197 A 28.168 28.168 0 0 1 319.77 725.197 L 332.824 753.496 L 332.824 753.496 L 304.525 740.442 A 28.168 28.168 0 0 1 304.525 740.442 L 293.746 769.683 L 293.746 769.683 L 282.967 740.442 A 28.168 28.168 0 0 1 282.967 740.442 L 254.668 753.496 L 254.668 753.496 L 267.722 725.197 A 28.168 28.168 0 0 1 267.722 725.197 L 238.481 714.418 L 238.481 714.418 L 267.722 703.639 A 28.168 28.168 0 0 1 267.722 703.639 L 254.668 675.34 L 254.668 675.34 L 282.967 688.394 A 28.168 28.168 0 0 1 282.967 688.394 Z M 293.746 696.696 A 17.722 17.722 0 0 0 293.746 732.14 A 17.722 17.722 0 0 0 293.746 696.696" bx:shape="cog 293.746 714.418 17.722 28.168 55.265 1 8 1@f339ce2e"/>
  <path style="fill: rgb(245, 245, 245);" transform="matrix(-0.23557, 0.151679, -0.151679, -0.23557, 248.178696, 499.863647)" d="M 293.746 659.153 L 293.746 659.153 L 304.525 688.394 A 28.168 28.168 0 0 1 304.525 688.394 L 332.824 675.34 L 332.824 675.34 L 319.77 703.639 A 28.168 28.168 0 0 1 319.77 703.639 L 349.011 714.418 L 349.011 714.418 L 319.77 725.197 A 28.168 28.168 0 0 1 319.77 725.197 L 332.824 753.496 L 332.824 753.496 L 304.525 740.442 A 28.168 28.168 0 0 1 304.525 740.442 L 293.746 769.683 L 293.746 769.683 L 282.967 740.442 A 28.168 28.168 0 0 1 282.967 740.442 L 254.668 753.496 L 254.668 753.496 L 267.722 725.197 A 28.168 28.168 0 0 1 267.722 725.197 L 238.481 714.418 L 238.481 714.418 L 267.722 703.639 A 28.168 28.168 0 0 1 267.722 703.639 L 254.668 675.34 L 254.668 675.34 L 282.967 688.394 A 28.168 28.168 0 0 1 282.967 688.394 Z M 293.746 696.696 A 17.722 17.722 0 0 0 293.746 732.14 A 17.722 17.722 0 0 0 293.746 696.696" bx:shape="cog 293.746 714.418 17.722 28.168 55.265 1 8 1@f339ce2e"/>
  <path style="fill: rgb(198, 198, 198);" d="M 71.591 219.754 C 42.355 219.754 18.654 207.862 18.654 193.192 C 18.654 178.522 42.355 166.63 71.591 166.63 C 71.723 166.63 71.855 166.63 71.986 166.631 C 81.503 157.57 100.498 151.391 122.378 151.391 C 124.264 151.391 126.128 151.437 127.966 151.527 C 133.094 144.107 145.463 138.231 161.136 135.757 C 165.985 127.228 182.785 120.937 202.765 120.937 C 208.567 120.937 214.101 121.468 219.152 122.429 C 226.921 113.306 239.97 107.321 254.756 107.321 C 273.551 107.321 289.539 116.992 295.445 130.484 C 303.66 125.81 314.955 122.924 327.421 122.924 C 350.823 122.924 370.096 133.094 372.62 146.173 C 377.652 144.719 383.743 143.869 390.305 143.869 C 407.6 143.869 421.621 149.776 421.621 157.063 C 421.621 157.905 421.434 158.729 421.076 159.527 C 424.537 158.964 428.239 158.66 432.088 158.66 C 451.301 158.66 466.876 166.248 466.876 175.609 C 466.876 182.9 457.427 189.116 444.169 191.508 C 445.231 192.911 445.802 194.397 445.802 195.935 C 445.802 204.482 428.193 211.411 406.471 211.411 C 398.486 211.411 391.057 210.475 384.855 208.866 C 376.255 215.091 359.318 219.325 339.829 219.325 C 331.421 219.325 323.488 218.537 316.495 217.141 C 308.502 225.571 289.514 231.5 267.363 231.5 C 245.624 231.5 226.931 225.79 218.689 217.609 C 213.11 217.261 207.804 216.499 202.913 215.388 C 197.303 227.679 172.963 236.927 143.785 236.927 C 117.264 236.927 94.739 229.286 86.644 218.665 C 81.873 219.373 76.821 219.754 71.591 219.754 Z"/>
  <path style="fill: rgb(245, 245, 245);" transform="matrix(-0.23557, 0.151679, -0.151679, -0.23557, 378.588745, 354.049622)" d="M 293.746 659.153 L 293.746 659.153 L 304.525 688.394 A 28.168 28.168 0 0 1 304.525 688.394 L 332.824 675.34 L 332.824 675.34 L 319.77 703.639 A 28.168 28.168 0 0 1 319.77 703.639 L 349.011 714.418 L 349.011 714.418 L 319.77 725.197 A 28.168 28.168 0 0 1 319.77 725.197 L 332.824 753.496 L 332.824 753.496 L 304.525 740.442 A 28.168 28.168 0 0 1 304.525 740.442 L 293.746 769.683 L 293.746 769.683 L 282.967 740.442 A 28.168 28.168 0 0 1 282.967 740.442 L 254.668 753.496 L 254.668 753.496 L 267.722 725.197 A 28.168 28.168 0 0 1 267.722 725.197 L 238.481 714.418 L 238.481 714.418 L 267.722 703.639 A 28.168 28.168 0 0 1 267.722 703.639 L 254.668 675.34 L 254.668 675.34 L 282.967 688.394 A 28.168 28.168 0 0 1 282.967 688.394 Z M 293.746 696.696 A 17.722 17.722 0 0 0 293.746 732.14 A 17.722 17.722 0 0 0 293.746 696.696" bx:shape="cog 293.746 714.418 17.722 28.168 55.265 1 8 1@f339ce2e"/>
  <path style="fill: rgb(245, 245, 245);" transform="matrix(-0.23557, 0.151679, -0.151679, -0.23557, 320.029419, 403.1586)" d="M 293.746 659.153 L 293.746 659.153 L 304.525 688.394 A 28.168 28.168 0 0 1 304.525 688.394 L 332.824 675.34 L 332.824 675.34 L 319.77 703.639 A 28.168 28.168 0 0 1 319.77 703.639 L 349.011 714.418 L 349.011 714.418 L 319.77 725.197 A 28.168 28.168 0 0 1 319.77 725.197 L 332.824 753.496 L 332.824 753.496 L 304.525 740.442 A 28.168 28.168 0 0 1 304.525 740.442 L 293.746 769.683 L 293.746 769.683 L 282.967 740.442 A 28.168 28.168 0 0 1 282.967 740.442 L 254.668 753.496 L 254.668 753.496 L 267.722 725.197 A 28.168 28.168 0 0 1 267.722 725.197 L 238.481 714.418 L 238.481 714.418 L 267.722 703.639 A 28.168 28.168 0 0 1 267.722 703.639 L 254.668 675.34 L 254.668 675.34 L 282.967 688.394 A 28.168 28.168 0 0 1 282.967 688.394 Z M 293.746 696.696 A 17.722 17.722 0 0 0 293.746 732.14 A 17.722 17.722 0 0 0 293.746 696.696" bx:shape="cog 293.746 714.418 17.722 28.168 55.265 1 8 1@f339ce2e"/>
  <path style="fill: rgb(245, 245, 245);" transform="matrix(-0.23557, 0.151679, -0.151679, -0.23557, 498.736755, 368.964417)" d="M 293.746 659.153 L 293.746 659.153 L 304.525 688.394 A 28.168 28.168 0 0 1 304.525 688.394 L 332.824 675.34 L 332.824 675.34 L 319.77 703.639 A 28.168 28.168 0 0 1 319.77 703.639 L 349.011 714.418 L 349.011 714.418 L 319.77 725.197 A 28.168 28.168 0 0 1 319.77 725.197 L 332.824 753.496 L 332.824 753.496 L 304.525 740.442 A 28.168 28.168 0 0 1 304.525 740.442 L 293.746 769.683 L 293.746 769.683 L 282.967 740.442 A 28.168 28.168 0 0 1 282.967 740.442 L 254.668 753.496 L 254.668 753.496 L 267.722 725.197 A 28.168 28.168 0 0 1 267.722 725.197 L 238.481 714.418 L 238.481 714.418 L 267.722 703.639 A 28.168 28.168 0 0 1 267.722 703.639 L 254.668 675.34 L 254.668 675.34 L 282.967 688.394 A 28.168 28.168 0 0 1 282.967 688.394 Z M 293.746 696.696 A 17.722 17.722 0 0 0 293.746 732.14 A 17.722 17.722 0 0 0 293.746 696.696" bx:shape="cog 293.746 714.418 17.722 28.168 55.265 1 8 1@f339ce2e"/>
  <path style="fill: rgb(245, 245, 245);" transform="matrix(-0.23557, 0.151679, -0.151679, -0.23557, 384.859375, 491.409821)" d="M 293.746 659.153 L 293.746 659.153 L 304.525 688.394 A 28.168 28.168 0 0 1 304.525 688.394 L 332.824 675.34 L 332.824 675.34 L 319.77 703.639 A 28.168 28.168 0 0 1 319.77 703.639 L 349.011 714.418 L 349.011 714.418 L 319.77 725.197 A 28.168 28.168 0 0 1 319.77 725.197 L 332.824 753.496 L 332.824 753.496 L 304.525 740.442 A 28.168 28.168 0 0 1 304.525 740.442 L 293.746 769.683 L 293.746 769.683 L 282.967 740.442 A 28.168 28.168 0 0 1 282.967 740.442 L 254.668 753.496 L 254.668 753.496 L 267.722 725.197 A 28.168 28.168 0 0 1 267.722 725.197 L 238.481 714.418 L 238.481 714.418 L 267.722 703.639 A 28.168 28.168 0 0 1 267.722 703.639 L 254.668 675.34 L 254.668 675.34 L 282.967 688.394 A 28.168 28.168 0 0 1 282.967 688.394 Z M 293.746 696.696 A 17.722 17.722 0 0 0 293.746 732.14 A 17.722 17.722 0 0 0 293.746 696.696" bx:shape="cog 293.746 714.418 17.722 28.168 55.265 1 8 1@f339ce2e"/>
  <path style="fill: rgb(245, 245, 245);" transform="matrix(-0.23557, 0.151679, -0.151679, -0.23557, 619.995422, 489.61615)" d="M 293.746 659.153 L 293.746 659.153 L 304.525 688.394 A 28.168 28.168 0 0 1 304.525 688.394 L 332.824 675.34 L 332.824 675.34 L 319.77 703.639 A 28.168 28.168 0 0 1 319.77 703.639 L 349.011 714.418 L 349.011 714.418 L 319.77 725.197 A 28.168 28.168 0 0 1 319.77 725.197 L 332.824 753.496 L 332.824 753.496 L 304.525 740.442 A 28.168 28.168 0 0 1 304.525 740.442 L 293.746 769.683 L 293.746 769.683 L 282.967 740.442 A 28.168 28.168 0 0 1 282.967 740.442 L 254.668 753.496 L 254.668 753.496 L 267.722 725.197 A 28.168 28.168 0 0 1 267.722 725.197 L 238.481 714.418 L 238.481 714.418 L 267.722 703.639 A 28.168 28.168 0 0 1 267.722 703.639 L 254.668 675.34 L 254.668 675.34 L 282.967 688.394 A 28.168 28.168 0 0 1 282.967 688.394 Z M 293.746 696.696 A 17.722 17.722 0 0 0 293.746 732.14 A 17.722 17.722 0 0 0 293.746 696.696" bx:shape="cog 293.746 714.418 17.722 28.168 55.265 1 8 1@f339ce2e"/>
  <path style="fill: rgb(228, 228, 228);" transform="matrix(-0.23557, 0.151679, -0.151679, -0.23557, 564.03241, 299.845886)" d="M 293.746 659.153 L 293.746 659.153 L 304.525 688.394 A 28.168 28.168 0 0 1 304.525 688.394 L 332.824 675.34 L 332.824 675.34 L 319.77 703.639 A 28.168 28.168 0 0 1 319.77 703.639 L 349.011 714.418 L 349.011 714.418 L 319.77 725.197 A 28.168 28.168 0 0 1 319.77 725.197 L 332.824 753.496 L 332.824 753.496 L 304.525 740.442 A 28.168 28.168 0 0 1 304.525 740.442 L 293.746 769.683 L 293.746 769.683 L 282.967 740.442 A 28.168 28.168 0 0 1 282.967 740.442 L 254.668 753.496 L 254.668 753.496 L 267.722 725.197 A 28.168 28.168 0 0 1 267.722 725.197 L 238.481 714.418 L 238.481 714.418 L 267.722 703.639 A 28.168 28.168 0 0 1 267.722 703.639 L 254.668 675.34 L 254.668 675.34 L 282.967 688.394 A 28.168 28.168 0 0 1 282.967 688.394 Z M 293.746 696.696 A 17.722 17.722 0 0 0 293.746 732.14 A 17.722 17.722 0 0 0 293.746 696.696" bx:shape="cog 293.746 714.418 17.722 28.168 55.265 1 8 1@f339ce2e"/>
  <path style="fill: rgb(228, 228, 228);" transform="matrix(-0.23557, 0.151679, -0.151679, -0.23557, 332.684875, 315.423798)" d="M 293.746 659.153 L 293.746 659.153 L 304.525 688.394 A 28.168 28.168 0 0 1 304.525 688.394 L 332.824 675.34 L 332.824 675.34 L 319.77 703.639 A 28.168 28.168 0 0 1 319.77 703.639 L 349.011 714.418 L 349.011 714.418 L 319.77 725.197 A 28.168 28.168 0 0 1 319.77 725.197 L 332.824 753.496 L 332.824 753.496 L 304.525 740.442 A 28.168 28.168 0 0 1 304.525 740.442 L 293.746 769.683 L 293.746 769.683 L 282.967 740.442 A 28.168 28.168 0 0 1 282.967 740.442 L 254.668 753.496 L 254.668 753.496 L 267.722 725.197 A 28.168 28.168 0 0 1 267.722 725.197 L 238.481 714.418 L 238.481 714.418 L 267.722 703.639 A 28.168 28.168 0 0 1 267.722 703.639 L 254.668 675.34 L 254.668 675.34 L 282.967 688.394 A 28.168 28.168 0 0 1 282.967 688.394 Z M 293.746 696.696 A 17.722 17.722 0 0 0 293.746 732.14 A 17.722 17.722 0 0 0 293.746 696.696" bx:shape="cog 293.746 714.418 17.722 28.168 55.265 1 8 1@f339ce2e"/>
  <path style="fill: rgb(228, 228, 228);" transform="matrix(-0.23557, 0.151679, -0.151679, -0.23557, 245.209137, 292.185577)" d="M 293.746 659.153 L 293.746 659.153 L 304.525 688.394 A 28.168 28.168 0 0 1 304.525 688.394 L 332.824 675.34 L 332.824 675.34 L 319.77 703.639 A 28.168 28.168 0 0 1 319.77 703.639 L 349.011 714.418 L 349.011 714.418 L 319.77 725.197 A 28.168 28.168 0 0 1 319.77 725.197 L 332.824 753.496 L 332.824 753.496 L 304.525 740.442 A 28.168 28.168 0 0 1 304.525 740.442 L 293.746 769.683 L 293.746 769.683 L 282.967 740.442 A 28.168 28.168 0 0 1 282.967 740.442 L 254.668 753.496 L 254.668 753.496 L 267.722 725.197 A 28.168 28.168 0 0 1 267.722 725.197 L 238.481 714.418 L 238.481 714.418 L 267.722 703.639 A 28.168 28.168 0 0 1 267.722 703.639 L 254.668 675.34 L 254.668 675.34 L 282.967 688.394 A 28.168 28.168 0 0 1 282.967 688.394 Z M 293.746 696.696 A 17.722 17.722 0 0 0 293.746 732.14 A 17.722 17.722 0 0 0 293.746 696.696" bx:shape="cog 293.746 714.418 17.722 28.168 55.265 1 8 1@f339ce2e"/>
  <path style="fill: rgb(228, 228, 228);" transform="matrix(-0.23557, 0.151679, -0.151679, -0.23557, 478.567719, 264.763977)" d="M 293.746 659.153 L 293.746 659.153 L 304.525 688.394 A 28.168 28.168 0 0 1 304.525 688.394 L 332.824 675.34 L 332.824 675.34 L 319.77 703.639 A 28.168 28.168 0 0 1 319.77 703.639 L 349.011 714.418 L 349.011 714.418 L 319.77 725.197 A 28.168 28.168 0 0 1 319.77 725.197 L 332.824 753.496 L 332.824 753.496 L 304.525 740.442 A 28.168 28.168 0 0 1 304.525 740.442 L 293.746 769.683 L 293.746 769.683 L 282.967 740.442 A 28.168 28.168 0 0 1 282.967 740.442 L 254.668 753.496 L 254.668 753.496 L 267.722 725.197 A 28.168 28.168 0 0 1 267.722 725.197 L 238.481 714.418 L 238.481 714.418 L 267.722 703.639 A 28.168 28.168 0 0 1 267.722 703.639 L 254.668 675.34 L 254.668 675.34 L 282.967 688.394 A 28.168 28.168 0 0 1 282.967 688.394 Z M 293.746 696.696 A 17.722 17.722 0 0 0 293.746 732.14 A 17.722 17.722 0 0 0 293.746 696.696" bx:shape="cog 293.746 714.418 17.722 28.168 55.265 1 8 1@f339ce2e"/>
  <path style="fill: rgb(228, 228, 228);" transform="matrix(-0.389976, 0.251097, -0.251097, -0.389976, 417.146301, 315.36554)" d="M 293.746 659.153 L 293.746 659.153 L 304.525 688.394 A 28.168 28.168 0 0 1 304.525 688.394 L 332.824 675.34 L 332.824 675.34 L 319.77 703.639 A 28.168 28.168 0 0 1 319.77 703.639 L 349.011 714.418 L 349.011 714.418 L 319.77 725.197 A 28.168 28.168 0 0 1 319.77 725.197 L 332.824 753.496 L 332.824 753.496 L 304.525 740.442 A 28.168 28.168 0 0 1 304.525 740.442 L 293.746 769.683 L 293.746 769.683 L 282.967 740.442 A 28.168 28.168 0 0 1 282.967 740.442 L 254.668 753.496 L 254.668 753.496 L 267.722 725.197 A 28.168 28.168 0 0 1 267.722 725.197 L 238.481 714.418 L 238.481 714.418 L 267.722 703.639 A 28.168 28.168 0 0 1 267.722 703.639 L 254.668 675.34 L 254.668 675.34 L 282.967 688.394 A 28.168 28.168 0 0 1 282.967 688.394 Z M 293.746 696.696 A 17.722 17.722 0 0 0 293.746 732.14 A 17.722 17.722 0 0 0 293.746 696.696" bx:shape="cog 293.746 714.418 17.722 28.168 55.265 1 8 1@f339ce2e"/>
  <path style="fill: rgb(228, 228, 228);" transform="matrix(-0.23557, 0.151679, -0.151679, -0.23557, 585.598328, 208.049042)" d="M 293.746 659.153 L 293.746 659.153 L 304.525 688.394 A 28.168 28.168 0 0 1 304.525 688.394 L 332.824 675.34 L 332.824 675.34 L 319.77 703.639 A 28.168 28.168 0 0 1 319.77 703.639 L 349.011 714.418 L 349.011 714.418 L 319.77 725.197 A 28.168 28.168 0 0 1 319.77 725.197 L 332.824 753.496 L 332.824 753.496 L 304.525 740.442 A 28.168 28.168 0 0 1 304.525 740.442 L 293.746 769.683 L 293.746 769.683 L 282.967 740.442 A 28.168 28.168 0 0 1 282.967 740.442 L 254.668 753.496 L 254.668 753.496 L 267.722 725.197 A 28.168 28.168 0 0 1 267.722 725.197 L 238.481 714.418 L 238.481 714.418 L 267.722 703.639 A 28.168 28.168 0 0 1 267.722 703.639 L 254.668 675.34 L 254.668 675.34 L 282.967 688.394 A 28.168 28.168 0 0 1 282.967 688.394 Z M 293.746 696.696 A 17.722 17.722 0 0 0 293.746 732.14 A 17.722 17.722 0 0 0 293.746 696.696" bx:shape="cog 293.746 714.418 17.722 28.168 55.265 1 8 1@f339ce2e"/>
  <path style="fill: rgb(228, 228, 228);" transform="matrix(-0.23557, 0.151679, -0.151679, -0.23557, 417.125854, 303.589142)" d="M 293.746 659.153 L 293.746 659.153 L 304.525 688.394 A 28.168 28.168 0 0 1 304.525 688.394 L 332.824 675.34 L 332.824 675.34 L 319.77 703.639 A 28.168 28.168 0 0 1 319.77 703.639 L 349.011 714.418 L 349.011 714.418 L 319.77 725.197 A 28.168 28.168 0 0 1 319.77 725.197 L 332.824 753.496 L 332.824 753.496 L 304.525 740.442 A 28.168 28.168 0 0 1 304.525 740.442 L 293.746 769.683 L 293.746 769.683 L 282.967 740.442 A 28.168 28.168 0 0 1 282.967 740.442 L 254.668 753.496 L 254.668 753.496 L 267.722 725.197 A 28.168 28.168 0 0 1 267.722 725.197 L 238.481 714.418 L 238.481 714.418 L 267.722 703.639 A 28.168 28.168 0 0 1 267.722 703.639 L 254.668 675.34 L 254.668 675.34 L 282.967 688.394 A 28.168 28.168 0 0 1 282.967 688.394 Z M 293.746 696.696 A 17.722 17.722 0 0 0 293.746 732.14 A 17.722 17.722 0 0 0 293.746 696.696" bx:shape="cog 293.746 714.418 17.722 28.168 55.265 1 8 1@f339ce2e"/>
  <path style="fill: rgb(228, 228, 228);" transform="matrix(-0.389976, 0.251097, -0.251097, -0.389976, 527.519653, 251.87088)" d="M 293.746 659.153 L 293.746 659.153 L 304.525 688.394 A 28.168 28.168 0 0 1 304.525 688.394 L 332.824 675.34 L 332.824 675.34 L 319.77 703.639 A 28.168 28.168 0 0 1 319.77 703.639 L 349.011 714.418 L 349.011 714.418 L 319.77 725.197 A 28.168 28.168 0 0 1 319.77 725.197 L 332.824 753.496 L 332.824 753.496 L 304.525 740.442 A 28.168 28.168 0 0 1 304.525 740.442 L 293.746 769.683 L 293.746 769.683 L 282.967 740.442 A 28.168 28.168 0 0 1 282.967 740.442 L 254.668 753.496 L 254.668 753.496 L 267.722 725.197 A 28.168 28.168 0 0 1 267.722 725.197 L 238.481 714.418 L 238.481 714.418 L 267.722 703.639 A 28.168 28.168 0 0 1 267.722 703.639 L 254.668 675.34 L 254.668 675.34 L 282.967 688.394 A 28.168 28.168 0 0 1 282.967 688.394 Z M 293.746 696.696 A 17.722 17.722 0 0 0 293.746 732.14 A 17.722 17.722 0 0 0 293.746 696.696" bx:shape="cog 293.746 714.418 17.722 28.168 55.265 1 8 1@f339ce2e"/>
  <path style="fill: rgb(228, 228, 228);" transform="matrix(-0.23557, 0.151679, -0.151679, -0.23557, 518.048828, 167.136719)" d="M 293.746 659.153 L 293.746 659.153 L 304.525 688.394 A 28.168 28.168 0 0 1 304.525 688.394 L 332.824 675.34 L 332.824 675.34 L 319.77 703.639 A 28.168 28.168 0 0 1 319.77 703.639 L 349.011 714.418 L 349.011 714.418 L 319.77 725.197 A 28.168 28.168 0 0 1 319.77 725.197 L 332.824 753.496 L 332.824 753.496 L 304.525 740.442 A 28.168 28.168 0 0 1 304.525 740.442 L 293.746 769.683 L 293.746 769.683 L 282.967 740.442 A 28.168 28.168 0 0 1 282.967 740.442 L 254.668 753.496 L 254.668 753.496 L 267.722 725.197 A 28.168 28.168 0 0 1 267.722 725.197 L 238.481 714.418 L 238.481 714.418 L 267.722 703.639 A 28.168 28.168 0 0 1 267.722 703.639 L 254.668 675.34 L 254.668 675.34 L 282.967 688.394 A 28.168 28.168 0 0 1 282.967 688.394 Z M 293.746 696.696 A 17.722 17.722 0 0 0 293.746 732.14 A 17.722 17.722 0 0 0 293.746 696.696" bx:shape="cog 293.746 714.418 17.722 28.168 55.265 1 8 1@f339ce2e"/>
</svg>