<?xml version="1.0" encoding="utf-8"?>
<svg viewBox="0 0 500 500" xmlns="http://www.w3.org/2000/svg">
  <line style="stroke-linecap: round; stroke-miterlimit: 7; stroke-width: 3px; stroke-dashoffset: -16px; stroke-dasharray: 4, 12; stroke: rgb(234, 234, 234);" x1="151.283" y1="191.257" x2="151.283" y2="502.153" transform="matrix(0.891006, -0.453991, 0.453991, 0.891006, -140.912093, 106.469845)"/>
  <line style="stroke-linecap: round; stroke-miterlimit: 7; stroke-width: 3px; stroke-dashoffset: -16px; stroke-dasharray: 4, 12; stroke: rgb(234, 234, 234);" x1="200.615" y1="201.043" x2="200.615" y2="486.789" transform="matrix(0.891006, -0.453991, 0.453991, 0.891006, -134.269029, 128.562153)"/>
  <line style="stroke-linecap: round; stroke-miterlimit: 7; stroke-width: 3px; stroke-dashoffset: -16px; stroke-dasharray: 4, 12; stroke: rgb(234, 234, 234);" x1="255.979" y1="212.134" x2="255.979" y2="502.128" transform="matrix(0.891006, -0.453991, 0.453991, 0.891006, -134.234187, 155.137272)"/>
  <line style="stroke-linecap: round; stroke-miterlimit: 7; stroke-width: 3px; stroke-dashoffset: -16px; stroke-dasharray: 4, 12; stroke: rgb(234, 234, 234);" x1="311.557" y1="208.644" x2="311.557" y2="476.035" transform="matrix(0.891006, -0.453991, 0.453991, 0.891006, -121.461317, 178.757011)"/>
  <line style="stroke-linecap: round; stroke-miterlimit: 7; stroke-width: 3px; stroke-dashoffset: -16px; stroke-dasharray: 4, 12; stroke: rgb(234, 234, 234);" x1="353.482" y1="203.696" x2="353.482" y2="424.564" transform="matrix(0.891006, -0.453991, 0.453991, 0.891006, -104.084839, 194.715726)"/>
  <line style="stroke-linecap: round; stroke-miterlimit: 7; stroke-width: 3px; stroke-dashoffset: -16px; stroke-dasharray: 4, 12; stroke: rgb(234, 234, 234);" x1="409.881" y1="195.481" x2="409.881" y2="416.349" transform="matrix(0.891006, -0.453991, 0.453991, 0.891006, -94.208174, 219.424978)"/>
  <polyline style="fill: rgb(182, 180, 97);" points="221.603 261.666 307.934 341.174 239.415 309.121 328.456 395.53 270.54 369.17 325.817 430.905 210.786 345.431 258.054 350.6 199.332 277.542 232.235 289.606 207.446 244.315"/>
  <polyline style="fill: rgb(249, 246, 78);" points="221.908 255.083 308.24 334.59 239.721 302.538 328.762 388.946 270.846 362.586 326.122 424.321 211.091 338.847 258.359 344.017 199.638 270.958 232.541 283.022 207.752 237.732"/>
  <path d="M 146.131 221.135 C 129.115 221.135 113.14 217.311 99.304 210.608 C 93.358 211.779 87.029 212.41 80.465 212.41 C 45.858 212.41 17.803 194.872 17.803 173.237 C 17.803 158.343 31.099 145.391 50.674 138.765 C 50.913 93.662 93.558 57.162 146.131 57.162 C 148.366 57.162 150.583 57.229 152.78 57.357 C 166.461 46.274 184.312 39.565 203.838 39.565 C 209.027 39.565 214.097 40.039 219.002 40.943 C 231.817 24.436 252.27 13.751 275.317 13.751 C 310.517 13.751 339.673 38.678 344.79 71.205 C 351.099 69.84 357.884 69.098 364.949 69.098 C 398.463 69.098 425.632 85.791 425.632 106.383 C 425.632 112.418 423.299 118.118 419.156 123.161 C 456.946 132.815 482.198 150.308 482.198 170.285 C 482.198 200.701 423.663 225.357 351.456 225.357 C 333.012 225.357 315.462 223.748 299.549 220.846 C 284.954 231.81 257.96 239.171 227.072 239.171 C 196.159 239.171 169.145 231.799 154.561 220.819 C 151.783 221.028 148.972 221.135 146.131 221.135 Z" style="fill: rgb(181, 181, 181);"/>
</svg>