<?xml version="1.0" encoding="utf-8"?>
<svg viewBox="0 0 500 500" xmlns="http://www.w3.org/2000/svg">
  <line style="stroke-linecap: round; stroke: rgb(234, 234, 234); stroke-dasharray: 2, 14; stroke-dashoffset: -16px; stroke-miterlimit: 8; stroke-width: 5px;" x1="247.313" y1="194.318" x2="247.313" y2="484.312" transform="matrix(0.997564, -0.069758, 0.069758, 0.997564, -23.067467, 18.078651)"/>
  <line style="stroke-linecap: round; stroke: rgb(234, 234, 234); stroke-dasharray: 2, 14; stroke-dashoffset: -16px; stroke-miterlimit: 8; stroke-width: 5px;" x1="288.295" y1="206.949" x2="288.295" y2="474.34" transform="matrix(0.997564, -0.069758, 0.069758, 0.997564, -23.060376, 20.940713)"/>
  <line style="stroke-linecap: round; stroke: rgb(234, 234, 234); stroke-dasharray: 2, 14; stroke-dashoffset: -16px; stroke-miterlimit: 8; stroke-width: 5px;" x1="325.703" y1="214.63" x2="325.703" y2="486.16" transform="matrix(0.997564, -0.069758, 0.069758, 0.997564, -23.649424, 23.573972)"/>
  <line style="stroke-linecap: round; stroke: rgb(234, 234, 234); stroke-dasharray: 2, 14; stroke-dashoffset: -16px; stroke-miterlimit: 8; stroke-width: 5px;" x1="211.343" y1="181.18" x2="211.343" y2="471.173" transform="matrix(0.997564, -0.069758, 0.069758, 0.997564, -22.238576, 15.537449)"/>
  <line style="stroke-linecap: round; stroke: rgb(234, 234, 234); stroke-dasharray: 2, 14; stroke-dashoffset: -16px; stroke-miterlimit: 8; stroke-width: 5px;" x1="145.774" y1="129.442" x2="145.774" y2="440.338" transform="matrix(0.997564, -0.069758, 0.069758, 0.997564, -19.518243, 10.862911)"/>
  <line style="stroke-linecap: round; stroke: rgb(234, 234, 234); stroke-dasharray: 2, 14; stroke-dashoffset: -16px; stroke-miterlimit: 8; stroke-width: 5px;" x1="180.163" y1="153.409" x2="180.163" y2="450.094" transform="matrix(0.997564, -0.069758, 0.069758, 0.997564, -20.610693, 13.302894)"/>
  <line style="stroke-linecap: round; stroke: rgb(234, 234, 234); stroke-dasharray: 2, 14; stroke-dashoffset: -16px; stroke-miterlimit: 8; stroke-width: 5px;" x1="402.342" y1="238.517" x2="402.342" y2="492.694" transform="matrix(0.997564, -0.069758, 0.069758, 0.997564, -24.52378, 28.957209)"/>
  <line style="stroke-linecap: round; stroke: rgb(234, 234, 234); stroke-dasharray: 2, 14; stroke-dashoffset: -16px; stroke-miterlimit: 8; stroke-width: 5px;" x1="365.296" y1="219.238" x2="365.296" y2="490.768" transform="matrix(0.997564, -0.069758, 0.069758, 0.997564, -23.874418, 26.347125)"/>
  <line style="stroke-linecap: round; stroke: rgb(234, 234, 234); stroke-dasharray: 2, 14; stroke-dashoffset: -16px; stroke-miterlimit: 8; stroke-width: 5px;" x1="111.015" y1="129.442" x2="111.015" y2="440.338" transform="matrix(0.997564, -0.069758, 0.069758, 0.997564, -19.602918, 8.438192)"/>
  <path d="M 146.131 221.097 C 129.115 221.097 113.14 217.273 99.304 210.57 C 93.358 211.741 87.029 212.372 80.465 212.372 C 45.858 212.372 17.803 194.834 17.803 173.199 C 17.803 158.305 31.099 145.353 50.674 138.727 C 50.913 93.624 93.558 57.124 146.131 57.124 C 148.366 57.124 150.583 57.191 152.78 57.319 C 166.461 46.236 184.312 39.527 203.838 39.527 C 209.027 39.527 214.097 40.001 219.002 40.905 C 231.817 24.398 252.27 13.713 275.317 13.713 C 310.517 13.713 339.673 38.64 344.79 71.167 C 351.099 69.802 357.884 69.06 364.949 69.06 C 398.463 69.06 425.632 85.753 425.632 106.345 C 425.632 112.38 423.299 118.08 419.156 123.123 C 456.946 132.777 482.198 150.27 482.198 170.247 C 482.198 200.663 423.663 225.319 351.456 225.319 C 333.012 225.319 315.462 223.71 299.549 220.808 C 284.954 231.772 257.96 239.133 227.072 239.133 C 196.159 239.133 169.145 231.761 154.561 220.781 C 151.783 220.99 148.972 221.097 146.131 221.097 Z" style="fill: rgb(185, 182, 182);"/>
  <path d="M 321.208 159.567 C 312.913 159.567 305.126 157.702 298.381 154.435 C 295.483 155.006 292.398 155.314 289.198 155.314 C 272.329 155.314 258.653 146.764 258.653 136.219 C 258.653 128.958 265.134 122.645 274.676 119.415 C 274.792 97.429 295.58 79.637 321.208 79.637 C 322.297 79.637 323.378 79.67 324.448 79.732 C 331.118 74.329 339.819 71.059 349.337 71.059 C 351.867 71.059 354.338 71.29 356.729 71.731 C 362.976 63.684 372.946 58.476 384.181 58.476 C 401.339 58.476 415.551 70.627 418.045 86.482 C 421.121 85.817 424.428 85.455 427.872 85.455 C 444.209 85.455 457.453 93.592 457.453 103.63 C 457.453 106.572 456.315 109.35 454.296 111.808 C 472.717 116.514 485.026 125.042 485.026 134.78 C 485.026 149.606 456.493 161.625 421.295 161.625 C 412.304 161.625 403.749 160.841 395.993 159.426 C 388.878 164.77 375.719 168.359 360.663 168.359 C 345.594 168.359 332.426 164.765 325.317 159.413 C 323.962 159.515 322.593 159.567 321.208 159.567 Z" style="fill: rgb(228, 228, 228);"/>
  <g style="" transform="matrix(0.429374, 0, 0, 0.706839, 160.765869, 83.325684)">
    <polyline style="fill: rgb(182, 180, 97);" points="221.603 261.628 307.933 341.136 239.414 309.083 328.455 395.492 270.54 369.132 325.816 430.867 210.786 345.393 258.053 350.562 199.332 277.504 232.235 289.568 207.446 244.277"/>
    <polyline style="fill: rgb(249, 246, 78);" points="221.908 255.045 308.239 334.552 239.72 302.5 328.761 388.908 270.846 362.548 326.122 424.283 211.091 338.809 258.359 343.979 199.638 270.92 232.541 282.984 207.752 237.694"/>
  </g>
  <path d="M 106.704 260.878 C 93.988 260.878 82.05 258.02 71.711 253.011 C 67.268 253.887 62.538 254.358 57.633 254.358 C 31.772 254.358 10.807 241.252 10.807 225.085 C 10.807 213.955 20.743 204.276 35.371 199.325 C 35.549 165.62 67.417 138.345 106.704 138.345 C 108.374 138.345 110.031 138.395 111.672 138.49 C 121.896 130.208 135.236 125.195 149.827 125.195 C 153.705 125.195 157.493 125.549 161.159 126.225 C 170.735 113.889 186.019 105.905 203.242 105.905 C 229.546 105.905 251.333 124.532 255.157 148.839 C 259.872 147.819 264.942 147.264 270.222 147.264 C 295.266 147.264 315.569 159.738 315.569 175.126 C 315.569 179.636 313.825 183.896 310.729 187.664 C 338.969 194.878 357.839 207.951 357.839 222.879 C 357.839 245.608 314.097 264.033 260.139 264.033 C 246.356 264.033 233.241 262.831 221.35 260.662 C 210.443 268.855 190.271 274.356 167.189 274.356 C 144.089 274.356 123.902 268.847 113.003 260.642 C 110.927 260.798 108.827 260.878 106.704 260.878 Z" style="fill: rgb(228, 228, 228);"/>
</svg>