<?xml version="1.0" encoding="utf-8"?>
<svg viewBox="0 0 500 500" xmlns="http://www.w3.org/2000/svg" xmlns:bx="https://boxy-svg.com">
  <path d="M 158.138 198.516 C 143.09 198.516 128.961 195.176 116.725 189.322 C 111.466 190.344 105.871 190.896 100.065 190.896 C 69.459 190.896 44.648 175.578 44.648 156.682 C 44.648 143.673 56.406 132.36 73.718 126.574 C 73.929 87.177 111.645 55.298 158.138 55.298 C 160.116 55.298 162.076 55.356 164.02 55.468 C 176.118 45.788 191.905 39.928 209.174 39.928 C 213.762 39.928 218.247 40.343 222.584 41.131 C 233.916 26.713 252.007 17.381 272.389 17.381 C 303.519 17.381 329.303 39.153 333.829 67.563 C 339.408 66.372 345.409 65.723 351.658 65.723 C 381.296 65.723 405.324 80.304 405.324 98.289 C 405.324 103.56 403.261 108.539 399.596 112.944 C 433.018 121.376 455.351 136.654 455.351 154.103 C 455.351 180.67 403.582 202.204 339.725 202.204 C 323.414 202.204 307.891 200.799 293.82 198.265 C 280.913 207.841 257.038 214.27 229.721 214.27 C 202.383 214.27 178.493 207.83 165.594 198.241 C 163.137 198.424 160.651 198.516 158.138 198.516 Z" style="fill: rgb(229, 229, 229);"/>
  <path style="fill: rgb(246, 246, 246);" transform="matrix(-0.389976, 0.251097, -0.251097, -0.389976, 450.764252, 469.918579)" d="M 293.746 659.153 L 293.746 659.153 L 304.525 688.394 A 28.168 28.168 0 0 1 304.525 688.394 L 332.824 675.34 L 332.824 675.34 L 319.77 703.639 A 28.168 28.168 0 0 1 319.77 703.639 L 349.011 714.418 L 349.011 714.418 L 319.77 725.197 A 28.168 28.168 0 0 1 319.77 725.197 L 332.824 753.496 L 332.824 753.496 L 304.525 740.442 A 28.168 28.168 0 0 1 304.525 740.442 L 293.746 769.683 L 293.746 769.683 L 282.967 740.442 A 28.168 28.168 0 0 1 282.967 740.442 L 254.668 753.496 L 254.668 753.496 L 267.722 725.197 A 28.168 28.168 0 0 1 267.722 725.197 L 238.481 714.418 L 238.481 714.418 L 267.722 703.639 A 28.168 28.168 0 0 1 267.722 703.639 L 254.668 675.34 L 254.668 675.34 L 282.967 688.394 A 28.168 28.168 0 0 1 282.967 688.394 Z M 293.746 696.696 A 17.722 17.722 0 0 0 293.746 732.14 A 17.722 17.722 0 0 0 293.746 696.696" bx:shape="cog 293.746 714.418 17.722 28.168 55.265 1 8 1@f339ce2e"/>
  <path style="fill: rgb(251, 251, 251);" transform="matrix(-0.845326, 0.544287, -0.544287, -0.845326, 897.727295, 732.447754)" d="M 293.746 659.153 L 293.746 659.153 L 304.525 688.394 A 28.168 28.168 0 0 1 304.525 688.394 L 332.824 675.34 L 332.824 675.34 L 319.77 703.639 A 28.168 28.168 0 0 1 319.77 703.639 L 349.011 714.418 L 349.011 714.418 L 319.77 725.197 A 28.168 28.168 0 0 1 319.77 725.197 L 332.824 753.496 L 332.824 753.496 L 304.525 740.442 A 28.168 28.168 0 0 1 304.525 740.442 L 293.746 769.683 L 293.746 769.683 L 282.967 740.442 A 28.168 28.168 0 0 1 282.967 740.442 L 254.668 753.496 L 254.668 753.496 L 267.722 725.197 A 28.168 28.168 0 0 1 267.722 725.197 L 238.481 714.418 L 238.481 714.418 L 267.722 703.639 A 28.168 28.168 0 0 1 267.722 703.639 L 254.668 675.34 L 254.668 675.34 L 282.967 688.394 A 28.168 28.168 0 0 1 282.967 688.394 Z M 293.746 696.696 A 17.722 17.722 0 0 0 293.746 732.14 A 17.722 17.722 0 0 0 293.746 696.696" bx:shape="cog 293.746 714.418 17.722 28.168 55.265 1 8 1@f339ce2e"/>
  <path style="fill: rgb(246, 246, 246);" transform="matrix(-0.23557, 0.151679, -0.151679, -0.23557, 274.35379, 467.882416)" d="M 293.746 659.153 L 293.746 659.153 L 304.525 688.394 A 28.168 28.168 0 0 1 304.525 688.394 L 332.824 675.34 L 332.824 675.34 L 319.77 703.639 A 28.168 28.168 0 0 1 319.77 703.639 L 349.011 714.418 L 349.011 714.418 L 319.77 725.197 A 28.168 28.168 0 0 1 319.77 725.197 L 332.824 753.496 L 332.824 753.496 L 304.525 740.442 A 28.168 28.168 0 0 1 304.525 740.442 L 293.746 769.683 L 293.746 769.683 L 282.967 740.442 A 28.168 28.168 0 0 1 282.967 740.442 L 254.668 753.496 L 254.668 753.496 L 267.722 725.197 A 28.168 28.168 0 0 1 267.722 725.197 L 238.481 714.418 L 238.481 714.418 L 267.722 703.639 A 28.168 28.168 0 0 1 267.722 703.639 L 254.668 675.34 L 254.668 675.34 L 282.967 688.394 A 28.168 28.168 0 0 1 282.967 688.394 Z M 293.746 696.696 A 17.722 17.722 0 0 0 293.746 732.14 A 17.722 17.722 0 0 0 293.746 696.696" bx:shape="cog 293.746 714.418 17.722 28.168 55.265 1 8 1@f339ce2e"/>
  <path style="fill: rgb(246, 246, 246);" transform="matrix(-0.389976, 0.251097, -0.251097, -0.389976, 494.291046, 614.22699)" d="M 293.746 659.153 L 293.746 659.153 L 304.525 688.394 A 28.168 28.168 0 0 1 304.525 688.394 L 332.824 675.34 L 332.824 675.34 L 319.77 703.639 A 28.168 28.168 0 0 1 319.77 703.639 L 349.011 714.418 L 349.011 714.418 L 319.77 725.197 A 28.168 28.168 0 0 1 319.77 725.197 L 332.824 753.496 L 332.824 753.496 L 304.525 740.442 A 28.168 28.168 0 0 1 304.525 740.442 L 293.746 769.683 L 293.746 769.683 L 282.967 740.442 A 28.168 28.168 0 0 1 282.967 740.442 L 254.668 753.496 L 254.668 753.496 L 267.722 725.197 A 28.168 28.168 0 0 1 267.722 725.197 L 238.481 714.418 L 238.481 714.418 L 267.722 703.639 A 28.168 28.168 0 0 1 267.722 703.639 L 254.668 675.34 L 254.668 675.34 L 282.967 688.394 A 28.168 28.168 0 0 1 282.967 688.394 Z M 293.746 696.696 A 17.722 17.722 0 0 0 293.746 732.14 A 17.722 17.722 0 0 0 293.746 696.696" bx:shape="cog 293.746 714.418 17.722 28.168 55.265 1 8 1@f339ce2e"/>
  <path style="fill: rgb(246, 246, 246);" transform="matrix(-0.389976, 0.251097, -0.251097, -0.389976, 647.680237, 560.554077)" d="M 293.746 659.153 L 293.746 659.153 L 304.525 688.394 A 28.168 28.168 0 0 1 304.525 688.394 L 332.824 675.34 L 332.824 675.34 L 319.77 703.639 A 28.168 28.168 0 0 1 319.77 703.639 L 349.011 714.418 L 349.011 714.418 L 319.77 725.197 A 28.168 28.168 0 0 1 319.77 725.197 L 332.824 753.496 L 332.824 753.496 L 304.525 740.442 A 28.168 28.168 0 0 1 304.525 740.442 L 293.746 769.683 L 293.746 769.683 L 282.967 740.442 A 28.168 28.168 0 0 1 282.967 740.442 L 254.668 753.496 L 254.668 753.496 L 267.722 725.197 A 28.168 28.168 0 0 1 267.722 725.197 L 238.481 714.418 L 238.481 714.418 L 267.722 703.639 A 28.168 28.168 0 0 1 267.722 703.639 L 254.668 675.34 L 254.668 675.34 L 282.967 688.394 A 28.168 28.168 0 0 1 282.967 688.394 Z M 293.746 696.696 A 17.722 17.722 0 0 0 293.746 732.14 A 17.722 17.722 0 0 0 293.746 696.696" bx:shape="cog 293.746 714.418 17.722 28.168 55.265 1 8 1@f339ce2e"/>
  <path style="fill: rgb(246, 246, 246);" transform="matrix(-0.389976, 0.251097, -0.251097, -0.389976, 663.31427, 452.994507)" d="M 293.746 659.153 L 293.746 659.153 L 304.525 688.394 A 28.168 28.168 0 0 1 304.525 688.394 L 332.824 675.34 L 332.824 675.34 L 319.77 703.639 A 28.168 28.168 0 0 1 319.77 703.639 L 349.011 714.418 L 349.011 714.418 L 319.77 725.197 A 28.168 28.168 0 0 1 319.77 725.197 L 332.824 753.496 L 332.824 753.496 L 304.525 740.442 A 28.168 28.168 0 0 1 304.525 740.442 L 293.746 769.683 L 293.746 769.683 L 282.967 740.442 A 28.168 28.168 0 0 1 282.967 740.442 L 254.668 753.496 L 254.668 753.496 L 267.722 725.197 A 28.168 28.168 0 0 1 267.722 725.197 L 238.481 714.418 L 238.481 714.418 L 267.722 703.639 A 28.168 28.168 0 0 1 267.722 703.639 L 254.668 675.34 L 254.668 675.34 L 282.967 688.394 A 28.168 28.168 0 0 1 282.967 688.394 Z M 293.746 696.696 A 17.722 17.722 0 0 0 293.746 732.14 A 17.722 17.722 0 0 0 293.746 696.696" bx:shape="cog 293.746 714.418 17.722 28.168 55.265 1 8 1@f339ce2e"/>
  <path style="fill: rgb(246, 246, 246);" transform="matrix(-0.23557, 0.151679, -0.151679, -0.23557, 374.878113, 473.96463)" d="M 293.746 659.153 L 293.746 659.153 L 304.525 688.394 A 28.168 28.168 0 0 1 304.525 688.394 L 332.824 675.34 L 332.824 675.34 L 319.77 703.639 A 28.168 28.168 0 0 1 319.77 703.639 L 349.011 714.418 L 349.011 714.418 L 319.77 725.197 A 28.168 28.168 0 0 1 319.77 725.197 L 332.824 753.496 L 332.824 753.496 L 304.525 740.442 A 28.168 28.168 0 0 1 304.525 740.442 L 293.746 769.683 L 293.746 769.683 L 282.967 740.442 A 28.168 28.168 0 0 1 282.967 740.442 L 254.668 753.496 L 254.668 753.496 L 267.722 725.197 A 28.168 28.168 0 0 1 267.722 725.197 L 238.481 714.418 L 238.481 714.418 L 267.722 703.639 A 28.168 28.168 0 0 1 267.722 703.639 L 254.668 675.34 L 254.668 675.34 L 282.967 688.394 A 28.168 28.168 0 0 1 282.967 688.394 Z M 293.746 696.696 A 17.722 17.722 0 0 0 293.746 732.14 A 17.722 17.722 0 0 0 293.746 696.696" bx:shape="cog 293.746 714.418 17.722 28.168 55.265 1 8 1@f339ce2e"/>
  <path style="fill: rgb(246, 246, 246);" transform="matrix(-0.23557, 0.151679, -0.151679, -0.23557, 583.375122, 433.106628)" d="M 293.746 659.153 L 293.746 659.153 L 304.525 688.394 A 28.168 28.168 0 0 1 304.525 688.394 L 332.824 675.34 L 332.824 675.34 L 319.77 703.639 A 28.168 28.168 0 0 1 319.77 703.639 L 349.011 714.418 L 349.011 714.418 L 319.77 725.197 A 28.168 28.168 0 0 1 319.77 725.197 L 332.824 753.496 L 332.824 753.496 L 304.525 740.442 A 28.168 28.168 0 0 1 304.525 740.442 L 293.746 769.683 L 293.746 769.683 L 282.967 740.442 A 28.168 28.168 0 0 1 282.967 740.442 L 254.668 753.496 L 254.668 753.496 L 267.722 725.197 A 28.168 28.168 0 0 1 267.722 725.197 L 238.481 714.418 L 238.481 714.418 L 267.722 703.639 A 28.168 28.168 0 0 1 267.722 703.639 L 254.668 675.34 L 254.668 675.34 L 282.967 688.394 A 28.168 28.168 0 0 1 282.967 688.394 Z M 293.746 696.696 A 17.722 17.722 0 0 0 293.746 732.14 A 17.722 17.722 0 0 0 293.746 696.696" bx:shape="cog 293.746 714.418 17.722 28.168 55.265 1 8 1@f339ce2e"/>
  <path style="fill: rgb(246, 246, 246);" transform="matrix(-0.23557, 0.151679, -0.151679, -0.23557, 492.243164, 549.393677)" d="M 293.746 659.153 L 293.746 659.153 L 304.525 688.394 A 28.168 28.168 0 0 1 304.525 688.394 L 332.824 675.34 L 332.824 675.34 L 319.77 703.639 A 28.168 28.168 0 0 1 319.77 703.639 L 349.011 714.418 L 349.011 714.418 L 319.77 725.197 A 28.168 28.168 0 0 1 319.77 725.197 L 332.824 753.496 L 332.824 753.496 L 304.525 740.442 A 28.168 28.168 0 0 1 304.525 740.442 L 293.746 769.683 L 293.746 769.683 L 282.967 740.442 A 28.168 28.168 0 0 1 282.967 740.442 L 254.668 753.496 L 254.668 753.496 L 267.722 725.197 A 28.168 28.168 0 0 1 267.722 725.197 L 238.481 714.418 L 238.481 714.418 L 267.722 703.639 A 28.168 28.168 0 0 1 267.722 703.639 L 254.668 675.34 L 254.668 675.34 L 282.967 688.394 A 28.168 28.168 0 0 1 282.967 688.394 Z M 293.746 696.696 A 17.722 17.722 0 0 0 293.746 732.14 A 17.722 17.722 0 0 0 293.746 696.696" bx:shape="cog 293.746 714.418 17.722 28.168 55.265 1 8 1@f339ce2e"/>
  <path style="fill: rgb(246, 246, 246);" transform="matrix(-0.23557, 0.151679, -0.151679, -0.23557, 302.828094, 580.348328)" d="M 293.746 659.153 L 293.746 659.153 L 304.525 688.394 A 28.168 28.168 0 0 1 304.525 688.394 L 332.824 675.34 L 332.824 675.34 L 319.77 703.639 A 28.168 28.168 0 0 1 319.77 703.639 L 349.011 714.418 L 349.011 714.418 L 319.77 725.197 A 28.168 28.168 0 0 1 319.77 725.197 L 332.824 753.496 L 332.824 753.496 L 304.525 740.442 A 28.168 28.168 0 0 1 304.525 740.442 L 293.746 769.683 L 293.746 769.683 L 282.967 740.442 A 28.168 28.168 0 0 1 282.967 740.442 L 254.668 753.496 L 254.668 753.496 L 267.722 725.197 A 28.168 28.168 0 0 1 267.722 725.197 L 238.481 714.418 L 238.481 714.418 L 267.722 703.639 A 28.168 28.168 0 0 1 267.722 703.639 L 254.668 675.34 L 254.668 675.34 L 282.967 688.394 A 28.168 28.168 0 0 1 282.967 688.394 Z M 293.746 696.696 A 17.722 17.722 0 0 0 293.746 732.14 A 17.722 17.722 0 0 0 293.746 696.696" bx:shape="cog 293.746 714.418 17.722 28.168 55.265 1 8 1@f339ce2e"/>
  <path style="fill: rgb(246, 246, 246);" transform="matrix(-0.389976, 0.251097, -0.251097, -0.389976, 695.446655, 652.037537)" d="M 293.746 659.153 L 293.746 659.153 L 304.525 688.394 A 28.168 28.168 0 0 1 304.525 688.394 L 332.824 675.34 L 332.824 675.34 L 319.77 703.639 A 28.168 28.168 0 0 1 319.77 703.639 L 349.011 714.418 L 349.011 714.418 L 319.77 725.197 A 28.168 28.168 0 0 1 319.77 725.197 L 332.824 753.496 L 332.824 753.496 L 304.525 740.442 A 28.168 28.168 0 0 1 304.525 740.442 L 293.746 769.683 L 293.746 769.683 L 282.967 740.442 A 28.168 28.168 0 0 1 282.967 740.442 L 254.668 753.496 L 254.668 753.496 L 267.722 725.197 A 28.168 28.168 0 0 1 267.722 725.197 L 238.481 714.418 L 238.481 714.418 L 267.722 703.639 A 28.168 28.168 0 0 1 267.722 703.639 L 254.668 675.34 L 254.668 675.34 L 282.967 688.394 A 28.168 28.168 0 0 1 282.967 688.394 Z M 293.746 696.696 A 17.722 17.722 0 0 0 293.746 732.14 A 17.722 17.722 0 0 0 293.746 696.696" bx:shape="cog 293.746 714.418 17.722 28.168 55.265 1 8 1@f339ce2e"/>
</svg>