<?xml version="1.0" encoding="utf-8"?>
<svg viewBox="0 0 500 500" xmlns="http://www.w3.org/2000/svg" xmlns:bx="https://boxy-svg.com">
  <g transform="matrix(1.198419, 0, 0, 1.198419, -54.231052, -165.549622)" style="">
    <path d="M 318.027 352.491 L 328.616 375.389 L 346.067 357.17 L 348.648 382.266 L 371.069 370.7 L 365.361 395.274 L 390.322 391.615 L 376.944 413.005 L 401.741 417.649 L 382.143 433.535 L 404.089 445.979 L 380.394 454.642 L 397.11 473.537 L 371.887 474.036 L 381.562 497.336 L 357.543 489.618 L 359.128 514.797 L 338.917 499.698 L 332.241 524.027 L 318.027 503.184 L 303.813 524.027 L 297.137 499.698 L 276.926 514.797 L 278.511 489.618 L 254.492 497.336 L 264.167 474.036 L 238.944 473.537 L 255.66 454.642 L 231.965 445.979 L 253.911 433.535 L 234.313 417.649 L 259.11 413.005 L 245.732 391.615 L 270.693 395.274 L 264.985 370.7 L 287.406 382.266 L 289.987 357.17 L 307.438 375.389 Z" style="fill: rgb(255, 153, 0);" transform="matrix(-0.809017, 0.587785, -0.587785, -0.809017, 675.938914, 417.627526)" bx:shape="star 318.027 438.848 86.357 86.357 0.745 19 1@3423f2b6"/>
    <circle style="fill: rgb(237, 123, 0);" cx="161.739" cy="249.742" r="55.108"/>
  </g>
  <path d="M 301.442 93.344 C 287.993 93.344 276.212 87.754 269.682 79.381 C 265.404 80.787 260.309 81.603 254.841 81.603 C 239.695 81.603 227.417 75.338 227.417 67.61 C 227.417 59.881 239.695 53.617 254.841 53.617 C 258.9 53.617 262.753 54.069 266.219 54.872 C 270.464 45.072 281.195 37.611 294.413 35.632 C 300.606 26.986 315.501 20.894 332.89 20.894 C 345.576 20.894 356.933 24.137 364.554 29.246 C 371.112 20.53 382.8 14.73 396.123 14.73 C 408.13 14.73 418.805 19.438 425.598 26.748 C 428.606 25.685 432.068 25.082 435.751 25.082 C 443.827 25.082 450.835 27.987 454.332 32.242 C 454.519 32.238 454.704 32.238 454.891 32.238 C 474.514 32.238 490.421 43.54 490.421 57.479 C 490.421 68.601 480.291 78.046 466.226 81.406 C 464.508 89.796 451.042 96.324 434.685 96.324 C 422.279 96.324 411.535 92.57 406.32 87.097 C 397.963 95.089 381.041 100.558 361.525 100.558 C 344.112 100.558 328.765 96.206 319.723 89.587 C 314.324 91.98 308.087 93.344 301.442 93.344 Z" style="fill: rgba(185, 176, 176, 0.35);"/>
  <path d="M 190.193 483.922 C 173.037 483.922 158.01 479.928 149.68 473.947 C 144.224 474.952 137.725 475.534 130.75 475.534 C 111.429 475.534 95.767 471.06 95.767 465.539 C 95.767 460.018 111.429 455.543 130.75 455.543 C 135.926 455.543 140.842 455.866 145.263 456.44 C 150.678 449.44 164.367 444.11 181.227 442.696 C 189.127 436.521 208.126 432.169 230.308 432.169 C 246.489 432.169 260.977 434.485 270.698 438.135 C 279.064 431.909 293.972 427.766 310.967 427.766 C 326.283 427.766 339.9 431.129 348.565 436.35 C 352.402 435.591 356.818 435.161 361.517 435.161 C 371.818 435.161 380.758 437.235 385.218 440.275 C 385.456 440.272 385.693 440.272 385.931 440.272 C 410.962 440.272 431.253 448.346 431.253 458.302 C 431.253 466.247 418.33 472.994 400.39 475.394 C 398.198 481.387 381.021 486.05 360.157 486.05 C 344.332 486.05 330.627 483.369 323.974 479.459 C 313.314 485.168 291.728 489.075 266.834 489.075 C 244.622 489.075 225.046 485.966 213.513 481.238 C 206.626 482.947 198.669 483.922 190.193 483.922 Z" style="fill: rgba(185, 176, 176, 0.35);"/>
  <path d="M 98.219 285.731 C 87.11 285.731 77.379 283.037 71.985 279.001 C 68.452 279.679 64.243 280.072 59.727 280.072 C 47.216 280.072 37.074 277.053 37.074 273.327 C 37.074 269.602 47.216 266.583 59.727 266.583 C 63.079 266.583 66.262 266.801 69.124 267.188 C 72.631 262.464 81.495 258.868 92.412 257.914 C 97.528 253.747 109.831 250.811 124.194 250.811 C 134.673 250.811 144.054 252.374 150.349 254.837 C 155.766 250.635 165.42 247.84 176.425 247.84 C 186.342 247.84 195.16 250.109 200.771 253.633 C 203.255 253.12 206.114 252.83 209.157 252.83 C 215.828 252.83 221.616 254.23 224.505 256.281 C 224.659 256.279 224.812 256.279 224.966 256.279 C 241.175 256.279 254.314 261.726 254.314 268.445 C 254.314 273.805 245.946 278.358 234.329 279.977 C 232.91 284.021 221.787 287.167 208.276 287.167 C 198.029 287.167 189.155 285.358 184.847 282.72 C 177.944 286.572 163.966 289.208 147.847 289.208 C 133.464 289.208 120.787 287.111 113.319 283.92 C 108.859 285.074 103.707 285.731 98.219 285.731 Z" style="fill: rgba(185, 176, 176, 0.35);"/>
  <path d="M 190.496 340.906 C 190.496 336.165 198.502 331.937 211.005 329.187 C 208.275 327.81 206.74 326.259 206.74 324.618 C 206.74 320.244 217.648 316.508 233.032 315.016 C 232.008 312.381 231.467 309.634 231.467 306.814 C 231.467 286.788 258.734 270.555 292.369 270.555 C 309.82 270.555 325.555 274.924 336.658 281.926 C 343.553 277.707 353.953 275.022 365.585 275.022 C 379.255 275.022 391.219 278.731 397.798 284.276 C 403.106 283.052 408.874 282.38 414.906 282.38 C 441.09 282.38 462.318 295.031 462.318 310.636 C 462.318 311.924 462.173 313.192 461.893 314.434 C 476.367 315.234 487.625 321.377 487.625 328.835 C 487.625 330.304 487.188 331.722 486.376 333.059 C 489.629 336.344 491.534 340.331 491.534 344.625 C 491.534 352.708 484.788 359.694 475.01 362.987 C 475.081 363.522 475.116 364.061 475.116 364.606 C 475.116 366.673 474.605 368.666 473.658 370.54 C 478.202 372.886 481.024 376.162 481.024 379.786 C 481.024 383.407 478.207 386.68 473.67 389.026 C 480.452 391.362 484.563 394.422 484.563 397.772 C 484.563 405.108 464.851 411.055 440.536 411.055 C 432.898 411.055 425.715 410.468 419.453 409.436 C 415.945 418.77 404.412 425.616 390.726 425.616 C 376.682 425.616 364.905 418.406 361.739 408.698 C 357.029 409.317 351.937 409.656 346.626 409.656 C 333.881 409.656 322.404 407.707 314.39 404.595 C 309.347 405.887 303.639 406.615 297.594 406.615 C 295.096 406.615 292.654 406.491 290.295 406.253 C 283.406 410.414 273.679 413.007 262.899 413.007 C 242.013 413.007 225.082 403.274 225.082 391.269 C 225.082 387.956 226.372 384.815 228.68 382.004 C 214.149 379.018 203.827 371.433 203.827 362.546 C 203.827 358.762 205.699 355.214 208.971 352.156 C 197.64 349.405 190.496 345.384 190.496 340.906 Z" style="fill: rgba(185, 176, 176, 0.35);"/>
  <path d="M 261.608 218.663 C 261.608 227.197 245.549 234.115 225.74 234.115 C 210.687 234.115 197.8 230.12 192.48 224.457 C 186.733 233.181 175.949 239.056 163.594 239.056 C 147.435 239.056 133.966 229.009 130.936 215.681 C 123.983 219.115 115.186 221.167 105.618 221.167 C 83.114 221.167 64.871 209.819 64.871 195.82 C 64.871 190.368 67.637 185.318 72.346 181.183 C 72.117 181.186 71.888 181.186 71.658 181.186 C 35.534 181.186 6.249 165 6.249 145.034 C 6.249 125.068 35.534 108.883 71.658 108.883 C 73.079 108.883 74.49 108.908 75.889 108.958 C 85.149 99.746 100.902 93.683 118.777 93.683 C 120.225 93.683 121.657 93.723 123.075 93.8 C 129.379 77.75 151.931 65.876 178.787 65.876 C 210.526 65.876 236.255 82.462 236.255 102.924 C 236.255 103.547 236.231 104.167 236.184 104.784 C 245.578 97.907 259.416 93.562 274.846 93.562 C 303.147 93.562 326.089 108.18 326.089 126.213 C 326.089 126.328 326.088 126.44 326.087 126.553 C 333.731 124.382 342.396 123.159 351.577 123.159 C 382.481 123.159 407.533 137.034 407.533 154.15 C 407.533 160.501 404.084 166.405 398.166 171.319 C 399.59 173.969 400.358 176.786 400.358 179.709 C 400.358 190.674 389.554 200.169 373.799 204.796 C 376.392 207.896 377.853 211.397 377.853 215.106 C 377.853 227.764 360.835 238.026 339.842 238.026 C 321.251 238.026 305.779 229.978 302.48 219.347 C 297.028 220.969 290.738 221.893 284.04 221.893 C 275.62 221.893 267.847 220.431 261.572 217.962 C 261.596 218.196 261.608 218.429 261.608 218.663 Z" style="fill: rgba(185, 176, 176, 0.35);"/>
  <path d="M 81.971 445.216 C 71.319 445.216 62.137 438.541 57.957 428.925 C 54.909 430.009 51.556 430.609 48.037 430.609 C 33.976 430.609 22.578 421.034 22.578 409.225 C 22.578 402.225 26.583 396.01 32.773 392.109 C 32.483 390.689 32.331 389.233 32.331 387.749 C 32.331 372.495 48.336 360.129 68.078 360.129 C 71.419 360.129 74.652 360.483 77.72 361.145 C 82.249 353.765 91.619 348.696 102.441 348.696 C 111.159 348.696 118.934 351.985 123.996 357.121 C 128.586 354.416 134.373 352.801 140.663 352.801 C 154.967 352.801 166.674 361.149 167.602 371.705 C 177.03 375 183.352 381.063 183.352 387.998 C 183.352 393.698 179.081 398.809 172.326 402.279 C 174.76 405.411 176.171 409.134 176.171 413.127 C 176.171 424.267 165.194 433.298 151.653 433.298 C 145.938 433.298 140.679 431.689 136.51 428.992 C 135.596 435.789 125.273 441.149 112.674 441.149 C 107.535 441.149 102.775 440.257 98.877 438.74 C 94.296 442.784 88.402 445.216 81.971 445.216 Z" style="fill: rgba(185, 176, 176, 0.35);"/>
</svg>