<?xml version="1.0" encoding="utf-8"?>
<svg viewBox="0 0 500 500" xmlns="http://www.w3.org/2000/svg">
  <g style="" transform="matrix(1.166782, 0, 0, 1.166782, -71.337189, -172.286575)">
    <circle style="fill: rgba(216, 216, 216, 0.1);" cx="241.168" cy="212.251" r="67.26" transform="matrix(0.927184, -0.374607, 0.374607, 0.927184, -145.39714, 143.547467)"/>
    <path d="M 159.781 327.863 C 122.634 327.863 92.521 297.75 92.521 260.603 C 92.521 223.456 122.634 193.343 159.781 193.343 C 163.407 193.343 166.965 193.629 170.435 194.182 C 138.351 199.287 113.828 227.082 113.828 260.603 C 113.828 294.124 138.351 321.918 170.435 327.024 C 166.965 327.577 163.407 327.863 159.781 327.863 Z" style="fill: rgb(251, 246, 217);" transform="matrix(0.927184, -0.374607, 0.374607, 0.927184, -88.049947, 68.228706)"/>
  </g>
  <path d="M 64.218 386.829 C 64.218 372.473 94.825 360.835 132.583 360.835 C 134.893 360.835 137.178 360.878 139.428 360.964 C 142.793 352.253 158.043 345.679 176.345 345.679 C 180.447 345.679 184.396 346.009 188.091 346.62 C 195.067 336.888 212.25 330.007 232.341 330.007 C 254.54 330.007 273.189 338.408 278.442 349.771 C 285.338 346.922 294.751 345.168 305.127 345.168 C 318.376 345.168 330.054 348.027 336.927 352.374 C 340.844 351.959 344.896 351.74 349.043 351.74 C 382.638 351.74 409.872 366.043 409.872 383.685 C 409.872 387.383 408.677 390.934 406.474 394.236 C 431.109 394.689 450.803 404.796 450.803 417.202 C 450.803 428.341 434.922 437.628 413.844 439.735 C 410.886 446.835 396.259 452.326 378.248 452.842 C 378.253 452.946 378.256 453.046 378.256 453.149 C 378.256 462.517 355.61 470.113 327.676 470.113 C 301.931 470.113 280.679 463.662 277.505 455.319 C 276.967 455.374 276.428 455.43 275.89 455.482 C 276.773 456.655 277.239 457.876 277.239 459.124 C 277.239 468.54 250.832 476.173 218.257 476.173 C 185.743 476.173 159.371 468.567 159.276 459.177 C 151.912 460.984 143.113 462.036 133.665 462.036 C 112.335 462.036 94.327 456.678 88.609 449.341 C 88.143 449.349 87.675 449.352 87.207 449.352 C 59.93 449.352 37.817 438.992 37.817 426.212 C 37.817 414.617 56.019 405.015 79.765 403.334 C 70.05 398.844 64.218 393.096 64.218 386.829 Z" style="fill: rgb(229, 229, 229);"/>
  <path d="M 384.109 85.19 C 379.936 85.19 375.906 85.417 372.103 85.843 C 369.237 79.959 356.569 75.525 341.378 75.525 C 324.996 75.525 311.549 80.682 310.162 87.252 C 308.538 87.182 306.889 87.148 305.221 87.148 C 277.953 87.148 255.849 96.519 255.849 108.078 C 255.849 114.245 262.144 119.792 272.162 123.623 C 271.303 124.862 270.825 126.236 270.825 127.681 C 270.825 132.871 276.98 137.135 284.843 137.61 C 286.684 139.423 289.099 141.115 291.997 142.651 C 292.523 147.012 302.286 150.486 314.255 150.486 C 315.748 150.486 317.204 150.432 318.614 150.33 C 319.62 150.465 320.637 150.586 321.669 150.698 C 324.416 155.194 333.318 158.486 343.873 158.486 C 351.954 158.486 359.065 156.556 363.188 153.634 C 370.007 155.418 378.773 156.494 388.332 156.494 C 410.069 156.494 427.691 150.945 427.691 144.1 C 427.691 143.722 427.636 143.347 427.53 142.975 C 431.468 142.268 434.338 140.068 434.338 137.466 C 434.338 137.05 434.265 136.648 434.126 136.258 C 444.402 134.106 451.616 129.048 451.616 123.151 C 451.616 121.256 450.872 119.45 449.52 117.797 C 450.864 116.731 451.677 115.342 451.677 113.823 C 451.677 112.982 451.428 112.179 450.978 111.452 C 461.766 109.036 469.221 103.861 469.221 97.869 C 469.221 89.566 454.909 82.836 437.254 82.836 C 426.667 82.836 417.283 85.255 411.466 88.982 C 404.12 86.62 394.562 85.19 384.109 85.19 Z" style="fill: rgb(229, 229, 229);" transform="matrix(-1, 0, 0, -1, 725.070007, 234.010994)"/>
</svg>