<?xml version="1.0" encoding="utf-8"?>
<svg viewBox="0 0 500 500" xmlns="http://www.w3.org/2000/svg">
  <g style="" transform="matrix(0.533968, 0, 0, 0.533968, -7.813875, -25.013889)">
    <circle style="fill: rgba(216, 216, 216, 0.11);" cx="241.168" cy="212.251" r="126.267" transform="matrix(0.927184, -0.374607, 0.374607, 0.927184, -53.117591, 143.547574)"/>
    <path d="M 253.869 396.171 C 184.134 396.171 127.602 339.639 127.602 269.904 C 127.602 200.169 184.134 143.637 253.869 143.637 C 260.675 143.637 267.355 144.175 273.869 145.212 C 213.638 154.797 167.602 206.975 167.602 269.904 C 167.602 332.833 213.638 385.011 273.869 394.596 C 267.355 395.633 260.675 396.171 253.869 396.171 Z" style="fill: rgb(251, 246, 217);" transform="matrix(0.927184, -0.374607, 0.374607, 0.927184, -86.491088, 94.850305)"/>
  </g>
  <circle style="fill: rgb(216, 216, 216);" cx="68.688" cy="261.4" r="6.3"/>
  <circle style="fill: rgb(216, 216, 216);" cx="101.212" cy="272.988" r="6.3"/>
  <circle style="fill: rgb(216, 216, 216);" cx="65.63" cy="298.13" r="6.3"/>
  <circle style="fill: rgb(216, 216, 216);" cx="95.052" cy="309.648" r="6.3"/>
  <circle style="fill: rgb(216, 216, 216);" cx="58.271" cy="334.283" r="6.3"/>
  <circle style="fill: rgb(216, 216, 216);" cx="94.514" cy="343.009" r="6.3"/>
  <circle style="fill: rgb(216, 216, 216);" cx="56.225" cy="363.446" r="6.3"/>
  <circle style="fill: rgb(216, 216, 216);" cx="81.608" cy="374.257" r="6.3"/>
  <circle style="fill: rgb(216, 216, 216);" cx="44.997" cy="391.848" r="6.3"/>
  <circle style="fill: rgb(216, 216, 216);" cx="76.305" cy="396.807" r="6.3"/>
  <circle style="fill: rgb(216, 216, 216);" cx="114.472" cy="375.917" r="6.3"/>
  <circle style="fill: rgb(216, 216, 216);" cx="118.056" cy="343.732" r="6.3"/>
  <circle style="fill: rgb(216, 216, 216);" cx="133.299" cy="321.481" r="6.3"/>
  <circle style="fill: rgb(216, 216, 216);" cx="127.563" cy="297.819" r="6.3"/>
  <circle style="fill: rgb(216, 216, 216);" cx="148.805" cy="286.12" r="6.3"/>
  <circle style="fill: rgb(216, 216, 216);" cx="123.985" cy="264.473" r="6.3"/>
  <circle style="fill: rgb(216, 216, 216);" cx="169.963" cy="263.868" r="6.3"/>
  <circle style="fill: rgb(216, 216, 216);" cx="149.443" cy="251.939" r="6.3"/>
  <circle style="fill: rgb(216, 216, 216);" cx="311.556" cy="242.952" r="6.3"/>
  <circle style="fill: rgb(216, 216, 216);" cx="340.982" cy="257.885" r="6.3"/>
  <circle style="fill: rgb(216, 216, 216);" cx="370.594" cy="263.214" r="6.3"/>
  <circle style="fill: rgb(216, 216, 216);" cx="410.332" cy="274.17" r="6.3"/>
  <circle style="fill: rgb(216, 216, 216);" cx="437.761" cy="292.223" r="6.3"/>
  <circle style="fill: rgb(216, 216, 216);" cx="415.373" cy="313.546" r="6.3"/>
  <circle style="fill: rgb(216, 216, 216);" cx="389.794" cy="290.092" r="6.3"/>
  <circle style="fill: rgb(216, 216, 216);" cx="359.521" cy="298.359" r="6.3"/>
  <circle style="fill: rgb(216, 216, 216);" cx="336.189" cy="281.486" r="6.3"/>
  <circle style="fill: rgb(216, 216, 216);" cx="366.004" cy="332.74" r="6.3"/>
  <circle style="fill: rgb(216, 216, 216);" cx="383.568" cy="359.038" r="6.3"/>
  <circle style="fill: rgb(216, 216, 216);" cx="420.59" cy="367.184" r="6.3"/>
  <circle style="fill: rgb(216, 216, 216);" cx="393.944" cy="327.172" r="6.3"/>
  <circle style="fill: rgb(216, 216, 216);" cx="437.935" cy="345.044" r="6.3"/>
  <circle style="fill: rgb(216, 216, 216);" cx="445.11" cy="384.521" r="6.3"/>
  <circle style="fill: rgb(216, 216, 216);" cx="407.203" cy="396.381" r="6.3"/>
  <path d="M 48.751 159.981 C 48.751 154.843 51.478 150.09 56.107 146.218 C 53.718 143.384 52.385 140.225 52.385 136.896 C 52.385 129.852 58.352 123.575 67.658 119.51 C 67.625 119.112 67.609 118.711 67.609 118.307 C 67.609 110.045 74.487 102.842 84.677 99.045 C 84.341 97.743 84.165 96.398 84.165 95.023 C 84.165 84.214 95.038 75.296 109.086 74 C 113.519 67.61 122.717 63.219 133.344 63.219 C 134.652 63.219 135.938 63.285 137.196 63.414 C 141.143 59.254 148.826 56.431 157.659 56.431 C 159.683 56.431 161.647 56.579 163.519 56.858 C 167.794 52.723 176.373 49.9 186.26 49.9 C 192.01 49.9 197.317 50.855 201.593 52.467 C 205.645 49.234 212.496 47.11 220.264 47.11 C 226.579 47.11 232.288 48.514 236.38 50.776 C 241.493 48.604 248.672 47.253 256.62 47.253 C 265.374 47.253 273.193 48.892 278.35 51.461 C 282.421 50.083 287.458 49.269 292.91 49.269 C 300.946 49.269 308.079 51.038 312.552 53.772 C 316.486 51.571 322.004 50.203 328.114 50.203 C 337.849 50.203 346.082 53.677 348.798 58.456 C 349.641 58.368 350.51 58.322 351.399 58.322 C 357.904 58.322 363.366 60.786 364.876 64.112 C 367.045 63.572 369.469 63.27 372.027 63.27 C 380.918 63.27 388.191 66.919 388.739 71.529 C 390.172 71.347 391.668 71.251 393.206 71.251 C 403.455 71.251 411.826 75.529 412.357 80.913 C 424.921 81.145 434.958 86.077 434.958 92.127 C 434.958 92.356 434.944 92.583 434.915 92.809 C 444.712 94.889 451.76 100.681 451.76 107.501 C 451.76 110.862 450.048 113.974 447.139 116.514 C 454.09 119.416 458.507 123.764 458.507 128.624 C 458.507 131.866 456.542 134.88 453.17 137.389 C 461.185 139.977 466.435 144.297 466.435 149.189 C 466.435 153.106 463.07 156.656 457.615 159.244 C 464.831 162.34 469.564 167.537 469.564 173.425 C 469.564 179.862 463.908 185.472 455.535 188.416 C 460.332 191.401 462.988 194.688 462.988 198.141 C 462.988 205.479 450.992 212.07 431.944 216.597 C 435.887 219.523 438.122 222.864 438.122 226.411 C 438.122 237.961 414.427 247.324 385.197 247.324 C 356.446 247.324 333.051 238.266 332.291 226.978 C 331.776 226.998 331.254 227.008 330.727 227.008 C 321.469 227.008 313.964 223.832 313.964 219.915 C 313.964 219.22 314.201 218.547 314.642 217.912 C 306.428 216.267 299.273 214.266 293.497 211.996 L 293.497 274.438 L 207.337 274.438 L 207.337 214.12 C 206.601 214.148 205.854 214.163 205.096 214.163 C 199.845 214.163 195.066 213.465 191.488 212.323 C 193.259 213.554 194.274 214.985 194.274 216.512 C 194.274 220.64 186.858 224.068 177.118 224.737 C 177.138 224.967 177.148 225.199 177.148 225.431 C 177.148 237.301 151.099 246.924 118.966 246.924 C 86.833 246.924 60.784 237.301 60.784 225.431 C 60.784 221.449 63.715 217.721 68.823 214.523 C 51.662 209.255 40.83 201.528 40.83 192.918 C 40.83 186.273 47.282 180.154 58.115 175.286 C 52.277 171.168 48.751 165.823 48.751 159.981 Z" style="fill: rgba(187, 187, 187, 0.55);"/>
  <path d="M 409.932 452.927 L 89.09 454.453 L 193.982 270.763 L 303.602 270.763 Z" style="fill: rgb(121, 100, 70);"/>
  <circle style="fill: rgb(216, 216, 216);" cx="438.882" cy="251.965" r="6.3"/>
</svg>