<?xml version="1.0" encoding="utf-8"?>
<svg viewBox="0 0 500 500" xmlns="http://www.w3.org/2000/svg">
  <circle style="fill: rgb(216, 216, 216);" cx="68.688" cy="261.4" r="6.3"/>
  <circle style="fill: rgb(216, 216, 216);" cx="101.212" cy="272.988" r="6.3"/>
  <circle style="fill: rgb(216, 216, 216);" cx="65.63" cy="298.13" r="6.3"/>
  <circle style="fill: rgb(216, 216, 216);" cx="95.052" cy="309.648" r="6.3"/>
  <circle style="fill: rgb(216, 216, 216);" cx="58.271" cy="334.283" r="6.3"/>
  <circle style="fill: rgb(216, 216, 216);" cx="94.514" cy="343.009" r="6.3"/>
  <circle style="fill: rgb(216, 216, 216);" cx="56.225" cy="363.446" r="6.3"/>
  <circle style="fill: rgb(216, 216, 216);" cx="81.608" cy="374.257" r="6.3"/>
  <circle style="fill: rgb(216, 216, 216);" cx="44.997" cy="391.848" r="6.3"/>
  <circle style="fill: rgb(216, 216, 216);" cx="76.305" cy="396.807" r="6.3"/>
  <circle style="fill: rgb(216, 216, 216);" cx="114.472" cy="375.917" r="6.3"/>
  <circle style="fill: rgb(216, 216, 216);" cx="118.056" cy="343.732" r="6.3"/>
  <circle style="fill: rgb(216, 216, 216);" cx="133.299" cy="321.481" r="6.3"/>
  <circle style="fill: rgb(216, 216, 216);" cx="127.563" cy="297.819" r="6.3"/>
  <circle style="fill: rgb(216, 216, 216);" cx="148.805" cy="286.12" r="6.3"/>
  <circle style="fill: rgb(216, 216, 216);" cx="123.985" cy="264.473" r="6.3"/>
  <circle style="fill: rgb(216, 216, 216);" cx="169.963" cy="263.868" r="6.3"/>
  <circle style="fill: rgb(216, 216, 216);" cx="149.443" cy="251.939" r="6.3"/>
  <circle style="fill: rgb(216, 216, 216);" cx="311.556" cy="242.952" r="6.3"/>
  <circle style="fill: rgb(216, 216, 216);" cx="340.982" cy="257.885" r="6.3"/>
  <circle style="fill: rgb(216, 216, 216);" cx="370.594" cy="263.214" r="6.3"/>
  <circle style="fill: rgb(216, 216, 216);" cx="410.332" cy="274.17" r="6.3"/>
  <circle style="fill: rgb(216, 216, 216);" cx="437.761" cy="292.223" r="6.3"/>
  <circle style="fill: rgb(216, 216, 216);" cx="415.373" cy="313.546" r="6.3"/>
  <circle style="fill: rgb(216, 216, 216);" cx="389.794" cy="290.092" r="6.3"/>
  <circle style="fill: rgb(216, 216, 216);" cx="359.521" cy="298.359" r="6.3"/>
  <circle style="fill: rgb(216, 216, 216);" cx="336.189" cy="281.486" r="6.3"/>
  <circle style="fill: rgb(216, 216, 216);" cx="366.004" cy="332.74" r="6.3"/>
  <circle style="fill: rgb(216, 216, 216);" cx="383.568" cy="359.038" r="6.3"/>
  <circle style="fill: rgb(216, 216, 216);" cx="420.59" cy="367.184" r="6.3"/>
  <circle style="fill: rgb(216, 216, 216);" cx="393.944" cy="327.172" r="6.3"/>
  <circle style="fill: rgb(216, 216, 216);" cx="437.935" cy="345.044" r="6.3"/>
  <circle style="fill: rgb(216, 216, 216);" cx="445.11" cy="384.521" r="6.3"/>
  <circle style="fill: rgb(216, 216, 216);" cx="407.203" cy="396.381" r="6.3"/>
  <circle style="fill: rgba(216, 216, 216, 0.11);" cx="241.168" cy="212.251" r="67.423" transform="matrix(0.927184, -0.374607, 0.374607, 0.927184, -179.63781, 7.589725)"/>
  <path d="M 125.546 192.093 C 88.31 192.093 58.123 161.907 58.123 124.67 C 58.123 87.434 88.31 57.248 125.546 57.248 C 129.18 57.248 132.747 57.535 136.225 58.089 C 104.064 63.207 79.482 91.068 79.482 124.67 C 79.482 158.272 104.064 186.134 136.225 191.252 C 132.747 191.806 129.18 192.093 125.546 192.093 Z" style="fill: rgb(251, 231, 217);" transform="matrix(0.927184, -0.374607, 0.374607, 0.927184, -39.626582, 45.480093)"/>
  <circle style="fill: rgb(216, 216, 216);" cx="67.759" cy="92.415" r="6.3"/>
  <circle style="fill: rgb(216, 216, 216);" cx="100.283" cy="104.003" r="6.3"/>
  <circle style="fill: rgb(216, 216, 216);" cx="64.701" cy="129.145" r="6.3"/>
  <circle style="fill: rgb(216, 216, 216);" cx="94.123" cy="140.663" r="6.3"/>
  <circle style="fill: rgb(216, 216, 216);" cx="57.342" cy="165.298" r="6.3"/>
  <circle style="fill: rgb(216, 216, 216);" cx="93.585" cy="174.024" r="6.3"/>
  <circle style="fill: rgb(216, 216, 216);" cx="55.296" cy="194.461" r="6.3"/>
  <circle style="fill: rgb(216, 216, 216);" cx="80.679" cy="205.272" r="6.3"/>
  <circle style="fill: rgb(216, 216, 216);" cx="44.068" cy="222.863" r="6.3"/>
  <circle style="fill: rgb(216, 216, 216);" cx="75.376" cy="227.822" r="6.3"/>
  <circle style="fill: rgb(216, 216, 216);" cx="113.543" cy="206.932" r="6.3"/>
  <circle style="fill: rgb(216, 216, 216);" cx="117.127" cy="174.747" r="6.3"/>
  <circle style="fill: rgb(216, 216, 216);" cx="132.37" cy="152.496" r="6.3"/>
  <circle style="fill: rgb(216, 216, 216);" cx="126.634" cy="128.834" r="6.3"/>
  <circle style="fill: rgb(216, 216, 216);" cx="147.876" cy="117.135" r="6.3"/>
  <circle style="fill: rgb(216, 216, 216);" cx="123.056" cy="95.488" r="6.3"/>
  <circle style="fill: rgb(216, 216, 216);" cx="169.034" cy="94.883" r="6.3"/>
  <circle style="fill: rgb(216, 216, 216);" cx="148.514" cy="82.954" r="6.3"/>
  <circle style="fill: rgb(216, 216, 216);" cx="174.59" cy="79.488" r="6.3"/>
  <circle style="fill: rgb(216, 216, 216);" cx="207.114" cy="91.076" r="6.3"/>
  <circle style="fill: rgb(216, 216, 216);" cx="171.532" cy="116.218" r="6.3"/>
  <circle style="fill: rgb(216, 216, 216);" cx="200.954" cy="127.736" r="6.3"/>
  <circle style="fill: rgb(216, 216, 216);" cx="164.173" cy="152.371" r="6.3"/>
  <circle style="fill: rgb(216, 216, 216);" cx="200.416" cy="161.097" r="6.3"/>
  <circle style="fill: rgb(216, 216, 216);" cx="162.127" cy="181.534" r="6.3"/>
  <circle style="fill: rgb(216, 216, 216);" cx="187.51" cy="192.345" r="6.3"/>
  <circle style="fill: rgb(216, 216, 216);" cx="150.899" cy="209.936" r="6.3"/>
  <circle style="fill: rgb(216, 216, 216);" cx="182.207" cy="214.895" r="6.3"/>
  <circle style="fill: rgb(216, 216, 216);" cx="220.374" cy="194.005" r="6.3"/>
  <circle style="fill: rgb(216, 216, 216);" cx="223.958" cy="161.82" r="6.3"/>
  <circle style="fill: rgb(216, 216, 216);" cx="239.201" cy="139.569" r="6.3"/>
  <circle style="fill: rgb(216, 216, 216);" cx="233.465" cy="115.907" r="6.3"/>
  <circle style="fill: rgb(216, 216, 216);" cx="254.707" cy="104.208" r="6.3"/>
  <circle style="fill: rgb(216, 216, 216);" cx="229.887" cy="82.561" r="6.3"/>
  <circle style="fill: rgb(216, 216, 216);" cx="275.865" cy="81.956" r="6.3"/>
  <circle style="fill: rgb(216, 216, 216);" cx="255.345" cy="70.027" r="6.3"/>
  <circle style="fill: rgb(216, 216, 216);" cx="188.597" cy="296.555" r="6.3"/>
  <circle style="fill: rgb(216, 216, 216);" cx="221.121" cy="308.143" r="6.3"/>
  <circle style="fill: rgb(216, 216, 216);" cx="185.539" cy="333.285" r="6.3"/>
  <circle style="fill: rgb(216, 216, 216);" cx="214.961" cy="344.803" r="6.3"/>
  <circle style="fill: rgb(216, 216, 216);" cx="178.18" cy="369.438" r="6.3"/>
  <circle style="fill: rgb(216, 216, 216);" cx="214.423" cy="378.164" r="6.3"/>
  <circle style="fill: rgb(216, 216, 216);" cx="176.134" cy="398.601" r="6.3"/>
  <circle style="fill: rgb(216, 216, 216);" cx="201.517" cy="409.412" r="6.3"/>
  <circle style="fill: rgb(216, 216, 216);" cx="164.906" cy="427.003" r="6.3"/>
  <circle style="fill: rgb(216, 216, 216);" cx="196.214" cy="431.962" r="6.3"/>
  <circle style="fill: rgb(216, 216, 216);" cx="234.381" cy="411.072" r="6.3"/>
  <circle style="fill: rgb(216, 216, 216);" cx="237.965" cy="378.887" r="6.3"/>
  <circle style="fill: rgb(216, 216, 216);" cx="253.208" cy="356.636" r="6.3"/>
  <circle style="fill: rgb(216, 216, 216);" cx="247.472" cy="332.974" r="6.3"/>
  <circle style="fill: rgb(216, 216, 216);" cx="268.714" cy="321.275" r="6.3"/>
  <circle style="fill: rgb(216, 216, 216);" cx="243.894" cy="299.628" r="6.3"/>
  <circle style="fill: rgb(216, 216, 216);" cx="289.872" cy="299.023" r="6.3"/>
  <circle style="fill: rgb(216, 216, 216);" cx="269.352" cy="287.094" r="6.3"/>
  <circle style="fill: rgb(216, 216, 216);" cx="297.803" cy="50.696" r="6.3"/>
  <circle style="fill: rgb(216, 216, 216);" cx="327.229" cy="65.629" r="6.3"/>
  <circle style="fill: rgb(216, 216, 216);" cx="356.841" cy="70.958" r="6.3"/>
  <circle style="fill: rgb(216, 216, 216);" cx="396.579" cy="81.914" r="6.3"/>
  <circle style="fill: rgb(216, 216, 216);" cx="401.62" cy="121.29" r="6.3"/>
  <circle style="fill: rgb(216, 216, 216);" cx="376.041" cy="97.836" r="6.3"/>
  <circle style="fill: rgb(216, 216, 216);" cx="345.768" cy="106.103" r="6.3"/>
  <circle style="fill: rgb(216, 216, 216);" cx="322.436" cy="89.23" r="6.3"/>
  <circle style="fill: rgb(216, 216, 216);" cx="352.251" cy="140.484" r="6.3"/>
  <circle style="fill: rgb(216, 216, 216);" cx="369.815" cy="166.782" r="6.3"/>
  <circle style="fill: rgb(216, 216, 216);" cx="380.191" cy="134.916" r="6.3"/>
  <circle style="fill: rgb(216, 216, 216);" cx="276.119" cy="106.767" r="6.3"/>
  <circle style="fill: rgb(216, 216, 216);" cx="262.263" cy="123.768" r="6.3"/>
  <circle style="fill: rgb(216, 216, 216);" cx="291.689" cy="138.701" r="6.3"/>
  <circle style="fill: rgb(216, 216, 216);" cx="321.301" cy="144.03" r="6.3"/>
  <circle style="fill: rgb(216, 216, 216);" cx="361.039" cy="154.986" r="6.3"/>
  <circle style="fill: rgb(216, 216, 216);" cx="366.08" cy="194.362" r="6.3"/>
  <circle style="fill: rgb(216, 216, 216);" cx="340.501" cy="170.908" r="6.3"/>
  <circle style="fill: rgb(216, 216, 216);" cx="310.228" cy="179.175" r="6.3"/>
  <circle style="fill: rgb(216, 216, 216);" cx="286.896" cy="162.302" r="6.3"/>
  <circle style="fill: rgb(216, 216, 216);" cx="316.711" cy="213.556" r="6.3"/>
  <circle style="fill: rgb(216, 216, 216);" cx="334.275" cy="239.854" r="6.3"/>
  <circle style="fill: rgb(216, 216, 216);" cx="344.651" cy="207.988" r="6.3"/>
  <circle style="fill: rgb(216, 216, 216);" cx="240.579" cy="179.839" r="6.3"/>
  <circle style="fill: rgb(216, 216, 216);" cx="289.316" cy="378.093" r="6.3"/>
  <circle style="fill: rgb(216, 216, 216);" cx="306.88" cy="404.391" r="6.3"/>
  <circle style="fill: rgb(216, 216, 216);" cx="343.902" cy="412.537" r="6.3"/>
  <circle style="fill: rgb(216, 216, 216);" cx="317.256" cy="372.525" r="6.3"/>
  <circle style="fill: rgb(216, 216, 216);" cx="361.247" cy="390.397" r="6.3"/>
  <circle style="fill: rgb(216, 216, 216);" cx="368.422" cy="429.874" r="6.3"/>
  <circle style="fill: rgb(216, 216, 216);" cx="330.515" cy="441.734" r="6.3"/>
  <circle style="fill: rgb(216, 216, 216);" cx="210.051" cy="213.818" r="6.3"/>
  <circle style="fill: rgb(216, 216, 216);" cx="227.615" cy="240.117" r="6.3"/>
  <circle style="fill: rgb(216, 216, 216);" cx="264.637" cy="248.262" r="6.3"/>
  <circle style="fill: rgb(216, 216, 216);" cx="237.991" cy="208.251" r="6.3"/>
  <circle style="fill: rgb(216, 216, 216);" cx="281.982" cy="226.123" r="6.3"/>
  <circle style="fill: rgb(216, 216, 216);" cx="289.157" cy="265.6" r="6.3"/>
  <circle style="fill: rgb(216, 216, 216);" cx="251.25" cy="277.46" r="6.3"/>
  <circle style="fill: rgb(216, 216, 216);" cx="390.059" cy="169.844" r="6.3"/>
  <circle style="fill: rgb(216, 216, 216);" cx="407.623" cy="196.143" r="6.3"/>
  <circle style="fill: rgb(216, 216, 216);" cx="444.645" cy="204.288" r="6.3"/>
  <circle style="fill: rgb(216, 216, 216);" cx="417.999" cy="164.277" r="6.3"/>
  <circle style="fill: rgb(216, 216, 216);" cx="461.99" cy="182.149" r="6.3"/>
  <circle style="fill: rgb(216, 216, 216);" cx="469.165" cy="221.626" r="6.3"/>
  <circle style="fill: rgb(216, 216, 216);" cx="431.258" cy="233.486" r="6.3"/>
  <circle style="fill: rgb(216, 216, 216);" cx="109.364" cy="237.664" r="6.3"/>
  <circle style="fill: rgb(216, 216, 216);" cx="152.089" cy="350.896" r="6.3"/>
  <circle style="fill: rgb(216, 216, 216);" cx="123.48" cy="408.591" r="6.3"/>
  <circle style="fill: rgb(216, 216, 216);" cx="298.178" cy="340.781" r="6.3"/>
  <circle style="fill: rgb(216, 216, 216);" cx="336.723" cy="325.089" r="6.3"/>
  <circle style="fill: rgb(216, 216, 216);" cx="312.282" cy="284.408" r="6.3"/>
  <circle style="fill: rgb(216, 216, 216);" cx="346.36" cy="359.611" r="6.3"/>
  <circle style="fill: rgb(216, 216, 216);" cx="215.106" cy="280.921" r="6.3"/>
  <circle style="fill: rgb(216, 216, 216);" cx="199.833" cy="242.117" r="6.3"/>
  <circle style="fill: rgb(216, 216, 216);" cx="161.09" cy="231.428" r="6.3"/>
  <circle style="fill: rgb(216, 216, 216);" cx="37.729" cy="260.614" r="6.3"/>
  <circle style="fill: rgb(216, 216, 216);" cx="278.27" cy="194.262" r="6.3"/>
  <circle style="fill: rgb(216, 216, 216);" cx="358.078" cy="227.842" r="6.3"/>
  <circle style="fill: rgb(216, 216, 216);" cx="393.986" cy="226.458" r="6.3"/>
  <circle style="fill: rgb(216, 216, 216);" cx="310.517" cy="118.145" r="6.3"/>
  <circle style="fill: rgb(216, 216, 216);" cx="298.546" cy="74.623" r="6.3"/>
  <circle style="fill: rgb(216, 216, 216);" cx="216.954" cy="59.145" r="6.3"/>
  <circle style="fill: rgb(216, 216, 216);" cx="427.717" cy="106.277" r="6.3"/>
  <circle style="fill: rgb(216, 216, 216);" cx="428.177" cy="71.333" r="6.3"/>
  <circle style="fill: rgb(216, 216, 216);" cx="384.096" cy="57.491" r="6.3"/>
  <circle style="fill: rgb(216, 216, 216);" cx="342.195" cy="39.314" r="6.3"/>
  <circle style="fill: rgb(216, 216, 216);" cx="264.114" cy="39.657" r="6.3"/>
  <circle style="fill: rgb(216, 216, 216);" cx="393.928" cy="151.871" r="6.3"/>
  <circle style="fill: rgb(216, 216, 216);" cx="426.877" cy="135.139" r="6.3"/>
  <circle style="fill: rgb(216, 216, 216);" cx="454.726" cy="132.22" r="6.3"/>
  <circle style="fill: rgb(216, 216, 216);" cx="430.491" cy="182.27" r="6.3"/>
  <circle style="fill: rgb(216, 216, 216);" cx="449.079" cy="158.153" r="6.3"/>
  <circle style="fill: rgb(216, 216, 216);" cx="449.07" cy="253.746" r="6.3"/>
  <circle style="fill: rgb(216, 216, 216);" cx="398.113" cy="240.864" r="6.3"/>
  <circle style="fill: rgb(216, 216, 216);" cx="317.438" cy="315.106" r="6.3"/>
  <circle style="fill: rgb(216, 216, 216);" cx="274.028" cy="393.477" r="6.3"/>
  <circle style="fill: rgb(216, 216, 216);" cx="290.333" cy="432.599" r="6.3"/>
  <circle style="fill: rgb(216, 216, 216);" cx="316.548" cy="461.37" r="6.3"/>
  <circle style="fill: rgb(216, 216, 216);" cx="148.281" cy="386.375" r="6.3"/>
  <circle style="fill: rgb(216, 216, 216);" cx="12.865" cy="323.925" r="6.3"/>
  <circle style="fill: rgb(216, 216, 216);" cx="22.005" cy="362.582" r="6.3"/>
  <circle style="fill: rgb(216, 216, 216);" cx="33.216" cy="293.06" r="6.3"/>
  <circle style="fill: rgb(216, 216, 216);" cx="19.493" cy="215.839" r="6.3"/>
  <circle style="fill: rgb(216, 216, 216);" cx="10.632" cy="255.092" r="6.3"/>
  <circle style="fill: rgb(216, 216, 216);" cx="29.428" cy="162.752" r="6.3"/>
  <circle style="fill: rgb(216, 216, 216);" cx="28.157" cy="125.931" r="6.3"/>
  <circle style="fill: rgb(216, 216, 216);" cx="43.446" cy="75.784" r="6.3"/>
  <circle style="fill: rgb(216, 216, 216);" cx="98.861" cy="74.08" r="6.3"/>
  <circle style="fill: rgb(216, 216, 216);" cx="152.438" cy="42.054" r="6.3"/>
  <circle style="fill: rgb(216, 216, 216);" cx="109.295" cy="154.835" r="6.3"/>
  <circle style="fill: rgb(216, 216, 216);" cx="105.188" cy="126.374" r="6.3"/>
  <circle style="fill: rgb(216, 216, 216);" cx="84.765" cy="112.285" r="6.3"/>
  <circle style="fill: rgb(216, 216, 216);" cx="126.622" cy="108.993" r="6.3"/>
  <circle style="fill: rgb(216, 216, 216);" cx="126.968" cy="67.28" r="6.3"/>
  <circle style="fill: rgb(216, 216, 216);" cx="86.664" cy="43.39" r="6.3"/>
  <circle style="fill: rgb(216, 216, 216);" cx="190.513" cy="32.754" r="6.3"/>
  <circle style="fill: rgb(216, 216, 216);" cx="260.685" cy="160.372" r="6.3"/>
  <circle style="fill: rgb(216, 216, 216);" cx="162.018" cy="315.298" r="6.3"/>
</svg>