<?xml version="1.0" encoding="utf-8"?>
<svg viewBox="0 0 500 500" xmlns="http://www.w3.org/2000/svg">
  <line style="stroke-linecap: round; stroke-miterlimit: 7; stroke-width: 3px; stroke-dashoffset: -16px; stroke-dasharray: 4, 12; stroke: rgb(234, 234, 234);" x1="151.282" y1="191.219" x2="151.282" y2="502.115" transform="matrix(0.891006, -0.453991, 0.453991, 0.891006, -140.894947, 106.465245)"/>
  <line style="stroke-linecap: round; stroke-miterlimit: 7; stroke-width: 3px; stroke-dashoffset: -16px; stroke-dasharray: 4, 12; stroke: rgb(234, 234, 234);" x1="200.614" y1="201.005" x2="200.614" y2="486.751" transform="matrix(0.891006, -0.453991, 0.453991, 0.891006, -134.251889, 128.557555)"/>
  <line style="stroke-linecap: round; stroke-miterlimit: 7; stroke-width: 3px; stroke-dashoffset: -16px; stroke-dasharray: 4, 12; stroke: rgb(234, 234, 234);" x1="255.978" y1="212.096" x2="255.978" y2="502.09" transform="matrix(0.891006, -0.453991, 0.453991, 0.891006, -134.217048, 155.132674)"/>
  <line style="stroke-linecap: round; stroke-miterlimit: 7; stroke-width: 3px; stroke-dashoffset: -16px; stroke-dasharray: 4, 12; stroke: rgb(234, 234, 234);" x1="311.556" y1="208.606" x2="311.556" y2="475.997" transform="matrix(0.891006, -0.453991, 0.453991, 0.891006, -121.444177, 178.752413)"/>
  <line style="stroke-linecap: round; stroke-miterlimit: 7; stroke-width: 3px; stroke-dashoffset: -16px; stroke-dasharray: 4, 12; stroke: rgb(234, 234, 234);" x1="353.481" y1="203.658" x2="353.481" y2="424.526" transform="matrix(0.891006, -0.453991, 0.453991, 0.891006, -104.067752, 194.711326)"/>
  <line style="stroke-linecap: round; stroke-miterlimit: 7; stroke-width: 3px; stroke-dashoffset: -16px; stroke-dasharray: 4, 12; stroke: rgb(234, 234, 234);" x1="409.88" y1="195.443" x2="409.88" y2="416.311" transform="matrix(0.891006, -0.453991, 0.453991, 0.891006, -94.191069, 219.420597)"/>
  <polyline style="fill: rgb(182, 180, 97);" points="221.603 261.628 307.933 341.136 239.414 309.083 328.455 395.492 270.54 369.132 325.816 430.867 210.786 345.393 258.053 350.562 199.332 277.504 232.235 289.568 207.446 244.277"/>
  <polyline style="fill: rgb(249, 246, 78);" points="221.908 255.045 308.239 334.552 239.72 302.5 328.761 388.908 270.846 362.548 326.122 424.283 211.091 338.809 258.359 343.979 199.638 270.92 232.541 282.984 207.752 237.694"/>
  <path d="M 146.131 221.097 C 129.115 221.097 113.14 217.273 99.304 210.57 C 93.358 211.741 87.029 212.372 80.465 212.372 C 45.858 212.372 17.803 194.834 17.803 173.199 C 17.803 158.305 31.099 145.353 50.674 138.727 C 50.913 93.624 93.558 57.124 146.131 57.124 C 148.366 57.124 150.583 57.191 152.78 57.319 C 166.461 46.236 184.312 39.527 203.838 39.527 C 209.027 39.527 214.097 40.001 219.002 40.905 C 231.817 24.398 252.27 13.713 275.317 13.713 C 310.517 13.713 339.673 38.64 344.79 71.167 C 351.099 69.802 357.884 69.06 364.949 69.06 C 398.463 69.06 425.632 85.753 425.632 106.345 C 425.632 112.38 423.299 118.08 419.156 123.123 C 456.946 132.777 482.198 150.27 482.198 170.247 C 482.198 200.663 423.663 225.319 351.456 225.319 C 333.012 225.319 315.462 223.71 299.549 220.808 C 284.954 231.772 257.96 239.133 227.072 239.133 C 196.159 239.133 169.145 231.761 154.561 220.781 C 151.783 220.99 148.972 221.097 146.131 221.097 Z" style="fill: rgb(216, 216, 216);"/>
</svg>