<?xml version="1.0" encoding="utf-8"?>
<svg viewBox="0 0 500 500" xmlns="http://www.w3.org/2000/svg">
  <g>
    <circle style="fill: rgba(216, 216, 216, 0.11);" cx="241.168" cy="212.251" r="57.979" transform="matrix(0.927184, -0.374607, 0.374607, 0.927184, -175.312896, 18.968211)"/>
    <path d="M 129.581 192.54 C 97.56 192.54 71.602 166.582 71.602 134.561 C 71.602 102.54 97.56 76.581 129.581 76.581 C 132.706 76.581 135.774 76.828 138.765 77.304 C 111.108 81.706 89.969 105.665 89.969 134.561 C 89.969 163.456 111.108 187.416 138.765 191.817 C 135.774 192.293 132.706 192.54 129.581 192.54 Z" style="fill: rgb(255, 242, 165);" transform="matrix(0.927184, -0.374607, 0.374607, 0.927184, -42.748221, 49.200658)"/>
  </g>
  <path d="M 101.235 467.622 C 64.988 467.622 35.09 447.44 30.805 421.381 C 15.641 415.013 5.963 405.339 5.963 394.503 C 5.963 378.624 26.749 365.234 55.127 361.102 C 51.444 357.137 49.374 352.669 49.374 347.942 C 49.374 337.533 59.419 328.374 74.617 323.082 C 71.985 321.568 69.619 319.301 67.645 316.463 C 62.917 318.031 57.861 318.88 52.608 318.88 C 26.226 318.88 4.838 297.473 4.838 271.067 C 4.838 254.151 13.615 239.287 26.861 230.787 C 24.612 227.02 23.38 222.93 23.38 218.654 C 23.38 206.915 32.667 196.572 46.774 190.495 C 42.521 186.555 40.12 182.081 40.12 177.341 C 40.12 166.242 53.285 156.614 72.554 151.834 C 57.697 149.014 46.932 140.694 46.932 130.87 C 46.932 118.751 63.313 108.923 83.547 108.882 C 78.011 104.119 74.773 98.364 74.773 92.166 C 74.773 75.767 97.425 62.473 125.369 62.473 C 127.188 62.473 128.984 62.53 130.752 62.64 C 131.339 50.396 161.742 40.53 199.159 40.53 C 235.53 40.53 265.271 49.851 267.447 61.616 C 282.397 62.884 295.634 67.116 305.234 73.215 C 307.651 73.175 310.092 73.155 312.554 73.155 C 368.134 73.155 413.19 83.601 413.19 96.488 C 413.19 99.895 410.041 103.132 404.38 106.049 C 426.574 107.833 443.589 114.419 446.186 122.544 C 462.536 127.98 473.838 139.631 473.838 153.127 C 473.838 155.156 473.583 157.142 473.093 159.074 C 478.09 164.946 480.956 171.792 480.956 179.097 C 480.956 183.837 479.75 188.382 477.538 192.594 C 488.572 195.334 495.683 199.639 495.683 204.482 C 495.683 212.756 474.918 219.465 449.302 219.465 C 446.047 219.465 442.87 219.357 439.804 219.15 C 440.009 219.937 440.117 220.755 440.117 221.593 C 440.117 224.872 438.463 227.828 435.811 229.914 C 439.204 234.926 441.112 240.576 441.112 246.555 C 441.112 253.161 438.782 259.366 434.695 264.752 C 440.168 265.538 444.395 268.958 444.941 273.187 C 465.592 275.318 481.265 285.724 481.265 298.239 C 481.265 308.109 471.518 316.665 457.271 320.889 C 462.568 321.262 466.76 326.017 466.76 331.827 C 466.76 333.146 466.545 334.408 466.148 335.58 C 475.626 342.17 481.422 351.008 481.422 360.722 C 481.422 376.297 466.521 389.619 445.44 395.045 C 462.595 398.564 473.766 404.303 473.766 410.787 C 473.766 421.492 443.312 430.17 405.745 430.17 C 379.223 430.17 356.246 425.845 345.028 419.533 C 343.605 419.836 342.164 420.115 340.702 420.367 C 332.026 432.047 310.097 440.338 284.415 440.338 C 278.123 440.338 272.056 439.841 266.354 438.916 C 256.766 452.971 228.063 463.174 194.144 463.174 C 176.11 463.174 159.55 460.29 146.554 455.475 C 134.262 463.06 118.466 467.622 101.235 467.622 Z M 448.853 322.779 C 448.508 324.209 448.041 325.601 447.46 326.948 C 447.469 326.949 447.476 326.953 447.484 326.955 C 448.386 324.998 449.814 323.371 451.57 322.293 C 450.678 322.471 449.772 322.634 448.853 322.779 Z M 237.098 220.834 C 237.169 220.081 237.272 219.336 237.409 218.598 C 236.778 219.2 236.121 219.793 235.442 220.376 C 235.998 220.523 236.55 220.675 237.098 220.834 Z M 382.452 301.064 C 382.743 300.669 383.046 300.28 383.36 299.896 C 382.279 299.974 381.186 300.04 380.081 300.089 C 380.888 300.401 381.678 300.725 382.452 301.064 Z M 390.671 391.882 C 391.556 391.824 392.447 391.772 393.345 391.726 C 392.639 391.43 391.946 391.124 391.262 390.808 C 391.072 391.168 390.875 391.526 390.671 391.882 Z" style="fill: rgba(191, 187, 187, 0.43);"/>
</svg>