<?xml version="1.0" encoding="utf-8"?>
<svg viewBox="0 0 500 500" xmlns="http://www.w3.org/2000/svg">
  <g transform="matrix(1, 0, 0, 1, -36.006184, -76.731506)">
    <circle style="fill: rgba(216, 216, 216, 0.11);" cx="241.168" cy="212.251" r="57.979" transform="matrix(0.927184, -0.374607, 0.374607, 0.927184, -139.30696, 95.699628)"/>
    <path d="M 165.587 269.271 C 133.566 269.271 107.608 243.313 107.608 211.292 C 107.608 179.271 133.566 153.312 165.587 153.312 C 168.712 153.312 171.78 153.559 174.771 154.035 C 147.114 158.437 125.975 182.396 125.975 211.292 C 125.975 240.187 147.114 264.147 174.771 268.548 C 171.78 269.024 168.712 269.271 165.587 269.271 Z" style="fill: rgb(255, 180, 165);" transform="matrix(0.927184, -0.374607, 0.374607, 0.927184, -68.870361, 68.27602)"/>
  </g>
  <g transform="matrix(1, 0, 0, 1.288911, -9.090671, -50.194565)" style="">
    <rect x="178.072" y="337.463" width="51.854" height="66.046" style="fill: rgb(156, 127, 88);"/>
    <rect x="228.822" y="195.261" width="22.914" height="208.656" style="fill: rgb(156, 127, 88);"/>
    <path d="M 267.06 240.281 L 317.709 240.281 L 317.709 253.741 L 305.257 253.741 L 305.257 382.537 L 279.116 382.537 L 279.116 253.741 L 267.06 253.741 Z" style="fill: rgb(156, 127, 88);"/>
    <rect x="251.551" y="331.687" width="68.209" height="71.94" style="fill: rgb(156, 127, 88);"/>
    <rect x="319.437" y="295.876" width="38.332" height="107.754" style="fill: rgb(156, 127, 88);"/>
    <rect x="356.889" y="215.192" width="47.998" height="188.867" style="fill: rgb(156, 127, 88);"/>
    <rect x="81.774" y="317.566" width="48.964" height="86.064" style="fill: rgb(156, 127, 88);"/>
    <path d="M 153.711 243.331 L 176.023 281.991 L 178.072 281.991 L 178.072 403.264 L 130.309 403.264 L 130.309 281.991 L 131.382 281.991 Z" style="fill: rgb(156, 127, 88);"/>
    <rect x="404.684" y="354.123" width="47.998" height="50.507" style="fill: rgb(156, 127, 88);"/>
  </g>
  <path d="M 109.825 360.205 C 73.578 360.205 43.68 345.077 39.395 325.544 C 24.231 320.771 14.553 313.519 14.553 305.397 C 14.553 293.494 35.339 283.457 63.717 280.36 C 60.034 277.388 57.964 274.039 57.964 270.496 C 57.964 262.693 68.009 255.828 83.207 251.861 C 80.575 250.726 78.209 249.027 76.235 246.9 C 71.507 248.075 66.451 248.711 61.198 248.711 C 34.816 248.711 13.428 232.665 13.428 212.872 C 13.428 200.192 22.205 189.05 35.451 182.679 C 33.202 179.855 31.97 176.789 31.97 173.584 C 31.97 164.785 41.257 157.032 55.364 152.477 C 51.111 149.523 48.71 146.17 48.71 142.617 C 48.71 134.297 61.875 127.08 81.144 123.497 C 66.287 121.383 55.522 115.147 55.522 107.783 C 55.522 98.699 71.903 91.332 92.137 91.301 C 86.601 87.731 83.363 83.417 83.363 78.771 C 83.363 66.479 106.015 56.514 133.959 56.514 C 135.778 56.514 137.574 56.557 139.342 56.639 C 139.929 47.461 170.332 40.066 207.749 40.066 C 244.12 40.066 273.861 47.053 276.037 55.872 C 290.987 56.822 304.224 59.994 313.824 64.566 C 316.241 64.536 318.682 64.521 321.144 64.521 C 376.724 64.521 421.78 72.351 421.78 82.011 C 421.78 84.565 418.631 86.991 412.97 89.178 C 435.164 90.515 452.179 95.452 454.776 101.542 C 471.126 105.617 482.428 114.35 482.428 124.466 C 482.428 125.987 482.173 127.476 481.683 128.924 C 486.68 133.326 489.546 138.457 489.546 143.933 C 489.546 147.486 488.34 150.893 486.128 154.05 C 497.162 156.104 504.273 159.331 504.273 162.961 C 504.273 169.163 483.508 174.192 457.892 174.192 C 454.637 174.192 451.46 174.111 448.394 173.956 C 448.599 174.546 448.707 175.159 448.707 175.787 C 448.707 178.245 447.053 180.461 444.401 182.024 C 447.794 185.781 449.702 190.016 449.702 194.498 C 449.702 199.45 447.372 204.101 443.285 208.138 C 448.758 208.727 452.985 211.291 453.531 214.461 C 474.182 216.058 489.855 223.858 489.855 233.239 C 489.855 240.638 480.108 247.051 465.861 250.217 C 471.158 250.497 475.35 254.061 475.35 258.416 C 475.35 259.405 475.135 260.351 474.738 261.229 C 484.216 266.169 490.012 272.794 490.012 280.075 C 490.012 291.75 475.111 301.736 454.03 305.803 C 471.185 308.441 482.356 312.743 482.356 317.603 C 482.356 325.627 451.902 332.132 414.335 332.132 C 387.813 332.132 364.836 328.89 353.618 324.159 C 352.195 324.386 350.754 324.595 349.292 324.784 C 340.616 333.539 318.687 339.754 293.005 339.754 C 286.713 339.754 280.646 339.381 274.944 338.688 C 265.356 349.223 236.653 356.871 202.734 356.871 C 184.7 356.871 168.14 354.709 155.144 351.1 C 142.852 356.786 127.056 360.205 109.825 360.205 Z M 457.443 251.634 C 457.098 252.706 456.631 253.749 456.05 254.759 C 456.059 254.76 456.066 254.763 456.074 254.764 C 456.976 253.297 458.404 252.078 460.16 251.27 C 459.268 251.403 458.362 251.525 457.443 251.634 Z M 245.688 175.218 C 245.759 174.654 245.862 174.095 245.999 173.542 C 245.368 173.993 244.711 174.438 244.032 174.875 C 244.588 174.985 245.14 175.099 245.688 175.218 Z M 391.042 235.357 C 391.333 235.061 391.636 234.769 391.95 234.481 C 390.869 234.54 389.776 234.589 388.671 234.626 C 389.478 234.86 390.268 235.103 391.042 235.357 Z M 399.261 303.432 C 400.146 303.389 401.037 303.35 401.935 303.315 C 401.229 303.093 400.536 302.864 399.852 302.627 C 399.662 302.897 399.465 303.165 399.261 303.432 Z" style="fill: rgba(191, 187, 187, 0.43);"/>
  <rect x="85.725" y="412.761" width="6.744" height="6.744" style="fill: rgb(251, 255, 11);"/>
  <rect x="97.522" y="413.253" width="6.744" height="6.744" style="fill: rgb(251, 255, 11);"/>
  <rect x="85.306" y="383.002" width="6.744" height="6.744" style="fill: rgb(251, 255, 11);"/>
  <rect x="98.305" y="394.279" width="6.744" height="6.744" style="fill: rgb(251, 255, 11);"/>
  <rect x="86.138" y="367.243" width="6.744" height="6.744" style="fill: rgb(251, 255, 11);"/>
  <rect x="98.29" y="367.314" width="6.744" height="6.744" style="fill: rgb(251, 255, 11);"/>
  <rect x="130.363" y="369.967" width="6.744" height="6.744" style="fill: rgb(251, 255, 11);"/>
  <rect x="142.296" y="370.41" width="6.744" height="6.744" style="fill: rgb(251, 255, 11);"/>
  <rect x="129.944" y="340.208" width="6.744" height="6.744" style="fill: rgb(251, 255, 11);"/>
  <rect x="143.079" y="351.436" width="6.744" height="6.744" style="fill: rgb(251, 255, 11);"/>
  <rect x="130.776" y="324.449" width="6.744" height="6.744" style="fill: rgb(251, 255, 11);"/>
  <rect x="143.064" y="324.471" width="6.744" height="6.744" style="fill: rgb(251, 255, 11);"/>
  <rect x="129.315" y="431.934" width="6.744" height="6.744" style="fill: rgb(251, 255, 11);"/>
  <rect x="141.248" y="432.377" width="6.744" height="6.744" style="fill: rgb(251, 255, 11);"/>
  <rect x="128.835" y="413.562" width="6.744" height="6.744" style="fill: rgb(251, 255, 11);"/>
  <rect x="142.031" y="413.403" width="6.744" height="6.744" style="fill: rgb(251, 255, 11);"/>
  <rect x="129.565" y="395.374" width="6.744" height="6.744" style="fill: rgb(251, 255, 11);"/>
  <rect x="142.016" y="386.438" width="6.744" height="6.744" style="fill: rgb(251, 255, 11);"/>
  <rect x="172.638" y="413.338" width="3.036" height="3.036" style="fill: rgb(251, 255, 11);"/>
  <rect x="177.949" y="413.56" width="3.036" height="3.036" style="fill: rgb(251, 255, 11);"/>
  <rect x="172.899" y="405.16" width="3.036" height="3.036" style="fill: rgb(251, 255, 11);"/>
  <rect x="178.25" y="400.189" width="3.036" height="3.036" style="fill: rgb(251, 255, 11);"/>
  <rect x="172.824" y="392.846" width="3.036" height="3.036" style="fill: rgb(251, 255, 11);"/>
  <rect x="178.295" y="392.878" width="3.036" height="3.036" style="fill: rgb(251, 255, 11);"/>
  <rect x="215.839" y="429.827" width="6.744" height="6.744" style="fill: rgb(251, 255, 11);"/>
  <rect x="216.008" y="442.385" width="6.744" height="6.744" style="fill: rgb(251, 255, 11);"/>
  <rect x="203.792" y="412.134" width="6.744" height="6.744" style="fill: rgb(251, 255, 11);"/>
  <rect x="216.538" y="411.866" width="6.744" height="6.744" style="fill: rgb(251, 255, 11);"/>
  <rect x="204.624" y="396.375" width="6.744" height="6.744" style="fill: rgb(251, 255, 11);"/>
  <rect x="216.776" y="396.446" width="6.744" height="6.744" style="fill: rgb(251, 255, 11);"/>
  <rect x="244.077" y="441.082" width="6.744" height="6.744" style="fill: rgb(251, 255, 11);"/>
  <rect x="255.874" y="441.574" width="6.744" height="6.744" style="fill: rgb(251, 255, 11);"/>
  <rect x="256.522" y="409.909" width="6.744" height="6.744" style="fill: rgb(251, 255, 11);"/>
  <rect x="256.657" y="425.771" width="6.744" height="6.744" style="fill: rgb(251, 255, 11);"/>
  <rect x="244.881" y="385.623" width="6.744" height="6.744" style="fill: rgb(251, 255, 11);"/>
  <rect x="256.642" y="395.635" width="6.744" height="6.744" style="fill: rgb(251, 255, 11);"/>
  <rect x="276.246" y="440.969" width="6.744" height="6.744" style="fill: rgb(251, 255, 11);"/>
  <rect x="288.043" y="441.461" width="6.744" height="6.744" style="fill: rgb(251, 255, 11);"/>
  <rect x="275.827" y="411.21" width="6.744" height="6.744" style="fill: rgb(251, 255, 11);"/>
  <rect x="288.826" y="422.487" width="6.744" height="6.744" style="fill: rgb(251, 255, 11);"/>
  <rect x="276.659" y="395.451" width="6.744" height="6.744" style="fill: rgb(251, 255, 11);"/>
  <rect x="288.811" y="395.523" width="6.744" height="6.744" style="fill: rgb(251, 255, 11);"/>
  <rect x="322.119" y="379.392" width="6.744" height="6.744" style="fill: rgb(251, 255, 11);"/>
  <rect x="335.279" y="393.925" width="6.744" height="6.744" style="fill: rgb(251, 255, 11);"/>
  <rect x="319.996" y="357.294" width="6.744" height="6.744" style="fill: rgb(251, 255, 11);"/>
  <rect x="335.159" y="368.904" width="6.744" height="6.744" style="fill: rgb(251, 255, 11);"/>
  <rect x="319.462" y="343.409" width="6.744" height="6.744" style="fill: rgb(251, 255, 11);"/>
  <rect x="335.645" y="343.905" width="6.744" height="6.744" style="fill: rgb(251, 255, 11);"/>
  <rect x="363.151" y="330.013" width="6.744" height="6.744" style="fill: rgb(251, 255, 11);"/>
  <rect x="374.948" y="330.505" width="6.744" height="6.744" style="fill: rgb(251, 255, 11);"/>
  <rect x="362.732" y="300.254" width="6.744" height="6.744" style="fill: rgb(251, 255, 11);"/>
  <rect x="375.731" y="311.531" width="6.744" height="6.744" style="fill: rgb(251, 255, 11);"/>
  <rect x="363.356" y="283.536" width="6.744" height="6.744" style="fill: rgb(251, 255, 11);"/>
  <rect x="375.716" y="284.567" width="6.744" height="6.744" style="fill: rgb(251, 255, 11);"/>
  <rect x="364.25" y="393.477" width="6.744" height="6.744" style="fill: rgb(251, 255, 11);"/>
  <rect x="376.047" y="393.969" width="6.744" height="6.744" style="fill: rgb(251, 255, 11);"/>
  <rect x="363.831" y="363.718" width="6.744" height="6.744" style="fill: rgb(251, 255, 11);"/>
  <rect x="376.83" y="374.995" width="6.744" height="6.744" style="fill: rgb(251, 255, 11);"/>
  <rect x="364.663" y="347.959" width="6.744" height="6.744" style="fill: rgb(251, 255, 11);"/>
  <rect x="376.815" y="348.031" width="6.744" height="6.744" style="fill: rgb(251, 255, 11);"/>
  <rect x="363.755" y="452.802" width="6.744" height="6.744" style="fill: rgb(251, 255, 11);"/>
  <rect x="375.552" y="453.294" width="6.744" height="6.744" style="fill: rgb(251, 255, 11);"/>
  <rect x="363.336" y="423.043" width="6.744" height="6.744" style="fill: rgb(251, 255, 11);"/>
  <rect x="376.335" y="434.32" width="6.744" height="6.744" style="fill: rgb(251, 255, 11);"/>
  <rect x="364.168" y="407.284" width="6.744" height="6.744" style="fill: rgb(251, 255, 11);"/>
  <rect x="376.32" y="407.356" width="6.744" height="6.744" style="fill: rgb(251, 255, 11);"/>
  <rect x="406.867" y="458.32" width="6.744" height="6.744" style="fill: rgb(251, 255, 11);"/>
  <rect x="418.664" y="458.812" width="6.744" height="6.744" style="fill: rgb(251, 255, 11);"/>
  <rect x="406.448" y="428.561" width="6.744" height="6.744" style="fill: rgb(251, 255, 11);"/>
  <rect x="419.447" y="439.838" width="6.744" height="6.744" style="fill: rgb(251, 255, 11);"/>
  <rect x="407.28" y="412.802" width="6.744" height="6.744" style="fill: rgb(251, 255, 11);"/>
  <rect x="419.432" y="412.874" width="6.744" height="6.744" style="fill: rgb(251, 255, 11);"/>
  <rect x="153.869" y="339.594" width="6.744" height="6.744" style="fill: rgb(251, 255, 11);"/>
  <rect x="153.893" y="370.324" width="6.744" height="6.744" style="fill: rgb(251, 255, 11);"/>
  <rect x="152.695" y="395.715" width="6.744" height="6.744" style="fill: rgb(251, 255, 11);"/>
  <rect x="152.791" y="432.193" width="6.744" height="6.744" style="fill: rgb(251, 255, 11);"/>
  <rect x="321.752" y="393.991" width="6.744" height="6.744" style="fill: rgb(251, 255, 11);"/>
  <rect x="321.981" y="418.138" width="6.744" height="6.744" style="fill: rgb(251, 255, 11);"/>
  <rect x="335.854" y="427.135" width="6.744" height="6.744" style="fill: rgb(251, 255, 11);"/>
  <rect x="322.032" y="440.783" width="6.744" height="6.744" style="fill: rgb(251, 255, 11);"/>
  <rect x="363.543" y="243.755" width="6.744" height="6.744" style="fill: rgb(251, 255, 11);"/>
  <rect x="376.091" y="244.294" width="6.744" height="6.744" style="fill: rgb(251, 255, 11);"/>
  <rect x="363.215" y="261.135" width="6.744" height="6.744" style="fill: rgb(251, 255, 11);"/>
  <rect x="376.097" y="260.899" width="6.744" height="6.744" style="fill: rgb(251, 255, 11);"/>
  <rect x="274.414" y="285.746" width="3.474" height="6.5" style="fill: rgb(251, 255, 11);"/>
  <rect x="274.414" y="301.404" width="3.474" height="6.5" style="fill: rgb(251, 255, 11);"/>
  <rect x="274.545" y="328.42" width="3.474" height="6.5" style="fill: rgb(251, 255, 11);"/>
  <rect x="274.495" y="351.022" width="3.474" height="6.5" style="fill: rgb(251, 255, 11);"/>
  <rect x="274.563" y="367.279" width="3.474" height="6.5" style="fill: rgb(251, 255, 11);"/>
  <rect x="279.863" y="277.387" width="3.474" height="6.5" style="fill: rgb(251, 255, 11);"/>
  <rect x="279.863" y="293.045" width="3.474" height="6.5" style="fill: rgb(251, 255, 11);"/>
  <rect x="279.994" y="320.061" width="3.474" height="6.5" style="fill: rgb(251, 255, 11);"/>
  <rect x="279.944" y="342.664" width="3.474" height="6.5" style="fill: rgb(251, 255, 11);"/>
  <rect x="280.011" y="358.92" width="3.474" height="6.5" style="fill: rgb(251, 255, 11);"/>
  <rect x="284.269" y="286.244" width="3.474" height="6.5" style="fill: rgb(251, 255, 11);"/>
  <rect x="284.269" y="301.902" width="3.474" height="6.5" style="fill: rgb(251, 255, 11);"/>
  <rect x="284.4" y="328.918" width="3.474" height="6.5" style="fill: rgb(251, 255, 11);"/>
  <rect x="284.35" y="351.52" width="3.474" height="6.5" style="fill: rgb(251, 255, 11);"/>
  <rect x="284.418" y="367.777" width="3.474" height="6.5" style="fill: rgb(251, 255, 11);"/>
  <rect x="289.718" y="277.885" width="3.474" height="6.5" style="fill: rgb(251, 255, 11);"/>
  <rect x="289.718" y="293.543" width="3.474" height="6.5" style="fill: rgb(251, 255, 11);"/>
  <rect x="289.849" y="320.559" width="3.474" height="6.5" style="fill: rgb(251, 255, 11);"/>
  <rect x="289.799" y="343.162" width="3.474" height="6.5" style="fill: rgb(251, 255, 11);"/>
  <rect x="289.866" y="359.418" width="3.474" height="6.5" style="fill: rgb(251, 255, 11);"/>
  <rect x="225.228" y="208.959" width="3.474" height="3.952" style="fill: rgb(251, 255, 11);"/>
  <rect x="233.539" y="208.947" width="3.474" height="3.952" style="fill: rgb(251, 255, 11);"/>
  <rect x="225.17" y="216.29" width="3.474" height="3.952" style="fill: rgb(251, 255, 11);"/>
  <rect x="233.481" y="216.278" width="3.474" height="3.952" style="fill: rgb(251, 255, 11);"/>
  <rect x="232.979" y="224.508" width="3.474" height="3.952" style="fill: rgb(251, 255, 11);"/>
  <rect x="224.616" y="233.341" width="3.474" height="3.952" style="fill: rgb(251, 255, 11);"/>
  <rect x="232.927" y="233.329" width="3.474" height="3.952" style="fill: rgb(251, 255, 11);"/>
  <rect x="224.81" y="244.505" width="3.474" height="3.952" style="fill: rgb(251, 255, 11);"/>
  <rect x="233.121" y="244.493" width="3.474" height="3.952" style="fill: rgb(251, 255, 11);"/>
  <rect x="224.605" y="256.228" width="3.474" height="3.952" style="fill: rgb(251, 255, 11);"/>
  <rect x="232.916" y="256.215" width="3.474" height="3.952" style="fill: rgb(251, 255, 11);"/>
  <rect x="224.431" y="268.723" width="3.474" height="3.952" style="fill: rgb(251, 255, 11);"/>
  <rect x="224.488" y="280.501" width="3.474" height="3.952" style="fill: rgb(251, 255, 11);"/>
  <rect x="232.799" y="280.488" width="3.474" height="3.952" style="fill: rgb(251, 255, 11);"/>
  <rect x="224.592" y="293.845" width="3.474" height="3.952" style="fill: rgb(251, 255, 11);"/>
  <rect x="232.903" y="293.832" width="3.474" height="3.952" style="fill: rgb(251, 255, 11);"/>
  <rect x="233.163" y="304.381" width="3.474" height="3.952" style="fill: rgb(251, 255, 11);"/>
  <rect x="224.99" y="312.569" width="3.474" height="3.952" style="fill: rgb(251, 255, 11);"/>
  <rect x="225.036" y="323.181" width="3.474" height="3.952" style="fill: rgb(251, 255, 11);"/>
  <rect x="233.347" y="323.168" width="3.474" height="3.952" style="fill: rgb(251, 255, 11);"/>
  <rect x="224.818" y="344.437" width="3.474" height="3.952" style="fill: rgb(251, 255, 11);"/>
  <rect x="233.129" y="344.424" width="3.474" height="3.952" style="fill: rgb(251, 255, 11);"/>
  <rect x="224.801" y="357.448" width="3.474" height="3.952" style="fill: rgb(251, 255, 11);"/>
  <rect x="233.112" y="357.435" width="3.474" height="3.952" style="fill: rgb(251, 255, 11);"/>
  <rect x="224.963" y="366.909" width="3.474" height="3.952" style="fill: rgb(251, 255, 11);"/>
  <rect x="233.357" y="367.004" width="3.474" height="3.952" style="fill: rgb(251, 255, 11);"/>
  <rect x="184.168" y="439.901" width="3.036" height="3.036" style="fill: rgb(251, 255, 11);"/>
  <rect x="189.479" y="440.123" width="3.036" height="3.036" style="fill: rgb(251, 255, 11);"/>
  <rect x="184.429" y="431.723" width="3.036" height="3.036" style="fill: rgb(251, 255, 11);"/>
  <rect x="189.78" y="426.752" width="3.036" height="3.036" style="fill: rgb(251, 255, 11);"/>
  <rect x="184.354" y="419.409" width="3.036" height="3.036" style="fill: rgb(251, 255, 11);"/>
  <rect x="189.825" y="419.441" width="3.036" height="3.036" style="fill: rgb(251, 255, 11);"/>
  <rect x="172.637" y="464.428" width="3.036" height="3.036" style="fill: rgb(251, 255, 11);"/>
  <rect x="177.948" y="464.65" width="3.036" height="3.036" style="fill: rgb(251, 255, 11);"/>
  <rect x="172.898" y="456.25" width="3.036" height="3.036" style="fill: rgb(251, 255, 11);"/>
  <rect x="178.249" y="451.279" width="3.036" height="3.036" style="fill: rgb(251, 255, 11);"/>
  <rect x="172.823" y="443.936" width="3.036" height="3.036" style="fill: rgb(251, 255, 11);"/>
  <rect x="178.294" y="443.968" width="3.036" height="3.036" style="fill: rgb(251, 255, 11);"/>
  <rect x="172.454" y="431.805" width="3.036" height="3.036" style="fill: rgb(251, 255, 11);"/>
  <rect x="185.703" y="401.003" width="3.036" height="3.036" style="fill: rgb(251, 255, 11);"/>
  <rect x="190.276" y="406.903" width="3.036" height="3.036" style="fill: rgb(251, 255, 11);"/>
  <rect x="188.955" y="451.676" width="3.036" height="3.036" style="fill: rgb(251, 255, 11);"/>
  <rect x="98.193" y="432.366" width="6.744" height="6.744" style="fill: rgb(251, 255, 11);"/>
  <rect x="98.2" y="450.952" width="6.744" height="6.744" style="fill: rgb(251, 255, 11);"/>
  <rect x="83.201" y="451.496" width="6.744" height="6.744" style="fill: rgb(251, 255, 11);"/>
  <rect x="140.512" y="452.313" width="6.744" height="6.744" style="fill: rgb(251, 255, 11);"/>
  <rect x="204.628" y="453.805" width="6.744" height="6.744" style="fill: rgb(251, 255, 11);"/>
  <rect x="244.077" y="455.076" width="6.744" height="6.744" style="fill: rgb(251, 255, 11);"/>
  <rect x="287.604" y="453.6" width="6.744" height="6.744" style="fill: rgb(251, 255, 11);"/>
  <rect x="336.696" y="454.122" width="6.744" height="6.744" style="fill: rgb(251, 255, 11);"/>
</svg>