<?xml version="1.0" encoding="utf-8"?>
<svg viewBox="0 0 500 500" xmlns="http://www.w3.org/2000/svg">
  <path d="M 347.194 212.134 C 340.636 212.134 334.303 211.776 328.325 211.109 C 323.82 220.356 303.914 227.323 280.041 227.323 C 254.297 227.323 233.166 219.22 230.987 208.894 C 228.433 209.002 225.842 209.057 223.222 209.057 C 180.371 209.057 145.634 194.332 145.634 176.168 C 145.634 166.474 155.528 157.759 171.272 151.739 C 169.921 149.789 169.17 147.631 169.17 145.359 C 169.17 137.206 178.841 130.505 191.199 129.758 C 194.092 126.909 197.887 124.249 202.44 121.834 C 203.267 114.983 218.61 109.522 237.417 109.522 C 239.763 109.522 242.053 109.606 244.268 109.768 C 245.848 109.558 247.449 109.365 249.068 109.189 C 253.387 102.126 267.374 96.952 283.963 96.952 C 296.663 96.952 307.838 99.985 314.317 104.575 C 325.032 101.77 338.805 100.084 353.83 100.084 C 387.989 100.084 415.68 108.802 415.68 119.558 C 415.68 120.154 415.596 120.742 415.429 121.324 C 421.617 122.438 426.126 125.894 426.126 129.986 C 426.126 130.637 426.011 131.271 425.795 131.882 C 441.943 135.265 453.279 143.213 453.279 152.478 C 453.279 155.456 452.109 158.296 449.985 160.894 C 452.096 162.567 453.375 164.751 453.375 167.139 C 453.375 168.462 452.983 169.721 452.275 170.865 C 469.228 174.662 480.944 182.791 480.944 192.209 C 480.944 205.257 458.453 215.834 430.708 215.834 C 414.072 215.834 399.323 212.032 390.182 206.173 C 378.64 209.889 363.618 212.134 347.194 212.134 Z" style="fill: rgb(229, 229, 229);"/>
  <path d="M 65.931 386.368 C 65.931 377.278 85.31 369.91 109.217 369.91 C 110.68 369.91 112.127 369.937 113.551 369.991 C 115.682 364.476 125.337 360.313 136.925 360.313 C 139.523 360.313 142.023 360.522 144.362 360.909 C 148.78 354.747 159.659 350.39 172.38 350.39 C 186.435 350.39 198.243 355.71 201.569 362.904 C 205.935 361.101 211.895 359.99 218.465 359.99 C 226.854 359.99 234.248 361.8 238.6 364.552 C 241.079 364.289 243.645 364.151 246.271 364.151 C 267.542 364.151 284.786 373.207 284.786 384.378 C 284.786 386.718 284.029 388.967 282.634 391.058 C 298.232 391.344 310.701 397.744 310.701 405.599 C 310.701 412.652 300.646 418.532 287.3 419.866 C 285.428 424.361 276.166 427.838 264.763 428.165 C 264.766 428.23 264.767 428.294 264.767 428.359 C 264.767 434.291 250.429 439.1 232.742 439.1 C 216.442 439.1 202.986 435.016 200.976 429.733 C 200.635 429.768 200.294 429.803 199.953 429.837 C 200.513 430.579 200.807 431.352 200.807 432.142 C 200.807 438.104 184.088 442.937 163.463 442.937 C 142.876 442.937 126.178 438.121 126.118 432.176 C 121.455 433.32 115.884 433.986 109.902 433.986 C 96.397 433.986 84.995 430.593 81.374 425.948 C 81.08 425.953 80.783 425.955 80.487 425.955 C 63.216 425.955 49.215 419.396 49.215 411.304 C 49.215 403.962 60.74 397.883 75.775 396.818 C 69.624 393.975 65.931 390.336 65.931 386.368 Z" style="fill: rgb(229, 229, 229);"/>
  <g style="" transform="matrix(1.252437, 0, 0, 1.252437, -50.237698, -97.875702)">
    <circle style="fill: rgba(216, 216, 216, 0.09);" cx="241.168" cy="212.251" r="71.117" transform="matrix(0.927184, -0.374607, 0.374607, 0.927184, -160.390868, 74.810033)"/>
    <path d="M 144.906 263.59 C 105.629 263.59 73.789 231.75 73.789 192.473 C 73.789 153.196 105.629 121.356 144.906 121.356 C 148.739 121.356 152.502 121.659 156.17 122.243 C 122.247 127.641 96.318 157.03 96.318 192.473 C 96.318 227.917 122.247 257.305 156.17 262.703 C 152.502 263.287 148.739 263.59 144.906 263.59 Z" style="fill: rgb(251, 246, 217);" transform="matrix(0.927184, -0.374607, 0.374607, 0.927184, -63.729336, 57.087281)"/>
  </g>
</svg>