<?xml version="1.0" encoding="utf-8"?>
<svg viewBox="0 0 500 500" xmlns="http://www.w3.org/2000/svg" xmlns:bx="https://boxy-svg.com">
  <g transform="matrix(0.743022, 0, 0, 0.743022, -47.187111, -14.740043)" style="">
    <path d="M 318.027 285.809 L 336.793 326.389 L 367.719 294.101 L 372.292 338.576 L 412.025 318.079 L 401.91 361.628 L 446.146 355.144 L 422.438 393.049 L 466.383 401.279 L 431.652 429.433 L 470.543 451.486 L 428.552 466.837 L 458.176 500.323 L 413.476 501.208 L 430.621 542.498 L 388.056 528.821 L 390.866 573.442 L 355.047 546.684 L 343.216 589.8 L 318.027 552.862 L 292.838 589.8 L 281.007 546.684 L 245.188 573.442 L 247.998 528.821 L 205.433 542.498 L 222.578 501.208 L 177.878 500.323 L 207.502 466.837 L 165.511 451.486 L 204.402 429.433 L 169.671 401.279 L 213.616 393.049 L 189.908 355.144 L 234.144 361.628 L 224.029 318.079 L 263.762 338.576 L 268.335 294.101 L 299.261 326.389 Z" style="fill: rgb(255, 230, 0);" transform="matrix(-0.809017, 0.587785, -0.587785, -0.809017, 755.231211, 389.57177)" bx:shape="star 318.027 438.848 153.039 153.039 0.745 19 1@984eca1f"/>
    <circle style="fill: rgb(237, 213, 0);" cx="241.833" cy="221.856" r="97.661"/>
  </g>
  <path d="M 75.375 369.144 C 75.375 354.788 105.982 343.15 143.74 343.15 C 146.05 343.15 148.335 343.193 150.585 343.279 C 153.95 334.568 169.2 327.994 187.502 327.994 C 191.604 327.994 195.553 328.324 199.248 328.935 C 206.224 319.203 223.407 312.322 243.498 312.322 C 265.697 312.322 284.346 320.723 289.599 332.086 C 296.495 329.237 305.908 327.483 316.284 327.483 C 329.533 327.483 341.211 330.342 348.084 334.689 C 352.001 334.274 356.053 334.055 360.2 334.055 C 393.795 334.055 421.029 348.358 421.029 366 C 421.029 369.698 419.834 373.249 417.631 376.551 C 442.266 377.004 461.96 387.111 461.96 399.517 C 461.96 410.656 446.079 419.943 425.001 422.05 C 422.043 429.15 407.416 434.641 389.405 435.157 C 389.41 435.261 389.413 435.361 389.413 435.464 C 389.413 444.832 366.767 452.428 338.833 452.428 C 313.088 452.428 291.836 445.977 288.662 437.634 C 288.124 437.689 287.585 437.745 287.047 437.797 C 287.93 438.97 288.396 440.191 288.396 441.439 C 288.396 450.855 261.989 458.488 229.414 458.488 C 196.9 458.488 170.528 450.882 170.433 441.492 C 163.069 443.299 154.27 444.351 144.822 444.351 C 123.492 444.351 105.484 438.993 99.766 431.656 C 99.3 431.664 98.832 431.667 98.364 431.667 C 71.087 431.667 48.974 421.307 48.974 408.527 C 48.974 396.932 67.176 387.33 90.922 385.649 C 81.207 381.159 75.375 375.411 75.375 369.144 Z" style="fill: rgb(229, 229, 229);"/>
  <path d="M 395.266 67.505 C 391.093 67.505 387.063 67.732 383.26 68.158 C 380.394 62.274 367.726 57.84 352.535 57.84 C 336.153 57.84 322.706 62.997 321.319 69.567 C 319.695 69.497 318.046 69.463 316.378 69.463 C 289.11 69.463 267.006 78.834 267.006 90.393 C 267.006 96.56 273.301 102.107 283.319 105.938 C 282.46 107.177 281.982 108.551 281.982 109.996 C 281.982 115.186 288.137 119.45 296 119.925 C 297.841 121.738 300.256 123.43 303.154 124.966 C 303.68 129.327 313.443 132.801 325.412 132.801 C 326.905 132.801 328.361 132.747 329.771 132.645 C 330.777 132.78 331.794 132.901 332.826 133.013 C 335.573 137.509 344.475 140.801 355.03 140.801 C 363.111 140.801 370.222 138.871 374.345 135.949 C 381.164 137.733 389.93 138.809 399.489 138.809 C 421.226 138.809 438.848 133.26 438.848 126.415 C 438.848 126.037 438.793 125.662 438.687 125.29 C 442.625 124.583 445.495 122.383 445.495 119.781 C 445.495 119.365 445.422 118.963 445.283 118.573 C 455.559 116.421 462.773 111.363 462.773 105.466 C 462.773 103.571 462.029 101.765 460.677 100.112 C 462.021 99.046 462.834 97.657 462.834 96.138 C 462.834 95.297 462.585 94.494 462.135 93.767 C 472.923 91.351 480.378 86.176 480.378 80.184 C 480.378 71.881 466.066 65.151 448.411 65.151 C 437.824 65.151 428.44 67.57 422.623 71.297 C 415.277 68.935 405.719 67.505 395.266 67.505 Z" style="fill: rgb(229, 229, 229);" transform="matrix(-1, 0, 0, -1, 747.384003, 198.640999)"/>
</svg>