<?xml version="1.0" encoding="utf-8"?>
<svg viewBox="0 0 500 500" xmlns="http://www.w3.org/2000/svg" xmlns:bx="https://boxy-svg.com">
  <g transform="matrix(0.567277, 0, 0, 0.567277, -10.351261, 0.344692)" style="opacity: 0.53;">
    <path d="M 318.027 285.809 L 336.793 326.389 L 367.719 294.101 L 372.292 338.576 L 412.025 318.079 L 401.91 361.628 L 446.146 355.144 L 422.438 393.049 L 466.383 401.279 L 431.652 429.433 L 470.543 451.486 L 428.552 466.837 L 458.176 500.323 L 413.476 501.208 L 430.621 542.498 L 388.056 528.821 L 390.866 573.442 L 355.047 546.684 L 343.216 589.8 L 318.027 552.862 L 292.838 589.8 L 281.007 546.684 L 245.188 573.442 L 247.998 528.821 L 205.433 542.498 L 222.578 501.208 L 177.878 500.323 L 207.502 466.837 L 165.511 451.486 L 204.402 429.433 L 169.671 401.279 L 213.616 393.049 L 189.908 355.144 L 234.144 361.628 L 224.029 318.079 L 263.762 338.576 L 268.335 294.101 L 299.261 326.389 Z" style="fill: rgb(255, 230, 0);" transform="matrix(-0.809017, 0.587785, -0.587785, -0.809017, 755.231211, 389.57177)" bx:shape="star 318.027 438.848 153.039 153.039 0.745 19 1@984eca1f"/>
    <circle style="fill: rgb(237, 213, 0);" cx="241.833" cy="221.856" r="97.661"/>
  </g>
  <path d="M 382.152 371.117 C 377.904 375.365 379.669 391.288 382.302 396.471 C 384.733 401.261 383.644 415.048 388.114 411.934 C 390.578 410.215 396.152 412.404 399.502 414.524 C 400.603 415.221 405.562 420.32 404.259 420.334 C 386.709 420.532 378.213 419.277 361.541 421.938 C 359.97 422.188 350.095 424.056 348.8 422.585 C 348.763 422.543 355.531 419.997 356.314 419.48 C 359.479 417.395 366.622 411.751 368.272 408.45 C 374.528 395.938 374.851 381.205 374.851 366.597 L 376.039 366.046 C 375.538 365.81 375.162 365.545 374.945 365.251 C 352.735 370.177 330.251 365.237 313.023 350.821 C 308.897 347.368 300.703 344.521 298.311 339.817 C 296.513 336.277 300.109 329.998 298.311 326.456 C 296.422 322.736 289.497 322.708 287.124 318.811 C 281.572 309.689 287.162 290.092 293.039 282.246 C 308.89 261.086 341.101 261.547 364.23 257.376 C 378.797 254.746 398.583 244.34 413.758 250.755 C 439.449 261.615 455.043 277.657 464.97 304.279 C 467.525 311.131 473.204 324.286 469.386 331.891 C 463.41 343.791 450.781 351.118 437.359 351.118 C 433.436 351.118 427.278 347.034 423.407 348.97 C 415.367 352.991 406.864 364.669 398.716 367.191 C 397 367.724 389.266 368.014 383.036 367.455 C 382.814 369.174 382.522 370.747 382.152 371.117 Z" style="fill: rgb(183, 203, 133);"/>
  <path d="M 101.413 373.505 C 98.33 370.181 93.006 367.106 89.494 365.7 C 77.175 360.777 66.632 365.438 55.185 359.695 C 44.965 354.57 30.377 344.005 27.802 331.735 C 23.602 311.722 27.641 298.448 33.671 280.36 C 35.156 275.904 34.599 269.988 37.016 265.842 C 40.041 260.657 47.58 260.073 50.333 253.633 C 52.411 248.774 52.134 242.394 54.747 237.825 C 65.497 219.036 87.589 211.51 104.922 201.684 C 110.822 198.337 111.737 190.727 117.76 187.713 C 125.77 183.708 135.623 186.998 143.866 183.917 C 150.153 181.566 153.09 175.368 160.222 174.113 C 171.937 172.05 184.67 175.359 196.522 174.113 C 205.434 173.177 212.298 169.644 222.208 170.693 C 233.189 171.855 243.865 177.254 254.206 180.85 C 262.425 183.705 272.129 184.207 279.894 188.105 C 304.185 200.303 339.502 215.254 344.427 244.927 C 345.643 252.262 341.05 247.558 339.972 251.51 C 338.166 258.136 340.453 265.23 342.895 271.308 C 349.358 287.382 369.413 316.491 357.625 335.953 C 354.797 340.622 346.772 347.26 342.465 350.883 C 336.741 355.7 319.885 360.955 311.797 361.717 C 307.08 362.161 297.497 358.348 293.526 360.395 C 282.144 366.262 268.531 365.413 253.948 365.413 C 247.018 365.413 238.573 360.389 231.642 362.559 C 229.841 363.122 230.031 371.825 229.285 373.7 C 228.752 375.045 216.361 385.863 214.931 386.464 C 208.354 389.236 198.969 384.549 192.99 387.445 C 189.76 389.011 184.055 389.502 178.084 389.598 C 178.066 393.047 178.251 396.235 178.969 398.106 C 185.037 413.898 179.271 435.594 187.166 451.197 C 194.361 465.412 207.064 468.709 217.316 476.539 C 220.325 478.835 222.991 480.859 226.332 481.297 C 201.797 480.719 176.822 477.472 151.977 477.472 C 146.62 477.472 125.185 479.832 131.174 479.832 C 132.844 479.832 127.409 482.742 126.27 481.144 C 125.925 480.661 134.98 473.741 135.882 473.151 C 141.908 469.198 148.03 459.671 151.417 452.099 C 159.264 434.556 158.656 410.48 159.318 389.576 C 142.02 378.059 113.193 386.205 101.413 373.505 Z M 233.464 481.381 C 235.395 481.381 229.604 481.381 227.673 481.381 C 227.214 481.381 226.766 481.353 226.332 481.297 C 228.714 481.351 231.091 481.381 233.464 481.381 Z" style="fill: rgb(141, 156, 102);"/>
  <path d="M 169.62 287.605 C 88.048 287.605 21.921 257.086 21.921 219.438 C 21.921 181.79 88.048 151.271 169.62 151.271 C 181.938 151.271 193.905 151.967 205.344 153.278 C 217.02 138.832 253.897 128.281 297.582 128.281 C 344.786 128.281 384.041 140.601 392.142 156.842 C 398.277 156.314 404.722 156.033 411.369 156.033 C 452.696 156.033 486.198 166.906 486.198 180.319 C 486.198 189.572 470.256 197.615 446.801 201.715 C 459.391 209.238 466.8 218.451 466.8 228.404 C 466.8 253.771 418.672 274.335 359.304 274.335 C 354.128 274.335 349.038 274.179 344.058 273.877 C 342.71 282.93 319.288 290.138 290.592 290.138 C 267.841 290.138 248.405 285.607 240.657 279.218 C 219.579 284.564 195.369 287.605 169.62 287.605 Z" style="fill: rgba(246, 243, 243, 0.69);"/>
  <path d="M 142.969 432.315 C 72.676 432.315 15.692 428.46 15.692 423.704 C 15.692 419.089 69.339 415.323 136.738 415.103 C 126.375 412.313 120.31 408.936 120.31 405.296 C 120.31 395.714 162.347 387.946 214.203 387.946 C 264.545 387.946 305.633 395.267 307.989 404.461 C 325.295 402.488 355.757 401.179 390.447 401.179 C 444.344 401.179 488.036 404.34 488.036 408.239 C 488.036 410.915 467.459 413.243 437.128 414.44 C 446.623 415.757 452.812 417.911 452.812 420.346 C 452.812 424.353 436.047 427.602 415.367 427.602 C 413.157 427.602 410.992 427.565 408.888 427.494 C 399.233 434.551 360.227 439.831 313.577 439.831 C 273.462 439.831 238.999 435.927 223.992 430.345 C 201.982 431.576 173.752 432.315 142.969 432.315 Z" style="fill: rgba(246, 243, 243, 0.69);"/>
  <path d="M 112.532 365.089 C 86.545 365.089 65.478 354.629 65.478 341.725 C 65.478 341.617 65.479 341.509 65.482 341.402 C 65.262 341.403 65.04 341.404 64.819 341.404 C 35.548 341.404 11.819 329.527 11.819 314.876 C 11.819 300.225 35.548 288.348 64.819 288.348 C 78.757 288.348 91.438 291.041 100.899 295.444 C 109.871 290.941 123.291 288.081 138.287 288.081 C 165.299 288.081 187.197 297.36 187.197 308.807 C 187.197 311.456 186.025 313.988 183.888 316.317 C 185.076 316.281 186.275 316.263 187.484 316.263 C 216.89 316.263 240.729 326.941 240.729 340.112 C 240.729 353.283 216.89 363.961 187.484 363.961 C 172.302 363.961 158.604 361.115 148.904 356.549 C 140.275 361.763 127.185 365.089 112.532 365.089 Z" style="fill: rgba(246, 243, 243, 0.69);"/>
  <path d="M 270.373 334.627 C 270.373 320.161 286.652 308.434 306.734 308.434 C 310.718 308.434 314.553 308.896 318.14 309.749 C 323.875 299.616 341.122 292.257 361.508 292.257 C 370.301 292.257 378.509 293.626 385.462 295.996 C 389.698 286.445 407.186 279.288 428.116 279.288 C 452.214 279.288 471.749 288.776 471.749 300.481 C 471.749 303.394 470.539 306.169 468.351 308.695 C 480.044 312.519 488.028 320.2 488.028 329.052 C 488.028 341.72 471.675 351.99 451.503 351.99 C 451.165 351.99 450.828 351.987 450.492 351.981 C 446.707 366.621 428.117 377.736 405.755 377.736 C 393.328 377.736 382.065 374.303 373.862 368.741 C 366.282 375.938 353.344 380.679 338.656 380.679 C 318.591 380.679 301.79 371.83 297.458 359.96 C 281.869 357.006 270.373 346.784 270.373 334.627 Z" style="fill: rgba(246, 243, 243, 0.69);"/>
</svg>