<?xml version="1.0" encoding="utf-8"?>
<svg viewBox="0 0 500 500" xmlns="http://www.w3.org/2000/svg">
  <g transform="matrix(1.458349, 0, 0, 1.458349, -77.172775, -240.808197)" style="">
    <circle style="fill: rgba(216, 216, 216, 0.1);" cx="241.168" cy="212.251" r="67.26" transform="matrix(0.927184, -0.374607, 0.374607, 0.927184, -168.482467, 133.638959)"/>
    <path d="M 136.696 317.954 C 99.549 317.954 69.436 287.841 69.436 250.694 C 69.436 213.547 99.549 183.434 136.696 183.434 C 140.322 183.434 143.88 183.72 147.35 184.273 C 115.266 189.378 90.743 217.173 90.743 250.694 C 90.743 284.215 115.266 312.009 147.35 317.115 C 143.88 317.668 140.322 317.954 136.696 317.954 Z" style="fill: rgb(251, 246, 217);" transform="matrix(0.927184, -0.374607, 0.374607, 0.927184, -86.018932, 58.85937)"/>
  </g>
  <path d="M 161.792 228.689 C 145.241 228.689 129.703 225.016 116.247 218.578 C 110.464 219.702 104.309 220.308 97.924 220.308 C 64.265 220.308 36.978 203.462 36.978 182.68 C 36.978 168.374 49.91 155.932 68.949 149.568 C 69.182 106.242 110.659 71.181 161.792 71.181 C 163.966 71.181 166.122 71.245 168.259 71.369 C 181.565 60.722 198.928 54.279 217.919 54.279 C 222.965 54.279 227.897 54.734 232.668 55.602 C 245.13 39.746 265.025 29.482 287.44 29.482 C 321.676 29.482 350.033 53.427 355.012 84.671 C 361.147 83.36 367.745 82.647 374.618 82.647 C 407.214 82.647 433.639 98.682 433.639 118.462 C 433.639 124.259 431.369 129.735 427.34 134.579 C 464.096 143.852 488.657 160.655 488.657 179.844 C 488.657 209.061 431.724 232.745 361.495 232.745 C 343.556 232.745 326.486 231.2 311.009 228.412 C 296.814 238.944 270.559 246.014 240.517 246.014 C 210.451 246.014 184.177 238.933 169.991 228.386 C 167.289 228.586 164.555 228.689 161.792 228.689 Z" style="fill: rgb(197, 197, 197);"/>
  <path d="M 153.95 326.221 C 149.77 326.221 145.733 325.993 141.923 325.568 C 139.051 331.462 126.363 335.903 111.146 335.903 C 94.736 335.903 81.267 330.738 79.878 324.156 C 78.25 324.225 76.599 324.26 74.929 324.26 C 47.615 324.26 25.473 314.874 25.473 303.296 C 25.473 297.117 31.78 291.562 41.815 287.725 C 40.954 286.482 40.475 285.106 40.475 283.658 C 40.475 278.461 46.64 274.19 54.517 273.714 C 56.361 271.898 58.78 270.202 61.682 268.663 C 62.209 264.296 71.989 260.815 83.977 260.815 C 85.472 260.815 86.932 260.869 88.344 260.972 C 89.351 260.838 90.371 260.715 91.403 260.603 C 94.156 256.101 103.072 252.803 113.646 252.803 C 121.741 252.803 128.864 254.736 132.994 257.662 C 139.824 255.874 148.603 254.799 158.18 254.799 C 179.953 254.799 197.604 260.356 197.604 267.212 C 197.604 267.592 197.55 267.967 197.444 268.338 C 201.388 269.048 204.262 271.251 204.262 273.859 C 204.262 274.274 204.189 274.678 204.051 275.068 C 214.344 277.224 221.57 282.29 221.57 288.196 C 221.57 290.094 220.824 291.904 219.47 293.56 C 220.816 294.627 221.631 296.019 221.631 297.541 C 221.631 298.384 221.381 299.187 220.93 299.916 C 231.736 302.336 239.204 307.518 239.204 313.521 C 239.204 321.838 224.868 328.58 207.183 328.58 C 196.579 328.58 187.178 326.156 181.351 322.422 C 173.994 324.79 164.419 326.221 153.95 326.221 Z" style="fill: rgb(197, 197, 197);"/>
  <path d="M 150.174 405.667 C 150.174 394.356 174.288 385.187 204.036 385.187 C 205.856 385.187 207.656 385.221 209.429 385.289 C 212.08 378.426 224.094 373.246 238.514 373.246 C 241.746 373.246 244.857 373.506 247.768 373.988 C 253.265 366.32 266.802 360.899 282.631 360.899 C 300.12 360.899 314.814 367.518 318.952 376.471 C 324.385 374.226 331.801 372.844 339.976 372.844 C 350.414 372.844 359.615 375.096 365.03 378.521 C 368.116 378.194 371.308 378.021 374.576 378.021 C 401.043 378.021 422.5 389.29 422.5 403.19 C 422.5 406.103 421.558 408.901 419.823 411.502 C 439.232 411.859 454.748 419.823 454.748 429.596 C 454.748 438.372 442.236 445.689 425.629 447.349 C 423.299 452.943 411.775 457.269 397.585 457.676 C 397.589 457.757 397.591 457.836 397.591 457.918 C 397.591 465.298 379.749 471.282 357.741 471.282 C 337.458 471.282 320.715 466.2 318.214 459.627 C 317.79 459.671 317.366 459.714 316.941 459.756 C 317.637 460.68 318.004 461.642 318.004 462.625 C 318.004 470.043 297.2 476.057 271.535 476.057 C 245.918 476.057 225.141 470.065 225.066 462.667 C 219.264 464.09 212.332 464.919 204.888 464.919 C 188.083 464.919 173.896 460.698 169.39 454.918 C 169.024 454.924 168.655 454.926 168.286 454.926 C 146.795 454.926 129.374 446.764 129.374 436.695 C 129.374 427.56 143.714 419.995 162.423 418.67 C 154.769 415.133 150.174 410.604 150.174 405.667 Z" style="fill: rgb(197, 197, 197);"/>
  <path d="M 391.448 275.312 C 388.909 275.312 386.457 275.45 384.144 275.709 C 382.4 272.13 374.694 269.432 365.452 269.432 C 355.486 269.432 347.306 272.569 346.462 276.566 C 345.474 276.524 344.471 276.503 343.456 276.503 C 326.868 276.503 313.421 282.204 313.421 289.235 C 313.421 292.987 317.251 296.361 323.345 298.692 C 322.823 299.446 322.532 300.282 322.532 301.161 C 322.532 304.318 326.276 306.912 331.06 307.201 C 332.18 308.304 333.648 309.333 335.412 310.268 C 335.731 312.921 341.671 315.034 348.952 315.034 C 349.86 315.034 350.746 315.002 351.604 314.94 C 352.216 315.021 352.834 315.095 353.462 315.163 C 355.134 317.898 360.549 319.901 366.97 319.901 C 371.886 319.901 376.212 318.727 378.721 316.949 C 382.869 318.035 388.201 318.689 394.017 318.689 C 407.24 318.689 417.96 315.313 417.96 311.15 C 417.96 310.919 417.927 310.692 417.863 310.465 C 420.258 310.035 422.004 308.696 422.004 307.113 C 422.004 306.861 421.96 306.616 421.875 306.379 C 428.127 305.07 432.515 301.993 432.515 298.405 C 432.515 297.252 432.063 296.153 431.24 295.148 C 432.057 294.499 432.552 293.654 432.552 292.731 C 432.552 292.219 432.401 291.73 432.127 291.288 C 438.69 289.818 443.225 286.67 443.225 283.025 C 443.225 277.974 434.518 273.88 423.778 273.88 C 417.338 273.88 411.629 275.351 408.09 277.619 C 403.621 276.182 397.807 275.312 391.448 275.312 Z" style="fill: rgb(197, 197, 197);" transform="matrix(-1, 0, 0, -1, 756.645996, 589.333008)"/>
</svg>