<?xml version="1.0" encoding="utf-8"?>
<svg viewBox="0 0 500 500" xmlns="http://www.w3.org/2000/svg">
  <g style="" transform="matrix(1.291255, 0, 0, 1.291255, -72.158852, -96.536636)">
    <circle style="fill: rgba(216, 216, 216, 0.1);" cx="241.168" cy="212.251" r="67.26" transform="matrix(0.927184, -0.374607, 0.374607, 0.927184, -158.453063, 121.762113)"/>
    <path d="M 146.84 306.539 C 109.693 306.539 79.579 276.426 79.579 239.279 C 79.579 202.132 109.693 172.019 146.84 172.019 C 150.465 172.019 154.023 172.305 157.493 172.858 C 125.409 177.963 100.887 205.758 100.887 239.279 C 100.887 272.8 125.409 300.595 157.493 305.7 C 154.023 306.253 150.465 306.539 146.84 306.539 Z" style="fill: rgb(251, 246, 217);" transform="matrix(0.927184, -0.374607, 0.374607, 0.927184, -81.004216, 61.827808)"/>
  </g>
  <path d="M 150.166 379.376 C 133.347 379.376 117.557 375.644 103.883 369.101 C 98.006 370.244 91.751 370.86 85.263 370.86 C 51.058 370.86 23.329 353.741 23.329 332.622 C 23.329 318.084 36.47 305.44 55.818 298.973 C 56.055 254.945 98.205 219.316 150.166 219.316 C 152.375 219.316 154.567 219.381 156.738 219.507 C 170.26 208.687 187.904 202.139 207.203 202.139 C 212.331 202.139 217.343 202.601 222.191 203.484 C 234.856 187.371 255.073 176.94 277.851 176.94 C 312.642 176.94 341.459 201.273 346.518 233.024 C 352.752 231.692 359.458 230.967 366.442 230.967 C 399.566 230.967 426.419 247.263 426.419 267.363 C 426.419 273.253 424.113 278.818 420.018 283.741 C 457.37 293.164 482.329 310.24 482.329 329.74 C 482.329 359.43 424.474 383.498 353.106 383.498 C 334.877 383.498 317.529 381.928 301.802 379.095 C 287.377 389.798 260.696 396.982 230.167 396.982 C 199.614 396.982 172.914 389.786 158.498 379.068 C 155.752 379.272 152.974 379.376 150.166 379.376 Z" style="fill: rgb(229, 229, 229);"/>
</svg>