<?xml version="1.0" encoding="utf-8"?>
<svg viewBox="0 0 500 500" xmlns="http://www.w3.org/2000/svg">
  <path style="fill: none; stroke-linecap: round; stroke-width: 19px; stroke: rgb(196, 196, 196);" d="M 420.279 220.82 C 420.279 220.82 302.562 68.15 261.339 31.672 C 220.116 -4.806 174.777 24.438 167.496 51.004 C 160.215 77.57 160.594 94.349 199.579 113.404 C 238.564 132.459 265.483 93.318 253.883 72.752 C 242.282 52.186 231.783 46.805 218.866 47.508 C 205.949 48.211 201.572 67.605 201.572 67.605" transform="matrix(0.951057, -0.309017, 0.309017, 0.951057, -22.074691, 96.012634)"/>
  <path style="fill: none; stroke-linecap: round; stroke-width: 19px; stroke: rgb(196, 196, 196);" d="M 376.765 345.612 C 376.765 345.612 259.048 192.942 217.825 156.464 C 176.602 119.986 131.263 149.23 123.982 175.796 C 116.701 202.362 117.08 219.141 156.065 238.196 C 195.05 257.251 221.969 218.11 210.369 197.544 C 198.768 176.978 188.269 171.597 175.352 172.3 C 162.435 173.003 158.058 192.397 158.058 192.397" transform="matrix(0.951057, -0.309017, 0.309017, 0.951057, -62.767255, 88.673826)"/>
  <path style="fill: none; stroke-linecap: round; stroke-width: 19px; stroke: rgb(196, 196, 196);" d="M 336.154 485.433 C 336.154 485.433 218.437 332.763 177.214 296.285 C 135.991 259.807 90.652 289.051 83.37 315.617 C 76.089 342.183 76.468 358.962 115.454 378.017 C 154.439 397.072 181.358 357.931 169.758 337.365 C 158.157 316.799 147.658 311.418 134.741 312.121 C 121.824 312.824 117.447 332.218 117.447 332.218" transform="matrix(0.951057, -0.309017, 0.309017, 0.951057, -107.961975, 82.967508)"/>
</svg>