<?xml version="1.0" encoding="utf-8"?>
<svg viewBox="0 0 500 500" xmlns="http://www.w3.org/2000/svg" xmlns:bx="https://boxy-svg.com">
  <g transform="matrix(0.677386, 0, 0, 0.677386, -52.61171, 71.539322)" style="">
    <path d="M 318.027 285.809 L 336.793 326.389 L 367.719 294.101 L 372.292 338.576 L 412.025 318.079 L 401.91 361.628 L 446.146 355.144 L 422.438 393.049 L 466.383 401.279 L 431.652 429.433 L 470.543 451.486 L 428.552 466.837 L 458.176 500.323 L 413.476 501.208 L 430.621 542.498 L 388.056 528.821 L 390.866 573.442 L 355.047 546.684 L 343.216 589.8 L 318.027 552.862 L 292.838 589.8 L 281.007 546.684 L 245.188 573.442 L 247.998 528.821 L 205.433 542.498 L 222.578 501.208 L 177.878 500.323 L 207.502 466.837 L 165.511 451.486 L 204.402 429.433 L 169.671 401.279 L 213.616 393.049 L 189.908 355.144 L 234.144 361.628 L 224.029 318.079 L 263.762 338.576 L 268.335 294.101 L 299.261 326.389 Z" style="fill: rgb(255, 230, 0);" transform="matrix(-0.809017, 0.587785, -0.587785, -0.809017, 755.231211, 389.57177)" bx:shape="star 318.027 438.848 153.039 153.039 0.745 19 1@984eca1f"/>
    <circle style="fill: rgb(237, 213, 0);" cx="241.833" cy="221.856" r="97.661"/>
  </g>
  <path d="M 177.147 401.01 C 161.208 401.01 146.244 397.473 133.284 391.273 C 127.715 392.355 121.788 392.939 115.639 392.939 C 83.223 392.939 56.944 376.716 56.944 356.701 C 56.944 342.924 69.398 330.941 87.734 324.812 C 87.958 283.087 127.903 249.322 177.147 249.322 C 179.241 249.322 181.317 249.383 183.375 249.503 C 196.19 239.249 212.911 233.044 231.2 233.044 C 236.06 233.044 240.81 233.482 245.404 234.318 C 257.407 219.047 276.567 209.163 298.153 209.163 C 331.124 209.163 358.434 232.223 363.229 262.312 C 369.136 261.05 375.492 260.364 382.111 260.364 C 413.502 260.364 438.95 275.807 438.95 294.856 C 438.95 300.438 436.765 305.711 432.884 310.377 C 468.283 319.307 491.936 335.49 491.936 353.97 C 491.936 382.108 437.107 404.917 369.472 404.917 C 352.196 404.917 335.756 403.429 320.851 400.744 C 307.181 410.887 281.896 417.695 252.964 417.695 C 224.008 417.695 198.705 410.876 185.043 400.719 C 182.441 400.911 179.808 401.01 177.147 401.01 Z" style="fill: rgb(229, 229, 229);"/>
</svg>