<?xml version="1.0" encoding="utf-8"?>
<svg viewBox="0 0 500 500" xmlns="http://www.w3.org/2000/svg">
  <path d="M 139.274 147.525 C -36.771 192.779 234.673 96.087 257.907 87.907 C 287.389 77.527 319.658 64.609 354.388 59.277 C 369.497 56.957 384.68 54.743 399.99 54.743 C 403.203 54.743 411.293 53.227 413.089 57.325 C 415.973 63.907 407.209 69.45 402.894 72.795 C 390.739 82.216 377.698 90.692 364.391 98.379 C 328.641 119.032 290.495 134.601 252.212 149.784 C 220.665 162.294 189.147 175.617 156.746 185.847 C 139.181 191.393 121.077 197.678 102.828 200.635 C 98.099 201.402 93.2 202.399 88.399 202.681 C 87.369 202.741 85.498 203.694 85.303 202.681 C 84.792 200.034 100.679 193.721 101.02 193.555 C 119.499 184.551 138.597 176.832 157.327 168.383 C 214.852 142.436 272.955 113.155 335.335 101.06 C 349.784 98.259 368.681 95.811 383.461 98.305 C 389.824 99.378 398.616 105.892 394.663 113.593 C 392.776 117.269 389.401 119.997 386.387 122.824 C 383.643 125.396 375.476 131.407 372.833 133.254 C 365.792 138.176 359.199 142.259 351.674 146.555 C 332.309 157.61 312.654 167.938 292.477 177.428 C 262.53 191.513 232.075 204.639 201.496 217.284 C 170.906 229.934 139.579 243.111 107.389 251.063 C 99.515 253.009 81.437 259.202 72.698 255.915 C 70.623 255.135 73.863 251.396 75.472 249.871 C 79.148 246.387 82.219 243.942 86.584 240.722 C 106.816 225.793 129.46 213.731 151.945 202.676 C 208.443 174.896 268.613 152.955 330.145 139.387 C 346.659 135.746 362.99 133.154 379.902 132.669 C 384.854 132.527 394.984 130.87 396.149 138.144 C 398.935 155.543 379.792 171.558 367.85 181.164 C 360.94 186.722 353.814 192.01 346.645 197.229 C 291.654 237.265 224.683 262.754 160.221 283.044 C 145.872 287.56 131.171 291.823 116.234 293.909 C 111.763 294.533 102.375 296.911 97.567 295.271 C 95.034 294.408 100.032 290.315 102.151 288.68 C 108.302 283.935 110.631 283.028 117.859 278.683 C 135.551 268.047 153.223 258.462 171.864 249.572 C 223.229 225.077 276.203 203.967 332.404 193.973 C 334.439 193.612 336.47 193.214 338.521 192.955 C 342.842 192.41 347.17 191.897 351.513 191.564 C 361.295 190.814 382.82 186.749 385.657 200.548 C 386.797 206.094 382.662 211.034 379.563 214.927 C 370.229 226.654 356.292 235.427 343.762 243.207 C 297.707 271.803 249.157 291.933 196.725 305.454 C 180.595 309.613 165.14 312.119 148.52 312.753 C 145.489 312.869 138.334 314.006 137.363 310.076 C 136.128 305.076 144.56 300.849 147.297 299.078 C 162.604 289.175 178.999 281.138 195.921 274.43 C 249.513 253.187 304.999 236.714 362.322 229.615 C 364.543 229.34 366.79 229.356 369.026 229.264 C 377.29 228.923 390.129 227.142 398.571 229.11 C 400.805 229.631 404.698 231.858 405.583 234.339 C 410.054 246.868 394.378 258.237 386.196 264.607 C 353.616 289.972 313.442 308.419 273.942 319.856 C 264.889 322.477 254.798 324.451 245.314 324.804 C 244.498 324.834 235.941 325.51 235.679 324.128 C 234.794 319.467 238.918 317.293 242.149 315.089 C 252.8 307.823 263.99 301.983 275.897 297.138 C 315.955 280.837 356.36 268.955 400.015 268.955 C 410.026 268.955 429.528 266.86 435.249 278.507 C 441.44 291.109 425.891 300.52 416.847 305.89 C 391.191 321.124 362.172 331.112 332.716 335.613 C 327.986 336.336 311.925 339.809 307.468 335.405 C 306.3 334.25 307.511 330.776 308.434 329.873 C 314.16 324.27 322.222 320.735 329.512 317.799 C 356.259 307.028 383.93 303.158 412.517 303.158 C 421.495 303.158 434.318 303.26 436.621 314.516 C 438.555 323.975 429.434 331.762 422.552 336.535 C 407.618 346.894 390.733 353.164 372.84 356.012 C 365.273 357.216 357.17 357.411 349.518 357.411 C 347.862 357.411 342.044 358.415 341.755 356.121 C 341.434 353.581 346.299 353.653 348.779 353.017 C 352.453 352.076 359.914 350.63 363.264 350.138 C 380.787 347.564 398.294 346.909 415.993 347.513 C 421.509 347.701 431.668 348.511 434.722 354.456 C 438.396 361.609 431.332 366.85 426.52 370.8 C 412.388 382.399 392.202 388.789 374.688 392.643 C 369.26 393.838 363.289 394.966 357.69 394.966 C 356.782 394.966 351.401 395.797 351.089 394.334 C 350.426 391.224 365.259 389.551 366.756 389.322 C 377.544 387.671 388.219 387.829 399.093 387.829 C 402.362 387.829 409.888 387.995 411.413 391.989 C 413.123 396.467 409.676 399.739 406.534 402.298 C 398.248 409.048 387.989 414.589 377.632 417.351 C 374.814 418.102 371.373 418.905 368.443 419.262 C 366.118 419.545 366.589 419.5 364.708 419.5 C 364.123 419.5 362.427 419.762 362.951 419.5 C 368.904 416.523 384.578 417.663 390.838 419.577 C 393.729 420.461 399.059 422.428 399.52 426.062 C 400.864 436.643 384.269 443.027 376.13 445.398 C 375.582 445.557 364.346 448.433 364.011 447.387 C 363.619 446.164 371.568 444.894 371.912 444.83 C 375.463 444.178 390.232 441.343 392.766 445.296 C 394.07 447.33 390.849 449.911 389.686 450.683 C 385.632 453.37 380.93 455.608 376.489 457.584" style="fill: none; stroke-linecap: round; stroke-width: 11px; stroke: rgb(141, 141, 141);"/>
  <path d="M 130.364 135.473 C -45.681 180.727 225.763 84.035 248.997 75.855 C 278.479 65.475 310.748 52.557 345.478 47.225 C 360.587 44.905 375.77 42.691 391.08 42.691 C 394.293 42.691 402.383 41.175 404.179 45.273 C 407.063 51.855 398.299 57.398 393.984 60.743 C 381.829 70.164 368.788 78.64 355.481 86.327 C 319.731 106.98 281.585 122.549 243.302 137.732 C 211.755 150.242 180.237 163.565 147.836 173.795 C 130.271 179.341 112.167 185.626 93.918 188.583 C 89.189 189.35 84.29 190.347 79.489 190.629 C 78.459 190.689 76.588 191.642 76.393 190.629 C 75.882 187.982 91.769 181.669 92.11 181.503 C 110.589 172.499 129.687 164.78 148.417 156.331 C 205.942 130.384 264.045 101.103 326.425 89.008 C 340.874 86.207 359.771 83.759 374.551 86.253 C 380.914 87.326 389.706 93.84 385.753 101.541 C 383.866 105.217 380.491 107.945 377.477 110.772 C 374.733 113.344 366.566 119.355 363.923 121.202 C 356.882 126.124 350.289 130.207 342.764 134.503 C 323.399 145.558 303.744 155.886 283.567 165.376 C 253.62 179.461 223.165 192.587 192.586 205.232 C 161.996 217.882 130.669 231.059 98.479 239.011 C 90.605 240.957 72.527 247.15 63.788 243.863 C 61.713 243.083 64.953 239.344 66.562 237.819 C 70.238 234.335 73.309 231.89 77.674 228.67 C 97.906 213.741 120.55 201.679 143.035 190.624 C 199.533 162.844 259.703 140.903 321.235 127.335 C 337.749 123.694 354.08 121.102 370.992 120.617 C 375.944 120.475 386.074 118.818 387.239 126.092 C 390.025 143.491 370.882 159.506 358.94 169.112 C 352.03 174.67 344.904 179.958 337.735 185.177 C 282.744 225.213 215.773 250.702 151.311 270.992 C 136.962 275.508 122.261 279.771 107.324 281.857 C 102.853 282.481 93.465 284.859 88.657 283.219 C 86.124 282.356 91.122 278.263 93.241 276.628 C 99.392 271.883 101.721 270.976 108.949 266.631 C 126.641 255.995 144.313 246.41 162.954 237.52 C 214.319 213.025 267.293 191.915 323.494 181.921 C 325.529 181.56 327.56 181.162 329.611 180.903 C 333.932 180.358 338.26 179.845 342.603 179.512 C 352.385 178.762 373.91 174.697 376.747 188.496 C 377.887 194.042 373.752 198.982 370.653 202.875 C 361.319 214.602 347.382 223.375 334.852 231.155 C 288.797 259.751 240.247 279.881 187.815 293.402 C 171.685 297.561 156.23 300.067 139.61 300.701 C 136.579 300.817 129.424 301.954 128.453 298.024 C 127.218 293.024 135.65 288.797 138.387 287.026 C 153.694 277.123 170.089 269.086 187.011 262.378 C 240.603 241.135 296.089 224.662 353.412 217.563 C 355.633 217.288 357.88 217.304 360.116 217.212 C 368.38 216.871 381.219 215.09 389.661 217.058 C 391.895 217.579 395.788 219.806 396.673 222.287 C 401.144 234.816 385.468 246.185 377.286 252.555 C 344.706 277.92 304.532 296.367 265.032 307.804 C 255.979 310.425 245.888 312.399 236.404 312.752 C 235.588 312.782 227.031 313.458 226.769 312.076 C 225.884 307.415 230.008 305.241 233.239 303.037 C 243.89 295.771 255.08 289.931 266.987 285.086 C 307.045 268.785 347.45 256.903 391.105 256.903 C 401.116 256.903 420.618 254.808 426.339 266.455 C 432.53 279.057 416.981 288.468 407.937 293.838 C 382.281 309.072 353.262 319.06 323.806 323.561 C 319.076 324.284 303.015 327.757 298.558 323.353 C 297.39 322.198 298.601 318.724 299.524 317.821 C 305.25 312.218 313.312 308.683 320.602 305.747 C 347.349 294.976 375.02 291.106 403.607 291.106 C 412.585 291.106 425.408 291.208 427.711 302.464 C 429.645 311.923 420.524 319.71 413.642 324.483 C 398.708 334.842 381.823 341.112 363.93 343.96 C 356.363 345.164 348.26 345.359 340.608 345.359 C 338.952 345.359 333.134 346.363 332.845 344.069 C 332.524 341.529 337.389 341.601 339.869 340.965 C 343.543 340.024 351.004 338.578 354.354 338.086 C 371.877 335.512 389.384 334.857 407.083 335.461 C 412.599 335.649 422.758 336.459 425.812 342.404 C 429.486 349.557 422.422 354.798 417.61 358.748 C 403.478 370.347 383.292 376.737 365.778 380.591 C 360.35 381.786 354.379 382.914 348.78 382.914 C 347.872 382.914 342.491 383.745 342.179 382.282 C 341.516 379.172 356.349 377.499 357.846 377.27 C 368.634 375.619 379.309 375.777 390.183 375.777 C 393.452 375.777 400.978 375.943 402.503 379.937 C 404.213 384.415 400.766 387.687 397.624 390.246 C 389.338 396.996 379.079 402.537 368.722 405.299 C 365.904 406.05 362.463 406.853 359.533 407.21 C 357.208 407.493 357.679 407.448 355.798 407.448 C 355.213 407.448 353.517 407.71 354.041 407.448 C 359.994 404.471 375.668 405.611 381.928 407.525 C 384.819 408.409 390.149 410.376 390.61 414.01 C 391.954 424.591 375.359 430.975 367.22 433.346 C 366.672 433.505 355.436 436.381 355.101 435.335 C 354.709 434.112 362.658 432.842 363.002 432.778 C 366.553 432.126 381.322 429.291 383.856 433.244 C 385.16 435.278 381.939 437.859 380.776 438.631 C 376.722 441.318 372.02 443.556 367.579 445.532" style="fill: none; stroke-linecap: round; stroke-width: 11px; stroke: rgb(199, 199, 199);"/>
</svg>