<?xml version="1.0" encoding="utf-8"?>
<svg viewBox="0 0 500 500" xmlns="http://www.w3.org/2000/svg" xmlns:bx="https://boxy-svg.com">
  <g transform="matrix(0.523699, 0, 0, 0.523699, -4.378795, 6.422148)" style="">
    <path d="M 318.027 285.809 L 336.793 326.389 L 367.719 294.101 L 372.292 338.576 L 412.025 318.079 L 401.91 361.628 L 446.146 355.144 L 422.438 393.049 L 466.383 401.279 L 431.652 429.433 L 470.543 451.486 L 428.552 466.837 L 458.176 500.323 L 413.476 501.208 L 430.621 542.498 L 388.056 528.821 L 390.866 573.442 L 355.047 546.684 L 343.216 589.8 L 318.027 552.862 L 292.838 589.8 L 281.007 546.684 L 245.188 573.442 L 247.998 528.821 L 205.433 542.498 L 222.578 501.208 L 177.878 500.323 L 207.502 466.837 L 165.511 451.486 L 204.402 429.433 L 169.671 401.279 L 213.616 393.049 L 189.908 355.144 L 234.144 361.628 L 224.029 318.079 L 263.762 338.576 L 268.335 294.101 L 299.261 326.389 Z" style="fill: rgb(255, 230, 0);" transform="matrix(-0.809017, 0.587785, -0.587785, -0.809017, 755.231211, 389.57177)" bx:shape="star 318.027 438.848 153.039 153.039 0.745 19 1@984eca1f"/>
    <circle style="fill: rgb(237, 213, 0);" cx="241.833" cy="221.856" r="97.661"/>
  </g>
  <circle style="fill: rgb(216, 216, 216);" cx="68.688" cy="261.4" r="6.3"/>
  <circle style="fill: rgb(216, 216, 216);" cx="101.212" cy="272.988" r="6.3"/>
  <circle style="fill: rgb(216, 216, 216);" cx="65.63" cy="298.13" r="6.3"/>
  <circle style="fill: rgb(216, 216, 216);" cx="95.052" cy="309.648" r="6.3"/>
  <circle style="fill: rgb(216, 216, 216);" cx="58.271" cy="334.283" r="6.3"/>
  <circle style="fill: rgb(216, 216, 216);" cx="94.514" cy="343.009" r="6.3"/>
  <circle style="fill: rgb(216, 216, 216);" cx="56.225" cy="363.446" r="6.3"/>
  <circle style="fill: rgb(216, 216, 216);" cx="81.608" cy="374.257" r="6.3"/>
  <circle style="fill: rgb(216, 216, 216);" cx="44.997" cy="391.848" r="6.3"/>
  <circle style="fill: rgb(216, 216, 216);" cx="76.305" cy="396.807" r="6.3"/>
  <circle style="fill: rgb(216, 216, 216);" cx="114.472" cy="375.917" r="6.3"/>
  <circle style="fill: rgb(216, 216, 216);" cx="118.056" cy="343.732" r="6.3"/>
  <circle style="fill: rgb(216, 216, 216);" cx="133.299" cy="321.481" r="6.3"/>
  <circle style="fill: rgb(216, 216, 216);" cx="127.563" cy="297.819" r="6.3"/>
  <circle style="fill: rgb(216, 216, 216);" cx="148.805" cy="286.12" r="6.3"/>
  <circle style="fill: rgb(216, 216, 216);" cx="123.985" cy="264.473" r="6.3"/>
  <circle style="fill: rgb(216, 216, 216);" cx="169.963" cy="263.868" r="6.3"/>
  <circle style="fill: rgb(216, 216, 216);" cx="149.443" cy="251.939" r="6.3"/>
  <circle style="fill: rgb(216, 216, 216);" cx="311.556" cy="242.952" r="6.3"/>
  <circle style="fill: rgb(216, 216, 216);" cx="340.982" cy="257.885" r="6.3"/>
  <circle style="fill: rgb(216, 216, 216);" cx="370.594" cy="263.214" r="6.3"/>
  <circle style="fill: rgb(216, 216, 216);" cx="410.332" cy="274.17" r="6.3"/>
  <circle style="fill: rgb(216, 216, 216);" cx="437.761" cy="292.223" r="6.3"/>
  <circle style="fill: rgb(216, 216, 216);" cx="415.373" cy="313.546" r="6.3"/>
  <circle style="fill: rgb(216, 216, 216);" cx="389.794" cy="290.092" r="6.3"/>
  <circle style="fill: rgb(216, 216, 216);" cx="359.521" cy="298.359" r="6.3"/>
  <circle style="fill: rgb(216, 216, 216);" cx="336.189" cy="281.486" r="6.3"/>
  <circle style="fill: rgb(216, 216, 216);" cx="366.004" cy="332.74" r="6.3"/>
  <circle style="fill: rgb(216, 216, 216);" cx="383.568" cy="359.038" r="6.3"/>
  <circle style="fill: rgb(216, 216, 216);" cx="420.59" cy="367.184" r="6.3"/>
  <circle style="fill: rgb(216, 216, 216);" cx="393.944" cy="327.172" r="6.3"/>
  <circle style="fill: rgb(216, 216, 216);" cx="437.935" cy="345.044" r="6.3"/>
  <circle style="fill: rgb(216, 216, 216);" cx="445.11" cy="384.521" r="6.3"/>
  <circle style="fill: rgb(216, 216, 216);" cx="407.203" cy="396.381" r="6.3"/>
  <path d="M 46.286 159.55 C 46.286 154.412 49.013 149.659 53.642 145.787 C 51.253 142.953 49.92 139.794 49.92 136.465 C 49.92 129.421 55.887 123.144 65.193 119.079 C 65.16 118.681 65.144 118.28 65.144 117.876 C 65.144 109.614 72.022 102.411 82.212 98.614 C 81.876 97.312 81.7 95.967 81.7 94.592 C 81.7 83.783 92.573 74.865 106.621 73.569 C 111.054 67.179 120.252 62.788 130.879 62.788 C 132.187 62.788 133.473 62.854 134.731 62.983 C 138.678 58.823 146.361 56 155.194 56 C 157.218 56 159.182 56.148 161.054 56.427 C 165.329 52.292 173.908 49.469 183.795 49.469 C 189.545 49.469 194.852 50.424 199.128 52.036 C 203.18 48.803 210.031 46.679 217.799 46.679 C 224.114 46.679 229.823 48.083 233.915 50.345 C 239.028 48.173 246.207 46.822 254.155 46.822 C 262.909 46.822 270.728 48.461 275.885 51.03 C 279.956 49.652 284.993 48.838 290.445 48.838 C 298.481 48.838 305.614 50.607 310.087 53.341 C 314.021 51.14 319.539 49.772 325.649 49.772 C 335.384 49.772 343.617 53.246 346.333 58.025 C 347.176 57.937 348.045 57.891 348.934 57.891 C 355.439 57.891 360.901 60.355 362.411 63.681 C 364.58 63.141 367.004 62.839 369.562 62.839 C 378.453 62.839 385.726 66.488 386.274 71.098 C 387.707 70.916 389.203 70.82 390.741 70.82 C 400.99 70.82 409.361 75.098 409.892 80.482 C 422.456 80.714 432.493 85.646 432.493 91.696 C 432.493 91.925 432.479 92.152 432.45 92.378 C 442.247 94.458 449.295 100.25 449.295 107.07 C 449.295 110.431 447.583 113.543 444.674 116.083 C 451.625 118.985 456.042 123.333 456.042 128.193 C 456.042 131.435 454.077 134.449 450.705 136.958 C 458.72 139.546 463.97 143.866 463.97 148.758 C 463.97 152.675 460.605 156.225 455.15 158.813 C 462.366 161.909 467.099 167.106 467.099 172.994 C 467.099 179.431 461.443 185.041 453.07 187.985 C 457.867 190.97 460.523 194.257 460.523 197.71 C 460.523 205.048 448.527 211.639 429.479 216.166 C 433.422 219.092 435.657 222.433 435.657 225.98 C 435.657 237.53 411.962 246.893 382.732 246.893 C 353.981 246.893 330.586 237.835 329.826 226.547 C 329.311 226.567 328.789 226.577 328.262 226.577 C 319.004 226.577 311.499 223.401 311.499 219.484 C 311.499 218.789 311.736 218.116 312.177 217.481 C 303.963 215.836 296.808 213.835 291.032 211.565 L 291.032 274.007 L 204.872 274.007 L 204.872 213.689 C 204.136 213.717 203.389 213.732 202.631 213.732 C 197.38 213.732 192.601 213.034 189.023 211.892 C 190.794 213.123 191.809 214.554 191.809 216.081 C 191.809 220.209 184.393 223.637 174.653 224.306 C 174.673 224.536 174.683 224.768 174.683 225 C 174.683 236.87 148.634 246.493 116.501 246.493 C 84.368 246.493 58.319 236.87 58.319 225 C 58.319 221.018 61.25 217.29 66.358 214.092 C 49.197 208.824 38.365 201.097 38.365 192.487 C 38.365 185.842 44.817 179.723 55.65 174.855 C 49.812 170.737 46.286 165.392 46.286 159.55 Z" style="fill: rgba(187, 187, 187, 0.55);"/>
  <path d="M 409.932 452.927 L 89.09 454.453 L 193.982 270.763 L 303.602 270.763 Z" style="fill: rgb(164, 137, 100);"/>
</svg>