<?xml version="1.0" encoding="utf-8"?>
<svg viewBox="0 0 500 500" xmlns="http://www.w3.org/2000/svg">
  <g style="" transform="matrix(0.533968, 0, 0, 0.533968, 2.262761, 22.35928)">
    <circle style="fill: rgba(216, 216, 216, 0.11);" cx="241.168" cy="212.251" r="126.267" transform="matrix(0.927184, -0.374607, 0.374607, 0.927184, -53.117591, 143.547574)"/>
    <path d="M 253.869 396.171 C 184.134 396.171 127.602 339.639 127.602 269.904 C 127.602 200.169 184.134 143.637 253.869 143.637 C 260.675 143.637 267.355 144.175 273.869 145.212 C 213.638 154.797 167.602 206.975 167.602 269.904 C 167.602 332.833 213.638 385.011 273.869 394.596 C 267.355 395.633 260.675 396.171 253.869 396.171 Z" style="fill: rgb(251, 246, 217);" transform="matrix(0.927184, -0.374607, 0.374607, 0.927184, -86.491088, 94.850305)"/>
  </g>
  <circle style="fill: rgb(225, 225, 225);" cx="144.867" cy="162.683" r="8.661"/>
  <circle style="fill: rgb(225, 225, 225);" cx="181.041" cy="137.245" r="8.661"/>
  <circle style="fill: rgb(225, 225, 225);" cx="217.406" cy="115.045" r="8.661"/>
  <circle style="fill: rgb(225, 225, 225);" cx="177.399" cy="191.041" r="8.661"/>
  <circle style="fill: rgb(225, 225, 225);" cx="209.814" cy="218.542" r="8.661"/>
  <circle style="fill: rgb(225, 225, 225);" cx="209.754" cy="163.202" r="8.661"/>
  <circle style="fill: rgb(225, 225, 225);" cx="250.121" cy="163.234" r="8.661"/>
  <circle style="fill: rgb(225, 225, 225);" cx="286.295" cy="137.796" r="8.661"/>
  <circle style="fill: rgb(225, 225, 225);" cx="322.66" cy="115.596" r="8.661"/>
  <circle style="fill: rgb(225, 225, 225);" cx="282.653" cy="191.592" r="8.661"/>
  <circle style="fill: rgb(225, 225, 225);" cx="315.068" cy="219.093" r="8.661"/>
  <circle style="fill: rgb(225, 225, 225);" cx="315.008" cy="163.753" r="8.661"/>
  <circle style="fill: rgb(225, 225, 225);" cx="361.353" cy="163.089" r="8.661"/>
  <circle style="fill: rgb(225, 225, 225);" cx="397.527" cy="137.651" r="8.661"/>
  <circle style="fill: rgb(225, 225, 225);" cx="433.892" cy="115.451" r="8.661"/>
  <circle style="fill: rgb(225, 225, 225);" cx="393.885" cy="191.447" r="8.661"/>
  <circle style="fill: rgb(225, 225, 225);" cx="426.3" cy="218.948" r="8.661"/>
  <circle style="fill: rgb(225, 225, 225);" cx="426.24" cy="163.608" r="8.661"/>
  <circle style="fill: rgb(225, 225, 225);" cx="136.651" cy="310.425" r="8.661"/>
  <circle style="fill: rgb(225, 225, 225);" cx="172.825" cy="284.987" r="8.661"/>
  <circle style="fill: rgb(225, 225, 225);" cx="209.19" cy="262.787" r="8.661"/>
  <circle style="fill: rgb(225, 225, 225);" cx="169.183" cy="338.783" r="8.661"/>
  <circle style="fill: rgb(225, 225, 225);" cx="201.598" cy="366.284" r="8.661"/>
  <circle style="fill: rgb(225, 225, 225);" cx="201.538" cy="310.944" r="8.661"/>
  <circle style="fill: rgb(225, 225, 225);" cx="244.276" cy="311.945" r="8.661"/>
  <circle style="fill: rgb(225, 225, 225);" cx="280.45" cy="286.507" r="8.661"/>
  <circle style="fill: rgb(225, 225, 225);" cx="316.815" cy="264.307" r="8.661"/>
  <circle style="fill: rgb(225, 225, 225);" cx="276.808" cy="340.303" r="8.661"/>
  <circle style="fill: rgb(225, 225, 225);" cx="309.223" cy="367.804" r="8.661"/>
  <circle style="fill: rgb(225, 225, 225);" cx="309.163" cy="312.464" r="8.661"/>
  <circle style="fill: rgb(225, 225, 225);" cx="354.903" cy="312.601" r="8.661"/>
  <circle style="fill: rgb(225, 225, 225);" cx="391.077" cy="287.163" r="8.661"/>
  <circle style="fill: rgb(225, 225, 225);" cx="427.442" cy="264.963" r="8.661"/>
  <circle style="fill: rgb(225, 225, 225);" cx="387.435" cy="340.959" r="8.661"/>
  <circle style="fill: rgb(225, 225, 225);" cx="419.85" cy="368.46" r="8.661"/>
  <circle style="fill: rgb(225, 225, 225);" cx="419.79" cy="313.12" r="8.661"/>
  <circle style="fill: rgb(225, 225, 225);" cx="367.003" cy="240.255" r="8.661"/>
  <circle style="fill: rgb(225, 225, 225);" cx="259.719" cy="238.673" r="8.661"/>
  <circle style="fill: rgb(225, 225, 225);" cx="98.006" cy="241.878" r="8.661"/>
</svg>