<?xml version="1.0" encoding="utf-8"?>
<svg viewBox="0 0 500 500" xmlns="http://www.w3.org/2000/svg">
  <g style="" transform="matrix(0.533968, 0, 0, 0.533968, 2.262761, 22.35928)">
    <circle style="fill: rgba(216, 216, 216, 0.11);" cx="241.168" cy="212.251" r="126.267" transform="matrix(0.927184, -0.374607, 0.374607, 0.927184, -53.117591, 143.547574)"/>
    <path d="M 253.869 396.171 C 184.134 396.171 127.602 339.639 127.602 269.904 C 127.602 200.169 184.134 143.637 253.869 143.637 C 260.675 143.637 267.355 144.175 273.869 145.212 C 213.638 154.797 167.602 206.975 167.602 269.904 C 167.602 332.833 213.638 385.011 273.869 394.596 C 267.355 395.633 260.675 396.171 253.869 396.171 Z" style="fill: rgb(251, 246, 217);" transform="matrix(0.927184, -0.374607, 0.374607, 0.927184, -86.491088, 94.850305)"/>
  </g>
  <circle style="fill: rgb(225, 225, 225);" cx="151.907" cy="154.824" r="8.661"/>
  <circle style="fill: rgb(225, 225, 225);" cx="188.081" cy="129.386" r="8.661"/>
  <circle style="fill: rgb(225, 225, 225);" cx="224.446" cy="107.186" r="8.661"/>
  <circle style="fill: rgb(225, 225, 225);" cx="184.439" cy="183.182" r="8.661"/>
  <circle style="fill: rgb(225, 225, 225);" cx="216.854" cy="210.683" r="8.661"/>
  <circle style="fill: rgb(225, 225, 225);" cx="216.794" cy="155.343" r="8.661"/>
  <circle style="fill: rgb(225, 225, 225);" cx="257.161" cy="155.375" r="8.661"/>
  <circle style="fill: rgb(225, 225, 225);" cx="293.335" cy="129.937" r="8.661"/>
  <circle style="fill: rgb(225, 225, 225);" cx="329.7" cy="107.737" r="8.661"/>
  <circle style="fill: rgb(225, 225, 225);" cx="289.693" cy="183.733" r="8.661"/>
  <circle style="fill: rgb(225, 225, 225);" cx="322.108" cy="211.234" r="8.661"/>
  <circle style="fill: rgb(225, 225, 225);" cx="322.048" cy="155.894" r="8.661"/>
  <circle style="fill: rgb(225, 225, 225);" cx="368.393" cy="155.23" r="8.661"/>
  <circle style="fill: rgb(225, 225, 225);" cx="404.567" cy="129.792" r="8.661"/>
  <circle style="fill: rgb(225, 225, 225);" cx="440.932" cy="107.592" r="8.661"/>
  <circle style="fill: rgb(225, 225, 225);" cx="407.326" cy="193.006" r="8.661"/>
  <circle style="fill: rgb(225, 225, 225);" cx="452.353" cy="212.72" r="8.661"/>
  <circle style="fill: rgb(225, 225, 225);" cx="433.28" cy="155.749" r="8.661"/>
  <circle style="fill: rgb(225, 225, 225);" cx="131.644" cy="287.832" r="8.661"/>
  <circle style="fill: rgb(225, 225, 225);" cx="179.865" cy="277.128" r="8.661"/>
  <circle style="fill: rgb(225, 225, 225);" cx="216.23" cy="254.928" r="8.661"/>
  <circle style="fill: rgb(225, 225, 225);" cx="163.537" cy="341.041" r="8.661"/>
  <circle style="fill: rgb(225, 225, 225);" cx="208.408" cy="369.752" r="8.661"/>
  <circle style="fill: rgb(225, 225, 225);" cx="208.578" cy="303.085" r="8.661"/>
  <circle style="fill: rgb(225, 225, 225);" cx="251.316" cy="304.086" r="8.661"/>
  <circle style="fill: rgb(225, 225, 225);" cx="287.49" cy="278.648" r="8.661"/>
  <circle style="fill: rgb(225, 225, 225);" cx="323.855" cy="256.448" r="8.661"/>
  <circle style="fill: rgb(225, 225, 225);" cx="283.848" cy="332.444" r="8.661"/>
  <circle style="fill: rgb(225, 225, 225);" cx="316.263" cy="359.945" r="8.661"/>
  <circle style="fill: rgb(225, 225, 225);" cx="316.203" cy="304.605" r="8.661"/>
  <circle style="fill: rgb(225, 225, 225);" cx="361.943" cy="304.742" r="8.661"/>
  <circle style="fill: rgb(225, 225, 225);" cx="398.117" cy="279.304" r="8.661"/>
  <circle style="fill: rgb(225, 225, 225);" cx="434.482" cy="257.104" r="8.661"/>
  <circle style="fill: rgb(225, 225, 225);" cx="394.475" cy="333.1" r="8.661"/>
  <circle style="fill: rgb(225, 225, 225);" cx="426.89" cy="360.601" r="8.661"/>
  <circle style="fill: rgb(225, 225, 225);" cx="426.83" cy="305.261" r="8.661"/>
  <circle style="fill: rgb(225, 225, 225);" cx="374.043" cy="232.396" r="8.661"/>
  <circle style="fill: rgb(225, 225, 225);" cx="266.759" cy="230.814" r="8.661"/>
  <circle style="fill: rgb(225, 225, 225);" cx="105.046" cy="234.019" r="8.661"/>
  <circle style="fill: rgb(225, 225, 225);" cx="49.891" cy="189.731" r="8.661"/>
  <circle style="fill: rgb(225, 225, 225);" cx="119.919" cy="93.577" r="8.661"/>
  <circle style="fill: rgb(225, 225, 225);" cx="80.047" cy="333.254" r="8.661"/>
  <circle style="fill: rgb(225, 225, 225);" cx="123.4" cy="400.611" r="8.661"/>
  <circle style="fill: rgb(225, 225, 225);" cx="262.473" cy="425.491" r="8.661"/>
  <circle style="fill: rgb(225, 225, 225);" cx="376.934" cy="405.223" r="8.661"/>
  <circle style="fill: rgb(225, 225, 225);" cx="257.988" cy="375.148" r="8.661"/>
  <circle style="fill: rgb(225, 225, 225);" cx="48.817" cy="267.002" r="8.661"/>
  <circle style="fill: rgb(225, 225, 225);" cx="443.176" cy="442.955" r="8.661"/>
  <circle style="fill: rgb(225, 225, 225);" cx="198.142" cy="451.008" r="8.661"/>
  <circle style="fill: rgb(225, 225, 225);" cx="47.141" cy="428.69" r="8.661"/>
  <circle style="fill: rgb(225, 225, 225);" cx="474.104" cy="283.29" r="8.661"/>
  <circle style="fill: rgb(225, 225, 225);" cx="470.654" cy="133.163" r="8.661"/>
</svg>