<?xml version="1.0" encoding="utf-8"?>
<svg viewBox="0 0 500 500" xmlns="http://www.w3.org/2000/svg">
  <line style="stroke-linecap: round; stroke-miterlimit: 7; stroke-width: 3px; stroke-dashoffset: -16px; stroke-dasharray: 4, 12; stroke: rgb(234, 234, 234);" x1="387.013" y1="206.704" x2="387.013" y2="435.833" transform="matrix(0.891006, -0.453991, 0.453991, 0.891006, -103.671037, 210.716761)"/>
  <line style="stroke-linecap: round; stroke-miterlimit: 7; stroke-width: 3px; stroke-dashoffset: -16px; stroke-dasharray: 4, 12; stroke: rgb(234, 234, 234);" x1="347.8" y1="225.031" x2="347.8" y2="490.347" transform="matrix(0.891006, -0.453991, 0.453991, 0.891006, -124.47959, 196.883992)"/>
  <line style="stroke-linecap: round; stroke-miterlimit: 7; stroke-width: 3px; stroke-dashoffset: -16px; stroke-dasharray: 4, 12; stroke: rgb(234, 234, 234);" x1="295.508" y1="242.658" x2="295.508" y2="486.334" transform="matrix(0.891006, -0.453991, 0.453991, 0.891006, -133.269412, 173.885803)"/>
  <line style="stroke-linecap: round; stroke-miterlimit: 7; stroke-width: 3px; stroke-dashoffset: -16px; stroke-dasharray: 4, 12; stroke: rgb(234, 234, 234);" x1="237.477" y1="252.266" x2="237.477" y2="473.134" transform="matrix(0.891006, -0.453991, 0.453991, 0.891006, -138.779071, 147.344515)"/>
  <line style="stroke-linecap: round; stroke-miterlimit: 7; stroke-width: 3px; stroke-dashoffset: -16px; stroke-dasharray: 4, 12; stroke: rgb(234, 234, 234);" x1="188.421" y1="256.629" x2="188.421" y2="477.497" transform="matrix(0.891006, -0.453991, 0.453991, 0.891006, -146.106634, 125.549065)"/>
  <line style="stroke-linecap: round; stroke-miterlimit: 7; stroke-width: 3px; stroke-dashoffset: -16px; stroke-dasharray: 4, 12; stroke: rgb(234, 234, 234);" x1="130.813" y1="239.306" x2="130.813" y2="478.355" transform="matrix(0.891006, -0.453991, 0.453991, 0.891006, -148.648049, 98.49823)"/>
  <line style="stroke-linecap: round; stroke-miterlimit: 7; stroke-width: 3px; stroke-dashoffset: -16px; stroke-dasharray: 4, 12; stroke: rgb(234, 234, 234);" x1="432.352" y1="183.059" x2="432.352" y2="403.927" transform="matrix(0.891006, -0.453991, 0.453991, 0.891006, -86.119537, 228.2729)"/>
  <line style="stroke-linecap: round; stroke-miterlimit: 7; stroke-width: 3px; stroke-dashoffset: -16px; stroke-dasharray: 4, 12; stroke: rgb(234, 234, 234);" x1="151.282" y1="191.219" x2="151.282" y2="502.115" transform="matrix(0.891006, -0.453991, 0.453991, 0.891006, -140.894947, 106.465245)"/>
  <line style="stroke-linecap: round; stroke-miterlimit: 7; stroke-width: 3px; stroke-dashoffset: -16px; stroke-dasharray: 4, 12; stroke: rgb(234, 234, 234);" x1="203.097" y1="200.409" x2="203.097" y2="497.095" transform="matrix(0.891006, -0.453991, 0.453991, 0.891006, -136.193997, 130.216035)"/>
  <line style="stroke-linecap: round; stroke-miterlimit: 7; stroke-width: 3px; stroke-dashoffset: -16px; stroke-dasharray: 4, 12; stroke: rgb(234, 234, 234);" x1="255.978" y1="212.096" x2="255.978" y2="502.09" transform="matrix(0.891006, -0.453991, 0.453991, 0.891006, -134.217048, 155.132674)"/>
  <line style="stroke-linecap: round; stroke-miterlimit: 7; stroke-width: 3px; stroke-dashoffset: -16px; stroke-dasharray: 4, 12; stroke: rgb(234, 234, 234);" x1="311.556" y1="208.606" x2="311.556" y2="475.997" transform="matrix(0.891006, -0.453991, 0.453991, 0.891006, -121.444177, 178.752413)"/>
  <line style="stroke-linecap: round; stroke-miterlimit: 7; stroke-width: 3px; stroke-dashoffset: -16px; stroke-dasharray: 4, 12; stroke: rgb(234, 234, 234);" x1="364.981" y1="200.897" x2="364.981" y2="472.427" transform="matrix(0.891006, -0.453991, 0.453991, 0.891006, -113.06091, 202.39224)"/>
  <line style="stroke-linecap: round; stroke-miterlimit: 7; stroke-width: 3px; stroke-dashoffset: -16px; stroke-dasharray: 4, 12; stroke: rgb(234, 234, 234);" x1="417.441" y1="193.628" x2="417.441" y2="447.805" transform="matrix(0.891006, -0.453991, 0.453991, 0.891006, -100.103962, 224.470609)"/>
  <g transform="matrix(1, 0, 0, 1, -68.712677, 9.963113)">
    <polyline style="fill: rgb(182, 180, 97);" points="221.603 261.628 307.933 341.136 239.414 309.083 328.455 395.492 270.54 369.132 325.816 430.867 210.786 345.393 258.053 350.562 199.332 277.504 232.235 289.568 207.446 244.277"/>
    <polyline style="fill: rgb(249, 246, 78);" points="221.908 255.045 308.239 334.552 239.72 302.5 328.761 388.908 270.846 362.548 326.122 424.283 211.091 338.809 258.359 343.979 199.638 270.92 232.541 282.984 207.752 237.694"/>
  </g>
  <path d="M 146.131 221.097 C 129.115 221.097 113.14 217.273 99.304 210.57 C 93.358 211.741 87.029 212.372 80.465 212.372 C 45.858 212.372 17.803 194.834 17.803 173.199 C 17.803 158.305 31.099 145.353 50.674 138.727 C 50.913 93.624 93.558 57.124 146.131 57.124 C 148.366 57.124 150.583 57.191 152.78 57.319 C 166.461 46.236 184.312 39.527 203.838 39.527 C 209.027 39.527 214.097 40.001 219.002 40.905 C 231.817 24.398 252.27 13.713 275.317 13.713 C 310.517 13.713 339.673 38.64 344.79 71.167 C 351.099 69.802 357.884 69.06 364.949 69.06 C 398.463 69.06 425.632 85.753 425.632 106.345 C 425.632 112.38 423.299 118.08 419.156 123.123 C 456.946 132.777 482.198 150.27 482.198 170.247 C 482.198 200.663 423.663 225.319 351.456 225.319 C 333.012 225.319 315.462 223.71 299.549 220.808 C 284.954 231.772 257.96 239.133 227.072 239.133 C 196.159 239.133 169.145 231.761 154.561 220.781 C 151.783 220.99 148.972 221.097 146.131 221.097 Z" style="fill: rgb(216, 216, 216);"/>
  <path d="M 321.208 159.567 C 312.913 159.567 305.126 157.702 298.381 154.435 C 295.483 155.006 292.398 155.314 289.198 155.314 C 272.329 155.314 258.653 146.764 258.653 136.219 C 258.653 128.958 265.134 122.645 274.676 119.415 C 274.792 97.429 295.58 79.637 321.208 79.637 C 322.297 79.637 323.378 79.67 324.448 79.732 C 331.118 74.329 339.819 71.059 349.337 71.059 C 351.867 71.059 354.338 71.29 356.729 71.731 C 362.976 63.684 372.946 58.476 384.181 58.476 C 401.339 58.476 415.551 70.627 418.045 86.482 C 421.121 85.817 424.428 85.455 427.872 85.455 C 444.209 85.455 457.453 93.592 457.453 103.63 C 457.453 106.572 456.315 109.35 454.296 111.808 C 472.717 116.514 485.026 125.042 485.026 134.78 C 485.026 149.606 456.493 161.625 421.295 161.625 C 412.304 161.625 403.749 160.841 395.993 159.426 C 388.878 164.77 375.719 168.359 360.663 168.359 C 345.594 168.359 332.426 164.765 325.317 159.413 C 323.962 159.515 322.593 159.567 321.208 159.567 Z" style="fill: rgb(247, 247, 247);"/>
  <g transform="matrix(0.643628, 0, 0, 0.643628, 211.70343, 74.22364)" style="">
    <polyline style="fill: rgb(182, 180, 97);" points="221.603 261.628 307.933 341.136 239.414 309.083 328.455 395.492 270.54 369.132 325.816 430.867 210.786 345.393 258.053 350.562 199.332 277.504 232.235 289.568 207.446 244.277"/>
    <polyline style="fill: rgb(249, 246, 78);" points="221.908 255.045 308.239 334.552 239.72 302.5 328.761 388.908 270.846 362.548 326.122 424.283 211.091 338.809 258.359 343.979 199.638 270.92 232.541 282.984 207.752 237.694"/>
  </g>
  <path d="M 106.704 260.878 C 93.988 260.878 82.05 258.02 71.711 253.011 C 67.268 253.887 62.538 254.358 57.633 254.358 C 31.772 254.358 10.807 241.252 10.807 225.085 C 10.807 213.955 20.743 204.276 35.371 199.325 C 35.549 165.62 67.417 138.345 106.704 138.345 C 108.374 138.345 110.031 138.395 111.672 138.49 C 121.896 130.208 135.236 125.195 149.827 125.195 C 153.705 125.195 157.493 125.549 161.159 126.225 C 170.735 113.889 186.019 105.905 203.242 105.905 C 229.546 105.905 251.333 124.532 255.157 148.839 C 259.872 147.819 264.942 147.264 270.222 147.264 C 295.266 147.264 315.569 159.738 315.569 175.126 C 315.569 179.636 313.825 183.896 310.729 187.664 C 338.969 194.878 357.839 207.951 357.839 222.879 C 357.839 245.608 314.097 264.033 260.139 264.033 C 246.356 264.033 233.241 262.831 221.35 260.662 C 210.443 268.855 190.271 274.356 167.189 274.356 C 144.089 274.356 123.902 268.847 113.003 260.642 C 110.927 260.798 108.827 260.878 106.704 260.878 Z" style="fill: rgb(247, 247, 247);"/>
</svg>