<?xml version="1.0" encoding="utf-8"?>
<svg viewBox="0 0 500 500" xmlns="http://www.w3.org/2000/svg">
  <g transform="matrix(0.462587, 0, 0, 0.462587, -11.393847, 0.846794)" style="">
    <circle style="fill: rgba(216, 216, 216, 0.11);" cx="241.168" cy="212.251" r="126.267" transform="matrix(0.927184, -0.374607, 0.374607, 0.927184, -53.117591, 143.547574)"/>
    <path d="M 253.869 396.171 C 184.134 396.171 127.602 339.639 127.602 269.904 C 127.602 200.169 184.134 143.637 253.869 143.637 C 260.675 143.637 267.355 144.175 273.869 145.212 C 213.638 154.797 167.602 206.975 167.602 269.904 C 167.602 332.833 213.638 385.011 273.869 394.596 C 267.355 395.633 260.675 396.171 253.869 396.171 Z" style="fill: rgb(251, 246, 217);" transform="matrix(0.927184, -0.374607, 0.374607, 0.927184, -86.491088, 94.850305)"/>
  </g>
  <path d="M 379.09 361.094 C 374.842 365.342 376.607 381.265 379.24 386.448 C 381.671 391.238 380.582 405.025 385.052 401.911 C 387.516 400.192 393.09 402.381 396.44 404.501 C 397.541 405.198 402.5 410.297 401.197 410.311 C 383.647 410.509 375.151 409.254 358.479 411.915 C 356.908 412.165 347.033 414.033 345.738 412.562 C 345.701 412.52 352.469 409.974 353.252 409.457 C 356.417 407.372 363.56 401.728 365.21 398.427 C 371.466 385.915 371.789 371.182 371.789 356.574 L 372.977 356.023 C 372.476 355.787 372.1 355.522 371.883 355.228 C 349.673 360.154 327.189 355.214 309.961 340.798 C 305.835 337.345 297.641 334.498 295.249 329.794 C 293.451 326.254 297.047 319.975 295.249 316.433 C 293.36 312.713 286.435 312.685 284.062 308.788 C 278.51 299.666 284.1 280.069 289.977 272.223 C 305.828 251.063 338.039 251.524 361.168 247.353 C 375.735 244.723 395.521 234.317 410.696 240.732 C 436.387 251.592 451.981 267.634 461.908 294.256 C 464.463 301.108 470.142 314.263 466.324 321.868 C 460.348 333.768 447.719 341.095 434.297 341.095 C 430.374 341.095 424.216 337.011 420.345 338.947 C 412.305 342.968 403.802 354.646 395.654 357.168 C 393.938 357.701 386.204 357.991 379.974 357.432 C 379.752 359.151 379.46 360.724 379.09 361.094 Z" style="fill: rgb(144, 160, 105);"/>
  <path d="M 98.351 363.482 C 95.268 360.158 89.944 357.083 86.432 355.677 C 74.113 350.754 63.57 355.415 52.123 349.672 C 41.903 344.547 27.315 333.982 24.74 321.712 C 20.54 301.699 24.579 288.425 30.609 270.337 C 32.094 265.881 31.537 259.965 33.954 255.819 C 36.979 250.634 44.518 250.05 47.271 243.61 C 49.349 238.751 49.072 232.371 51.685 227.802 C 62.435 209.013 84.527 201.487 101.86 191.661 C 107.76 188.314 108.675 180.704 114.698 177.69 C 122.708 173.685 132.561 176.975 140.804 173.894 C 147.091 171.543 150.028 165.345 157.16 164.09 C 168.875 162.027 181.608 165.336 193.46 164.09 C 202.372 163.154 209.236 159.621 219.146 160.67 C 230.127 161.832 240.803 167.231 251.144 170.827 C 259.363 173.682 269.067 174.184 276.832 178.082 C 301.123 190.28 336.44 205.231 341.365 234.904 C 342.581 242.239 337.988 237.535 336.91 241.487 C 335.104 248.113 337.391 255.207 339.833 261.285 C 346.296 277.359 366.351 306.468 354.563 325.93 C 351.735 330.599 343.71 337.237 339.403 340.86 C 333.679 345.677 316.823 350.932 308.735 351.694 C 304.018 352.138 294.435 348.325 290.464 350.372 C 279.082 356.239 265.469 355.39 250.886 355.39 C 243.956 355.39 235.511 350.366 228.58 352.536 C 226.779 353.099 226.969 361.802 226.223 363.677 C 225.69 365.022 213.299 375.84 211.869 376.441 C 205.292 379.213 195.907 374.526 189.928 377.422 C 186.698 378.988 180.993 379.479 175.022 379.575 C 175.004 383.024 175.189 386.212 175.907 388.083 C 181.975 403.875 176.209 425.571 184.104 441.174 C 191.299 455.389 204.002 458.686 214.254 466.516 C 217.263 468.812 219.929 470.836 223.27 471.274 C 198.735 470.696 173.76 467.449 148.915 467.449 C 143.558 467.449 122.123 469.809 128.112 469.809 C 129.782 469.809 124.347 472.719 123.208 471.121 C 122.863 470.638 131.918 463.718 132.82 463.128 C 138.846 459.175 144.968 449.648 148.355 442.076 C 156.202 424.533 155.594 400.457 156.256 379.553 C 138.958 368.036 110.131 376.182 98.351 363.482 Z M 230.402 471.358 C 232.333 471.358 226.542 471.358 224.611 471.358 C 224.152 471.358 223.704 471.33 223.27 471.274 C 225.652 471.328 228.029 471.358 230.402 471.358 Z" style="fill: rgb(92, 102, 66);"/>
  <path d="M 166.725 250.02 C 85.153 250.02 19.026 204.053 19.026 147.348 C 19.026 90.643 85.153 44.675 166.725 44.675 C 179.043 44.675 191.01 45.724 202.449 47.698 C 214.125 25.94 251.002 10.048 294.687 10.048 C 341.891 10.048 381.146 28.604 389.247 53.066 C 395.382 52.271 401.827 51.848 408.474 51.848 C 449.801 51.848 483.303 68.225 483.303 88.427 C 483.303 102.364 467.361 114.478 443.906 120.653 C 456.496 131.985 463.905 145.861 463.905 160.852 C 463.905 199.06 415.777 230.033 356.409 230.033 C 351.233 230.033 346.143 229.798 341.163 229.343 C 339.815 242.978 316.393 253.835 287.697 253.835 C 264.946 253.835 245.51 247.01 237.762 237.387 C 216.684 245.44 192.474 250.02 166.725 250.02 Z" style="fill: rgba(170, 170, 170, 0.97);"/>
  <line style="stroke-width: 4px; stroke-linecap: round; stroke-dasharray: 1, 14; stroke: rgb(228, 228, 228);" x1="19.184" y1="357.133" x2="230.542" y2="357.133" transform="matrix(0, 1, -1, 0, 481.995996, 232.269995)"/>
  <line style="stroke-width: 4px; stroke-linecap: round; stroke-dasharray: 1, 14; stroke: rgb(228, 228, 228);" x1="-28.037" y1="349.624" x2="195.529" y2="349.624" transform="matrix(0, 1, -1, 0, 433.369997, 265.877989)"/>
  <line style="stroke-width: 4px; stroke-linecap: round; stroke-dasharray: 1, 14; stroke: rgb(228, 228, 228);" x1="-1.377" y1="362.731" x2="209.983" y2="362.731" transform="matrix(0, 1, -1, 0, 467.033988, 258.427987)"/>
  <line style="stroke-width: 4px; stroke-linecap: round; stroke-dasharray: 1, 14; stroke: rgb(228, 228, 228);" x1="-80.895" y1="337.102" x2="166.153" y2="337.102" transform="matrix(0, 1, -1, 0, 379.730995, 294.472984)"/>
  <line style="stroke-width: 4px; stroke-linecap: round; stroke-dasharray: 1, 14; stroke: rgb(228, 228, 228);" x1="-55.523" y1="348.921" x2="181.899" y2="348.921" transform="matrix(0, 1, -1, 0, 412.10899, 285.73299)"/>
  <line style="stroke-width: 4px; stroke-linecap: round; stroke-dasharray: 1, 14; stroke: rgb(228, 228, 228);" x1="125.713" y1="361.016" x2="337.071" y2="361.016" transform="matrix(0, 1, -1, 0, 592.407997, 129.623985)"/>
  <line style="stroke-width: 4px; stroke-linecap: round; stroke-dasharray: 1, 14; stroke: rgb(228, 228, 228);" x1="84.596" y1="359.611" x2="295.954" y2="359.611" transform="matrix(0, 1, -1, 0, 549.885994, 169.335991)"/>
  <line style="stroke-width: 4px; stroke-linecap: round; stroke-dasharray: 1, 14; stroke: rgb(228, 228, 228);" x1="105.152" y1="366.614" x2="316.512" y2="366.614" transform="matrix(0, 1, -1, 0, 577.446007, 155.782021)"/>
  <line style="stroke-width: 4px; stroke-linecap: round; stroke-dasharray: 1, 14; stroke: rgb(228, 228, 228);" x1="43.479" y1="358.83" x2="254.837" y2="358.83" transform="matrix(0, 1, -1, 0, 507.987988, 209.671986)"/>
  <line style="stroke-width: 4px; stroke-linecap: round; stroke-dasharray: 1, 14; stroke: rgb(228, 228, 228);" x1="64.038" y1="365.836" x2="275.396" y2="365.836" transform="matrix(0, 1, -1, 0, 535.553001, 196.118996)"/>
  <line style="stroke-width: 4px; stroke-linecap: round; stroke-dasharray: 1, 14; stroke: rgb(228, 228, 228);" x1="230.531" y1="351.245" x2="441.889" y2="351.245" transform="matrix(0, 1, -1, 0, 687.455002, 15.034988)"/>
  <line style="stroke-width: 4px; stroke-linecap: round; stroke-dasharray: 1, 14; stroke: rgb(228, 228, 228);" x1="198.85" y1="359.276" x2="391.336" y2="359.276" transform="matrix(0, 1, -1, 0, 654.369003, 64.182999)"/>
  <line style="stroke-width: 4px; stroke-linecap: round; stroke-dasharray: 1, 14; stroke: rgb(228, 228, 228);" x1="209.97" y1="356.843" x2="421.33" y2="356.843" transform="matrix(0, 1, -1, 0, 672.492981, 41.192993)"/>
  <line style="stroke-width: 4px; stroke-linecap: round; stroke-dasharray: 1, 14; stroke: rgb(228, 228, 228);" x1="157.672" y1="358.434" x2="350.28" y2="358.434" transform="matrix(0, 1, -1, 0, 612.409988, 104.457993)"/>
  <line style="stroke-width: 4px; stroke-linecap: round; stroke-dasharray: 1, 14; stroke: rgb(228, 228, 228);" x1="172.85" y1="360.059" x2="376.22" y2="360.059" transform="matrix(0, 1, -1, 0, 634.593994, 85.523987)"/>
  <line style="stroke-width: 4px; stroke-linecap: round; stroke-dasharray: 1, 14; stroke: rgb(228, 228, 228);" x1="322.845" y1="329.862" x2="558.841" y2="329.862" transform="matrix(0, 1, -1, 0, 770.705002, -110.981003)"/>
  <line style="stroke-width: 4px; stroke-linecap: round; stroke-dasharray: 1, 14; stroke: rgb(228, 228, 228);" x1="294.048" y1="340.776" x2="505.406" y2="340.776" transform="matrix(0, 1, -1, 0, 740.503006, -58.951004)"/>
  <line style="stroke-width: 4px; stroke-linecap: round; stroke-dasharray: 1, 14; stroke: rgb(228, 228, 228);" x1="306.134" y1="339.31" x2="534.432" y2="339.31" transform="matrix(0, 1, -1, 0, 759.593002, -80.973007)"/>
  <line style="stroke-width: 4px; stroke-linecap: round; stroke-dasharray: 1, 14; stroke: rgb(228, 228, 228);" x1="256.695" y1="343.76" x2="460.523" y2="343.76" transform="matrix(0, 1, -1, 0, 702.369019, -14.848999)"/>
  <line style="stroke-width: 4px; stroke-linecap: round; stroke-dasharray: 1, 14; stroke: rgb(228, 228, 228);" x1="273.489" y1="347.001" x2="484.847" y2="347.001" transform="matrix(0, 1, -1, 0, 726.169006, -32.166992)"/>
</svg>