<?xml version="1.0" encoding="utf-8"?>
<svg viewBox="0 0 500 500" xmlns="http://www.w3.org/2000/svg" xmlns:bx="https://boxy-svg.com">
  <g transform="matrix(0.848108, 0, 0, 0.848108, -68.182838, -43.179863)" style="">
    <path d="M 318.027 285.809 L 336.793 326.389 L 367.719 294.101 L 372.292 338.576 L 412.025 318.079 L 401.91 361.628 L 446.146 355.144 L 422.438 393.049 L 466.383 401.279 L 431.652 429.433 L 470.543 451.486 L 428.552 466.837 L 458.176 500.323 L 413.476 501.208 L 430.621 542.498 L 388.056 528.821 L 390.866 573.442 L 355.047 546.684 L 343.216 589.8 L 318.027 552.862 L 292.838 589.8 L 281.007 546.684 L 245.188 573.442 L 247.998 528.821 L 205.433 542.498 L 222.578 501.208 L 177.878 500.323 L 207.502 466.837 L 165.511 451.486 L 204.402 429.433 L 169.671 401.279 L 213.616 393.049 L 189.908 355.144 L 234.144 361.628 L 224.029 318.079 L 263.762 338.576 L 268.335 294.101 L 299.261 326.389 Z" style="fill: rgb(255, 230, 0);" transform="matrix(-0.809017, 0.587785, -0.587785, -0.809017, 755.231211, 389.57177)" bx:shape="star 318.027 438.848 153.039 153.039 0.745 19 1@984eca1f"/>
    <circle style="fill: rgb(237, 213, 0);" cx="241.833" cy="221.856" r="97.661"/>
  </g>
  <path d="M 180.924 237.37 C 165 237.37 150.05 233.589 137.103 226.962 C 131.54 228.119 125.618 228.743 119.475 228.743 C 87.09 228.743 60.837 211.403 60.837 190.011 C 60.837 175.286 73.279 162.479 91.597 155.928 C 91.821 111.331 131.728 75.242 180.924 75.242 C 183.015 75.242 185.09 75.307 187.146 75.435 C 199.948 64.476 216.653 57.843 234.925 57.843 C 239.78 57.843 244.525 58.312 249.115 59.205 C 261.106 42.884 280.247 32.319 301.813 32.319 C 334.753 32.319 362.035 56.966 366.825 89.127 C 372.728 87.777 379.077 87.044 385.689 87.044 C 417.051 87.044 442.474 103.549 442.474 123.909 C 442.474 129.876 440.291 135.513 436.414 140.499 C 471.778 150.044 495.409 167.34 495.409 187.093 C 495.409 217.166 440.632 241.545 373.063 241.545 C 355.804 241.545 339.38 239.955 324.489 237.085 C 310.832 247.926 285.571 255.203 256.667 255.203 C 227.74 255.203 202.46 247.914 188.812 237.058 C 186.213 237.264 183.582 237.37 180.924 237.37 Z" style="fill: rgb(229, 229, 229);"/>
  <path d="M 171.14 346.343 C 166.96 346.343 162.923 346.115 159.113 345.69 C 156.241 351.584 143.553 356.025 128.336 356.025 C 111.926 356.025 98.457 350.86 97.068 344.278 C 95.44 344.347 93.789 344.382 92.119 344.382 C 64.805 344.382 42.663 334.996 42.663 323.418 C 42.663 317.239 48.97 311.684 59.005 307.847 C 58.144 306.604 57.665 305.228 57.665 303.78 C 57.665 298.583 63.83 294.312 71.707 293.836 C 73.551 292.02 75.97 290.324 78.872 288.785 C 79.399 284.418 89.179 280.937 101.167 280.937 C 102.662 280.937 104.122 280.991 105.534 281.094 C 106.541 280.96 107.561 280.837 108.593 280.725 C 111.346 276.223 120.262 272.925 130.836 272.925 C 138.931 272.925 146.054 274.858 150.184 277.784 C 157.014 275.996 165.793 274.921 175.37 274.921 C 197.143 274.921 214.794 280.478 214.794 287.334 C 214.794 287.714 214.74 288.089 214.634 288.46 C 218.578 289.17 221.452 291.373 221.452 293.981 C 221.452 294.396 221.379 294.8 221.241 295.19 C 231.534 297.346 238.76 302.412 238.76 308.318 C 238.76 310.216 238.014 312.026 236.66 313.682 C 238.006 314.749 238.821 316.141 238.821 317.663 C 238.821 318.506 238.571 319.309 238.12 320.038 C 248.926 322.458 256.394 327.64 256.394 333.643 C 256.394 341.96 242.058 348.702 224.373 348.702 C 213.769 348.702 204.368 346.278 198.541 342.544 C 191.184 344.912 181.609 346.343 171.14 346.343 Z" style="fill: rgb(243, 243, 243);"/>
  <path d="M 130.883 414.501 C 130.883 403.755 153.794 395.044 182.057 395.044 C 183.786 395.044 185.497 395.076 187.181 395.14 C 189.7 388.619 201.115 383.698 214.815 383.698 C 217.886 383.698 220.842 383.945 223.608 384.403 C 228.83 377.118 241.692 371.967 256.732 371.967 C 273.348 371.967 287.308 378.256 291.24 386.762 C 296.402 384.629 303.448 383.316 311.216 383.316 C 321.133 383.316 329.875 385.456 335.02 388.71 C 337.951 388.399 340.985 388.235 344.089 388.235 C 369.237 388.235 389.623 398.942 389.623 412.148 C 389.623 414.916 388.728 417.574 387.08 420.046 C 405.52 420.385 420.262 427.951 420.262 437.237 C 420.262 445.576 408.374 452.527 392.596 454.104 C 390.382 459.419 379.433 463.53 365.951 463.916 C 365.955 463.993 365.957 464.069 365.957 464.146 C 365.957 471.158 349.005 476.844 328.095 476.844 C 308.823 476.844 292.915 472.015 290.539 465.77 C 290.136 465.811 289.733 465.853 289.33 465.892 C 289.991 466.77 290.34 467.684 290.34 468.618 C 290.34 475.666 270.573 481.38 246.189 481.38 C 221.85 481.38 202.11 475.687 202.038 468.658 C 196.526 470.011 189.939 470.798 182.867 470.798 C 166.9 470.798 153.421 466.787 149.14 461.295 C 148.792 461.301 148.441 461.303 148.091 461.303 C 127.672 461.303 111.12 453.548 111.12 443.982 C 111.12 435.302 124.745 428.115 142.52 426.856 C 135.248 423.495 130.883 419.192 130.883 414.501 Z" style="fill: rgb(243, 243, 243);"/>
  <path d="M 390.745 275.302 C 388.816 275.302 386.953 275.407 385.195 275.604 C 383.87 272.884 378.014 270.834 370.992 270.834 C 363.419 270.834 357.203 273.218 356.562 276.255 C 355.811 276.223 355.049 276.207 354.278 276.207 C 341.673 276.207 331.455 280.539 331.455 285.882 C 331.455 288.733 334.365 291.297 338.996 293.068 C 338.599 293.641 338.378 294.276 338.378 294.944 C 338.378 297.343 341.223 299.314 344.858 299.534 C 345.709 300.372 346.825 301.154 348.165 301.864 C 348.408 303.88 352.921 305.486 358.454 305.486 C 359.144 305.486 359.817 305.461 360.469 305.414 C 360.934 305.476 361.404 305.532 361.881 305.584 C 363.151 307.662 367.266 309.184 372.145 309.184 C 375.881 309.184 379.168 308.292 381.074 306.941 C 384.226 307.766 388.278 308.263 392.697 308.263 C 402.745 308.263 410.891 305.698 410.891 302.534 C 410.891 302.359 410.866 302.186 410.817 302.014 C 412.637 301.687 413.964 300.67 413.964 299.467 C 413.964 299.275 413.93 299.089 413.866 298.909 C 418.616 297.914 421.951 295.576 421.951 292.85 C 421.951 291.974 421.607 291.139 420.982 290.375 C 421.603 289.882 421.979 289.24 421.979 288.538 C 421.979 288.149 421.864 287.778 421.656 287.442 C 426.643 286.325 430.089 283.933 430.089 281.163 C 430.089 277.325 423.473 274.214 415.312 274.214 C 410.418 274.214 406.08 275.332 403.391 277.055 C 399.995 275.963 395.577 275.302 390.745 275.302 Z" style="fill: rgb(243, 243, 243);" transform="matrix(-1, 0, 0, -1, 761.543976, 580.018005)"/>
</svg>