<?xml version="1.0" encoding="utf-8"?>
<svg viewBox="0 0 500 500" xmlns="http://www.w3.org/2000/svg" xmlns:bx="https://boxy-svg.com">
  <g transform="matrix(0.523699, 0, 0, 0.523699, 13.596116, 58.895626)" style="">
    <path d="M 318.027 285.809 L 336.793 326.389 L 367.719 294.101 L 372.292 338.576 L 412.025 318.079 L 401.91 361.628 L 446.146 355.144 L 422.438 393.049 L 466.383 401.279 L 431.652 429.433 L 470.543 451.486 L 428.552 466.837 L 458.176 500.323 L 413.476 501.208 L 430.621 542.498 L 388.056 528.821 L 390.866 573.442 L 355.047 546.684 L 343.216 589.8 L 318.027 552.862 L 292.838 589.8 L 281.007 546.684 L 245.188 573.442 L 247.998 528.821 L 205.433 542.498 L 222.578 501.208 L 177.878 500.323 L 207.502 466.837 L 165.511 451.486 L 204.402 429.433 L 169.671 401.279 L 213.616 393.049 L 189.908 355.144 L 234.144 361.628 L 224.029 318.079 L 263.762 338.576 L 268.335 294.101 L 299.261 326.389 Z" style="fill: rgb(255, 230, 0);" transform="matrix(-0.809017, 0.587785, -0.587785, -0.809017, 755.231211, 389.57177)" bx:shape="star 318.027 438.848 153.039 153.039 0.745 19 1@984eca1f"/>
    <circle style="fill: rgb(237, 213, 0);" cx="241.833" cy="221.856" r="97.661"/>
  </g>
  <circle style="fill: rgb(225, 225, 225);" cx="146.338" cy="172.406" r="8.661"/>
  <circle style="fill: rgb(225, 225, 225);" cx="182.512" cy="146.968" r="8.661"/>
  <circle style="fill: rgb(225, 225, 225);" cx="218.877" cy="124.768" r="8.661"/>
  <circle style="fill: rgb(225, 225, 225);" cx="178.87" cy="200.764" r="8.661"/>
  <circle style="fill: rgb(225, 225, 225);" cx="211.285" cy="228.265" r="8.661"/>
  <circle style="fill: rgb(225, 225, 225);" cx="211.225" cy="172.925" r="8.661"/>
  <circle style="fill: rgb(225, 225, 225);" cx="251.592" cy="172.957" r="8.661"/>
  <circle style="fill: rgb(225, 225, 225);" cx="287.766" cy="147.519" r="8.661"/>
  <circle style="fill: rgb(225, 225, 225);" cx="324.131" cy="125.319" r="8.661"/>
  <circle style="fill: rgb(225, 225, 225);" cx="284.124" cy="201.315" r="8.661"/>
  <circle style="fill: rgb(225, 225, 225);" cx="316.539" cy="228.816" r="8.661"/>
  <circle style="fill: rgb(225, 225, 225);" cx="316.479" cy="173.476" r="8.661"/>
  <circle style="fill: rgb(225, 225, 225);" cx="362.824" cy="172.812" r="8.661"/>
  <circle style="fill: rgb(225, 225, 225);" cx="398.998" cy="147.374" r="8.661"/>
  <circle style="fill: rgb(225, 225, 225);" cx="435.363" cy="125.174" r="8.661"/>
  <circle style="fill: rgb(225, 225, 225);" cx="401.757" cy="210.588" r="8.661"/>
  <circle style="fill: rgb(225, 225, 225);" cx="446.784" cy="230.302" r="8.661"/>
  <circle style="fill: rgb(225, 225, 225);" cx="427.711" cy="173.331" r="8.661"/>
  <circle style="fill: rgb(225, 225, 225);" cx="126.075" cy="305.414" r="8.661"/>
  <circle style="fill: rgb(225, 225, 225);" cx="174.296" cy="294.71" r="8.661"/>
  <circle style="fill: rgb(225, 225, 225);" cx="210.661" cy="272.51" r="8.661"/>
  <circle style="fill: rgb(225, 225, 225);" cx="157.968" cy="358.623" r="8.661"/>
  <circle style="fill: rgb(225, 225, 225);" cx="202.839" cy="387.334" r="8.661"/>
  <circle style="fill: rgb(225, 225, 225);" cx="203.009" cy="320.667" r="8.661"/>
  <circle style="fill: rgb(225, 225, 225);" cx="245.747" cy="321.668" r="8.661"/>
  <circle style="fill: rgb(225, 225, 225);" cx="281.921" cy="296.23" r="8.661"/>
  <circle style="fill: rgb(225, 225, 225);" cx="318.286" cy="274.03" r="8.661"/>
  <circle style="fill: rgb(225, 225, 225);" cx="278.279" cy="350.026" r="8.661"/>
  <circle style="fill: rgb(225, 225, 225);" cx="310.694" cy="377.527" r="8.661"/>
  <circle style="fill: rgb(225, 225, 225);" cx="310.634" cy="322.187" r="8.661"/>
  <circle style="fill: rgb(225, 225, 225);" cx="356.374" cy="322.324" r="8.661"/>
  <circle style="fill: rgb(225, 225, 225);" cx="392.548" cy="296.886" r="8.661"/>
  <circle style="fill: rgb(225, 225, 225);" cx="428.913" cy="274.686" r="8.661"/>
  <circle style="fill: rgb(225, 225, 225);" cx="388.906" cy="350.682" r="8.661"/>
  <circle style="fill: rgb(225, 225, 225);" cx="421.321" cy="378.183" r="8.661"/>
  <circle style="fill: rgb(225, 225, 225);" cx="421.261" cy="322.843" r="8.661"/>
  <circle style="fill: rgb(225, 225, 225);" cx="368.474" cy="249.978" r="8.661"/>
  <circle style="fill: rgb(225, 225, 225);" cx="261.19" cy="248.396" r="8.661"/>
  <circle style="fill: rgb(225, 225, 225);" cx="99.477" cy="251.601" r="8.661"/>
  <circle style="fill: rgb(225, 225, 225);" cx="44.322" cy="207.313" r="8.661"/>
  <circle style="fill: rgb(225, 225, 225);" cx="114.35" cy="111.159" r="8.661"/>
  <circle style="fill: rgb(225, 225, 225);" cx="74.478" cy="350.836" r="8.661"/>
  <circle style="fill: rgb(225, 225, 225);" cx="117.831" cy="418.193" r="8.661"/>
  <circle style="fill: rgb(225, 225, 225);" cx="256.904" cy="443.073" r="8.661"/>
  <circle style="fill: rgb(225, 225, 225);" cx="371.365" cy="422.805" r="8.661"/>
  <circle style="fill: rgb(225, 225, 225);" cx="252.419" cy="392.73" r="8.661"/>
  <circle style="fill: rgb(225, 225, 225);" cx="43.248" cy="284.584" r="8.661"/>
  <circle style="fill: rgb(225, 225, 225);" cx="437.607" cy="460.537" r="8.661"/>
  <circle style="fill: rgb(225, 225, 225);" cx="192.573" cy="468.59" r="8.661"/>
  <circle style="fill: rgb(225, 225, 225);" cx="41.572" cy="446.272" r="8.661"/>
  <circle style="fill: rgb(225, 225, 225);" cx="468.535" cy="300.872" r="8.661"/>
  <circle style="fill: rgb(225, 225, 225);" cx="465.085" cy="150.745" r="8.661"/>
</svg>