<?xml version="1.0" encoding="utf-8"?>
<svg viewBox="0 0 500 500" xmlns="http://www.w3.org/2000/svg">
  <g>
    <line style="stroke-dasharray: 10px; stroke-linecap: round; stroke-width: 5px; stroke: rgb(241, 241, 241);" x1="95.622" y1="163.21" x2="95.622" y2="465.779" transform="matrix(0.866025, -0.5, 0.5, 0.866025, -144.436362, 89.945311)"/>
    <line style="stroke-dasharray: 10px; stroke-linecap: round; stroke-width: 5px; stroke: rgb(241, 241, 241);" x1="149.709" y1="133.769" x2="149.709" y2="487.379" transform="matrix(0.866025, -0.5, 0.5, 0.866025, -135.229823, 116.463569)"/>
    <line style="stroke-dasharray: 10px; stroke-linecap: round; stroke-width: 5px; stroke: rgb(241, 241, 241);" x1="177.832" y1="8.021" x2="177.832" y2="515.347" transform="matrix(0.866025, -0.5, 0.5, 0.866025, -107.017048, 123.975052)"/>
    <line style="stroke-dasharray: 10px; stroke-linecap: round; stroke-width: 5px; stroke: rgb(241, 241, 241);" x1="226.485" y1="22.17" x2="226.485" y2="474.528" transform="matrix(0.866025, -0.5, 0.5, 0.866025, -93.83128, 146.515008)"/>
    <line style="stroke-dasharray: 10px; stroke-linecap: round; stroke-width: 5px; stroke: rgb(241, 241, 241);" x1="280.152" y1="-8.326" x2="280.152" y2="495.73" transform="matrix(0.866025, -0.5, 0.5, 0.866025, -84.317759, 172.725938)"/>
    <line style="stroke-dasharray: 10px; stroke-linecap: round; stroke-width: 5px; stroke: rgb(241, 241, 241);" x1="344.114" y1="24.487" x2="344.114" y2="489.284" transform="matrix(0.866025, -0.5, 0.5, 0.866025, -82.340221, 206.473205)"/>
    <line style="stroke-dasharray: 10px; stroke-linecap: round; stroke-width: 5px; stroke: rgb(241, 241, 241);" x1="371.466" y1="-10.449" x2="371.466" y2="423.768" transform="matrix(0.866025, -0.5, 0.5, 0.866025, -53.562744, 213.420192)"/>
    <line style="stroke-dasharray: 10px; stroke-linecap: round; stroke-width: 5px; stroke: rgb(241, 241, 241);" x1="399.25" y1="8.974" x2="399.25" y2="305.395" transform="matrix(0.866025, -0.5, 0.5, 0.866025, -25.10288, 220.683796)"/>
  </g>
  <path d="M 97.886 458.469 L 105.925 453.573 L 102.878 443.611 L 113.95 446.166 L 119.146 436.66 L 124.691 445.766 L 134.488 442.391 L 132.349 453.397 L 140.437 458.322 L 132.863 462.461 L 135.773 473.324 L 124.817 470.388 L 119.922 479.345 L 114.98 471.231 L 104.102 474.349 L 106.843 463.363 Z" style="fill: rgb(251, 251, 251);"/>
  <path d="M 23.184 324.32 L 31.223 319.424 L 28.176 309.462 L 39.248 312.017 L 44.444 302.511 L 49.989 311.617 L 59.786 308.242 L 57.647 319.248 L 65.735 324.173 L 58.161 328.312 L 61.071 339.175 L 50.115 336.239 L 45.22 345.196 L 40.278 337.082 L 29.4 340.2 L 32.141 329.214 Z" style="fill: rgb(251, 251, 251);"/>
  <path d="M 66.003 199.229 L 74.042 194.333 L 70.995 184.371 L 82.067 186.926 L 87.263 177.42 L 92.808 186.526 L 102.605 183.151 L 100.466 194.157 L 108.554 199.082 L 100.98 203.221 L 103.89 214.084 L 92.934 211.148 L 88.039 220.105 L 83.097 211.991 L 72.219 215.109 L 74.96 204.123 Z" style="fill: rgb(251, 251, 251);"/>
  <path d="M 54.96 42.561 L 62.999 37.665 L 59.952 27.703 L 71.024 30.258 L 76.22 20.752 L 81.765 29.858 L 91.562 26.483 L 89.423 37.489 L 97.511 42.414 L 89.937 46.553 L 92.847 57.416 L 81.891 54.48 L 76.996 63.437 L 72.054 55.323 L 61.176 58.441 L 63.917 47.455 Z" style="fill: rgb(251, 251, 251);"/>
  <path d="M 241.34 105.01 L 249.379 100.114 L 246.332 90.152 L 257.404 92.707 L 262.6 83.201 L 268.145 92.307 L 277.942 88.932 L 275.803 99.938 L 283.891 104.863 L 276.317 109.002 L 279.227 119.865 L 268.271 116.929 L 263.376 125.886 L 258.434 117.772 L 247.556 120.89 L 250.297 109.904 Z" style="fill: rgb(251, 251, 251);"/>
  <path d="M 402.196 39.754 L 410.235 34.858 L 407.188 24.896 L 418.26 27.451 L 423.456 17.945 L 429.001 27.051 L 438.798 23.676 L 436.659 34.682 L 444.747 39.607 L 437.173 43.746 L 440.083 54.609 L 429.127 51.673 L 424.232 60.63 L 419.29 52.516 L 408.412 55.634 L 411.153 44.648 Z" style="fill: rgb(251, 251, 251);"/>
  <path d="M 443.552 165.566 L 451.591 160.67 L 448.544 150.708 L 459.616 153.263 L 464.812 143.757 L 470.357 152.863 L 480.154 149.488 L 478.015 160.494 L 486.103 165.419 L 478.529 169.558 L 481.439 180.421 L 470.483 177.485 L 465.588 186.442 L 460.646 178.328 L 449.768 181.446 L 452.509 170.46 Z" style="fill: rgb(251, 251, 251);"/>
  <path d="M 422.714 300.484 L 430.753 295.588 L 427.706 285.626 L 438.778 288.181 L 443.974 278.675 L 449.519 287.781 L 459.316 284.406 L 457.177 295.412 L 465.265 300.337 L 457.691 304.476 L 460.601 315.339 L 449.645 312.403 L 444.75 321.36 L 439.808 313.246 L 428.93 316.364 L 431.671 305.378 Z" style="fill: rgb(251, 251, 251);"/>
  <path d="M 396.198 434.282 L 404.237 429.386 L 401.19 419.424 L 412.262 421.979 L 417.458 412.473 L 423.003 421.579 L 432.8 418.204 L 430.661 429.21 L 438.749 434.135 L 431.175 438.274 L 434.085 449.137 L 423.129 446.201 L 418.234 455.158 L 413.292 447.044 L 402.414 450.162 L 405.155 439.176 Z" style="fill: rgb(251, 251, 251);"/>
  <path d="M 299.217 366.77 L 307.256 361.874 L 304.209 351.912 L 315.281 354.467 L 320.477 344.961 L 326.022 354.067 L 335.819 350.692 L 333.68 361.698 L 341.768 366.623 L 334.194 370.762 L 337.104 381.625 L 326.148 378.689 L 321.253 387.646 L 316.311 379.532 L 305.433 382.65 L 308.174 371.664 Z" style="fill: rgb(251, 251, 251);"/>
  <path d="M 198.932 255.295 L 206.971 250.399 L 203.924 240.437 L 214.996 242.992 L 220.192 233.486 L 225.737 242.592 L 235.534 239.217 L 233.395 250.223 L 241.483 255.148 L 233.909 259.287 L 236.819 270.15 L 225.863 267.214 L 220.968 276.171 L 216.026 268.057 L 205.148 271.175 L 207.889 260.189 Z" style="fill: rgb(251, 251, 251);"/>
  <path d="M 326.246 197.006 L 331.106 194.046 L 329.264 188.024 L 335.958 189.568 L 339.099 183.821 L 342.452 189.326 L 348.374 187.286 L 347.081 193.94 L 351.971 196.917 L 347.392 199.42 L 349.151 205.987 L 342.528 204.212 L 339.568 209.627 L 336.581 204.722 L 330.004 206.607 L 331.661 199.965 Z" style="fill: rgb(251, 251, 251);"/>
  <path d="M 164.945 118.917 L 169.805 115.957 L 167.963 109.935 L 174.657 111.479 L 177.798 105.732 L 181.151 111.237 L 187.073 109.197 L 185.78 115.851 L 190.67 118.828 L 186.091 121.331 L 187.85 127.898 L 181.227 126.123 L 178.267 131.538 L 175.28 126.633 L 168.703 128.518 L 170.36 121.876 Z" style="fill: rgb(251, 251, 251);"/>
  <path d="M 230.213 431.024 L 235.073 428.064 L 233.231 422.042 L 239.925 423.586 L 243.066 417.839 L 246.419 423.344 L 252.341 421.304 L 251.048 427.958 L 255.938 430.935 L 251.359 433.438 L 253.118 440.005 L 246.495 438.23 L 243.535 443.645 L 240.548 438.74 L 233.971 440.625 L 235.628 433.983 Z" style="fill: rgb(251, 251, 251);"/>
  <path d="M 134.128 364.121 L 138.988 361.161 L 137.146 355.139 L 143.84 356.683 L 146.981 350.936 L 150.334 356.441 L 156.256 354.401 L 154.963 361.055 L 159.853 364.032 L 155.274 366.535 L 157.033 373.102 L 150.41 371.327 L 147.45 376.742 L 144.463 371.837 L 137.886 373.722 L 139.543 367.08 Z" style="fill: rgb(251, 251, 251);"/>
</svg>