<?xml version="1.0" encoding="utf-8"?>
<svg viewBox="0 0 500 500" xmlns="http://www.w3.org/2000/svg">
  <line style="stroke-dasharray: 10px; stroke-linecap: round; stroke-width: 5px; stroke: rgb(241, 241, 241);" x1="99.579" y1="152.173" x2="99.579" y2="496.318" transform="matrix(0.874619, -0.48481, 0.48481, 0.874619, -144.712257, 88.931025)"/>
  <line style="stroke-dasharray: 10px; stroke-linecap: round; stroke-width: 5px; stroke: rgb(241, 241, 241);" x1="142.643" y1="121.439" x2="142.643" y2="481.112" transform="matrix(0.874619, -0.48481, 0.48481, 0.874619, -128.176774, 106.928897)"/>
  <line style="stroke-dasharray: 10px; stroke-linecap: round; stroke-width: 5px; stroke: rgb(241, 241, 241);" x1="176.356" y1="39.717" x2="176.356" y2="483.154" transform="matrix(0.874619, -0.48481, 0.48481, 0.874619, -104.634968, 118.278131)"/>
  <line style="stroke-dasharray: 10px; stroke-linecap: round; stroke-width: 5px; stroke: rgb(241, 241, 241);" x1="224.66" y1="-6.484" x2="224.66" y2="502.315" transform="matrix(0.874619, -0.48481, 0.48481, 0.874619, -92.023961, 140.001272)"/>
  <line style="stroke-dasharray: 10px; stroke-linecap: round; stroke-width: 5px; stroke: rgb(241, 241, 241);" x1="268.325" y1="-4.303" x2="268.325" y2="456.36" transform="matrix(0.874619, -0.48481, 0.48481, 0.874619, -75.93817, 158.426312)"/>
  <line style="stroke-dasharray: 10px; stroke-linecap: round; stroke-width: 5px; stroke: rgb(241, 241, 241);" x1="329.63" y1="2.693" x2="329.63" y2="469.247" transform="matrix(0.874619, -0.48481, 0.48481, 0.874619, -73.071456, 189.394064)"/>
  <line style="stroke-dasharray: 10px; stroke-linecap: round; stroke-width: 5px; stroke: rgb(241, 241, 241);" x1="355.048" y1="-4.264" x2="355.048" y2="366.59" transform="matrix(0.874619, -0.48481, 0.48481, 0.874619, -43.313534, 194.845244)"/>
  <line style="stroke-dasharray: 10px; stroke-linecap: round; stroke-width: 5px; stroke: rgb(241, 241, 241);" x1="399.628" y1="2.762" x2="399.628" y2="319.108" transform="matrix(0.874619, -0.48481, 0.48481, 0.874619, -27.917329, 213.921851)"/>
  <line style="stroke-dasharray: 10px; stroke-linecap: round; stroke-width: 5px; stroke: rgb(241, 241, 241);" x1="115.4" y1="99.606" x2="115.4" y2="503.436" transform="matrix(0.874619, -0.48481, 0.48481, 0.874619, -131.711565, 93.752018)"/>
  <line style="stroke-dasharray: 10px; stroke-linecap: round; stroke-width: 5px; stroke: rgb(241, 241, 241);" x1="150.811" y1="30.257" x2="150.811" y2="508.172" transform="matrix(0.874619, -0.48481, 0.48481, 0.874619, -111.609174, 106.869013)"/>
  <line style="stroke-dasharray: 10px; stroke-linecap: round; stroke-width: 5px; stroke: rgb(241, 241, 241);" x1="200.089" y1="58.445" x2="200.089" y2="451.771" transform="matrix(0.874619, -0.48481, 0.48481, 0.874619, -98.591684, 128.990809)"/>
  <line style="stroke-dasharray: 10px; stroke-linecap: round; stroke-width: 5px; stroke: rgb(241, 241, 241);" x1="243.581" y1="18.229" x2="243.581" y2="449.429" transform="matrix(0.874619, -0.48481, 0.48481, 0.874619, -82.822353, 147.4082)"/>
  <line style="stroke-dasharray: 10px; stroke-linecap: round; stroke-width: 5px; stroke: rgb(241, 241, 241);" x1="304.968" y1="29.723" x2="304.968" y2="455.442" transform="matrix(0.874619, -0.48481, 0.48481, 0.874619, -79.369397, 178.266745)"/>
  <line style="stroke-dasharray: 10px; stroke-linecap: round; stroke-width: 5px; stroke: rgb(241, 241, 241);" x1="351.096" y1="32.713" x2="351.096" y2="424.004" transform="matrix(0.874619, -0.48481, 0.48481, 0.874619, -66.689895, 198.846664)"/>
  <line style="stroke-dasharray: 10px; stroke-linecap: round; stroke-width: 5px; stroke: rgb(241, 241, 241);" x1="391.054" y1="18.787" x2="391.054" y2="373.042" transform="matrix(0.874619, -0.48481, 0.48481, 0.874619, -45.95076, 214.150856)"/>
</svg>