<?xml version="1.0" encoding="utf-8"?>
<svg viewBox="0 0 500 500" xmlns="http://www.w3.org/2000/svg">
  <g transform="matrix(1.466653, 0, 0, 1.315519, -99.689819, -146.12175)" style="">
    <circle style="fill: rgba(216, 216, 216, 0.11);" cx="241.168" cy="212.251" r="57.979" transform="matrix(0.927184, -0.374607, 0.374607, 0.927184, -139.30696, 95.699628)"/>
    <path d="M 165.587 269.271 C 133.566 269.271 107.608 243.313 107.608 211.292 C 107.608 179.271 133.566 153.312 165.587 153.312 C 168.712 153.312 171.78 153.559 174.771 154.035 C 147.114 158.437 125.975 182.396 125.975 211.292 C 125.975 240.187 147.114 264.147 174.771 268.548 C 171.78 269.024 168.712 269.271 165.587 269.271 Z" style="fill: rgb(255, 180, 165);" transform="matrix(0.927184, -0.374607, 0.374607, 0.927184, -68.870361, 68.27602)"/>
  </g>
  <path d="M 302.551 91.441 C 289.102 91.441 277.321 85.851 270.791 77.478 C 266.513 78.884 261.418 79.7 255.95 79.7 C 240.804 79.7 228.526 73.435 228.526 65.707 C 228.526 57.978 240.804 51.714 255.95 51.714 C 260.009 51.714 263.862 52.166 267.328 52.969 C 271.573 43.169 282.304 35.708 295.522 33.729 C 301.715 25.083 316.61 18.991 333.999 18.991 C 346.685 18.991 358.042 22.234 365.663 27.343 C 372.221 18.627 383.909 12.827 397.232 12.827 C 409.239 12.827 419.914 17.535 426.707 24.845 C 429.715 23.782 433.177 23.179 436.86 23.179 C 444.936 23.179 451.944 26.084 455.441 30.339 C 455.628 30.335 455.813 30.335 456 30.335 C 475.623 30.335 491.53 41.637 491.53 55.576 C 491.53 66.698 481.4 76.143 467.335 79.503 C 465.617 87.893 452.151 94.421 435.794 94.421 C 423.388 94.421 412.644 90.667 407.429 85.194 C 399.072 93.186 382.15 98.655 362.634 98.655 C 345.221 98.655 329.874 94.303 320.832 87.684 C 315.433 90.077 309.196 91.441 302.551 91.441 Z" style="fill: rgba(123, 117, 117, 0.35);"/>
  <path d="M 191.302 482.019 C 174.146 482.019 159.119 478.025 150.789 472.044 C 145.333 473.049 138.834 473.631 131.859 473.631 C 112.538 473.631 96.876 469.157 96.876 463.636 C 96.876 458.115 112.538 453.64 131.859 453.64 C 137.035 453.64 141.951 453.963 146.372 454.537 C 151.787 447.537 165.476 442.207 182.336 440.793 C 190.236 434.618 209.235 430.266 231.417 430.266 C 247.598 430.266 262.086 432.582 271.807 436.232 C 280.173 430.006 295.081 425.863 312.076 425.863 C 327.392 425.863 341.009 429.226 349.674 434.447 C 353.511 433.688 357.927 433.258 362.626 433.258 C 372.927 433.258 381.867 435.332 386.327 438.372 C 386.565 438.369 386.802 438.369 387.04 438.369 C 412.071 438.369 432.362 446.443 432.362 456.399 C 432.362 464.344 419.439 471.091 401.499 473.491 C 399.307 479.484 382.13 484.147 361.266 484.147 C 345.441 484.147 331.736 481.466 325.083 477.556 C 314.423 483.265 292.837 487.172 267.943 487.172 C 245.731 487.172 226.155 484.063 214.622 479.335 C 207.735 481.044 199.778 482.019 191.302 482.019 Z" style="fill: rgba(123, 117, 117, 0.35);"/>
  <path d="M 99.328 283.828 C 88.219 283.828 78.488 281.134 73.094 277.098 C 69.561 277.776 65.352 278.169 60.836 278.169 C 48.325 278.169 38.183 275.15 38.183 271.424 C 38.183 267.699 48.325 264.68 60.836 264.68 C 64.188 264.68 67.371 264.898 70.233 265.285 C 73.74 260.561 82.604 256.965 93.521 256.011 C 98.637 251.844 110.94 248.908 125.303 248.908 C 135.782 248.908 145.163 250.471 151.458 252.934 C 156.875 248.732 166.529 245.937 177.534 245.937 C 187.451 245.937 196.269 248.206 201.88 251.73 C 204.364 251.217 207.223 250.927 210.266 250.927 C 216.937 250.927 222.725 252.327 225.614 254.378 C 225.768 254.376 225.921 254.376 226.075 254.376 C 242.284 254.376 255.423 259.823 255.423 266.542 C 255.423 271.902 247.055 276.455 235.438 278.074 C 234.019 282.118 222.896 285.264 209.385 285.264 C 199.138 285.264 190.264 283.455 185.956 280.817 C 179.053 284.669 165.075 287.305 148.956 287.305 C 134.573 287.305 121.896 285.208 114.428 282.017 C 109.968 283.171 104.816 283.828 99.328 283.828 Z" style="fill: rgba(123, 117, 117, 0.35);"/>
  <path d="M 191.605 339.003 C 191.605 334.262 199.611 330.034 212.114 327.284 C 209.384 325.907 207.849 324.356 207.849 322.715 C 207.849 318.341 218.757 314.605 234.141 313.113 C 233.117 310.478 232.576 307.731 232.576 304.911 C 232.576 284.885 259.843 268.652 293.478 268.652 C 310.929 268.652 326.664 273.021 337.767 280.023 C 344.662 275.804 355.062 273.119 366.694 273.119 C 380.364 273.119 392.328 276.828 398.907 282.373 C 404.215 281.149 409.983 280.477 416.015 280.477 C 442.199 280.477 463.427 293.128 463.427 308.733 C 463.427 310.021 463.282 311.289 463.002 312.531 C 477.476 313.331 488.734 319.474 488.734 326.932 C 488.734 328.401 488.297 329.819 487.485 331.156 C 490.738 334.441 492.643 338.428 492.643 342.722 C 492.643 350.805 485.897 357.791 476.119 361.084 C 476.19 361.619 476.225 362.158 476.225 362.703 C 476.225 364.77 475.714 366.763 474.767 368.637 C 479.311 370.983 482.133 374.259 482.133 377.883 C 482.133 381.504 479.316 384.777 474.779 387.123 C 481.561 389.459 485.672 392.519 485.672 395.869 C 485.672 403.205 465.96 409.152 441.645 409.152 C 434.007 409.152 426.824 408.565 420.562 407.533 C 417.054 416.867 405.521 423.713 391.835 423.713 C 377.791 423.713 366.014 416.503 362.848 406.795 C 358.138 407.414 353.046 407.753 347.735 407.753 C 334.99 407.753 323.513 405.804 315.499 402.692 C 310.456 403.984 304.748 404.712 298.703 404.712 C 296.205 404.712 293.763 404.588 291.404 404.35 C 284.515 408.511 274.788 411.104 264.008 411.104 C 243.122 411.104 226.191 401.371 226.191 389.366 C 226.191 386.053 227.481 382.912 229.789 380.101 C 215.258 377.115 204.936 369.53 204.936 360.643 C 204.936 356.859 206.808 353.311 210.08 350.253 C 198.749 347.502 191.605 343.481 191.605 339.003 Z" style="fill: rgba(123, 117, 117, 0.35);"/>
  <path d="M 262.717 216.76 C 262.717 225.294 246.658 232.212 226.849 232.212 C 211.796 232.212 198.909 228.217 193.589 222.554 C 187.842 231.278 177.058 237.153 164.703 237.153 C 148.544 237.153 135.075 227.106 132.045 213.778 C 125.092 217.212 116.295 219.264 106.727 219.264 C 84.223 219.264 65.98 207.916 65.98 193.917 C 65.98 188.465 68.746 183.415 73.455 179.28 C 73.226 179.283 72.997 179.283 72.767 179.283 C 36.643 179.283 7.358 163.097 7.358 143.131 C 7.358 123.165 36.643 106.98 72.767 106.98 C 74.188 106.98 75.599 107.005 76.998 107.055 C 86.258 97.843 102.011 91.78 119.886 91.78 C 121.334 91.78 122.766 91.82 124.184 91.897 C 130.488 75.847 153.04 63.973 179.896 63.973 C 211.635 63.973 237.364 80.559 237.364 101.021 C 237.364 101.644 237.34 102.264 237.293 102.881 C 246.687 96.004 260.525 91.659 275.955 91.659 C 304.256 91.659 327.198 106.277 327.198 124.31 C 327.198 124.425 327.197 124.537 327.196 124.65 C 334.84 122.479 343.505 121.256 352.686 121.256 C 383.59 121.256 408.642 135.131 408.642 152.247 C 408.642 158.598 405.193 164.502 399.275 169.416 C 400.699 172.066 401.467 174.883 401.467 177.806 C 401.467 188.771 390.663 198.266 374.908 202.893 C 377.501 205.993 378.962 209.494 378.962 213.203 C 378.962 225.861 361.944 236.123 340.951 236.123 C 322.36 236.123 306.888 228.075 303.589 217.444 C 298.137 219.066 291.847 219.99 285.149 219.99 C 276.729 219.99 268.956 218.528 262.681 216.059 C 262.705 216.293 262.717 216.526 262.717 216.76 Z" style="fill: rgba(123, 117, 117, 0.35);"/>
  <path d="M 83.08 443.313 C 72.428 443.313 63.246 436.638 59.066 427.022 C 56.018 428.106 52.665 428.706 49.146 428.706 C 35.085 428.706 23.687 419.131 23.687 407.322 C 23.687 400.322 27.692 394.107 33.882 390.206 C 33.592 388.786 33.44 387.33 33.44 385.846 C 33.44 370.592 49.445 358.226 69.187 358.226 C 72.528 358.226 75.761 358.58 78.829 359.242 C 83.358 351.862 92.728 346.793 103.55 346.793 C 112.268 346.793 120.043 350.082 125.105 355.218 C 129.695 352.513 135.482 350.898 141.772 350.898 C 156.076 350.898 167.783 359.246 168.711 369.802 C 178.139 373.097 184.461 379.16 184.461 386.095 C 184.461 391.795 180.19 396.906 173.435 400.376 C 175.869 403.508 177.28 407.231 177.28 411.224 C 177.28 422.364 166.303 431.395 152.762 431.395 C 147.047 431.395 141.788 429.786 137.619 427.089 C 136.705 433.886 126.382 439.246 113.783 439.246 C 108.644 439.246 103.884 438.354 99.986 436.837 C 95.405 440.881 89.511 443.313 83.08 443.313 Z" style="fill: rgba(123, 117, 117, 0.35);"/>
</svg>