<?xml version="1.0" encoding="utf-8"?>
<svg viewBox="0 0 500 500" xmlns="http://www.w3.org/2000/svg">
  <g transform="matrix(0.278192, 0, 0, 0.278192, 180.482849, 4.616475)" style="">
    <circle style="fill: rgba(216, 216, 216, 0.11);" cx="241.168" cy="212.251" r="126.267" transform="matrix(0.927184, -0.374607, 0.374607, 0.927184, -53.117591, 143.547574)"/>
    <path d="M 253.869 396.171 C 184.134 396.171 127.602 339.639 127.602 269.904 C 127.602 200.169 184.134 143.637 253.869 143.637 C 260.675 143.637 267.355 144.175 273.869 145.212 C 213.638 154.797 167.602 206.975 167.602 269.904 C 167.602 332.833 213.638 385.011 273.869 394.596 C 267.355 395.633 260.675 396.171 253.869 396.171 Z" style="fill: rgb(251, 246, 217);" transform="matrix(0.927184, -0.374607, 0.374607, 0.927184, -86.491088, 94.850305)"/>
  </g>
  <path d="M 94.302 106.894 C 65.03 106.894 41.301 95.571 41.301 81.602 C 41.301 68.16 63.278 57.166 91.022 56.359 C 99.021 50.658 111.874 46.963 126.368 46.963 C 135.641 46.963 144.243 48.476 151.332 51.058 C 157.01 46.301 165.292 43.304 174.513 43.304 C 190.456 43.304 203.59 52.263 205.32 63.786 C 206.58 63.673 207.867 63.616 209.175 63.616 C 224.185 63.616 236.353 71.213 236.353 80.586 C 236.353 89.958 224.185 97.556 209.175 97.556 C 207.625 97.556 206.105 97.475 204.626 97.318 C 201.14 106.49 182.307 113.497 159.599 113.497 C 142.598 113.497 127.77 109.57 119.926 103.747 C 112.332 105.753 103.597 106.894 94.302 106.894 Z" style="fill: rgb(216, 216, 216);"/>
  <line style="stroke-linecap: round; stroke-dasharray: 1, 14; stroke-width: 8px; stroke: rgb(248, 248, 248);" x1="288.767" y1="281.911" x2="581.627" y2="281.911" transform="matrix(0, 1, -1, 0, 717.108017, -153.285995)"/>
  <line style="stroke-linecap: round; stroke-dasharray: 1, 14; stroke-width: 8px; stroke: rgb(248, 248, 248);" x1="257.995" y1="279.563" x2="550.855" y2="279.563" transform="matrix(0, 1, -1, 0, 683.987976, -124.862)"/>
  <line style="stroke-linecap: round; stroke-dasharray: 1, 14; stroke-width: 8px; stroke: rgb(248, 248, 248);" x1="223.665" y1="277.937" x2="516.525" y2="277.937" transform="matrix(0, 1, -1, 0, 648.032028, -92.158005)"/>
  <path d="M 404.136 144.229 C 399.306 144.229 394.865 141.947 391.357 138.13 C 388.044 138.766 384.464 139.113 380.729 139.113 C 363.704 139.113 349.902 131.898 349.902 122.997 C 349.902 117.901 354.425 113.358 361.488 110.405 C 361.306 109.812 361.213 109.203 361.213 108.583 C 361.213 102.121 371.454 96.882 384.088 96.882 C 385.772 96.882 387.416 96.976 388.996 97.151 C 392.751 91.552 398.144 88.041 404.136 88.041 C 411.363 88.041 417.72 93.148 421.38 100.867 C 423.4 100.237 425.629 99.889 427.973 99.889 C 437.124 99.889 444.542 105.214 444.542 111.783 C 444.542 112.314 444.494 112.837 444.4 113.349 C 452.86 115.035 458.7 118.623 458.7 122.776 C 458.7 125.775 455.652 128.481 450.77 130.388 C 451.743 131.252 452.27 132.179 452.27 133.141 C 452.27 137.9 439.39 141.758 423.499 141.758 C 419.948 141.758 416.545 141.565 413.405 141.213 C 410.621 143.142 407.471 144.229 404.136 144.229 Z" style="fill: rgb(216, 216, 216);"/>
  <path d="M 268.139 153.398 C 246.804 153.398 229.508 149.639 229.508 145.003 C 229.508 141.876 237.377 139.148 249.046 137.703 C 249.336 134.177 258.49 131.346 269.739 131.346 C 271.758 131.346 273.709 131.437 275.554 131.607 C 278.1 128.537 284.191 126.376 291.3 126.376 C 300.699 126.376 308.319 130.154 308.319 134.815 C 308.319 135.091 308.292 135.364 308.24 135.634 C 311.135 134.397 315.072 133.637 319.41 133.637 C 328.3 133.637 335.507 136.83 335.507 140.769 C 335.507 143.371 332.362 145.648 327.665 146.893 C 327.667 146.952 327.668 147.011 327.668 147.07 C 327.668 151.853 320.111 155.73 310.789 155.73 C 304.145 155.73 298.398 153.761 295.644 150.898 C 288.639 152.441 278.903 153.398 268.139 153.398 Z" style="fill: rgb(216, 216, 216);"/>
  <line style="stroke-linecap: round; stroke-width: 12px; stroke-dasharray: 1, 22; stroke: rgb(248, 248, 248);" x1="25.097" y1="293.145" x2="366.212" y2="293.145" transform="matrix(0, 1, -1, 0, 488.799484, 97.490494)"/>
  <line style="stroke-linecap: round; stroke-width: 12px; stroke-dasharray: 1, 22; stroke: rgb(248, 248, 248);" x1="-16.015" y1="290.875" x2="325.1" y2="290.875" transform="matrix(0, 1, -1, 0, 445.417496, 136.332504)"/>
  <line style="stroke-linecap: round; stroke-width: 12px; stroke-dasharray: 1, 22; stroke: rgb(248, 248, 248);" x1="-57.135" y1="289.618" x2="283.981" y2="289.618" transform="matrix(0, 1, -1, 0, 403.041012, 176.195011)"/>
  <line style="stroke-linecap: round; stroke-width: 12px; stroke-dasharray: 1, 22; stroke: rgb(248, 248, 248);" x1="-98.253" y1="287.349" x2="242.861" y2="287.349" transform="matrix(0, 1, -1, 0, 359.652992, 215.045006)"/>
  <line style="stroke-width: 4px; stroke-linecap: round; stroke-dasharray: 1, 14; stroke: rgb(248, 248, 248);" x1="130.485" y1="279.927" x2="371.66" y2="279.927" transform="matrix(0, 1, -1, 0, 530.999504, 28.8545)"/>
  <line style="stroke-width: 4px; stroke-linecap: round; stroke-dasharray: 1, 14; stroke: rgb(248, 248, 248);" x1="149.018" y1="283.294" x2="390.194" y2="283.294" transform="matrix(0, 1, -1, 0, 552.900009, 13.688004)"/>
  <line style="stroke-width: 4px; stroke-linecap: round; stroke-dasharray: 1, 14; stroke: rgb(248, 248, 248);" x1="167.087" y1="279.111" x2="408.263" y2="279.111" transform="matrix(0, 1, -1, 0, 566.785995, -8.564011)"/>
  <line style="stroke-width: 4px; stroke-linecap: round; stroke-dasharray: 1, 14; stroke: rgb(248, 248, 248);" x1="186.116" y1="284.922" x2="427.292" y2="284.922" transform="matrix(0, 1, -1, 0, 591.625992, -21.781998)"/>
</svg>