<?xml version="1.0" encoding="utf-8"?>
<svg viewBox="0 0 500 500" xmlns="http://www.w3.org/2000/svg" xmlns:bx="https://boxy-svg.com">
  <path d="M 63.723 398.103 C 63.723 389.291 82.51 382.148 105.686 382.148 C 107.104 382.148 108.507 382.174 109.888 382.226 C 111.953 376.88 121.313 372.845 132.548 372.845 C 135.066 372.845 137.49 373.047 139.757 373.422 C 144.04 367.448 154.586 363.225 166.919 363.225 C 180.544 363.225 191.992 368.381 195.216 375.356 C 199.448 373.608 205.226 372.531 211.596 372.531 C 219.728 372.531 226.896 374.286 231.115 376.954 C 233.518 376.699 236.006 376.565 238.551 376.565 C 259.172 376.565 275.889 385.344 275.889 396.173 C 275.889 398.443 275.155 400.622 273.803 402.649 C 288.924 402.927 301.012 409.131 301.012 416.746 C 301.012 423.583 291.265 429.284 278.326 430.577 C 276.511 434.935 267.533 438.306 256.478 438.622 C 256.481 438.686 256.482 438.747 256.482 438.811 C 256.482 444.561 242.582 449.223 225.436 449.223 C 209.634 449.223 196.589 445.264 194.641 440.142 C 194.31 440.176 193.98 440.21 193.649 440.243 C 194.191 440.963 194.477 441.712 194.477 442.478 C 194.477 448.257 178.269 452.943 158.274 452.943 C 138.316 452.943 122.129 448.274 122.07 442.511 C 117.55 443.62 112.149 444.266 106.35 444.266 C 93.258 444.266 82.204 440.977 78.694 436.473 C 78.409 436.478 78.121 436.48 77.834 436.48 C 61.091 436.48 47.518 430.121 47.518 422.276 C 47.518 415.159 58.69 409.266 73.266 408.234 C 67.303 405.478 63.723 401.949 63.723 398.103 Z" style="fill: rgb(229, 229, 229);"/>
  <g transform="matrix(0.752922, 0, 0, 0.752922, -43.104504, -30.311487)" style="">
    <path d="M 318.027 285.809 L 336.793 326.389 L 367.719 294.101 L 372.292 338.576 L 412.025 318.079 L 401.91 361.628 L 446.146 355.144 L 422.438 393.049 L 466.383 401.279 L 431.652 429.433 L 470.543 451.486 L 428.552 466.837 L 458.176 500.323 L 413.476 501.208 L 430.621 542.498 L 388.056 528.821 L 390.866 573.442 L 355.047 546.684 L 343.216 589.8 L 318.027 552.862 L 292.838 589.8 L 281.007 546.684 L 245.188 573.442 L 247.998 528.821 L 205.433 542.498 L 222.578 501.208 L 177.878 500.323 L 207.502 466.837 L 165.511 451.486 L 204.402 429.433 L 169.671 401.279 L 213.616 393.049 L 189.908 355.144 L 234.144 361.628 L 224.029 318.079 L 263.762 338.576 L 268.335 294.101 L 299.261 326.389 Z" style="fill: rgb(255, 230, 0);" transform="matrix(-0.809017, 0.587785, -0.587785, -0.809017, 755.231211, 389.57177)" bx:shape="star 318.027 438.848 153.039 153.039 0.745 19 1@984eca1f"/>
    <circle style="fill: rgb(237, 213, 0);" cx="241.833" cy="221.856" r="97.661"/>
  </g>
  <path d="M 366.087 199.804 C 360.185 199.804 354.484 199.482 349.105 198.882 C 345.049 207.204 327.134 213.475 305.647 213.475 C 282.476 213.475 263.457 206.182 261.496 196.888 C 259.197 196.985 256.866 197.035 254.508 197.035 C 215.94 197.035 184.675 183.782 184.675 167.433 C 184.675 158.708 193.581 150.865 207.75 145.447 C 206.535 143.692 205.858 141.749 205.858 139.704 C 205.858 132.366 214.563 126.335 225.686 125.663 C 228.289 123.099 231.705 120.704 235.803 118.531 C 236.547 112.365 250.356 107.449 267.284 107.449 C 269.395 107.449 271.456 107.526 273.45 107.671 C 274.872 107.482 276.312 107.308 277.769 107.15 C 281.657 100.793 294.246 96.136 309.177 96.136 C 320.607 96.136 330.665 98.866 336.497 102.997 C 346.141 100.473 358.537 98.955 372.06 98.955 C 402.804 98.955 427.727 106.801 427.727 116.482 C 427.727 117.019 427.651 117.548 427.501 118.072 C 433.07 119.075 437.128 122.185 437.128 125.868 C 437.128 126.454 437.025 127.024 436.83 127.575 C 451.364 130.619 461.567 137.772 461.567 146.112 C 461.567 148.792 460.514 151.348 458.602 153.686 C 460.503 155.193 461.654 157.158 461.654 159.307 C 461.654 160.498 461.301 161.631 460.664 162.661 C 475.922 166.078 486.467 173.395 486.467 181.871 C 486.467 193.615 466.224 203.135 441.253 203.135 C 426.28 203.135 413.005 199.712 404.778 194.44 C 394.389 197.783 380.869 199.804 366.087 199.804 Z" style="fill: rgb(229, 229, 229);"/>
</svg>