<?xml version="1.0" encoding="utf-8"?>
<svg viewBox="0 0 500 500" xmlns="http://www.w3.org/2000/svg" xmlns:bx="https://boxy-svg.com">
  <path style="fill: rgb(251, 251, 251);" transform="matrix(-0.845326, 0.544287, -0.544287, -0.845326, 885.908875, 739.435059)" d="M 293.746 659.153 L 293.746 659.153 L 304.525 688.394 A 28.168 28.168 0 0 1 304.525 688.394 L 332.824 675.34 L 332.824 675.34 L 319.77 703.639 A 28.168 28.168 0 0 1 319.77 703.639 L 349.011 714.418 L 349.011 714.418 L 319.77 725.197 A 28.168 28.168 0 0 1 319.77 725.197 L 332.824 753.496 L 332.824 753.496 L 304.525 740.442 A 28.168 28.168 0 0 1 304.525 740.442 L 293.746 769.683 L 293.746 769.683 L 282.967 740.442 A 28.168 28.168 0 0 1 282.967 740.442 L 254.668 753.496 L 254.668 753.496 L 267.722 725.197 A 28.168 28.168 0 0 1 267.722 725.197 L 238.481 714.418 L 238.481 714.418 L 267.722 703.639 A 28.168 28.168 0 0 1 267.722 703.639 L 254.668 675.34 L 254.668 675.34 L 282.967 688.394 A 28.168 28.168 0 0 1 282.967 688.394 Z M 293.746 696.696 A 17.722 17.722 0 0 0 293.746 732.14 A 17.722 17.722 0 0 0 293.746 696.696" bx:shape="cog 293.746 714.418 17.722 28.168 55.265 1 8 1@f339ce2e"/>
  <path style="fill: rgb(246, 246, 246);" transform="matrix(-0.23557, 0.151679, -0.151679, -0.23557, 227.299408, 443.101532)" d="M 293.746 659.153 L 293.746 659.153 L 304.525 688.394 A 28.168 28.168 0 0 1 304.525 688.394 L 332.824 675.34 L 332.824 675.34 L 319.77 703.639 A 28.168 28.168 0 0 1 319.77 703.639 L 349.011 714.418 L 349.011 714.418 L 319.77 725.197 A 28.168 28.168 0 0 1 319.77 725.197 L 332.824 753.496 L 332.824 753.496 L 304.525 740.442 A 28.168 28.168 0 0 1 304.525 740.442 L 293.746 769.683 L 293.746 769.683 L 282.967 740.442 A 28.168 28.168 0 0 1 282.967 740.442 L 254.668 753.496 L 254.668 753.496 L 267.722 725.197 A 28.168 28.168 0 0 1 267.722 725.197 L 238.481 714.418 L 238.481 714.418 L 267.722 703.639 A 28.168 28.168 0 0 1 267.722 703.639 L 254.668 675.34 L 254.668 675.34 L 282.967 688.394 A 28.168 28.168 0 0 1 282.967 688.394 Z M 293.746 696.696 A 17.722 17.722 0 0 0 293.746 732.14 A 17.722 17.722 0 0 0 293.746 696.696" bx:shape="cog 293.746 714.418 17.722 28.168 55.265 1 8 1@f339ce2e"/>
  <path style="fill: rgb(250, 249, 249);" transform="matrix(-0.514077, 0.331003, -0.331003, -0.514077, 643.778931, 712.656189)" d="M 293.746 659.153 L 293.746 659.153 L 304.525 688.394 A 28.168 28.168 0 0 1 304.525 688.394 L 332.824 675.34 L 332.824 675.34 L 319.77 703.639 A 28.168 28.168 0 0 1 319.77 703.639 L 349.011 714.418 L 349.011 714.418 L 319.77 725.197 A 28.168 28.168 0 0 1 319.77 725.197 L 332.824 753.496 L 332.824 753.496 L 304.525 740.442 A 28.168 28.168 0 0 1 304.525 740.442 L 293.746 769.683 L 293.746 769.683 L 282.967 740.442 A 28.168 28.168 0 0 1 282.967 740.442 L 254.668 753.496 L 254.668 753.496 L 267.722 725.197 A 28.168 28.168 0 0 1 267.722 725.197 L 238.481 714.418 L 238.481 714.418 L 267.722 703.639 A 28.168 28.168 0 0 1 267.722 703.639 L 254.668 675.34 L 254.668 675.34 L 282.967 688.394 A 28.168 28.168 0 0 1 282.967 688.394 Z M 293.746 696.696 A 17.722 17.722 0 0 0 293.746 732.14 A 17.722 17.722 0 0 0 293.746 696.696" bx:shape="cog 293.746 714.418 17.722 28.168 55.265 1 8 1@f339ce2e"/>
  <path style="fill: rgb(246, 246, 246);" transform="matrix(-0.389976, 0.251097, -0.251097, -0.389976, 662.009766, 445.637756)" d="M 293.746 659.153 L 293.746 659.153 L 304.525 688.394 A 28.168 28.168 0 0 1 304.525 688.394 L 332.824 675.34 L 332.824 675.34 L 319.77 703.639 A 28.168 28.168 0 0 1 319.77 703.639 L 349.011 714.418 L 349.011 714.418 L 319.77 725.197 A 28.168 28.168 0 0 1 319.77 725.197 L 332.824 753.496 L 332.824 753.496 L 304.525 740.442 A 28.168 28.168 0 0 1 304.525 740.442 L 293.746 769.683 L 293.746 769.683 L 282.967 740.442 A 28.168 28.168 0 0 1 282.967 740.442 L 254.668 753.496 L 254.668 753.496 L 267.722 725.197 A 28.168 28.168 0 0 1 267.722 725.197 L 238.481 714.418 L 238.481 714.418 L 267.722 703.639 A 28.168 28.168 0 0 1 267.722 703.639 L 254.668 675.34 L 254.668 675.34 L 282.967 688.394 A 28.168 28.168 0 0 1 282.967 688.394 Z M 293.746 696.696 A 17.722 17.722 0 0 0 293.746 732.14 A 17.722 17.722 0 0 0 293.746 696.696" bx:shape="cog 293.746 714.418 17.722 28.168 55.265 1 8 1@f339ce2e"/>
  <path style="fill: rgb(246, 246, 246);" transform="matrix(-0.23557, 0.151679, -0.151679, -0.23557, 331.220856, 522.958618)" d="M 293.746 659.153 L 293.746 659.153 L 304.525 688.394 A 28.168 28.168 0 0 1 304.525 688.394 L 332.824 675.34 L 332.824 675.34 L 319.77 703.639 A 28.168 28.168 0 0 1 319.77 703.639 L 349.011 714.418 L 349.011 714.418 L 319.77 725.197 A 28.168 28.168 0 0 1 319.77 725.197 L 332.824 753.496 L 332.824 753.496 L 304.525 740.442 A 28.168 28.168 0 0 1 304.525 740.442 L 293.746 769.683 L 293.746 769.683 L 282.967 740.442 A 28.168 28.168 0 0 1 282.967 740.442 L 254.668 753.496 L 254.668 753.496 L 267.722 725.197 A 28.168 28.168 0 0 1 267.722 725.197 L 238.481 714.418 L 238.481 714.418 L 267.722 703.639 A 28.168 28.168 0 0 1 267.722 703.639 L 254.668 675.34 L 254.668 675.34 L 282.967 688.394 A 28.168 28.168 0 0 1 282.967 688.394 Z M 293.746 696.696 A 17.722 17.722 0 0 0 293.746 732.14 A 17.722 17.722 0 0 0 293.746 696.696" bx:shape="cog 293.746 714.418 17.722 28.168 55.265 1 8 1@f339ce2e"/>
  <path style="fill: rgb(246, 246, 246);" transform="matrix(-0.23557, 0.151679, -0.151679, -0.23557, 593.330994, 425.659302)" d="M 293.746 659.153 L 293.746 659.153 L 304.525 688.394 A 28.168 28.168 0 0 1 304.525 688.394 L 332.824 675.34 L 332.824 675.34 L 319.77 703.639 A 28.168 28.168 0 0 1 319.77 703.639 L 349.011 714.418 L 349.011 714.418 L 319.77 725.197 A 28.168 28.168 0 0 1 319.77 725.197 L 332.824 753.496 L 332.824 753.496 L 304.525 740.442 A 28.168 28.168 0 0 1 304.525 740.442 L 293.746 769.683 L 293.746 769.683 L 282.967 740.442 A 28.168 28.168 0 0 1 282.967 740.442 L 254.668 753.496 L 254.668 753.496 L 267.722 725.197 A 28.168 28.168 0 0 1 267.722 725.197 L 238.481 714.418 L 238.481 714.418 L 267.722 703.639 A 28.168 28.168 0 0 1 267.722 703.639 L 254.668 675.34 L 254.668 675.34 L 282.967 688.394 A 28.168 28.168 0 0 1 282.967 688.394 Z M 293.746 696.696 A 17.722 17.722 0 0 0 293.746 732.14 A 17.722 17.722 0 0 0 293.746 696.696" bx:shape="cog 293.746 714.418 17.722 28.168 55.265 1 8 1@f339ce2e"/>
  <path style="fill: rgb(246, 246, 246);" transform="matrix(-0.23557, 0.151679, -0.151679, -0.23557, 478.435394, 492.027496)" d="M 293.746 659.153 L 293.746 659.153 L 304.525 688.394 A 28.168 28.168 0 0 1 304.525 688.394 L 332.824 675.34 L 332.824 675.34 L 319.77 703.639 A 28.168 28.168 0 0 1 319.77 703.639 L 349.011 714.418 L 349.011 714.418 L 319.77 725.197 A 28.168 28.168 0 0 1 319.77 725.197 L 332.824 753.496 L 332.824 753.496 L 304.525 740.442 A 28.168 28.168 0 0 1 304.525 740.442 L 293.746 769.683 L 293.746 769.683 L 282.967 740.442 A 28.168 28.168 0 0 1 282.967 740.442 L 254.668 753.496 L 254.668 753.496 L 267.722 725.197 A 28.168 28.168 0 0 1 267.722 725.197 L 238.481 714.418 L 238.481 714.418 L 267.722 703.639 A 28.168 28.168 0 0 1 267.722 703.639 L 254.668 675.34 L 254.668 675.34 L 282.967 688.394 A 28.168 28.168 0 0 1 282.967 688.394 Z M 293.746 696.696 A 17.722 17.722 0 0 0 293.746 732.14 A 17.722 17.722 0 0 0 293.746 696.696" bx:shape="cog 293.746 714.418 17.722 28.168 55.265 1 8 1@f339ce2e"/>
  <path d="M 91.803 138.489 C 81.182 138.489 71.209 136.132 62.574 132 C 58.861 132.721 54.912 133.11 50.814 133.11 C 29.211 133.11 11.699 122.3 11.699 108.961 C 11.699 99.779 19.999 91.795 32.218 87.711 C 32.367 59.903 58.987 37.401 91.803 37.401 C 93.2 37.401 94.583 37.443 95.955 37.522 C 104.494 30.689 115.638 26.553 127.827 26.553 C 131.064 26.553 134.23 26.846 137.291 27.403 C 145.29 17.226 158.06 10.639 172.445 10.639 C 194.418 10.639 212.617 26.007 215.812 46.058 C 219.75 45.218 223.984 44.76 228.396 44.76 C 249.315 44.76 266.275 55.051 266.275 67.745 C 266.275 71.466 264.819 74.981 262.231 78.089 C 285.822 84.041 301.585 94.826 301.585 107.141 C 301.585 125.893 265.046 141.093 219.974 141.093 C 208.46 141.093 197.503 140.1 187.572 138.311 C 178.462 145.071 161.611 149.608 142.329 149.608 C 123.032 149.608 106.171 145.064 97.066 138.296 C 95.332 138.423 93.578 138.489 91.803 138.489 Z" style="fill: rgb(229, 229, 229);"/>
  <path d="M 258.404 184.417 C 250.399 184.417 242.882 182.641 236.373 179.526 C 233.574 180.069 230.598 180.363 227.509 180.363 C 211.226 180.363 198.026 172.214 198.026 162.161 C 198.026 155.24 204.282 149.221 213.492 146.143 C 213.605 125.183 233.67 108.222 258.404 108.222 C 259.457 108.222 260.5 108.254 261.533 108.313 C 265.769 104.925 270.853 102.416 276.453 101.097 C 275.244 99.108 274.583 96.954 274.583 94.705 C 274.583 87.783 280.839 81.765 290.049 78.687 C 290.162 57.727 310.227 40.766 334.961 40.766 C 336.014 40.766 337.057 40.798 338.091 40.857 C 344.527 35.707 352.926 32.59 362.114 32.59 C 364.554 32.59 366.941 32.81 369.248 33.23 C 375.277 25.559 384.902 20.594 395.745 20.594 C 412.307 20.594 426.025 32.178 428.432 47.292 C 431.401 46.658 434.592 46.313 437.917 46.313 C 453.685 46.313 466.469 54.07 466.469 63.638 C 466.469 66.443 465.371 69.092 463.421 71.435 C 481.202 75.921 493.084 84.05 493.084 93.332 C 493.084 107.467 465.542 118.924 431.569 118.924 C 422.891 118.924 414.632 118.175 407.147 116.827 C 402.695 120.13 395.791 122.73 387.524 124.149 C 389.06 126.275 389.912 128.625 389.912 131.094 C 389.912 133.899 388.814 136.548 386.864 138.891 C 404.645 143.377 416.527 151.506 416.527 160.789 C 416.527 174.923 388.985 186.38 355.012 186.38 C 346.334 186.38 338.075 185.631 330.59 184.283 C 323.723 189.378 311.021 192.798 296.488 192.798 C 281.943 192.798 269.234 189.373 262.371 184.271 C 261.064 184.367 259.742 184.417 258.404 184.417 Z" style="fill: rgb(229, 229, 229);"/>
  <path style="fill: rgb(246, 246, 246);" transform="matrix(-0.389976, 0.251097, -0.251097, -0.389976, 362.297485, 458.947296)" d="M 293.746 659.153 L 293.746 659.153 L 304.525 688.394 A 28.168 28.168 0 0 1 304.525 688.394 L 332.824 675.34 L 332.824 675.34 L 319.77 703.639 A 28.168 28.168 0 0 1 319.77 703.639 L 349.011 714.418 L 349.011 714.418 L 319.77 725.197 A 28.168 28.168 0 0 1 319.77 725.197 L 332.824 753.496 L 332.824 753.496 L 304.525 740.442 A 28.168 28.168 0 0 1 304.525 740.442 L 293.746 769.683 L 293.746 769.683 L 282.967 740.442 A 28.168 28.168 0 0 1 282.967 740.442 L 254.668 753.496 L 254.668 753.496 L 267.722 725.197 A 28.168 28.168 0 0 1 267.722 725.197 L 238.481 714.418 L 238.481 714.418 L 267.722 703.639 A 28.168 28.168 0 0 1 267.722 703.639 L 254.668 675.34 L 254.668 675.34 L 282.967 688.394 A 28.168 28.168 0 0 1 282.967 688.394 Z M 293.746 696.696 A 17.722 17.722 0 0 0 293.746 732.14 A 17.722 17.722 0 0 0 293.746 696.696" bx:shape="cog 293.746 714.418 17.722 28.168 55.265 1 8 1@f339ce2e"/>
  <path style="fill: rgb(246, 246, 246);" transform="matrix(-0.389976, 0.251097, -0.251097, -0.389976, 358.543396, 647.043396)" d="M 293.746 659.153 L 293.746 659.153 L 304.525 688.394 A 28.168 28.168 0 0 1 304.525 688.394 L 332.824 675.34 L 332.824 675.34 L 319.77 703.639 A 28.168 28.168 0 0 1 319.77 703.639 L 349.011 714.418 L 349.011 714.418 L 319.77 725.197 A 28.168 28.168 0 0 1 319.77 725.197 L 332.824 753.496 L 332.824 753.496 L 304.525 740.442 A 28.168 28.168 0 0 1 304.525 740.442 L 293.746 769.683 L 293.746 769.683 L 282.967 740.442 A 28.168 28.168 0 0 1 282.967 740.442 L 254.668 753.496 L 254.668 753.496 L 267.722 725.197 A 28.168 28.168 0 0 1 267.722 725.197 L 238.481 714.418 L 238.481 714.418 L 267.722 703.639 A 28.168 28.168 0 0 1 267.722 703.639 L 254.668 675.34 L 254.668 675.34 L 282.967 688.394 A 28.168 28.168 0 0 1 282.967 688.394 Z M 293.746 696.696 A 17.722 17.722 0 0 0 293.746 732.14 A 17.722 17.722 0 0 0 293.746 696.696" bx:shape="cog 293.746 714.418 17.722 28.168 55.265 1 8 1@f339ce2e"/>
  <path style="fill: rgb(246, 246, 246);" transform="matrix(-0.389976, 0.251097, -0.251097, -0.389976, 640.614136, 515.676636)" d="M 293.746 659.153 L 293.746 659.153 L 304.525 688.394 A 28.168 28.168 0 0 1 304.525 688.394 L 332.824 675.34 L 332.824 675.34 L 319.77 703.639 A 28.168 28.168 0 0 1 319.77 703.639 L 349.011 714.418 L 349.011 714.418 L 319.77 725.197 A 28.168 28.168 0 0 1 319.77 725.197 L 332.824 753.496 L 332.824 753.496 L 304.525 740.442 A 28.168 28.168 0 0 1 304.525 740.442 L 293.746 769.683 L 293.746 769.683 L 282.967 740.442 A 28.168 28.168 0 0 1 282.967 740.442 L 254.668 753.496 L 254.668 753.496 L 267.722 725.197 A 28.168 28.168 0 0 1 267.722 725.197 L 238.481 714.418 L 238.481 714.418 L 267.722 703.639 A 28.168 28.168 0 0 1 267.722 703.639 L 254.668 675.34 L 254.668 675.34 L 282.967 688.394 A 28.168 28.168 0 0 1 282.967 688.394 Z M 293.746 696.696 A 17.722 17.722 0 0 0 293.746 732.14 A 17.722 17.722 0 0 0 293.746 696.696" bx:shape="cog 293.746 714.418 17.722 28.168 55.265 1 8 1@f339ce2e"/>
  <path style="fill: rgb(246, 246, 246);" transform="matrix(-0.389976, 0.251097, -0.251097, -0.389976, 744.347229, 655.734619)" d="M 293.746 659.153 L 293.746 659.153 L 304.525 688.394 A 28.168 28.168 0 0 1 304.525 688.394 L 332.824 675.34 L 332.824 675.34 L 319.77 703.639 A 28.168 28.168 0 0 1 319.77 703.639 L 349.011 714.418 L 349.011 714.418 L 319.77 725.197 A 28.168 28.168 0 0 1 319.77 725.197 L 332.824 753.496 L 332.824 753.496 L 304.525 740.442 A 28.168 28.168 0 0 1 304.525 740.442 L 293.746 769.683 L 293.746 769.683 L 282.967 740.442 A 28.168 28.168 0 0 1 282.967 740.442 L 254.668 753.496 L 254.668 753.496 L 267.722 725.197 A 28.168 28.168 0 0 1 267.722 725.197 L 238.481 714.418 L 238.481 714.418 L 267.722 703.639 A 28.168 28.168 0 0 1 267.722 703.639 L 254.668 675.34 L 254.668 675.34 L 282.967 688.394 A 28.168 28.168 0 0 1 282.967 688.394 Z M 293.746 696.696 A 17.722 17.722 0 0 0 293.746 732.14 A 17.722 17.722 0 0 0 293.746 696.696" bx:shape="cog 293.746 714.418 17.722 28.168 55.265 1 8 1@f339ce2e"/>
  <path style="fill: rgb(246, 246, 246);" transform="matrix(-0.23557, 0.151679, -0.151679, -0.23557, 623.695007, 363.478149)" d="M 293.746 659.153 L 293.746 659.153 L 304.525 688.394 A 28.168 28.168 0 0 1 304.525 688.394 L 332.824 675.34 L 332.824 675.34 L 319.77 703.639 A 28.168 28.168 0 0 1 319.77 703.639 L 349.011 714.418 L 349.011 714.418 L 319.77 725.197 A 28.168 28.168 0 0 1 319.77 725.197 L 332.824 753.496 L 332.824 753.496 L 304.525 740.442 A 28.168 28.168 0 0 1 304.525 740.442 L 293.746 769.683 L 293.746 769.683 L 282.967 740.442 A 28.168 28.168 0 0 1 282.967 740.442 L 254.668 753.496 L 254.668 753.496 L 267.722 725.197 A 28.168 28.168 0 0 1 267.722 725.197 L 238.481 714.418 L 238.481 714.418 L 267.722 703.639 A 28.168 28.168 0 0 1 267.722 703.639 L 254.668 675.34 L 254.668 675.34 L 282.967 688.394 A 28.168 28.168 0 0 1 282.967 688.394 Z M 293.746 696.696 A 17.722 17.722 0 0 0 293.746 732.14 A 17.722 17.722 0 0 0 293.746 696.696" bx:shape="cog 293.746 714.418 17.722 28.168 55.265 1 8 1@f339ce2e"/>
  <path style="fill: rgb(246, 246, 246);" transform="matrix(-0.23557, 0.151679, -0.151679, -0.23557, 540.960754, 536.637756)" d="M 293.746 659.153 L 293.746 659.153 L 304.525 688.394 A 28.168 28.168 0 0 1 304.525 688.394 L 332.824 675.34 L 332.824 675.34 L 319.77 703.639 A 28.168 28.168 0 0 1 319.77 703.639 L 349.011 714.418 L 349.011 714.418 L 319.77 725.197 A 28.168 28.168 0 0 1 319.77 725.197 L 332.824 753.496 L 332.824 753.496 L 304.525 740.442 A 28.168 28.168 0 0 1 304.525 740.442 L 293.746 769.683 L 293.746 769.683 L 282.967 740.442 A 28.168 28.168 0 0 1 282.967 740.442 L 254.668 753.496 L 254.668 753.496 L 267.722 725.197 A 28.168 28.168 0 0 1 267.722 725.197 L 238.481 714.418 L 238.481 714.418 L 267.722 703.639 A 28.168 28.168 0 0 1 267.722 703.639 L 254.668 675.34 L 254.668 675.34 L 282.967 688.394 A 28.168 28.168 0 0 1 282.967 688.394 Z M 293.746 696.696 A 17.722 17.722 0 0 0 293.746 732.14 A 17.722 17.722 0 0 0 293.746 696.696" bx:shape="cog 293.746 714.418 17.722 28.168 55.265 1 8 1@f339ce2e"/>
  <path style="fill: rgb(246, 246, 246);" transform="matrix(-0.23557, 0.151679, -0.151679, -0.23557, 365.072601, 570.152466)" d="M 293.746 659.153 L 293.746 659.153 L 304.525 688.394 A 28.168 28.168 0 0 1 304.525 688.394 L 332.824 675.34 L 332.824 675.34 L 319.77 703.639 A 28.168 28.168 0 0 1 319.77 703.639 L 349.011 714.418 L 349.011 714.418 L 319.77 725.197 A 28.168 28.168 0 0 1 319.77 725.197 L 332.824 753.496 L 332.824 753.496 L 304.525 740.442 A 28.168 28.168 0 0 1 304.525 740.442 L 293.746 769.683 L 293.746 769.683 L 282.967 740.442 A 28.168 28.168 0 0 1 282.967 740.442 L 254.668 753.496 L 254.668 753.496 L 267.722 725.197 A 28.168 28.168 0 0 1 267.722 725.197 L 238.481 714.418 L 238.481 714.418 L 267.722 703.639 A 28.168 28.168 0 0 1 267.722 703.639 L 254.668 675.34 L 254.668 675.34 L 282.967 688.394 A 28.168 28.168 0 0 1 282.967 688.394 Z M 293.746 696.696 A 17.722 17.722 0 0 0 293.746 732.14 A 17.722 17.722 0 0 0 293.746 696.696" bx:shape="cog 293.746 714.418 17.722 28.168 55.265 1 8 1@f339ce2e"/>
  <path style="fill: rgb(246, 246, 246);" transform="matrix(-0.23557, 0.151679, -0.151679, -0.23557, 310.18399, 461.230408)" d="M 293.746 659.153 L 293.746 659.153 L 304.525 688.394 A 28.168 28.168 0 0 1 304.525 688.394 L 332.824 675.34 L 332.824 675.34 L 319.77 703.639 A 28.168 28.168 0 0 1 319.77 703.639 L 349.011 714.418 L 349.011 714.418 L 319.77 725.197 A 28.168 28.168 0 0 1 319.77 725.197 L 332.824 753.496 L 332.824 753.496 L 304.525 740.442 A 28.168 28.168 0 0 1 304.525 740.442 L 293.746 769.683 L 293.746 769.683 L 282.967 740.442 A 28.168 28.168 0 0 1 282.967 740.442 L 254.668 753.496 L 254.668 753.496 L 267.722 725.197 A 28.168 28.168 0 0 1 267.722 725.197 L 238.481 714.418 L 238.481 714.418 L 267.722 703.639 A 28.168 28.168 0 0 1 267.722 703.639 L 254.668 675.34 L 254.668 675.34 L 282.967 688.394 A 28.168 28.168 0 0 1 282.967 688.394 Z M 293.746 696.696 A 17.722 17.722 0 0 0 293.746 732.14 A 17.722 17.722 0 0 0 293.746 696.696" bx:shape="cog 293.746 714.418 17.722 28.168 55.265 1 8 1@f339ce2e"/>
  <path style="fill: rgb(246, 246, 246);" transform="matrix(-0.23557, 0.151679, -0.151679, -0.23557, 250.570206, 499.845398)" d="M 293.746 659.153 L 293.746 659.153 L 304.525 688.394 A 28.168 28.168 0 0 1 304.525 688.394 L 332.824 675.34 L 332.824 675.34 L 319.77 703.639 A 28.168 28.168 0 0 1 319.77 703.639 L 349.011 714.418 L 349.011 714.418 L 319.77 725.197 A 28.168 28.168 0 0 1 319.77 725.197 L 332.824 753.496 L 332.824 753.496 L 304.525 740.442 A 28.168 28.168 0 0 1 304.525 740.442 L 293.746 769.683 L 293.746 769.683 L 282.967 740.442 A 28.168 28.168 0 0 1 282.967 740.442 L 254.668 753.496 L 254.668 753.496 L 267.722 725.197 A 28.168 28.168 0 0 1 267.722 725.197 L 238.481 714.418 L 238.481 714.418 L 267.722 703.639 A 28.168 28.168 0 0 1 267.722 703.639 L 254.668 675.34 L 254.668 675.34 L 282.967 688.394 A 28.168 28.168 0 0 1 282.967 688.394 Z M 293.746 696.696 A 17.722 17.722 0 0 0 293.746 732.14 A 17.722 17.722 0 0 0 293.746 696.696" bx:shape="cog 293.746 714.418 17.722 28.168 55.265 1 8 1@f339ce2e"/>
  <path style="fill: rgb(229, 229, 229);" d="M 73.983 219.736 C 44.747 219.736 21.046 207.844 21.046 193.174 C 21.046 178.504 44.747 166.612 73.983 166.612 C 74.115 166.612 74.247 166.612 74.378 166.613 C 83.895 157.552 102.89 151.373 124.77 151.373 C 126.656 151.373 128.52 151.419 130.358 151.509 C 135.486 144.089 147.855 138.213 163.528 135.739 C 168.377 127.21 185.177 120.919 205.157 120.919 C 210.959 120.919 216.493 121.45 221.544 122.411 C 229.313 113.288 242.362 107.303 257.148 107.303 C 275.943 107.303 291.931 116.974 297.837 130.466 C 306.052 125.792 317.347 122.906 329.813 122.906 C 353.215 122.906 372.488 133.076 375.012 146.155 C 380.044 144.701 386.135 143.851 392.697 143.851 C 409.992 143.851 424.013 149.758 424.013 157.045 C 424.013 157.887 423.826 158.711 423.468 159.509 C 426.929 158.946 430.631 158.642 434.48 158.642 C 453.693 158.642 469.268 166.23 469.268 175.591 C 469.268 182.882 459.819 189.098 446.561 191.49 C 447.623 192.893 448.194 194.379 448.194 195.917 C 448.194 204.464 430.585 211.393 408.863 211.393 C 400.878 211.393 393.449 210.457 387.247 208.848 C 378.647 215.073 361.71 219.307 342.221 219.307 C 333.813 219.307 325.88 218.519 318.887 217.123 C 310.894 225.553 291.906 231.482 269.755 231.482 C 248.016 231.482 229.323 225.772 221.081 217.591 C 215.502 217.243 210.196 216.481 205.305 215.37 C 199.695 227.661 175.355 236.909 146.177 236.909 C 119.656 236.909 97.131 229.268 89.036 218.647 C 84.265 219.355 79.213 219.736 73.983 219.736 Z"/>
  <path style="fill: rgb(246, 246, 246);" transform="matrix(-0.23557, 0.151679, -0.151679, -0.23557, 380.980255, 354.031372)" d="M 293.746 659.153 L 293.746 659.153 L 304.525 688.394 A 28.168 28.168 0 0 1 304.525 688.394 L 332.824 675.34 L 332.824 675.34 L 319.77 703.639 A 28.168 28.168 0 0 1 319.77 703.639 L 349.011 714.418 L 349.011 714.418 L 319.77 725.197 A 28.168 28.168 0 0 1 319.77 725.197 L 332.824 753.496 L 332.824 753.496 L 304.525 740.442 A 28.168 28.168 0 0 1 304.525 740.442 L 293.746 769.683 L 293.746 769.683 L 282.967 740.442 A 28.168 28.168 0 0 1 282.967 740.442 L 254.668 753.496 L 254.668 753.496 L 267.722 725.197 A 28.168 28.168 0 0 1 267.722 725.197 L 238.481 714.418 L 238.481 714.418 L 267.722 703.639 A 28.168 28.168 0 0 1 267.722 703.639 L 254.668 675.34 L 254.668 675.34 L 282.967 688.394 A 28.168 28.168 0 0 1 282.967 688.394 Z M 293.746 696.696 A 17.722 17.722 0 0 0 293.746 732.14 A 17.722 17.722 0 0 0 293.746 696.696" bx:shape="cog 293.746 714.418 17.722 28.168 55.265 1 8 1@f339ce2e"/>
  <path style="fill: rgb(246, 246, 246);" transform="matrix(-0.23557, 0.151679, -0.151679, -0.23557, 322.420929, 403.14035)" d="M 293.746 659.153 L 293.746 659.153 L 304.525 688.394 A 28.168 28.168 0 0 1 304.525 688.394 L 332.824 675.34 L 332.824 675.34 L 319.77 703.639 A 28.168 28.168 0 0 1 319.77 703.639 L 349.011 714.418 L 349.011 714.418 L 319.77 725.197 A 28.168 28.168 0 0 1 319.77 725.197 L 332.824 753.496 L 332.824 753.496 L 304.525 740.442 A 28.168 28.168 0 0 1 304.525 740.442 L 293.746 769.683 L 293.746 769.683 L 282.967 740.442 A 28.168 28.168 0 0 1 282.967 740.442 L 254.668 753.496 L 254.668 753.496 L 267.722 725.197 A 28.168 28.168 0 0 1 267.722 725.197 L 238.481 714.418 L 238.481 714.418 L 267.722 703.639 A 28.168 28.168 0 0 1 267.722 703.639 L 254.668 675.34 L 254.668 675.34 L 282.967 688.394 A 28.168 28.168 0 0 1 282.967 688.394 Z M 293.746 696.696 A 17.722 17.722 0 0 0 293.746 732.14 A 17.722 17.722 0 0 0 293.746 696.696" bx:shape="cog 293.746 714.418 17.722 28.168 55.265 1 8 1@f339ce2e"/>
  <path style="fill: rgb(246, 246, 246);" transform="matrix(-0.23557, 0.151679, -0.151679, -0.23557, 501.128265, 368.946167)" d="M 293.746 659.153 L 293.746 659.153 L 304.525 688.394 A 28.168 28.168 0 0 1 304.525 688.394 L 332.824 675.34 L 332.824 675.34 L 319.77 703.639 A 28.168 28.168 0 0 1 319.77 703.639 L 349.011 714.418 L 349.011 714.418 L 319.77 725.197 A 28.168 28.168 0 0 1 319.77 725.197 L 332.824 753.496 L 332.824 753.496 L 304.525 740.442 A 28.168 28.168 0 0 1 304.525 740.442 L 293.746 769.683 L 293.746 769.683 L 282.967 740.442 A 28.168 28.168 0 0 1 282.967 740.442 L 254.668 753.496 L 254.668 753.496 L 267.722 725.197 A 28.168 28.168 0 0 1 267.722 725.197 L 238.481 714.418 L 238.481 714.418 L 267.722 703.639 A 28.168 28.168 0 0 1 267.722 703.639 L 254.668 675.34 L 254.668 675.34 L 282.967 688.394 A 28.168 28.168 0 0 1 282.967 688.394 Z M 293.746 696.696 A 17.722 17.722 0 0 0 293.746 732.14 A 17.722 17.722 0 0 0 293.746 696.696" bx:shape="cog 293.746 714.418 17.722 28.168 55.265 1 8 1@f339ce2e"/>
  <path style="fill: rgb(246, 246, 246);" transform="matrix(-0.23557, 0.151679, -0.151679, -0.23557, 387.250885, 491.391571)" d="M 293.746 659.153 L 293.746 659.153 L 304.525 688.394 A 28.168 28.168 0 0 1 304.525 688.394 L 332.824 675.34 L 332.824 675.34 L 319.77 703.639 A 28.168 28.168 0 0 1 319.77 703.639 L 349.011 714.418 L 349.011 714.418 L 319.77 725.197 A 28.168 28.168 0 0 1 319.77 725.197 L 332.824 753.496 L 332.824 753.496 L 304.525 740.442 A 28.168 28.168 0 0 1 304.525 740.442 L 293.746 769.683 L 293.746 769.683 L 282.967 740.442 A 28.168 28.168 0 0 1 282.967 740.442 L 254.668 753.496 L 254.668 753.496 L 267.722 725.197 A 28.168 28.168 0 0 1 267.722 725.197 L 238.481 714.418 L 238.481 714.418 L 267.722 703.639 A 28.168 28.168 0 0 1 267.722 703.639 L 254.668 675.34 L 254.668 675.34 L 282.967 688.394 A 28.168 28.168 0 0 1 282.967 688.394 Z M 293.746 696.696 A 17.722 17.722 0 0 0 293.746 732.14 A 17.722 17.722 0 0 0 293.746 696.696" bx:shape="cog 293.746 714.418 17.722 28.168 55.265 1 8 1@f339ce2e"/>
  <path style="fill: rgb(246, 246, 246);" transform="matrix(-0.23557, 0.151679, -0.151679, -0.23557, 622.386902, 489.5979)" d="M 293.746 659.153 L 293.746 659.153 L 304.525 688.394 A 28.168 28.168 0 0 1 304.525 688.394 L 332.824 675.34 L 332.824 675.34 L 319.77 703.639 A 28.168 28.168 0 0 1 319.77 703.639 L 349.011 714.418 L 349.011 714.418 L 319.77 725.197 A 28.168 28.168 0 0 1 319.77 725.197 L 332.824 753.496 L 332.824 753.496 L 304.525 740.442 A 28.168 28.168 0 0 1 304.525 740.442 L 293.746 769.683 L 293.746 769.683 L 282.967 740.442 A 28.168 28.168 0 0 1 282.967 740.442 L 254.668 753.496 L 254.668 753.496 L 267.722 725.197 A 28.168 28.168 0 0 1 267.722 725.197 L 238.481 714.418 L 238.481 714.418 L 267.722 703.639 A 28.168 28.168 0 0 1 267.722 703.639 L 254.668 675.34 L 254.668 675.34 L 282.967 688.394 A 28.168 28.168 0 0 1 282.967 688.394 Z M 293.746 696.696 A 17.722 17.722 0 0 0 293.746 732.14 A 17.722 17.722 0 0 0 293.746 696.696" bx:shape="cog 293.746 714.418 17.722 28.168 55.265 1 8 1@f339ce2e"/>
  <path style="fill: rgb(246, 246, 246);" transform="matrix(-0.23557, 0.151679, -0.151679, -0.23557, 566.423889, 299.827637)" d="M 293.746 659.153 L 293.746 659.153 L 304.525 688.394 A 28.168 28.168 0 0 1 304.525 688.394 L 332.824 675.34 L 332.824 675.34 L 319.77 703.639 A 28.168 28.168 0 0 1 319.77 703.639 L 349.011 714.418 L 349.011 714.418 L 319.77 725.197 A 28.168 28.168 0 0 1 319.77 725.197 L 332.824 753.496 L 332.824 753.496 L 304.525 740.442 A 28.168 28.168 0 0 1 304.525 740.442 L 293.746 769.683 L 293.746 769.683 L 282.967 740.442 A 28.168 28.168 0 0 1 282.967 740.442 L 254.668 753.496 L 254.668 753.496 L 267.722 725.197 A 28.168 28.168 0 0 1 267.722 725.197 L 238.481 714.418 L 238.481 714.418 L 267.722 703.639 A 28.168 28.168 0 0 1 267.722 703.639 L 254.668 675.34 L 254.668 675.34 L 282.967 688.394 A 28.168 28.168 0 0 1 282.967 688.394 Z M 293.746 696.696 A 17.722 17.722 0 0 0 293.746 732.14 A 17.722 17.722 0 0 0 293.746 696.696" bx:shape="cog 293.746 714.418 17.722 28.168 55.265 1 8 1@f339ce2e"/>
  <path style="fill: rgb(246, 246, 246);" transform="matrix(-0.23557, 0.151679, -0.151679, -0.23557, 335.076385, 315.405548)" d="M 293.746 659.153 L 293.746 659.153 L 304.525 688.394 A 28.168 28.168 0 0 1 304.525 688.394 L 332.824 675.34 L 332.824 675.34 L 319.77 703.639 A 28.168 28.168 0 0 1 319.77 703.639 L 349.011 714.418 L 349.011 714.418 L 319.77 725.197 A 28.168 28.168 0 0 1 319.77 725.197 L 332.824 753.496 L 332.824 753.496 L 304.525 740.442 A 28.168 28.168 0 0 1 304.525 740.442 L 293.746 769.683 L 293.746 769.683 L 282.967 740.442 A 28.168 28.168 0 0 1 282.967 740.442 L 254.668 753.496 L 254.668 753.496 L 267.722 725.197 A 28.168 28.168 0 0 1 267.722 725.197 L 238.481 714.418 L 238.481 714.418 L 267.722 703.639 A 28.168 28.168 0 0 1 267.722 703.639 L 254.668 675.34 L 254.668 675.34 L 282.967 688.394 A 28.168 28.168 0 0 1 282.967 688.394 Z M 293.746 696.696 A 17.722 17.722 0 0 0 293.746 732.14 A 17.722 17.722 0 0 0 293.746 696.696" bx:shape="cog 293.746 714.418 17.722 28.168 55.265 1 8 1@f339ce2e"/>
  <path style="fill: rgb(246, 246, 246);" transform="matrix(-0.23557, 0.151679, -0.151679, -0.23557, 247.600647, 292.167328)" d="M 293.746 659.153 L 293.746 659.153 L 304.525 688.394 A 28.168 28.168 0 0 1 304.525 688.394 L 332.824 675.34 L 332.824 675.34 L 319.77 703.639 A 28.168 28.168 0 0 1 319.77 703.639 L 349.011 714.418 L 349.011 714.418 L 319.77 725.197 A 28.168 28.168 0 0 1 319.77 725.197 L 332.824 753.496 L 332.824 753.496 L 304.525 740.442 A 28.168 28.168 0 0 1 304.525 740.442 L 293.746 769.683 L 293.746 769.683 L 282.967 740.442 A 28.168 28.168 0 0 1 282.967 740.442 L 254.668 753.496 L 254.668 753.496 L 267.722 725.197 A 28.168 28.168 0 0 1 267.722 725.197 L 238.481 714.418 L 238.481 714.418 L 267.722 703.639 A 28.168 28.168 0 0 1 267.722 703.639 L 254.668 675.34 L 254.668 675.34 L 282.967 688.394 A 28.168 28.168 0 0 1 282.967 688.394 Z M 293.746 696.696 A 17.722 17.722 0 0 0 293.746 732.14 A 17.722 17.722 0 0 0 293.746 696.696" bx:shape="cog 293.746 714.418 17.722 28.168 55.265 1 8 1@f339ce2e"/>
  <path style="fill: rgb(246, 246, 246);" transform="matrix(-0.23557, 0.151679, -0.151679, -0.23557, 480.959229, 264.745728)" d="M 293.746 659.153 L 293.746 659.153 L 304.525 688.394 A 28.168 28.168 0 0 1 304.525 688.394 L 332.824 675.34 L 332.824 675.34 L 319.77 703.639 A 28.168 28.168 0 0 1 319.77 703.639 L 349.011 714.418 L 349.011 714.418 L 319.77 725.197 A 28.168 28.168 0 0 1 319.77 725.197 L 332.824 753.496 L 332.824 753.496 L 304.525 740.442 A 28.168 28.168 0 0 1 304.525 740.442 L 293.746 769.683 L 293.746 769.683 L 282.967 740.442 A 28.168 28.168 0 0 1 282.967 740.442 L 254.668 753.496 L 254.668 753.496 L 267.722 725.197 A 28.168 28.168 0 0 1 267.722 725.197 L 238.481 714.418 L 238.481 714.418 L 267.722 703.639 A 28.168 28.168 0 0 1 267.722 703.639 L 254.668 675.34 L 254.668 675.34 L 282.967 688.394 A 28.168 28.168 0 0 1 282.967 688.394 Z M 293.746 696.696 A 17.722 17.722 0 0 0 293.746 732.14 A 17.722 17.722 0 0 0 293.746 696.696" bx:shape="cog 293.746 714.418 17.722 28.168 55.265 1 8 1@f339ce2e"/>
  <path style="fill: rgb(246, 246, 246);" transform="matrix(-0.389976, 0.251097, -0.251097, -0.389976, 419.537811, 315.34729)" d="M 293.746 659.153 L 293.746 659.153 L 304.525 688.394 A 28.168 28.168 0 0 1 304.525 688.394 L 332.824 675.34 L 332.824 675.34 L 319.77 703.639 A 28.168 28.168 0 0 1 319.77 703.639 L 349.011 714.418 L 349.011 714.418 L 319.77 725.197 A 28.168 28.168 0 0 1 319.77 725.197 L 332.824 753.496 L 332.824 753.496 L 304.525 740.442 A 28.168 28.168 0 0 1 304.525 740.442 L 293.746 769.683 L 293.746 769.683 L 282.967 740.442 A 28.168 28.168 0 0 1 282.967 740.442 L 254.668 753.496 L 254.668 753.496 L 267.722 725.197 A 28.168 28.168 0 0 1 267.722 725.197 L 238.481 714.418 L 238.481 714.418 L 267.722 703.639 A 28.168 28.168 0 0 1 267.722 703.639 L 254.668 675.34 L 254.668 675.34 L 282.967 688.394 A 28.168 28.168 0 0 1 282.967 688.394 Z M 293.746 696.696 A 17.722 17.722 0 0 0 293.746 732.14 A 17.722 17.722 0 0 0 293.746 696.696" bx:shape="cog 293.746 714.418 17.722 28.168 55.265 1 8 1@f339ce2e"/>
  <path style="fill: rgb(246, 246, 246);" transform="matrix(-0.23557, 0.151679, -0.151679, -0.23557, 587.989807, 208.030792)" d="M 293.746 659.153 L 293.746 659.153 L 304.525 688.394 A 28.168 28.168 0 0 1 304.525 688.394 L 332.824 675.34 L 332.824 675.34 L 319.77 703.639 A 28.168 28.168 0 0 1 319.77 703.639 L 349.011 714.418 L 349.011 714.418 L 319.77 725.197 A 28.168 28.168 0 0 1 319.77 725.197 L 332.824 753.496 L 332.824 753.496 L 304.525 740.442 A 28.168 28.168 0 0 1 304.525 740.442 L 293.746 769.683 L 293.746 769.683 L 282.967 740.442 A 28.168 28.168 0 0 1 282.967 740.442 L 254.668 753.496 L 254.668 753.496 L 267.722 725.197 A 28.168 28.168 0 0 1 267.722 725.197 L 238.481 714.418 L 238.481 714.418 L 267.722 703.639 A 28.168 28.168 0 0 1 267.722 703.639 L 254.668 675.34 L 254.668 675.34 L 282.967 688.394 A 28.168 28.168 0 0 1 282.967 688.394 Z M 293.746 696.696 A 17.722 17.722 0 0 0 293.746 732.14 A 17.722 17.722 0 0 0 293.746 696.696" bx:shape="cog 293.746 714.418 17.722 28.168 55.265 1 8 1@f339ce2e"/>
  <path style="fill: rgb(246, 246, 246);" transform="matrix(-0.23557, 0.151679, -0.151679, -0.23557, 419.517365, 303.570892)" d="M 293.746 659.153 L 293.746 659.153 L 304.525 688.394 A 28.168 28.168 0 0 1 304.525 688.394 L 332.824 675.34 L 332.824 675.34 L 319.77 703.639 A 28.168 28.168 0 0 1 319.77 703.639 L 349.011 714.418 L 349.011 714.418 L 319.77 725.197 A 28.168 28.168 0 0 1 319.77 725.197 L 332.824 753.496 L 332.824 753.496 L 304.525 740.442 A 28.168 28.168 0 0 1 304.525 740.442 L 293.746 769.683 L 293.746 769.683 L 282.967 740.442 A 28.168 28.168 0 0 1 282.967 740.442 L 254.668 753.496 L 254.668 753.496 L 267.722 725.197 A 28.168 28.168 0 0 1 267.722 725.197 L 238.481 714.418 L 238.481 714.418 L 267.722 703.639 A 28.168 28.168 0 0 1 267.722 703.639 L 254.668 675.34 L 254.668 675.34 L 282.967 688.394 A 28.168 28.168 0 0 1 282.967 688.394 Z M 293.746 696.696 A 17.722 17.722 0 0 0 293.746 732.14 A 17.722 17.722 0 0 0 293.746 696.696" bx:shape="cog 293.746 714.418 17.722 28.168 55.265 1 8 1@f339ce2e"/>
  <path style="fill: rgb(246, 246, 246);" transform="matrix(-0.389976, 0.251097, -0.251097, -0.389976, 529.911133, 251.852631)" d="M 293.746 659.153 L 293.746 659.153 L 304.525 688.394 A 28.168 28.168 0 0 1 304.525 688.394 L 332.824 675.34 L 332.824 675.34 L 319.77 703.639 A 28.168 28.168 0 0 1 319.77 703.639 L 349.011 714.418 L 349.011 714.418 L 319.77 725.197 A 28.168 28.168 0 0 1 319.77 725.197 L 332.824 753.496 L 332.824 753.496 L 304.525 740.442 A 28.168 28.168 0 0 1 304.525 740.442 L 293.746 769.683 L 293.746 769.683 L 282.967 740.442 A 28.168 28.168 0 0 1 282.967 740.442 L 254.668 753.496 L 254.668 753.496 L 267.722 725.197 A 28.168 28.168 0 0 1 267.722 725.197 L 238.481 714.418 L 238.481 714.418 L 267.722 703.639 A 28.168 28.168 0 0 1 267.722 703.639 L 254.668 675.34 L 254.668 675.34 L 282.967 688.394 A 28.168 28.168 0 0 1 282.967 688.394 Z M 293.746 696.696 A 17.722 17.722 0 0 0 293.746 732.14 A 17.722 17.722 0 0 0 293.746 696.696" bx:shape="cog 293.746 714.418 17.722 28.168 55.265 1 8 1@f339ce2e"/>
  <path style="fill: rgb(246, 246, 246);" transform="matrix(-0.23557, 0.151679, -0.151679, -0.23557, 520.440308, 167.118469)" d="M 293.746 659.153 L 293.746 659.153 L 304.525 688.394 A 28.168 28.168 0 0 1 304.525 688.394 L 332.824 675.34 L 332.824 675.34 L 319.77 703.639 A 28.168 28.168 0 0 1 319.77 703.639 L 349.011 714.418 L 349.011 714.418 L 319.77 725.197 A 28.168 28.168 0 0 1 319.77 725.197 L 332.824 753.496 L 332.824 753.496 L 304.525 740.442 A 28.168 28.168 0 0 1 304.525 740.442 L 293.746 769.683 L 293.746 769.683 L 282.967 740.442 A 28.168 28.168 0 0 1 282.967 740.442 L 254.668 753.496 L 254.668 753.496 L 267.722 725.197 A 28.168 28.168 0 0 1 267.722 725.197 L 238.481 714.418 L 238.481 714.418 L 267.722 703.639 A 28.168 28.168 0 0 1 267.722 703.639 L 254.668 675.34 L 254.668 675.34 L 282.967 688.394 A 28.168 28.168 0 0 1 282.967 688.394 Z M 293.746 696.696 A 17.722 17.722 0 0 0 293.746 732.14 A 17.722 17.722 0 0 0 293.746 696.696" bx:shape="cog 293.746 714.418 17.722 28.168 55.265 1 8 1@f339ce2e"/>
</svg>