<?xml version="1.0" encoding="utf-8"?>
<svg viewBox="0 0 500 500" xmlns="http://www.w3.org/2000/svg">
  <path d="M 143.766 163.725 L 158.894 154.512 L 153.161 135.766 L 173.997 140.575 L 183.774 122.685 L 194.21 139.82 L 212.646 133.471 L 208.622 154.181 L 223.842 163.451 L 209.588 171.24 L 215.064 191.682 L 194.446 186.156 L 185.234 203.013 L 175.935 187.743 L 155.466 193.611 L 160.621 172.937 Z" style="fill: rgb(251, 251, 251);"/>
  <path d="M 22.885 40.704 L 34.492 33.635 L 30.094 19.252 L 46.08 22.942 L 53.582 9.215 L 61.589 22.363 L 75.734 17.491 L 72.646 33.381 L 84.324 40.494 L 73.388 46.47 L 77.589 62.154 L 61.77 57.915 L 54.702 70.848 L 47.566 59.132 L 31.861 63.634 L 35.818 47.772 Z" style="fill: rgb(251, 251, 251);"/>
  <path d="M 50.393 248.525 L 62 241.456 L 57.602 227.073 L 73.588 230.763 L 81.09 217.036 L 89.097 230.184 L 103.242 225.312 L 100.154 241.202 L 111.832 248.315 L 100.896 254.291 L 105.097 269.975 L 89.278 265.736 L 82.21 278.669 L 75.074 266.953 L 59.369 271.455 L 63.326 255.593 Z" style="fill: rgb(251, 251, 251);"/>
  <path d="M 15.969 436.074 L 27.576 429.005 L 23.178 414.622 L 39.164 418.312 L 46.666 404.585 L 54.673 417.733 L 68.818 412.861 L 65.73 428.751 L 77.408 435.864 L 66.472 441.84 L 70.673 457.524 L 54.854 453.285 L 47.786 466.218 L 40.65 454.502 L 24.945 459.004 L 28.902 443.142 Z" style="fill: rgb(251, 251, 251);"/>
  <path d="M 220.768 440.236 L 232.375 433.167 L 227.977 418.784 L 243.963 422.474 L 251.465 408.747 L 259.472 421.895 L 273.617 417.023 L 270.529 432.913 L 282.207 440.026 L 271.271 446.002 L 275.472 461.686 L 259.653 457.447 L 252.585 470.38 L 245.449 458.664 L 229.744 463.166 L 233.701 447.304 Z" style="fill: rgb(251, 251, 251);"/>
  <path d="M 405.479 416.389 L 417.086 409.32 L 412.688 394.937 L 428.674 398.627 L 436.176 384.9 L 444.183 398.048 L 458.328 393.176 L 455.24 409.066 L 466.918 416.179 L 455.982 422.155 L 460.183 437.839 L 444.364 433.6 L 437.296 446.533 L 430.16 434.817 L 414.455 439.319 L 418.412 423.457 Z" style="fill: rgb(251, 251, 251);"/>
  <path d="M 367.917 200.976 L 379.524 193.907 L 375.126 179.524 L 391.112 183.214 L 398.614 169.487 L 406.621 182.635 L 420.766 177.763 L 417.678 193.653 L 429.356 200.766 L 418.42 206.742 L 422.621 222.426 L 406.802 218.187 L 399.734 231.12 L 392.598 219.404 L 376.893 223.906 L 380.85 208.044 Z" style="fill: rgb(251, 251, 251);"/>
  <path d="M 374.392 83.978 L 385.999 76.909 L 381.601 62.526 L 397.587 66.216 L 405.089 52.489 L 413.096 65.637 L 427.241 60.765 L 424.153 76.655 L 435.831 83.768 L 424.895 89.744 L 429.096 105.428 L 413.277 101.189 L 406.209 114.122 L 399.073 102.406 L 383.368 106.908 L 387.325 91.046 Z" style="fill: rgb(251, 251, 251);"/>
  <path d="M 236.538 319.854 L 251.88 310.51 L 246.066 291.499 L 267.196 296.376 L 277.112 278.232 L 287.696 295.611 L 306.393 289.172 L 302.312 310.174 L 317.747 319.576 L 303.291 327.475 L 308.845 348.207 L 287.935 342.603 L 278.592 359.698 L 269.161 344.212 L 248.403 350.163 L 253.631 329.196 Z" style="fill: rgb(251, 251, 251);"/>
  <path d="M 218.653 57.726 L 230.26 50.657 L 225.862 36.274 L 241.848 39.964 L 249.35 26.237 L 257.357 39.385 L 271.502 34.513 L 268.414 50.403 L 280.092 57.516 L 269.156 63.492 L 273.357 79.176 L 257.538 74.937 L 250.47 87.87 L 243.334 76.154 L 227.629 80.656 L 231.586 64.794 Z" style="fill: rgb(251, 251, 251);"/>
  <path d="M 17.865 148.216 L 25.904 143.32 L 22.857 133.358 L 33.929 135.913 L 39.125 126.407 L 44.67 135.513 L 54.467 132.138 L 52.328 143.144 L 60.416 148.069 L 52.842 152.208 L 55.752 163.071 L 44.796 160.135 L 39.901 169.092 L 34.959 160.978 L 24.081 164.096 L 26.822 153.11 Z" style="fill: rgb(251, 251, 251);"/>
  <path d="M 127.139 54.732 L 135.178 49.836 L 132.131 39.874 L 143.203 42.429 L 148.399 32.923 L 153.944 42.029 L 163.741 38.654 L 161.602 49.66 L 169.69 54.585 L 162.116 58.724 L 165.026 69.587 L 154.07 66.651 L 149.175 75.608 L 144.233 67.494 L 133.355 70.612 L 136.096 59.626 Z" style="fill: rgb(251, 251, 251);"/>
  <path d="M 149.442 251.88 L 157.481 246.984 L 154.434 237.022 L 165.506 239.577 L 170.702 230.071 L 176.247 239.177 L 186.044 235.802 L 183.905 246.808 L 191.993 251.733 L 184.419 255.872 L 187.329 266.735 L 176.373 263.799 L 171.478 272.756 L 166.536 264.642 L 155.658 267.76 L 158.399 256.774 Z" style="fill: rgb(251, 251, 251);"/>
  <path d="M 36.233 329.454 L 44.272 324.558 L 41.225 314.596 L 52.297 317.151 L 57.493 307.645 L 63.038 316.751 L 72.835 313.376 L 70.696 324.382 L 78.784 329.307 L 71.21 333.446 L 74.12 344.309 L 63.164 341.373 L 58.269 350.33 L 53.327 342.216 L 42.449 345.334 L 45.19 334.348 Z" style="fill: rgb(251, 251, 251);"/>
  <path d="M 131.463 368.107 L 139.502 363.211 L 136.455 353.249 L 147.527 355.804 L 152.723 346.298 L 158.268 355.404 L 168.065 352.029 L 165.926 363.035 L 174.014 367.96 L 166.44 372.099 L 169.35 382.962 L 158.394 380.026 L 153.499 388.983 L 148.557 380.869 L 137.679 383.987 L 140.42 373.001 Z" style="fill: rgb(251, 251, 251);"/>
  <path d="M 325.571 448.495 L 333.61 443.599 L 330.563 433.637 L 341.635 436.192 L 346.831 426.686 L 352.376 435.792 L 362.173 432.417 L 360.034 443.423 L 368.122 448.348 L 360.548 452.487 L 363.458 463.35 L 352.502 460.414 L 347.607 469.371 L 342.665 461.257 L 331.787 464.375 L 334.528 453.389 Z" style="fill: rgb(251, 251, 251);"/>
  <path d="M 416.601 333.978 L 424.64 329.082 L 421.593 319.12 L 432.665 321.675 L 437.861 312.169 L 443.406 321.275 L 453.203 317.9 L 451.064 328.906 L 459.152 333.831 L 451.578 337.97 L 454.488 348.833 L 443.532 345.897 L 438.637 354.854 L 433.695 346.74 L 422.817 349.858 L 425.558 338.872 Z" style="fill: rgb(251, 251, 251);"/>
  <path d="M 347.571 277.611 L 355.61 272.715 L 352.563 262.753 L 363.635 265.308 L 368.831 255.802 L 374.376 264.908 L 384.173 261.533 L 382.034 272.539 L 390.122 277.464 L 382.548 281.603 L 385.458 292.466 L 374.502 289.53 L 369.607 298.487 L 364.665 290.373 L 353.787 293.491 L 356.528 282.505 Z" style="fill: rgb(251, 251, 251);"/>
  <path d="M 268.801 214.673 L 276.84 209.777 L 273.793 199.815 L 284.865 202.37 L 290.061 192.864 L 295.606 201.97 L 305.403 198.595 L 303.264 209.601 L 311.352 214.526 L 303.778 218.665 L 306.688 229.528 L 295.732 226.592 L 290.837 235.549 L 285.895 227.435 L 275.017 230.553 L 277.758 219.567 Z" style="fill: rgb(251, 251, 251);"/>
  <path d="M 286.937 128.572 L 294.976 123.676 L 291.929 113.714 L 303.001 116.269 L 308.197 106.763 L 313.742 115.869 L 323.539 112.494 L 321.4 123.5 L 329.488 128.425 L 321.914 132.564 L 324.824 143.427 L 313.868 140.491 L 308.973 149.448 L 304.031 141.334 L 293.153 144.452 L 295.894 133.466 Z" style="fill: rgb(251, 251, 251);"/>
  <path d="M 431.345 135.618 L 439.384 130.722 L 436.337 120.76 L 447.409 123.315 L 452.605 113.809 L 458.15 122.915 L 467.947 119.54 L 465.808 130.546 L 473.896 135.471 L 466.322 139.61 L 469.232 150.473 L 458.276 147.537 L 453.381 156.494 L 448.439 148.38 L 437.561 151.498 L 440.302 140.512 Z" style="fill: rgb(251, 251, 251);"/>
  <path d="M 325.956 24.293 L 333.995 19.397 L 330.948 9.435 L 342.02 11.99 L 347.216 2.484 L 352.761 11.59 L 362.558 8.215 L 360.419 19.221 L 368.507 24.146 L 360.933 28.285 L 363.843 39.148 L 352.887 36.212 L 347.992 45.169 L 343.05 37.055 L 332.172 40.173 L 334.913 29.187 Z" style="fill: rgb(251, 251, 251);"/>
  <path d="M 334.178 351.888 L 342.217 346.992 L 339.17 337.03 L 350.242 339.585 L 355.438 330.079 L 360.983 339.185 L 370.78 335.81 L 368.641 346.816 L 376.729 351.741 L 369.155 355.88 L 372.065 366.743 L 361.109 363.807 L 356.214 372.764 L 351.272 364.65 L 340.394 367.768 L 343.135 356.782 Z" style="fill: rgb(251, 251, 251);"/>
  <path d="M 114.287 475.286 L 122.326 470.39 L 119.279 460.428 L 130.351 462.983 L 135.547 453.477 L 141.092 462.583 L 150.889 459.208 L 148.75 470.214 L 156.838 475.139 L 149.264 479.278 L 152.174 490.141 L 141.218 487.205 L 136.323 496.162 L 131.381 488.048 L 120.503 491.166 L 123.244 480.18 Z" style="fill: rgb(251, 251, 251);"/>
  <path d="M 450.53 27.403 L 458.569 22.507 L 455.522 12.545 L 466.594 15.1 L 471.79 5.594 L 477.335 14.7 L 487.132 11.325 L 484.993 22.331 L 493.081 27.256 L 485.507 31.395 L 488.417 42.258 L 477.461 39.322 L 472.566 48.279 L 467.624 40.165 L 456.746 43.283 L 459.487 32.297 Z" style="fill: rgb(251, 251, 251);"/>
</svg>