<?xml version="1.0" encoding="utf-8"?>
<svg viewBox="0 0 500 500" xmlns="http://www.w3.org/2000/svg">
  <line style="stroke: rgb(229, 229, 229); stroke-linecap: round; stroke-width: 5px; stroke-dasharray: 4, 25;" x1="77.474" y1="213.632" x2="77.474" y2="467.271"/>
  <line style="stroke: rgb(229, 229, 229); stroke-linecap: round; stroke-width: 5px; stroke-dasharray: 4, 25;" x1="126.275" y1="237.474" x2="126.275" y2="491.113"/>
  <line style="stroke: rgb(229, 229, 229); stroke-linecap: round; stroke-width: 5px; stroke-dasharray: 4, 25;" x1="175.076" y1="220.404" x2="175.076" y2="474.043"/>
  <line style="stroke: rgb(229, 229, 229); stroke-linecap: round; stroke-width: 5px; stroke-dasharray: 4, 25;" x1="223.877" y1="213.404" x2="223.877" y2="467.042"/>
  <line style="stroke: rgb(229, 229, 229); stroke-linecap: round; stroke-width: 5px; stroke-dasharray: 4, 25;" x1="272.678" y1="236.076" x2="272.678" y2="489.716"/>
  <line style="stroke: rgb(229, 229, 229); stroke-linecap: round; stroke-width: 5px; stroke-dasharray: 4, 25;" x1="321.479" y1="226.281" x2="321.479" y2="479.922"/>
  <line style="stroke: rgb(229, 229, 229); stroke-linecap: round; stroke-width: 5px; stroke-dasharray: 4, 25;" x1="370.28" y1="198.645" x2="370.28" y2="452.284"/>
  <line style="stroke: rgb(229, 229, 229); stroke-linecap: round; stroke-width: 5px; stroke-dasharray: 4, 25;" x1="419.079" y1="222.731" x2="419.079" y2="476.372"/>
  <path d="M 146.421 213.128 C 129.452 213.128 113.521 209.363 99.725 202.762 C 93.796 203.914 87.485 204.536 80.939 204.536 C 46.429 204.536 18.453 187.264 18.453 165.957 C 18.453 151.289 31.711 138.533 51.231 132.008 C 51.47 87.587 93.996 51.641 146.421 51.641 C 148.65 51.641 150.861 51.706 153.051 51.833 C 166.694 40.917 184.495 34.311 203.966 34.311 C 209.14 34.311 214.197 34.777 219.087 35.667 C 231.865 19.411 252.263 8.887 275.244 8.887 C 310.346 8.887 339.419 33.437 344.523 65.471 C 350.813 64.127 357.579 63.396 364.625 63.396 C 398.045 63.396 425.137 79.836 425.137 100.116 C 425.137 106.059 422.811 111.673 418.679 116.64 C 456.364 126.147 481.546 143.375 481.546 163.05 C 481.546 193.004 423.174 217.287 351.17 217.287 C 332.778 217.287 315.276 215.703 299.409 212.844 C 284.855 223.643 257.936 230.891 227.135 230.891 C 196.309 230.891 169.371 223.631 154.827 212.817 C 152.057 213.023 149.253 213.128 146.421 213.128 Z" style="fill: rgb(198, 198, 198);"/>
</svg>