<?xml version="1.0" encoding="utf-8"?>
<svg viewBox="0 0 500 500" xmlns="http://www.w3.org/2000/svg" xmlns:bx="https://boxy-svg.com">
  <line style="stroke-linecap: round; stroke-dasharray: 1, 14; stroke-width: 8px; stroke: rgb(248, 248, 248);" x1="290.8" y1="265.868" x2="583.66" y2="265.868" transform="matrix(0, 1, -1, 0, 703.097992, -171.361969)"/>
  <line style="stroke-linecap: round; stroke-dasharray: 1, 14; stroke-width: 8px; stroke: rgb(248, 248, 248);" x1="260.028" y1="263.52" x2="552.888" y2="263.52" transform="matrix(0, 1, -1, 0, 669.977997, -142.938019)"/>
  <line style="stroke-linecap: round; stroke-dasharray: 1, 14; stroke-width: 8px; stroke: rgb(248, 248, 248);" x1="225.698" y1="261.894" x2="518.558" y2="261.894" transform="matrix(0, 1, -1, 0, 634.022003, -110.233978)"/>
  <g transform="matrix(0.28508, 0, 0, 0.28508, 155.7771, 17.792957)" style="opacity: 0.53;">
    <path d="M 318.027 285.809 L 336.793 326.389 L 367.719 294.101 L 372.292 338.576 L 412.025 318.079 L 401.91 361.628 L 446.146 355.144 L 422.438 393.049 L 466.383 401.279 L 431.652 429.433 L 470.543 451.486 L 428.552 466.837 L 458.176 500.323 L 413.476 501.208 L 430.621 542.498 L 388.056 528.821 L 390.866 573.442 L 355.047 546.684 L 343.216 589.8 L 318.027 552.862 L 292.838 589.8 L 281.007 546.684 L 245.188 573.442 L 247.998 528.821 L 205.433 542.498 L 222.578 501.208 L 177.878 500.323 L 207.502 466.837 L 165.511 451.486 L 204.402 429.433 L 169.671 401.279 L 213.616 393.049 L 189.908 355.144 L 234.144 361.628 L 224.029 318.079 L 263.762 338.576 L 268.335 294.101 L 299.261 326.389 Z" style="fill: rgb(255, 230, 0);" transform="matrix(-0.809017, 0.587785, -0.587785, -0.809017, 755.231211, 389.57177)" bx:shape="star 318.027 438.848 153.039 153.039 0.745 19 1@984eca1f"/>
    <circle style="fill: rgb(237, 213, 0);" cx="241.833" cy="221.856" r="97.661"/>
  </g>
  <line style="stroke-linecap: round; stroke-width: 12px; stroke-dasharray: 1, 22; stroke: rgb(248, 248, 248);" x1="27.13" y1="277.102" x2="368.245" y2="277.102" transform="matrix(0, 1, -1, 0, 474.789484, 79.414495)"/>
  <line style="stroke-linecap: round; stroke-width: 12px; stroke-dasharray: 1, 22; stroke: rgb(248, 248, 248);" x1="-13.982" y1="274.832" x2="327.133" y2="274.832" transform="matrix(0, 1, -1, 0, 431.407495, 118.256506)"/>
  <line style="stroke-linecap: round; stroke-width: 12px; stroke-dasharray: 1, 22; stroke: rgb(248, 248, 248);" x1="-55.102" y1="273.575" x2="286.014" y2="273.575" transform="matrix(0, 1, -1, 0, 389.03101, 158.119015)"/>
  <line style="stroke-linecap: round; stroke-width: 12px; stroke-dasharray: 1, 22; stroke: rgb(248, 248, 248);" x1="-96.22" y1="271.306" x2="244.894" y2="271.306" transform="matrix(0, 1, -1, 0, 345.643005, 196.968994)"/>
  <path d="M 94.302 106.894 C 65.03 106.894 41.301 95.571 41.301 81.602 C 41.301 68.16 63.278 57.166 91.022 56.359 C 99.021 50.658 111.874 46.963 126.368 46.963 C 135.641 46.963 144.243 48.476 151.332 51.058 C 157.01 46.301 165.292 43.304 174.513 43.304 C 190.456 43.304 203.59 52.263 205.32 63.786 C 206.58 63.673 207.867 63.616 209.175 63.616 C 224.185 63.616 236.353 71.213 236.353 80.586 C 236.353 89.958 224.185 97.556 209.175 97.556 C 207.625 97.556 206.105 97.475 204.626 97.318 C 201.14 106.49 182.307 113.497 159.599 113.497 C 142.598 113.497 127.77 109.57 119.926 103.747 C 112.332 105.753 103.597 106.894 94.302 106.894 Z" style="fill: rgb(216, 216, 216);"/>
  <path d="M 404.136 144.229 C 399.306 144.229 394.865 141.947 391.357 138.13 C 388.044 138.766 384.464 139.113 380.729 139.113 C 363.704 139.113 349.902 131.898 349.902 122.997 C 349.902 117.901 354.425 113.358 361.488 110.405 C 361.306 109.812 361.213 109.203 361.213 108.583 C 361.213 102.121 371.454 96.882 384.088 96.882 C 385.772 96.882 387.416 96.976 388.996 97.151 C 392.751 91.552 398.144 88.041 404.136 88.041 C 411.363 88.041 417.72 93.148 421.38 100.867 C 423.4 100.237 425.629 99.889 427.973 99.889 C 437.124 99.889 444.542 105.214 444.542 111.783 C 444.542 112.314 444.494 112.837 444.4 113.349 C 452.86 115.035 458.7 118.623 458.7 122.776 C 458.7 125.775 455.652 128.481 450.77 130.388 C 451.743 131.252 452.27 132.179 452.27 133.141 C 452.27 137.9 439.39 141.758 423.499 141.758 C 419.948 141.758 416.545 141.565 413.405 141.213 C 410.621 143.142 407.471 144.229 404.136 144.229 Z" style="fill: rgb(216, 216, 216);"/>
  <line style="stroke-width: 4px; stroke-linecap: round; stroke-dasharray: 1, 14; stroke: rgb(248, 248, 248);" x1="132.518" y1="263.884" x2="373.693" y2="263.884" transform="matrix(0, 1, -1, 0, 516.989502, 10.778503)"/>
  <line style="stroke-width: 4px; stroke-linecap: round; stroke-dasharray: 1, 14; stroke: rgb(248, 248, 248);" x1="151.051" y1="267.251" x2="392.227" y2="267.251" transform="matrix(0, 1, -1, 0, 538.889999, -4.387985)"/>
  <line style="stroke-width: 4px; stroke-linecap: round; stroke-dasharray: 1, 14; stroke: rgb(248, 248, 248);" x1="169.12" y1="263.068" x2="410.296" y2="263.068" transform="matrix(0, 1, -1, 0, 552.775986, -26.639999)"/>
  <line style="stroke-width: 4px; stroke-linecap: round; stroke-dasharray: 1, 14; stroke: rgb(248, 248, 248);" x1="188.149" y1="268.879" x2="429.325" y2="268.879" transform="matrix(0, 1, -1, 0, 577.616005, -39.858009)"/>
  <path d="M 268.139 153.398 C 246.804 153.398 229.508 149.639 229.508 145.003 C 229.508 141.876 237.377 139.148 249.046 137.703 C 249.336 134.177 258.49 131.346 269.739 131.346 C 271.758 131.346 273.709 131.437 275.554 131.607 C 278.1 128.537 284.191 126.376 291.3 126.376 C 300.699 126.376 308.319 130.154 308.319 134.815 C 308.319 135.091 308.292 135.364 308.24 135.634 C 311.135 134.397 315.072 133.637 319.41 133.637 C 328.3 133.637 335.507 136.83 335.507 140.769 C 335.507 143.371 332.362 145.648 327.665 146.893 C 327.667 146.952 327.668 147.011 327.668 147.07 C 327.668 151.853 320.111 155.73 310.789 155.73 C 304.145 155.73 298.398 153.761 295.644 150.898 C 288.639 152.441 278.903 153.398 268.139 153.398 Z" style="fill: rgb(216, 216, 216);"/>
</svg>